<svg width="139" height="124" viewBox="0 0 139 124" fill="none" xmlns="http://www.w3.org/2000/svg">
<path opacity="0.2" fill-rule="evenodd" clip-rule="evenodd" d="M99.5519 122.453C97.922 123.407 95.9023 123.4 94.2793 122.434L57.955 100.821L100.045 76.1826L135.224 97.1147C136.921 98.1243 136.912 100.584 135.208 101.582L99.5519 122.453Z" fill="url(#paint0_linear_14807_39287)"/>
<path d="M63.4034 6.43517L25.9005 28.1131C24.6979 28.8083 23.9572 30.092 23.9572 31.4811V78.0832C23.9572 79.4731 24.6987 80.7574 25.9024 81.4523L63.4548 103.131C64.6597 103.827 66.1444 103.826 67.3485 103.129L104.802 81.4521C106.003 80.7566 106.743 79.4735 106.743 78.0851V31.4811C106.743 30.092 106.003 28.8083 104.8 28.1131L67.297 6.43517C66.0925 5.73892 64.6079 5.73892 63.4034 6.43517Z" fill="#FFFCF6" stroke="#231F20" stroke-width="2.59346" stroke-linejoin="round"/>
<mask id="mask0_14807_39287" style="mask-type:alpha" maskUnits="userSpaceOnUse" x="25" y="7" width="81" height="96">
<path d="M66.6481 7.55784C65.8451 7.09367 64.8553 7.09367 64.0523 7.55784L26.5495 29.2358C25.7477 29.6992 25.2539 30.555 25.2539 31.4811V78.0832C25.2539 79.0098 25.7483 79.866 26.5507 80.3293L64.1032 102.008C64.9064 102.472 65.8962 102.471 66.6989 102.007L104.152 80.3298C104.953 79.8661 105.447 79.0107 105.447 78.0851V31.4811C105.447 30.555 104.953 29.6992 104.151 29.2358L66.6481 7.55784Z" fill="#D9D9D9"/>
</mask>
<g mask="url(#mask0_14807_39287)">
<path fill-rule="evenodd" clip-rule="evenodd" d="M25.2539 29.9867L65.3502 53.1658L105.446 29.9867L65.3502 6.80762L25.2539 29.9867Z" fill="#FFFCF6"/>
<path fill-rule="evenodd" clip-rule="evenodd" d="M66.6461 52.4175C65.8444 52.8809 65.3506 53.7367 65.3506 54.6628V102.766L105.447 79.5873V29.9873L66.6461 52.4175Z" fill="#8A816C"/>
<path d="M25.2539 29.9873L64.0547 52.4175C64.8564 52.8809 65.3502 53.7367 65.3502 54.6628V102.766L25.2539 79.5873V67.1873V54.7873V29.9873Z" fill="#FBF7EC"/>
</g>
<path d="M39.55 47.6547L50.5723 54.0324C50.5723 57.5547 48.1049 58.9824 45.0611 57.2212C42.0174 55.4601 39.55 51.177 39.55 47.6547Z" fill="#231F20"/>
<path d="M101.469 76.6236C101.469 74.7824 100.163 74.0361 98.5514 74.9567C96.9401 75.8773 95.6338 78.1161 95.6338 79.9573C95.6338 81.7985 96.9401 82.5448 98.5514 81.6242C100.163 80.7036 101.469 78.4648 101.469 76.6236Z" fill="#231F20"/>
<path d="M77.804 72.4087C77.804 70.5675 76.4978 69.8212 74.8864 70.7418C73.275 71.6624 71.9688 73.9013 71.9688 75.7425C71.9688 77.5837 73.275 78.33 74.8864 77.4094C76.4978 76.4888 77.804 74.2499 77.804 72.4087Z" fill="#231F20"/>
<path d="M93.3646 52.6333C93.3646 50.7921 92.0583 50.0458 90.447 50.9664C88.8356 51.887 87.5293 54.1259 87.5293 55.9671C87.5293 57.8083 88.8356 58.5546 90.447 57.634C92.0583 56.7134 93.3646 54.4745 93.3646 52.6333Z" fill="#231F20"/>
<path d="M64.055 2.09416L23.6339 25.459C22.4313 26.1542 21.6906 27.4379 21.6906 28.827V33.9171C21.6906 35.307 22.4321 36.5913 23.6358 37.2862L63.5602 60.3344C64.7651 61.03 66.2497 61.0291 67.4538 60.3322L107.273 37.2859C108.475 36.5905 109.214 35.3074 109.214 33.919V28.378C109.214 27.3701 108.823 26.4015 108.123 25.6763L88.259 5.09531C87.6372 4.45111 86.8123 4.0411 85.9233 3.93444L66.4653 1.59968C65.6296 1.4994 64.7838 1.67291 64.055 2.09416Z" fill="#FFFCF6" stroke="#231F20" stroke-width="2.59346" stroke-linejoin="round"/>
<mask id="mask1_14807_39287" style="mask-type:alpha" maskUnits="userSpaceOnUse" x="22" y="2" width="86" height="58">
<path d="M66.7494 3.34202C65.9464 2.87785 64.9566 2.87785 64.1536 3.34202L24.2819 26.3893C23.4801 26.8527 22.9863 27.7085 22.9863 28.6346V33.9162C22.9863 34.8428 23.4807 35.699 24.2832 36.1623L64.2075 59.2105C65.0108 59.6742 66.0005 59.6737 66.8033 59.2091L106.622 36.1628C107.423 35.6991 107.917 34.8437 107.917 33.9182V28.6346C107.917 27.7085 107.423 26.8527 106.621 26.3893L66.7494 3.34202Z" fill="#D9D9D9"/>
</mask>
<g mask="url(#mask1_14807_39287)">
<path fill-rule="evenodd" clip-rule="evenodd" d="M22.9863 27.3317L65.4515 51.8802L107.917 27.3317L65.4515 2.7832L22.9863 27.3317Z" fill="#FFFCF6"/>
<path fill-rule="evenodd" clip-rule="evenodd" d="M66.7467 51.1316C65.9449 51.5951 65.4512 52.4509 65.4512 53.3769V59.9688L107.916 35.4203V27.332L66.7467 51.1316Z" fill="#C1B8A3"/>
<path d="M22.9863 27.332L64.156 51.1316C64.9577 51.5951 65.4515 52.4509 65.4515 53.3769V59.9688L22.9863 35.4203V27.332Z" fill="#F8EFDA"/>
</g>
<path fill-rule="evenodd" clip-rule="evenodd" d="M46.8454 29.2223C46.09 29.6557 45.968 30.6956 46.6025 31.292L64.8637 48.4554C65.2791 48.8459 65.9008 48.9192 66.3957 48.6361L103.13 27.6211C103.861 27.2029 104.005 26.2094 103.424 25.6001L86.3383 7.70379C85.9262 7.27214 85.2728 7.17747 84.7551 7.47443L46.8454 29.2223Z" fill="#F8EFDA"/>
<path d="M24.6064 38.9023L25.7321 51.7424C25.8426 53.0025 26.5589 54.1303 27.6526 54.7659L63.6502 75.6893C64.8645 76.3951 66.365 76.3915 67.5759 75.68L103.165 54.7683C104.25 54.1307 104.96 53.0077 105.07 51.754L106.197 38.9023" stroke="#231F20" stroke-width="2.59346" stroke-linejoin="round"/>
<path d="M24.6064 50.5732L25.7532 65.6522C25.8503 66.9293 26.5699 68.0768 27.6773 68.7205L63.6502 89.6295C64.8645 90.3353 66.365 90.3317 67.5759 89.6202L103.141 68.7229C104.24 68.0773 104.952 66.9345 105.049 65.6638L106.197 50.5732" stroke="#231F20" stroke-width="2.59346" stroke-linejoin="round"/>
<mask id="mask2_14807_39287" style="mask-type:alpha" maskUnits="userSpaceOnUse" x="3" y="67" width="69" height="45">
<path d="M71.1575 95.3104L23.0164 67.4307L3.24121 87.8542L41.9811 111.52L71.1575 95.3104Z" fill="#D9D9D9"/>
</mask>
<g mask="url(#mask2_14807_39287)">
<path d="M40.9691 66.2532L18.6644 79.1461C17.6721 79.7197 17.0609 80.779 17.0609 81.9252V84.1083C17.0609 85.2552 17.6727 86.3149 18.666 86.8883L41.0006 99.782C41.9948 100.356 43.2198 100.355 44.2134 99.7802L66.4882 86.8881C67.4797 86.3142 68.0902 85.2555 68.0902 84.1099V81.9252C68.0902 80.779 67.479 79.7197 66.4867 79.1461L44.1819 66.2532C43.188 65.6787 41.963 65.6787 40.9691 66.2532Z" fill="#FFFCF6" stroke="#231F20" stroke-width="2.13996" stroke-linejoin="round"/>
<mask id="mask3_14807_39287" style="mask-type:alpha" maskUnits="userSpaceOnUse" x="18" y="66" width="50" height="34">
<path d="M43.6474 67.0702C42.9848 66.6872 42.1682 66.6872 41.5056 67.0702L19.2009 79.9631C18.5393 80.3455 18.1318 81.0517 18.1318 81.8158V84.1092C18.1318 84.8738 18.5397 85.5802 19.2019 85.9625L41.5365 98.8562C42.1993 99.2388 43.016 99.2384 43.6783 98.855L65.9532 85.9629C66.6142 85.5803 67.0212 84.8745 67.0212 84.1108V81.8158C67.0212 81.0517 66.6137 80.3455 65.9522 79.9631L43.6474 67.0702Z" fill="#D9D9D9"/>
</mask>
<g mask="url(#mask3_14807_39287)">
<path fill-rule="evenodd" clip-rule="evenodd" d="M18.1318 80.6933L42.5765 94.8244L57.6707 86.0432L33.2261 71.9121L18.1318 80.6933Z" fill="#FFFCF6"/>
<path fill-rule="evenodd" clip-rule="evenodd" d="M21.8315 80.2619C21.4794 80.4687 21.4794 80.9778 21.8315 81.1845L40.8158 92.3324C41.9029 92.9707 43.2504 92.9707 44.3375 92.3324L63.3218 81.1845C63.6739 80.9778 63.6739 80.4687 63.3218 80.2619L44.3375 69.1141C43.2504 68.4757 41.9029 68.4757 40.8158 69.1141L21.8315 80.2619Z" fill="#FBF7EC"/>
<path fill-rule="evenodd" clip-rule="evenodd" d="M43.6451 94.2065C42.9836 94.5889 42.5762 95.2951 42.5762 96.0592V99.4804L67.0208 85.3493V80.6934L43.6451 94.2065Z" fill="#8A816C"/>
<path d="M18.1318 80.6934L41.5075 94.2065C42.1691 94.5889 42.5765 95.2951 42.5765 96.0592V99.4804L18.1318 85.3493V80.6934Z" fill="#F8EFDA"/>
</g>
</g>
<path d="M33.5531 73.4271L54.7871 85.7461L50.3252 84.6674C43.6782 83.0604 37.8069 79.1697 33.7364 73.6746L33.5531 73.4271Z" fill="#231F20"/>
<path d="M37.6057 60.6752L48.6279 67.0529C48.6279 70.5752 46.1605 72.0029 43.1168 70.2417C40.0731 68.4806 37.6057 64.1975 37.6057 60.6752Z" fill="#231F20"/>
<circle cx="38.9022" cy="28.8524" r="1.62091" fill="#231F20"/>
<circle cx="55.1111" cy="77.4793" r="1.62091" fill="#231F20"/>
<circle cx="38.9022" cy="87.2049" r="1.62091" fill="#231F20"/>
<circle cx="35.9842" cy="8.42853" r="1.62091" fill="#231F20"/>
<circle cx="9.40119" cy="69.3748" r="1.62091" fill="#231F20"/>
<path d="M30.8829 77.7285C31.085 77.7143 31.2905 77.7593 31.4882 77.8471C31.5133 77.8582 31.5459 77.8879 31.571 77.8587C31.5904 77.8362 31.5636 77.8071 31.5541 77.7826C31.3762 77.318 31.3558 76.8437 31.4839 76.3663C31.5661 76.0607 31.7174 75.793 32.0012 75.6253C32.2873 75.4564 32.603 75.5266 32.7931 75.8208C32.9002 75.9866 32.9429 76.1722 32.954 76.3681C32.9567 76.4158 32.9276 76.4867 32.9814 76.5077C33.0236 76.5242 33.059 76.4622 33.0953 76.4323C33.2808 76.2799 33.4893 76.1836 33.7317 76.1745C34.0134 76.164 34.2122 76.3341 34.2435 76.6152C34.2744 76.8913 34.1726 77.134 34.0414 77.3674C34.0245 77.3973 34.0033 77.4246 33.985 77.4534C33.9689 77.4788 33.9382 77.5038 33.9562 77.5355C33.9724 77.5648 34.0062 77.5442 34.032 77.5446C34.1599 77.5462 34.2737 77.6213 34.2943 77.7188C34.3207 77.8432 34.222 77.9721 34.0927 77.976C34.0223 77.9781 33.9527 77.9651 33.8822 77.9535C33.7224 77.9275 33.5729 77.9807 33.4462 78.0791C33.3698 78.1385 33.3054 78.214 33.239 78.2855C33.2069 78.3202 33.1807 78.3546 33.2607 78.3756C33.3758 78.4059 33.4681 78.48 33.5364 78.5761C33.5663 78.6181 33.5873 78.6144 33.6182 78.5887C33.8569 78.3888 34.1419 78.3664 34.4348 78.3748C34.4912 78.3765 34.5421 78.402 34.5864 78.434C34.6644 78.4903 34.7095 78.5654 34.6784 78.6652C34.6484 78.7617 34.5736 78.7965 34.4787 78.792C34.3071 78.7839 34.1384 78.7747 33.9753 78.8547C33.8433 78.9194 33.8071 78.957 33.805 79.1028C33.8013 79.3568 33.729 79.5872 33.5766 79.7928C33.4466 79.9682 33.2747 80.0373 33.064 80.0008C32.9793 79.9862 32.9727 80.0076 32.9742 80.0862C32.9806 80.4339 32.8329 80.7079 32.5555 80.9137C32.5446 80.922 32.5332 80.9304 32.5207 80.9356C32.4395 80.9698 32.3569 80.9962 32.2859 80.9181C32.2323 80.8591 32.2441 80.7527 32.3159 80.6772C32.4362 80.551 32.5365 80.4149 32.574 80.24C32.6035 80.1023 32.5946 80.1114 32.4597 80.1258C32.2583 80.1472 32.1629 80.2547 32.0777 80.4289C31.9292 80.7321 31.6666 80.9088 31.3362 80.9816C31.3261 80.9839 31.3162 80.9865 31.3062 80.988C31.1793 81.007 31.0819 80.9614 31.0609 80.8733C31.038 80.7778 31.1031 80.6871 31.224 80.6459C31.4462 80.5698 31.62 80.4312 31.7492 80.2357C31.7932 80.1691 31.7107 79.9755 31.6322 79.9618C31.5996 79.9563 31.5852 79.9847 31.5694 80.0064C31.4357 80.1872 31.2623 80.3035 31.0401 80.351C30.5347 80.4592 30.0692 80.3741 29.6651 80.0474C29.4052 79.8373 29.231 79.5616 29.15 79.2316C29.1313 79.1553 29.1366 79.0749 29.1595 79.0095C29.3346 78.5095 29.6443 78.1203 30.1281 77.8861C30.3608 77.7735 30.6113 77.7343 30.8829 77.7289V77.7285ZM33.1429 79.2182C33.1303 79.1127 33.1567 79.0056 33.1284 78.9002C33.1109 78.8351 33.0763 78.7747 33.0115 78.7728C32.9427 78.7707 32.9134 78.838 32.8978 78.9C32.863 79.0382 32.8578 79.1776 32.8854 79.3178C32.9217 79.4212 32.9604 79.5238 33.0596 79.5853C33.1076 79.615 33.1591 79.6342 33.209 79.5869C33.2567 79.542 33.2712 79.4867 33.2374 79.4304C33.1968 79.3632 33.1709 79.2906 33.1429 79.2182ZM32.4208 78.8105C32.4716 78.681 32.5425 78.5645 32.6484 78.4728C32.7132 78.4163 32.6926 78.3985 32.6208 78.3787C32.2276 78.2711 31.7405 78.5707 31.6651 78.9714C31.659 79.0048 31.6462 79.0423 31.6736 79.0819C31.7205 79.0444 31.7545 78.9986 31.8101 78.9858C31.875 78.9852 31.9401 78.9815 32.005 78.9846C32.1318 78.9906 32.1858 79.0427 32.1907 79.1689C32.1951 79.2751 32.1911 79.3818 32.1918 79.4882C32.193 79.7542 32.222 79.7754 32.4834 79.7037C32.49 79.7018 32.4968 79.7004 32.5034 79.6991C32.5588 79.6882 32.5584 79.6593 32.5314 79.6183C32.3666 79.3667 32.3378 79.0962 32.4208 78.8103V78.8105ZM30.1957 78.8668C30.2614 78.6472 30.3666 78.446 30.4865 78.2484C30.2226 78.3117 30.0105 78.4385 29.8845 78.6837C29.7778 78.8604 29.7765 79.0611 29.7475 79.257C29.7117 79.4993 29.8538 79.6321 30.0253 79.7503C30.0951 79.7983 30.1227 79.7808 30.1168 79.6923C30.098 79.4125 30.1283 79.138 30.1957 78.8668ZM31.2007 79.0308C31.2365 78.8695 31.2983 78.7196 31.3809 78.5757C31.4163 78.5138 31.5261 78.4691 31.4775 78.3886C31.4409 78.3278 31.3523 78.2985 31.2779 78.2709C31.2652 78.2661 31.2505 78.2643 31.2396 78.2569C31.1566 78.2018 31.0996 78.2385 31.0508 78.3084C30.9142 78.5039 30.8158 78.7159 30.7705 78.951C30.6741 79.2376 30.6753 79.5286 30.7287 79.8229C30.7439 79.9076 30.7865 79.9371 30.8714 79.9264C30.9758 79.9132 31.0701 79.8775 31.1593 79.8247C31.2015 79.7998 31.224 79.7662 31.2096 79.7136C31.1476 79.4867 31.1704 79.2587 31.2007 79.0306V79.0308ZM31.8645 76.9142C31.8777 77.2439 31.9489 77.5759 32.02 77.9077C32.0272 77.9413 32.012 78.0148 32.0721 77.9966C32.1399 77.9762 32.2537 78.0201 32.27 77.9121C32.3102 77.6462 32.3604 77.3829 32.415 77.1198C32.4441 76.9802 32.4589 76.8373 32.477 76.6956C32.5005 76.5119 32.527 76.3273 32.4698 76.1448C32.4214 75.9901 32.2958 75.9499 32.1666 76.0485C32.1318 76.0751 32.1022 76.1099 32.0746 76.1446C31.8972 76.3673 31.8742 76.6333 31.8643 76.9142H31.8645ZM33.6678 76.6172C33.5204 76.6395 33.3853 76.7253 33.2778 76.8498C33.0145 77.1548 32.8228 77.5005 32.7139 77.89C32.7044 77.9242 32.6743 77.9657 32.7182 77.9915C32.7555 78.0133 32.7888 77.984 32.8187 77.9593C33.0576 77.7609 33.2854 77.5502 33.5004 77.3266C33.6415 77.18 33.7539 77.0107 33.8161 76.8135C33.855 76.6904 33.8052 76.6168 33.6676 76.6172H33.6678Z" fill="#231F20"/>
<path d="M31.2007 79.0308C31.1704 79.2588 31.1474 79.4869 31.2096 79.7138C31.224 79.7663 31.2015 79.7997 31.1593 79.8249C31.0701 79.8777 30.9756 79.9134 30.8714 79.9266C30.7863 79.9373 30.7439 79.9078 30.7287 79.8231C30.6753 79.5288 30.6741 79.2378 30.7705 78.9512C30.9099 78.9988 31.057 79.0062 31.2007 79.031V79.0308Z" fill="#D69B04"/>
<path d="M30.1959 78.8669C30.1288 79.1381 30.0985 79.4128 30.117 79.6924C30.123 79.7807 30.0954 79.7984 30.0256 79.7503C29.854 79.6322 29.7119 79.4994 29.7478 79.2571C29.7768 79.0612 29.778 78.8603 29.8847 78.6836C29.915 78.8143 30.0027 78.8659 30.1959 78.8667V78.8669Z" fill="#D69B04"/>
<path d="M32.4202 78.8106C32.3374 79.0965 32.3661 79.367 32.5308 79.6186C32.5578 79.6596 32.5582 79.6885 32.5028 79.6994C32.496 79.7007 32.4894 79.7023 32.4828 79.704C32.2217 79.7757 32.1926 79.7543 32.1912 79.4885C32.1908 79.3821 32.1945 79.2755 32.1902 79.1693C32.1852 79.0431 32.1311 78.9907 32.0044 78.9849C31.9395 78.9818 31.8744 78.9855 31.8096 78.9861C31.8431 78.9016 31.9016 78.8358 31.9721 78.7816C32.1467 78.6473 32.3123 78.6593 32.4204 78.8109L32.4202 78.8106Z" fill="#D69B04"/>
<path d="M32.8857 79.3184C32.9523 79.3132 33.0188 79.3049 33.0855 79.3035C33.149 79.3021 33.1389 79.2569 33.1432 79.2188C33.1712 79.2911 33.1971 79.3637 33.2377 79.4309C33.2717 79.4872 33.2571 79.5425 33.2093 79.5875C33.1592 79.6345 33.108 79.6155 33.06 79.5858C32.9607 79.5244 32.922 79.4219 32.8857 79.3184Z" fill="#D69B04"/>
<circle cx="1.62091" cy="39.5506" r="1.62091" fill="#231F20"/>
<circle cx="112.815" cy="17.1815" r="1.62091" fill="#231F20"/>
<path d="M81.4246 25.5487C81.7477 25.5588 82.068 25.593 82.3821 25.6724C82.4385 25.6866 82.4943 25.7044 82.5491 25.7238C82.8339 25.8246 83.0259 26.1506 82.7235 26.4614C82.5334 26.6567 82.3056 26.787 82.0599 26.8934C81.7788 27.0153 81.4796 27.0838 81.1828 27.1388C80.7808 27.2135 80.3689 27.2013 79.9598 27.1827C79.8128 27.1761 79.6618 27.1895 79.5199 27.1596C79.363 27.1264 79.2025 27.1147 79.0477 27.0726C79.0279 27.0673 79.0075 27.0609 78.9873 27.0611C78.9439 27.0615 78.8854 27.0361 78.8611 27.0767C78.8333 27.1231 78.8955 27.15 78.9179 27.1854C79.217 27.6583 79.3432 28.1676 79.2602 28.7275C79.2106 29.0624 79.0806 29.3631 78.8965 29.6398C78.803 29.7802 78.6786 29.8984 78.5418 30.0023C78.2694 30.2096 77.9711 30.2556 77.6387 30.1912C77.1224 30.0912 76.7505 29.7811 76.4269 29.3946C76.1392 29.0509 75.9466 28.6613 75.8852 28.2126C75.8838 28.2025 75.8785 28.1916 75.8805 28.1823C75.9275 27.9812 75.8128 27.9127 75.6422 27.8903C75.5382 27.8765 75.4507 27.8261 75.3667 27.7676C75.3154 27.7319 75.274 27.7302 75.2258 27.7824C75.1018 27.9165 75.0631 28.0777 75.066 28.252C75.0691 28.4297 75.1185 28.5961 75.2009 28.7545C75.2715 28.8902 75.2145 29.0174 75.0767 29.0525C74.9898 29.0746 74.9331 29.023 74.8781 28.9713C74.6928 28.796 74.6384 28.5656 74.6341 28.3254C74.6277 27.9868 74.693 27.6661 74.944 27.4125C74.9749 27.3813 74.9751 27.3479 74.9634 27.3096C74.9434 27.2436 74.9008 27.186 74.8981 27.113C74.8965 27.0683 74.8555 27.0807 74.8258 27.0782C74.3424 27.0367 74.1093 26.634 74.1476 26.3127C74.1678 26.1436 74.2248 25.9861 74.3011 25.8347C74.4448 25.5497 74.6506 25.3175 74.9119 25.1375C74.9848 25.0872 74.9896 25.0393 74.9663 24.9655C74.8849 24.7069 74.6802 24.5723 74.4598 24.4535C74.4063 24.4246 74.3466 24.4073 74.2908 24.3823C74.2073 24.3452 74.1676 24.2536 74.1915 24.1293C74.2075 24.0456 74.2681 23.9981 74.3542 23.9946C74.5776 23.986 74.7612 24.0879 74.9377 24.2091C75.1974 24.3873 75.3426 24.6401 75.4122 24.9408C75.4274 25.007 75.4556 25.0298 75.5236 25.029C75.7131 25.0261 75.89 25.0744 76.0502 25.1783C76.0788 25.1969 76.1101 25.2222 76.1307 25.1692C76.2277 24.9195 76.3392 24.6716 76.2836 24.3931C76.2348 24.1483 76.1336 23.9421 75.8809 23.8402C75.7512 23.7878 75.6997 23.6781 75.7153 23.5463C75.7232 23.4795 75.7606 23.4377 75.8237 23.4181C75.9825 23.369 76.1141 23.4379 76.2352 23.5245C76.7754 23.9105 76.8804 24.5341 76.6158 25.1247C76.5717 25.2233 76.6044 25.2604 76.6833 25.2936C76.7144 25.3068 76.7476 25.3152 76.7779 25.3301C76.8378 25.3596 76.872 25.3264 76.887 25.2781C76.9541 25.0626 77.0849 24.8805 77.1984 24.6912C77.3665 24.411 77.5374 24.1305 77.7491 23.88C78.0616 23.5102 78.3548 23.1234 78.7206 22.8011C79.0147 22.5421 79.3393 22.3264 79.6948 22.1692C79.9104 22.0739 80.1475 22.0197 80.3942 22.0546C80.6578 22.0919 80.7659 22.2432 80.8533 22.4851C80.9554 22.7681 80.8988 23.0448 80.8059 23.3174C80.7954 23.3486 80.7801 23.3762 80.8059 23.4018C80.8321 23.4278 80.8524 23.3956 80.8759 23.3886C81.2234 23.283 81.5733 23.1857 81.9421 23.2323C82.3732 23.2867 82.5404 23.6109 82.4241 23.9984C82.3798 24.1462 82.3077 24.2786 82.2362 24.4139C82.1172 24.6393 81.9432 24.8195 81.7665 24.9927C81.6089 25.1474 81.4176 25.2676 81.2415 25.4031C81.1964 25.4379 81.1189 25.4734 81.1377 25.5274C81.1546 25.5765 81.2367 25.5439 81.2901 25.5472C81.3346 25.5499 81.3793 25.5479 81.4238 25.5479L81.4246 25.5487ZM75.28 26.35C75.4048 26.2465 75.4847 26.1121 75.5349 25.9611C75.5714 25.8516 75.5337 25.7502 75.4556 25.7079C75.3689 25.6609 75.2888 25.6823 75.2025 25.7759C75.1067 25.8797 75.0382 26.0028 74.9587 26.118C74.8835 26.2148 74.79 26.2845 74.6728 26.3234C74.5781 26.355 74.5581 26.4251 74.619 26.5045C74.6794 26.5831 74.7655 26.608 74.8575 26.5948C75.0295 26.5703 75.1716 26.4878 75.28 26.35ZM77.5508 27.7243C77.4268 27.8202 77.3055 27.9204 77.1679 27.9969C76.9439 28.1214 76.7041 28.1969 76.4498 28.2295C76.4172 28.2336 76.3647 28.2196 76.3556 28.2703C76.3379 28.3705 76.4537 28.5211 76.5565 28.5378C76.6786 28.5578 76.8013 28.5654 76.9249 28.558C77.3352 28.5335 77.6805 28.3559 77.9924 28.1002C78.0669 28.0503 78.0988 27.9589 78.1575 27.9051C78.3077 27.7674 78.3647 27.5906 78.4222 27.41C78.4444 27.3399 78.4226 27.2753 78.3769 27.2178C78.2875 27.105 78.1928 26.9971 78.0918 26.8945C78.0445 26.8462 78.0198 26.8499 78.0099 26.9198C77.9781 27.1434 77.8748 27.3347 77.739 27.51C77.681 27.5851 77.6138 27.6529 77.5508 27.7239V27.7243ZM78.6108 28.9933C78.8456 28.7215 78.8417 28.4153 78.7398 28.0952C78.7291 28.0614 78.7058 28.0132 78.678 28.0728C78.5863 28.2695 78.4282 28.411 78.2898 28.5693C78.265 28.5605 78.2521 28.5805 78.237 28.5924C77.9065 28.8568 77.5362 29.0273 77.1125 29.0727C77.0273 29.0818 76.9416 29.0865 76.8567 29.097C76.8265 29.1008 76.7873 29.1125 76.8293 29.1546C76.9366 29.262 77.0491 29.3699 77.1992 29.4062C77.7465 29.5388 78.2144 29.3851 78.6108 28.9933ZM76.8427 27.1714C76.8403 27.2116 76.7886 27.2419 76.8304 27.2927C76.8985 27.3751 76.9476 27.3817 77.0163 27.2974C77.4559 26.7586 77.3418 25.8803 76.4327 25.6233C76.4168 25.6188 76.3987 25.6198 76.382 25.6213C76.3433 25.6244 76.3161 25.6339 76.3336 25.685C76.3575 25.7543 76.3441 25.8273 76.3468 25.8988C76.304 26.3267 76.0951 26.6515 75.7396 26.8881C75.6257 26.9639 75.4958 26.9943 75.3697 27.0372C75.329 27.051 75.2954 27.0666 75.3356 27.1151C75.4766 27.2858 75.6247 27.3795 75.87 27.2166C75.98 27.1434 76.0778 27.0487 76.1701 26.953C76.304 26.8138 76.5181 26.7757 76.6874 26.8635C76.8176 26.9312 76.8411 27.0438 76.8429 27.1716L76.8427 27.1714ZM77.5912 26.0032C77.8842 25.9714 78.1742 25.924 78.4609 25.8578C79.0823 25.7145 79.7071 25.5881 80.2992 25.3367C80.8051 25.122 81.2608 24.8424 81.634 24.4341C81.763 24.293 81.8682 24.1384 81.9448 23.9643C82.0192 23.7954 81.9784 23.7247 81.7947 23.6942C81.7129 23.6806 81.6309 23.6859 81.5488 23.6965C81.2209 23.7383 80.9148 23.8554 80.6257 24.0041C80.0064 24.3223 79.412 24.6836 78.8314 25.0694C78.4001 25.3559 78.0027 25.6852 77.5912 26.0034V26.0032ZM80.4479 22.872C80.4589 22.5629 80.3569 22.4752 80.1042 22.5251C79.9648 22.5526 79.8338 22.6043 79.7133 22.678C79.192 22.9968 78.7529 23.4065 78.3721 23.8839C78.1713 24.1355 77.9633 24.3801 77.7889 24.6525C77.6243 24.9096 77.4528 25.162 77.3137 25.4344C77.2876 25.4858 77.2392 25.5487 77.2925 25.5936C77.3531 25.6446 77.3972 25.5658 77.4346 25.533C77.633 25.3594 77.8414 25.1987 78.0527 25.0418C78.694 24.5657 79.3467 24.1068 80.0665 23.7536C80.1164 23.729 80.1438 23.688 80.1678 23.6418C80.1946 23.59 80.2228 23.5391 80.2488 23.4869C80.353 23.2764 80.4317 23.058 80.4479 22.872ZM78.2401 26.4189C78.2552 26.4282 78.2681 26.4397 78.2832 26.4453C78.4397 26.5043 78.6053 26.5208 78.7682 26.5507C79.4627 26.6787 80.1604 26.7348 80.866 26.6719C81.3494 26.6288 81.8138 26.5214 82.2399 26.2805C82.2869 26.2539 82.3711 26.2385 82.3575 26.1715C82.3456 26.1127 82.2643 26.1131 82.2093 26.0995C81.9065 26.024 81.597 26.0327 81.2889 26.0298C80.6127 26.0234 79.9374 26.0374 79.2757 26.1989C79.0067 26.2645 78.7356 26.3154 78.4621 26.355C78.3861 26.3661 78.3062 26.3618 78.2401 26.4187V26.4189Z" fill="#231F20"/>
<path d="M76.8428 27.1714C76.8409 27.0436 76.8174 26.9308 76.6873 26.8633C76.518 26.7755 76.3038 26.8138 76.1699 26.9528C76.0778 27.0485 75.9798 27.1434 75.8698 27.2164C75.6247 27.3795 75.4765 27.2859 75.3354 27.1149C75.2954 27.0664 75.3288 27.0508 75.3696 27.037C75.4956 26.9941 75.6256 26.9637 75.7395 26.8879C76.0947 26.6513 76.3038 26.3265 76.3466 25.8984C76.3662 25.9329 76.3977 25.9578 76.4331 25.9659C76.6763 26.0209 76.8378 26.1828 76.9678 26.3806C77.1263 26.6218 77.1774 26.9658 76.8425 27.1712L76.8428 27.1714Z" fill="#D69B04"/>
<path d="M78.6104 28.9936C78.2139 29.3854 77.7462 29.539 77.1988 29.4064C77.0487 29.3701 76.9362 29.2623 76.8289 29.1548C76.7869 29.1128 76.826 29.101 76.8563 29.0973C76.9414 29.0868 77.027 29.082 77.1121 29.073C77.5357 29.0276 77.906 28.8568 78.2366 28.5927C78.2516 28.5807 78.2646 28.5607 78.2893 28.5696C78.3044 28.5776 78.3202 28.5842 78.334 28.5939C78.3886 28.6321 78.4426 28.695 78.4949 28.5906C78.5023 28.576 78.5181 28.5789 78.5288 28.5914C78.5422 28.6071 78.541 28.6251 78.5258 28.6366C78.4895 28.6642 78.4514 28.6896 78.4139 28.7158C78.4189 28.7228 78.4222 28.7284 78.4263 28.7331C78.472 28.7867 78.6388 28.7828 78.5132 28.9195C78.4992 28.9348 78.5169 28.9688 78.5451 28.9719C78.5694 28.9746 78.5929 28.9731 78.6104 28.9936Z" fill="#D69B04"/>
<path d="M77.992 28.1005C77.6804 28.3563 77.335 28.5338 76.9246 28.5583C76.8012 28.5658 76.6783 28.5581 76.5561 28.5381C76.4534 28.5212 76.3376 28.3709 76.3553 28.2707C76.3644 28.2199 76.4169 28.234 76.4494 28.2298C76.7036 28.1973 76.9435 28.1218 77.1676 27.9972C77.3054 27.9207 77.4265 27.8205 77.5507 27.7246C77.6205 27.8143 77.7084 27.8646 77.826 27.8589C77.8631 27.857 77.8716 27.8912 77.8613 27.9176C77.8112 28.0475 77.893 28.0795 77.992 28.1007V28.1005Z" fill="#D69B04"/>
<path d="M74.9584 26.1184C74.9829 26.2409 75.1069 26.2394 75.1829 26.2978C75.2117 26.3198 75.2471 26.333 75.2797 26.3502C75.1713 26.4879 75.0292 26.5704 74.8573 26.5949C74.7652 26.6081 74.6793 26.5834 74.6188 26.5046C74.5578 26.4252 74.5778 26.3551 74.6725 26.3236C74.7897 26.2846 74.8832 26.2149 74.9584 26.1182V26.1184Z" fill="#D69B04"/>
<circle cx="15.8846" cy="38.9022" r="1.62091" fill="#231F20"/>
<circle cx="87.5291" cy="20.4236" r="1.62091" fill="#231F20"/>
<path d="M13.124 12.2529C12.9398 12.0757 12.7547 11.9081 12.5862 11.7233C12.1826 11.2808 11.8944 10.7755 11.7713 10.1858C11.7159 9.9212 11.7132 9.65312 11.8055 9.39225C11.9231 9.06004 12.2349 8.98828 12.5257 9.06891C12.6064 9.09138 12.6845 9.12582 12.7615 9.15985C12.819 9.18521 12.8206 9.15201 12.8157 9.11365C12.7601 8.68534 12.8822 8.30941 13.1633 7.98916C13.3917 7.72912 13.7861 7.7118 14.0506 7.9376C14.2621 8.11825 14.3978 8.35272 14.5201 8.59811C14.6445 8.84722 14.7419 9.10829 14.8181 9.37308C14.8698 9.55228 14.895 9.74323 14.9318 9.92883C15.0595 10.5716 15.0894 11.2214 15.0834 11.8741C15.0826 11.9611 15.1036 11.9955 15.1913 11.9799C15.2704 11.9658 15.3483 11.9877 15.4259 11.9976C15.5999 12.0199 15.5973 12.0219 15.6597 11.8693C15.8564 11.3882 16.2287 11.1511 16.7337 11.1018C16.771 11.0981 16.8093 11.1012 16.8466 11.1061C16.9772 11.123 17.0624 11.2024 17.0692 11.3107C17.0756 11.4107 16.9895 11.5115 16.868 11.5388C16.8114 11.5515 16.7521 11.5513 16.6946 11.5616C16.2975 11.6322 16.0273 11.8978 16.0215 12.3176C16.0205 12.388 16.0318 12.417 16.1152 12.3958C16.2419 12.3636 16.3667 12.3865 16.4956 12.4191C16.6462 12.457 16.7761 12.523 16.8985 12.6117C16.9535 12.6515 16.9901 12.6418 17.0151 12.5804C17.0995 12.3723 17.2663 12.256 17.4537 12.1452C17.671 12.0168 17.8947 11.9561 18.1422 11.973C18.2051 11.9774 18.2695 11.9852 18.3292 12.0042C18.4133 12.0306 18.4514 12.1364 18.4298 12.2558C18.4157 12.3321 18.3278 12.4055 18.2376 12.4024C18.0557 12.396 17.8821 12.4242 17.7182 12.5045C17.5804 12.5717 17.462 12.662 17.3761 12.7923C17.3326 12.8585 17.325 12.9194 17.3602 12.9944C17.5001 13.2908 17.5417 13.6052 17.5114 13.9292C17.4815 14.248 17.2593 14.4765 16.9399 14.5241C16.8373 14.5394 16.7345 14.5351 16.632 14.5246C16.6025 14.5215 16.5688 14.4986 16.5469 14.5314C16.5226 14.5683 16.5539 14.5945 16.5766 14.62C16.8386 14.9168 16.8989 15.2647 16.8245 15.6414C16.8046 15.7425 16.7733 15.8417 16.6831 15.9169C16.613 15.9753 16.5455 15.9877 16.4674 15.9637C16.4217 15.9497 16.3717 15.7885 16.3879 15.7214C16.4248 15.5705 16.4538 15.4195 16.4219 15.2632C16.4038 15.1752 16.3768 15.0904 16.3352 15.011C16.3103 14.9632 16.2784 14.9407 16.2378 14.9986C16.2339 15.0042 16.2283 15.0106 16.2223 15.0121C16.0553 15.0516 16.1047 15.17 16.1144 15.2845C16.154 15.753 15.9363 16.1027 15.5882 16.3871C15.5174 16.445 15.4451 16.503 15.3571 16.5358C15.2323 16.5824 15.1114 16.5444 15.0488 16.4296C15.0171 16.3712 15.0363 16.312 15.0754 16.2599C15.1359 16.1788 15.2181 16.1221 15.2951 16.0592C15.491 15.899 15.651 15.7152 15.6834 15.4505C15.6854 15.4336 15.6881 15.4164 15.6883 15.3993C15.6897 15.1723 15.6902 15.202 15.5081 15.2009C15.3308 15.1999 15.1757 15.1438 15.0638 14.9931C14.9988 14.9052 14.8853 14.9164 14.7947 14.8825C14.7343 14.8601 14.6756 14.8388 14.625 14.8003C14.5677 14.7565 14.5345 14.7679 14.5376 14.8394C14.5492 15.102 14.4773 15.3502 14.3671 15.5783C14.246 15.8291 14.0819 16.0596 13.871 16.2483C13.5909 16.4991 13.2791 16.6923 12.9135 16.8001C12.7895 16.8366 12.668 16.8725 12.5401 16.8859C12.4857 16.8917 12.4305 16.8909 12.3797 16.8626C12.2557 16.7942 12.2421 16.6937 12.3409 16.5943C12.3967 16.5383 12.4668 16.5131 12.5384 16.489C12.8851 16.3714 13.2191 16.2267 13.4922 15.9761C13.7773 15.7144 14.0022 15.4109 14.0821 15.0195C14.0961 14.9512 14.1006 14.8834 14.0928 14.8147C14.0903 14.7931 14.101 14.7598 14.0687 14.7549C14.0405 14.7506 14.0328 14.7811 14.0213 14.8013C13.8355 15.1306 13.5769 15.3954 13.2679 15.6053C12.6657 16.0147 12.0108 16.1617 11.2926 15.9765C10.8649 15.8662 10.4904 15.6705 10.2021 15.3304C10.1111 15.223 10.0378 15.1018 10.0371 14.9512C10.0334 13.9731 10.4027 13.1852 11.2261 12.635C11.519 12.4393 11.8431 12.3162 12.1935 12.2605C12.4243 12.2238 12.6563 12.2166 12.8859 12.2405C12.9646 12.2488 13.0428 12.2395 13.1242 12.2535L13.124 12.2529ZM16.7689 13.596C16.7022 13.4852 16.6404 13.372 16.6005 13.2479C16.5805 13.1856 16.5492 13.1283 16.508 13.0775C16.4621 13.0206 16.4028 12.986 16.3284 13.0076C16.2543 13.0293 16.2042 13.0813 16.1933 13.1594C16.1867 13.2062 16.1859 13.2557 16.1939 13.3021C16.2232 13.4702 16.2909 13.6213 16.4065 13.749C16.5045 13.8849 16.6235 13.9962 16.7813 14.0585C16.8826 14.0985 17.0324 14.0608 17.0931 13.9855C17.1423 13.9247 17.1353 13.8546 17.0659 13.836C16.9281 13.7993 16.8528 13.6941 16.7689 13.5956V13.596ZM13.2121 13.8931C13.2074 13.8352 13.1998 13.7772 13.1985 13.7191C13.1921 13.4487 13.2424 13.1866 13.3205 12.9293C13.3394 12.867 13.3291 12.8336 13.2624 12.8159C13.1168 12.7769 12.9736 12.7352 12.8187 12.7441C12.7557 12.7478 12.7386 12.7717 12.7224 12.8237C12.6245 13.1363 12.6037 13.4566 12.6249 13.7807C12.6295 13.8508 12.6085 13.9253 12.6505 13.9911C12.6816 14.2066 12.7489 14.4122 12.8299 14.6128C12.8929 14.7687 12.9598 14.9232 13.0768 15.049C13.1382 15.1152 13.1981 15.1463 13.2729 15.0628C13.3137 15.0172 13.3631 14.9778 13.4135 14.9428C13.4809 14.896 13.4858 14.8386 13.4533 14.7724C13.3169 14.4947 13.2498 14.1979 13.2121 13.8931ZM15.4261 12.8787L15.4313 12.8754L15.4284 12.8709C15.4558 12.7919 15.4966 12.7173 15.5561 12.662C15.6315 12.5923 15.6123 12.5554 15.533 12.5158C15.4745 12.4865 15.4152 12.4605 15.3516 12.4457C15.0342 12.3712 14.7506 12.4517 14.4839 12.6274C14.2802 12.7616 14.1404 12.9499 14.0767 13.1751C14.0069 13.4217 14.0223 13.6822 14.0967 13.929C14.1296 14.0385 14.1581 14.1645 14.2765 14.2288C14.3134 14.2804 14.3741 14.2674 14.4242 14.2835C14.4485 14.2913 14.4742 14.3227 14.4985 14.2969C14.5245 14.2695 14.4876 14.2491 14.4775 14.2266C14.4064 14.0678 14.4993 13.8238 14.6491 13.8092C14.8861 13.7861 15.0902 13.8251 15.2278 14.0853C15.3275 14.2738 15.4418 14.4435 15.6187 14.5736C15.794 14.7027 16.0475 14.6745 16.1647 14.4901C16.196 14.4408 16.2061 14.4118 16.133 14.387C15.9062 14.3103 15.7357 14.1548 15.6002 13.9636C15.3682 13.6368 15.3087 13.2765 15.4154 12.8895C15.4228 12.8897 15.4263 12.8862 15.4261 12.8787ZM11.7418 14.1639C11.7282 14.0344 11.7004 13.9069 11.6963 13.7756C11.6881 13.5094 11.7113 13.2477 11.7809 12.9903C11.7877 12.9654 11.8063 12.9346 11.7787 12.914C11.7577 12.8983 11.7325 12.9177 11.7107 12.9256C11.6014 12.9658 11.4973 13.0175 11.395 13.0734C11.2294 13.1637 11.0937 13.2788 11.0469 13.472C11.0206 13.5813 11.0195 13.6931 11.0206 13.8044C11.0228 14.0492 10.9872 14.2996 11.1161 14.5279C11.1789 14.8104 11.2998 15.07 11.4545 15.3104C11.5299 15.4276 11.6269 15.547 11.7793 15.5761C11.9513 15.6088 12.1206 15.5761 12.2872 15.5311C12.3329 15.5187 12.3418 15.494 12.3078 15.4577C12.1459 15.2849 12.0431 15.0754 11.9445 14.8638C11.9016 14.7716 11.8458 14.6796 11.8304 14.5821C11.8079 14.4404 11.7639 14.3045 11.7414 14.1637L11.7418 14.1639ZM12.1776 9.8216C12.1869 9.8849 12.1949 9.96347 12.2104 10.0406C12.287 10.4186 12.4771 10.7459 12.6832 11.0628C13.0206 11.5814 13.4978 11.9572 13.9945 12.3094C14.0359 12.3387 14.1029 12.3665 14.1484 12.3374C14.1995 12.3048 14.1513 12.2477 14.1369 12.2083C14.0714 12.0287 13.9923 11.8541 13.9284 11.674C13.7122 11.0634 13.4582 10.4728 13.0589 9.95502C12.9133 9.76633 12.7397 9.61806 12.5187 9.52402C12.3296 9.4436 12.213 9.50711 12.1883 9.71395C12.1846 9.74467 12.1821 9.7754 12.1774 9.8218L12.1776 9.8216ZM13.2828 8.84929C13.2782 8.91507 13.2885 8.9792 13.2986 9.04395C13.3466 9.35307 13.5005 9.6195 13.6454 9.88676C13.9931 10.5273 14.2893 11.1888 14.5115 11.8833C14.5251 11.9258 14.5383 11.9685 14.5506 12.0112C14.5599 12.0434 14.5743 12.072 14.6132 12.064C14.6445 12.0574 14.6701 12.0378 14.6686 11.9999C14.6678 11.9759 14.6655 11.9518 14.6624 11.9281C14.6297 11.6691 14.6134 11.4084 14.6017 11.148C14.5677 10.3887 14.4577 9.64528 14.162 8.93837C14.0769 8.73504 13.9783 8.53893 13.8318 8.3721C13.6986 8.21991 13.5592 8.22383 13.4356 8.3787C13.3258 8.51625 13.2891 8.67792 13.2826 8.84929H13.2828Z" fill="#231F20"/>
<path d="M15.4158 12.8893C15.3091 13.2764 15.3686 13.6366 15.6005 13.9635C15.7361 14.1546 15.9066 14.3101 16.1334 14.3868C16.2065 14.4116 16.1964 14.4407 16.1651 14.4899C16.0481 14.6743 15.7944 14.7026 15.6191 14.5735C15.4422 14.4431 15.3279 14.2736 15.2282 14.0851C15.0906 13.8249 14.8865 13.7857 14.6495 13.809C14.4997 13.8237 14.4068 14.0676 14.4779 14.2264C14.488 14.2489 14.5249 14.2695 14.4989 14.2967C14.4746 14.3225 14.4489 14.2912 14.4246 14.2833C14.3747 14.2672 14.3138 14.2804 14.2769 14.2287C14.2841 14.1843 14.2843 14.1406 14.2707 14.0967C14.2001 13.8659 14.1972 13.6375 14.2719 13.4046C14.3687 13.1027 14.7228 12.7878 15.1077 12.8196C15.2154 12.8285 15.3095 12.8833 15.4158 12.8893Z" fill="#D69B04"/>
<path d="M11.1162 14.5284C11.2785 14.3967 11.4779 14.3406 11.6688 14.2725C11.7376 14.248 11.7403 14.2154 11.7417 14.1641C11.7641 14.3051 11.8084 14.4408 11.8307 14.5825C11.8461 14.68 11.9019 14.7722 11.9448 14.8642C12.0432 15.0757 12.1462 15.2851 12.3081 15.4581C12.342 15.4944 12.3332 15.5191 12.2875 15.5315C12.1209 15.5764 11.9516 15.6092 11.7796 15.5764C11.6272 15.5474 11.53 15.428 11.4548 15.3108C11.3001 15.0704 11.179 14.8108 11.1164 14.5282L11.1162 14.5284Z" fill="#D69B04"/>
<path d="M12.6504 13.9915C12.8376 13.9587 13.0248 13.9261 13.2122 13.8936C13.2499 14.1983 13.3171 14.4951 13.4534 14.7729C13.4859 14.8393 13.481 14.8964 13.4137 14.9432C13.3632 14.9783 13.3138 15.0176 13.273 15.0632C13.1982 15.1467 13.1383 15.1156 13.0769 15.0494C12.9599 14.9236 12.893 14.7689 12.83 14.6132C12.7488 14.4124 12.6817 14.207 12.6506 13.9915H12.6504Z" fill="#D69B04"/>
<path d="M16.4062 13.7489C16.4244 13.7297 16.4481 13.7273 16.4715 13.7299C16.5976 13.7446 16.6909 13.6873 16.7687 13.5957C16.8526 13.6943 16.9279 13.7994 17.0657 13.8362C17.1351 13.8547 17.1421 13.9248 17.0929 13.9857C17.0319 14.0607 16.8824 14.0987 16.7811 14.0587C16.6233 13.9964 16.5043 13.8848 16.4062 13.7491V13.7489Z" fill="#D69B04"/>
<path d="M14.7548 52.4504C14.8131 52.4634 14.8652 52.4516 14.9188 52.4389C15.1274 52.3888 15.3379 52.3654 15.5506 52.4096C15.7885 52.4589 15.9376 52.6834 15.8923 52.9235C15.8023 53.3994 15.5164 53.7487 15.1556 54.0453C14.8712 54.2787 14.5517 54.4563 14.2226 54.62C14.0661 54.698 13.9071 54.7588 13.7393 54.8011C13.7145 54.8073 13.688 54.812 13.6826 54.8363C13.675 54.8699 13.7065 54.8788 13.7306 54.8926C13.8867 54.9832 14.0364 55.0815 14.174 55.2003C14.368 55.3677 14.5227 55.5653 14.6325 55.794C14.8393 56.2242 14.905 56.6741 14.8236 57.1501C14.7822 57.392 14.6246 57.5182 14.4364 57.6176C14.0933 57.7986 13.722 57.8968 13.3346 57.8675C12.615 57.8131 12.034 57.5079 11.6554 56.8696C11.6363 56.8372 11.6192 56.8034 11.6035 56.769C11.5406 56.6311 11.443 56.5951 11.3106 56.6609C11.2579 56.6873 11.2789 56.7304 11.2847 56.7688C11.3685 57.3299 11.6861 57.7116 12.1936 57.9428C12.3369 58.0081 12.4868 58.0591 12.6335 58.117C12.747 58.162 12.8034 58.2467 12.7849 58.343C12.7649 58.4474 12.685 58.508 12.5645 58.5084C12.3493 58.509 12.168 58.4004 11.9833 58.314C11.5947 58.1325 11.2828 57.8578 11.0643 57.4856C10.937 57.2691 10.8685 57.0325 10.8646 56.7799C10.8637 56.7284 10.8602 56.698 10.7937 56.6999C10.5797 56.7057 10.3884 56.636 10.2244 56.4993C10.1598 56.4454 10.1281 56.4487 10.1052 56.5322C10.0407 56.7677 10.0801 56.9913 10.1769 57.2093C10.1977 57.2563 10.2212 57.3029 10.2362 57.3518C10.2702 57.4627 10.1896 57.6054 10.0813 57.6262C10.0352 57.6351 9.99955 57.6062 9.9668 57.5757C9.69803 57.3243 9.62986 57.0041 9.65519 56.6541C9.67023 56.4452 9.7314 56.2506 9.85353 56.0767C9.89966 56.0111 9.88009 55.9761 9.80204 55.9682C9.32649 55.9204 9.06493 55.5812 9.13948 55.1065C9.18541 54.8139 9.30775 54.5557 9.5067 54.3371C9.57096 54.2666 9.58743 54.2035 9.54089 54.1175C9.40949 53.8752 9.23196 53.6929 8.95598 53.6197C8.86495 53.5955 8.75662 53.5774 8.74344 53.4485C8.72922 53.3085 8.83797 53.1946 8.98934 53.2124C9.19592 53.2365 9.38436 53.3095 9.55572 53.4293C9.76641 53.5766 9.89657 53.7807 9.97339 54.0203C9.99584 54.0904 10.0249 54.0935 10.085 54.0752C10.2135 54.036 10.3447 54.0199 10.4802 54.0407C10.5826 54.0564 10.6314 54.0144 10.6392 53.9001C10.657 53.6359 10.5983 53.3974 10.3717 53.2332C10.2971 53.1792 10.2069 53.1466 10.1229 53.106C10.0041 53.0484 9.94126 52.9591 9.96474 52.8777C10.0002 52.754 10.0992 52.6816 10.2335 52.6979C10.4075 52.7191 10.5713 52.7814 10.706 52.8932C10.9265 53.0763 11.0476 53.3138 11.0695 53.6048C11.079 53.7314 11.0915 53.8554 11.0676 53.9814C11.0565 54.0401 11.0654 54.0805 11.1467 54.0919C11.2233 54.1024 11.3043 54.1568 11.3757 54.1333C11.4589 54.1057 11.453 53.9979 11.4824 53.9255C11.6181 53.59 11.8033 53.2802 12.0066 52.9862C12.1989 52.708 12.423 52.4506 12.651 52.1976C12.8048 52.0268 12.975 51.878 13.1459 51.728C13.343 51.555 13.5753 51.4379 13.8101 51.3259C13.9761 51.2467 14.1518 51.2119 14.3343 51.2226C14.6073 51.2385 14.7694 51.3771 14.8376 51.642C14.8963 51.8697 14.8642 52.092 14.7997 52.3125C14.7863 52.3582 14.7705 52.4032 14.755 52.4508L14.7548 52.4504ZM9.78412 55.1725C9.74952 55.1863 9.71595 55.2079 9.68011 55.2123C9.58517 55.224 9.54913 55.2758 9.5619 55.3663C9.57487 55.4581 9.63686 55.4876 9.7211 55.4913C9.92643 55.5003 10.0902 55.4185 10.2222 55.2655C10.3206 55.1677 10.3927 55.0518 10.438 54.9219C10.4669 54.839 10.4994 54.7456 10.4018 54.6817C10.3099 54.6217 10.2329 54.6767 10.159 54.727C10.1398 54.74 10.1258 54.7611 10.1101 54.779C9.99811 54.9073 9.91057 55.0559 9.78433 55.1725H9.78412ZM13.5838 56.3739C13.461 56.7055 13.3039 57.0185 13.0773 57.2924C13.0289 57.3509 13.0753 57.3637 13.1144 57.374C13.2472 57.4093 13.3825 57.4281 13.5203 57.4153C13.5912 57.4087 13.6528 57.3788 13.6956 57.3202C13.848 57.1119 13.9633 56.8855 14.0233 56.6327C14.0809 56.478 14.1106 56.317 14.1431 56.1557C14.2105 55.8202 14.0045 55.6441 13.7699 55.4605C13.7172 55.4193 13.7096 55.4554 13.7079 55.5022C13.7047 55.5913 13.6979 55.6804 13.6923 55.7692C13.6795 55.9748 13.6192 56.172 13.584 56.3735L13.5838 56.3739ZM11.6694 55.7127C11.7322 55.8526 11.6439 55.9845 11.6484 56.1211C11.7784 56.0313 11.8012 56.0002 11.8587 55.868C11.961 55.6321 11.9545 55.3931 11.8803 55.1535C11.7771 54.8202 11.5405 54.6338 11.2087 54.5567C11.1665 54.547 11.1113 54.5346 11.1426 54.607C11.1994 54.739 11.1877 54.8757 11.1887 55.0124C11.0684 55.4249 10.8372 55.7365 10.4115 55.8726C10.374 55.8845 10.3219 55.8893 10.3198 55.9412C10.3175 55.9959 10.3513 56.0371 10.3962 56.0674C10.5342 56.1604 10.6996 56.1421 10.8137 56.0151C10.8938 55.926 10.9642 55.828 11.0439 55.7383C11.2392 55.5185 11.468 55.5104 11.6696 55.7127H11.6694ZM12.395 55.8542C12.347 56.0557 12.2772 56.2471 12.145 56.4114C12.1069 56.4588 12.0801 56.516 12.0504 56.57C12.0253 56.6158 12.0296 56.6603 12.0576 56.7057C12.1359 56.8325 12.2333 56.941 12.3487 57.035C12.3872 57.0663 12.4053 57.0663 12.4368 57.0251C12.6619 56.731 12.8341 56.4114 12.9191 56.0483C13.0011 55.7699 13.0106 55.4822 13.0304 55.1956C13.0353 55.1248 12.9931 55.1329 12.9529 55.1415C12.7892 55.1768 12.6263 55.2151 12.4628 55.2514C12.4282 55.2591 12.4024 55.2754 12.4113 55.3133C12.4539 55.4952 12.408 55.6742 12.395 55.854V55.8542ZM15.2981 52.8393C14.9952 52.8723 14.6959 52.9789 14.409 53.1212C14.0871 53.2806 13.7959 53.4914 13.4907 53.6788C13.2034 53.8554 12.9226 54.0385 12.6617 54.2515C12.5006 54.3831 12.3414 54.5171 12.1831 54.652C12.159 54.6726 12.1215 54.6965 12.1415 54.7369C12.1643 54.7831 12.2012 54.7505 12.2315 54.7439C12.6131 54.6608 12.9921 54.5685 13.3648 54.4493C13.9429 54.2645 14.4708 53.9894 14.9336 53.5957C15.1329 53.4262 15.3076 53.2322 15.4108 52.9853C15.4524 52.8861 15.4188 52.8377 15.2983 52.8395L15.2981 52.8393ZM11.8321 54.241L11.8517 54.261C11.8921 54.2311 11.9349 54.2037 11.9726 54.1705C12.2084 53.9632 12.4722 53.7931 12.7243 53.6079C13.0812 53.3458 13.4546 53.1064 13.8175 52.8523C14.105 52.6511 14.2947 52.3766 14.3876 52.0378C14.4156 51.9355 14.4296 51.8247 14.3501 51.7396C14.2644 51.6476 14.16 51.6942 14.062 51.7256C14.0457 51.7307 14.0296 51.7369 14.0138 51.7431C13.6956 51.8658 13.4417 52.0848 13.2104 52.3226C13.0182 52.5199 12.8269 52.7195 12.6477 52.9315C12.3101 53.331 12.0836 53.7921 11.8321 54.2408V54.241Z" fill="#231F20"/>
<path d="M12.9194 56.0485C12.8346 56.4117 12.6622 56.7313 12.4371 57.0254C12.4056 57.0666 12.3875 57.0666 12.349 57.0353C12.2336 56.9413 12.1362 56.8328 12.0579 56.706C12.0299 56.6606 12.0256 56.616 12.0507 56.5703C12.0804 56.5162 12.107 56.4591 12.1453 56.4117C12.2775 56.2471 12.3471 56.056 12.3953 55.8545C12.4433 55.8566 12.4851 55.8807 12.5302 55.8926C12.6665 55.9291 12.7769 56.0294 12.9197 56.0485H12.9194Z" fill="#D69B04"/>
<path d="M11.6692 55.7128C11.4676 55.5103 11.2388 55.5185 11.0436 55.7384C10.9639 55.8281 10.8934 55.9258 10.8133 56.0151C10.699 56.1423 10.5338 56.1607 10.3958 56.0675C10.3509 56.0374 10.3174 55.9959 10.3194 55.9413C10.3215 55.8893 10.3738 55.8846 10.4111 55.8726C10.8368 55.7365 11.0681 55.4249 11.1883 55.0125C11.57 54.9974 11.6396 55.2053 11.7329 55.4488C11.7687 55.5421 11.7582 55.6414 11.669 55.713L11.6692 55.7128Z" fill="#D69B04"/>
<path d="M14.0233 56.6328C13.9632 56.8854 13.8481 57.1119 13.6957 57.3204C13.6528 57.3787 13.5912 57.4088 13.5204 57.4154C13.3828 57.4282 13.2473 57.4094 13.1145 57.3742C13.0753 57.3639 13.029 57.3511 13.0774 57.2925C13.3039 57.0184 13.4611 56.7056 13.5838 56.374C13.6693 56.4406 13.776 56.4528 13.8736 56.4887C13.9414 56.5134 14.0511 56.5052 14.0233 56.6332V56.6328Z" fill="#D69B04"/>
<path d="M9.78428 55.1719C9.9371 55.1715 10.0792 55.2212 10.2223 55.2649C10.0903 55.4179 9.92659 55.4998 9.72126 55.4907C9.63723 55.487 9.57503 55.4577 9.56205 55.3657C9.54928 55.2752 9.58533 55.2234 9.68027 55.2117C9.71611 55.2073 9.74968 55.1855 9.78428 55.1719Z" fill="#D69B04"/>
<defs>
<linearGradient id="paint0_linear_14807_39287" x1="98.4776" y1="76.1826" x2="121.459" y2="107.271" gradientUnits="userSpaceOnUse">
<stop/>
<stop offset="1" stop-opacity="0"/>
</linearGradient>
</defs>
</svg>
