<svg width="126" height="133" viewBox="0 0 126 133" fill="none" xmlns="http://www.w3.org/2000/svg">
<path d="M25.75 110.791V70.6241H107.304V110.791L66.6208 132L25.75 110.791Z" fill="#231F20" stroke="#231F20" stroke-width="1.62016"/>
<path d="M22.7188 104.399V62.4496H110.815V104.401C110.815 105.005 110.479 105.559 109.943 105.838L66.8681 128.269L23.5933 105.837C23.056 105.559 22.7188 105.004 22.7188 104.399Z" fill="#F8EFDA" stroke="#231F20" stroke-width="1.68153"/>
<path d="M66.8672 128.269L66.8674 67.6814L110.814 62.4496V104.401C110.814 105.005 110.478 105.559 109.942 105.838L66.8672 128.269Z" fill="#EDD8A2" stroke="#231F20" stroke-width="1.68153"/>
<path d="M22.7188 82.1215V62.4496H110.815V82.1236C110.815 82.7277 110.479 83.2816 109.943 83.5606L69.1078 104.825C67.7038 105.556 66.0316 105.558 64.6262 104.829L23.5933 83.5599C23.056 83.2814 22.7188 82.7267 22.7188 82.1215Z" stroke="#231F20" stroke-width="0.840764"/>
<path d="M19.0742 56.5699V46.6405C19.0742 44.8953 20.0098 43.2841 21.5255 42.4191L64.564 17.8561C66.0601 17.0022 67.8964 17.004 69.3908 17.8609L112.221 42.4175C113.732 43.2838 114.664 44.8923 114.664 46.634V56.5762C114.664 58.3772 113.668 60.0305 112.076 60.8726L69.2462 83.5278C67.8273 84.2783 66.1294 84.2799 64.7091 83.5321L21.6702 60.8706C20.0737 60.03 19.0742 58.3742 19.0742 56.5699Z" fill="#FBF7EC" stroke="#231F20" stroke-width="1.68153"/>
<path d="M64.5776 69.5955L21.5534 45.2225C20.46 44.6031 20.4575 43.0287 21.5489 42.4057L64.564 17.8561C66.0601 17.0022 67.8964 17.004 69.3908 17.8609L112.203 42.4073C113.291 43.031 113.288 44.6008 112.199 45.221L69.3773 69.5907C67.8898 70.4373 66.0667 70.4391 64.5776 69.5955Z" fill="#F8EFDA" stroke="#231F20" stroke-width="0.840764"/>
<path d="M66.5737 67.0931L25.7834 44.5476C25.5067 44.3947 25.504 43.998 25.7785 43.8413L66.5639 20.5554C66.8133 20.413 67.1194 20.4133 67.3685 20.5562L107.968 43.8418C108.242 43.9986 108.239 44.3941 107.963 44.5472L67.3588 67.0923C67.1147 67.2279 66.818 67.2282 66.5737 67.0931Z" fill="#EDD8A2" stroke="#231F20" stroke-width="1.68153"/>
<path d="M104.484 46.4037L67.3613 25.4109C67.1144 25.2713 66.8124 25.271 66.5652 25.4101L29.2734 46.4037L66.5726 66.8928C66.8159 67.0265 67.1108 67.0262 67.3539 66.8921L104.484 46.4037Z" fill="#231F20" stroke="#231F20" stroke-width="0.81008"/>
<path d="M22.7188 61.2345V99.1333C22.7188 99.7384 23.056 100.293 23.5933 100.572L64.6262 121.841C66.0316 122.569 67.7038 122.568 69.1078 121.837L109.943 100.572C110.479 100.293 110.815 99.7394 110.815 99.1353V61.2345" stroke="#231F20" stroke-width="1.68153"/>
<path d="M66.9492 127.797L66.9492 84.0768" stroke="#231F20" stroke-width="1.68153"/>
<path d="M66.9492 127.796L66.9492 70.6241" stroke="#231F20" stroke-width="0.840764"/>
<path d="M66.8672 25.3889L66.8672 20.5284" stroke="#231F20" stroke-width="0.840764"/>
<path d="M37.2383 75.7991V70.1149L50.8071 77.0005V80.2984C50.8071 82.6987 48.2884 84.2658 46.1351 83.2052L39.9512 80.1594C38.2902 79.3413 37.2383 77.6506 37.2383 75.7991Z" stroke="#231F20" stroke-width="0.81008"/>
<path d="M39.0625 75.5556V71.1273L50.8087 77.0004V80.5378C50.8087 81.7217 49.5802 82.5058 48.5064 82.0074L40.9386 78.4947C39.7945 77.9637 39.0625 76.817 39.0625 75.5556Z" fill="#231F20" stroke="#231F20" stroke-width="0.81008"/>
<path d="M95.6523 75.7991V70.1149L82.0835 77.0005V80.2984C82.0835 82.6987 84.6023 84.2658 86.7556 83.2052L92.9395 80.1594C94.6004 79.3413 95.6523 77.6506 95.6523 75.7991Z" stroke="#231F20" stroke-width="0.81008"/>
<path d="M93.8281 75.5556V71.1273L82.082 77.0004V80.5378C82.082 81.7217 83.3104 82.5058 84.3842 82.0074L91.952 78.4947C93.0962 77.9637 93.8281 76.817 93.8281 75.5556Z" fill="#231F20" stroke="#231F20" stroke-width="0.81008"/>
<mask id="mask0_58_51414" style="mask-type:alpha" maskUnits="userSpaceOnUse" x="29" y="25" width="76" height="42">
<path d="M104.484 46.4045L67.3613 25.4116C67.1144 25.272 66.8124 25.2717 66.5652 25.4109L29.2734 46.4045L66.5726 66.8935C66.8159 67.0272 67.1108 67.027 67.3539 66.8928L104.484 46.4045Z" fill="black"/>
</mask>
<g mask="url(#mask0_58_51414)">
<line x1="73.9512" y1="23.5107" x2="24.6297" y2="51.4912" stroke="#EDD8A2" stroke-width="4.20382"/>
<line x1="80.5957" y1="29.1811" x2="38.4716" y2="53.0785" stroke="#EDD8A2" stroke-width="4.20382"/>
<line x1="87.3224" y1="34.8517" x2="45.1982" y2="58.7491" stroke="#EDD8A2" stroke-width="4.20382"/>
<line x1="97.4119" y1="39.3075" x2="51.7648" y2="65.2034" stroke="#EDD8A2" stroke-width="4.20382"/>
<line x1="107.502" y1="42.185" x2="61.8549" y2="68.081" stroke="#EDD8A2" stroke-width="4.20382"/>
</g>
<path d="M66.5698 67.0931L25.7794 44.5476C25.5028 44.3947 25.5001 43.998 25.7746 43.8413L66.56 20.5554C66.8094 20.413 67.1155 20.4133 67.3646 20.5562L107.964 43.8418C108.238 43.9986 108.235 44.3941 107.959 44.5472L67.3549 67.0923C67.1108 67.2279 66.8141 67.2282 66.5698 67.0931Z" stroke="#231F20" stroke-width="1.68153"/>
<circle cx="85.1402" cy="8.82816" r="1.26115" fill="#231F20"/>
<circle cx="124.011" cy="77.7708" r="1.26115" fill="#231F20"/>
<circle cx="39.9183" cy="18.5798" r="2.10191" fill="#231F20"/>
<circle cx="5.15177" cy="46.8789" r="1.26115" fill="#231F20"/>
<path d="M111.657 22.0576C112.134 22.0725 112.608 22.1231 113.072 22.2403C113.156 22.2613 113.238 22.2875 113.319 22.3161C113.741 22.465 114.024 22.9463 113.577 23.4051C113.296 23.6935 112.959 23.8859 112.596 24.043C112.18 24.2229 111.738 24.324 111.299 24.4053C110.705 24.5155 110.096 24.4975 109.491 24.4701C109.273 24.4604 109.05 24.4802 108.84 24.436C108.608 24.387 108.371 24.3697 108.142 24.3076C108.113 24.2996 108.083 24.2902 108.053 24.2905C107.989 24.2911 107.902 24.2537 107.866 24.3137C107.825 24.3822 107.917 24.4217 107.95 24.4741C108.392 25.1722 108.579 25.9242 108.456 26.7508C108.383 27.2453 108.191 27.6892 107.919 28.0978C107.78 28.3051 107.596 28.4796 107.394 28.633C106.991 28.939 106.55 29.0069 106.059 28.9119C105.295 28.7642 104.745 28.3063 104.267 27.7358C103.841 27.2282 103.557 26.6531 103.466 25.9906C103.464 25.9757 103.456 25.9596 103.459 25.9459C103.528 25.649 103.359 25.5479 103.107 25.5147C102.953 25.4943 102.823 25.4201 102.699 25.3336C102.623 25.2809 102.562 25.2785 102.491 25.3555C102.308 25.5534 102.25 25.7915 102.255 26.0488C102.259 26.3112 102.332 26.5569 102.454 26.7907C102.558 26.9911 102.474 27.1789 102.27 27.2307C102.142 27.2633 102.058 27.1871 101.977 27.1107C101.703 26.8519 101.622 26.5118 101.616 26.1572C101.606 25.6572 101.703 25.1838 102.074 24.8093C102.12 24.7633 102.12 24.714 102.103 24.6574C102.073 24.56 102.01 24.475 102.006 24.3672C102.004 24.3012 101.943 24.3194 101.899 24.3158C101.185 24.2546 100.84 23.66 100.897 23.1856C100.926 22.936 101.011 22.7034 101.124 22.4799C101.336 22.0591 101.64 21.7163 102.027 21.4505C102.135 21.3762 102.142 21.3056 102.107 21.1966C101.987 20.8148 101.684 20.616 101.358 20.4406C101.279 20.398 101.191 20.3724 101.108 20.3356C100.985 20.2808 100.926 20.1456 100.961 19.962C100.985 19.8384 101.075 19.7684 101.202 19.7632C101.532 19.7504 101.804 19.9008 102.065 20.0798C102.449 20.3429 102.664 20.7162 102.766 21.1601C102.789 21.2578 102.831 21.2916 102.931 21.2904C103.211 21.2861 103.473 21.3574 103.71 21.5108C103.752 21.5382 103.799 21.5757 103.829 21.4974C103.972 21.1287 104.137 20.7627 104.055 20.3514C103.983 19.99 103.833 19.6856 103.46 19.5352C103.268 19.4578 103.192 19.2959 103.215 19.1013C103.226 19.0027 103.282 18.9409 103.375 18.9119C103.61 18.8395 103.804 18.9412 103.983 19.069C104.782 19.639 104.937 20.5597 104.546 21.4316C104.481 21.5772 104.529 21.632 104.646 21.681C104.692 21.7005 104.741 21.713 104.786 21.7349C104.874 21.7784 104.925 21.7294 104.947 21.6582C105.046 21.34 105.24 21.0712 105.408 20.7917C105.656 20.3779 105.909 19.9638 106.222 19.5939C106.684 19.048 107.118 18.4769 107.658 18.001C108.093 17.6186 108.573 17.3001 109.099 17.0681C109.418 16.9275 109.768 16.8474 110.133 16.8989C110.523 16.954 110.683 17.1774 110.812 17.5346C110.963 17.9523 110.879 18.3609 110.742 18.7634C110.726 18.8093 110.704 18.8501 110.742 18.8879C110.78 18.9262 110.811 18.8788 110.845 18.8684C111.359 18.7125 111.877 18.5688 112.422 18.6376C113.059 18.718 113.307 19.1966 113.135 19.7687C113.069 19.987 112.962 20.1824 112.857 20.3822C112.681 20.7149 112.423 20.981 112.162 21.2368C111.929 21.4651 111.646 21.6426 111.386 21.8427C111.319 21.8941 111.205 21.9465 111.232 22.0263C111.257 22.0987 111.379 22.0506 111.458 22.0555C111.524 22.0594 111.59 22.0564 111.655 22.0564L111.657 22.0576ZM102.571 23.2407C102.755 23.0879 102.874 22.8894 102.948 22.6665C103.002 22.5049 102.946 22.3551 102.831 22.2927C102.703 22.2232 102.584 22.2549 102.456 22.3931C102.315 22.5463 102.213 22.728 102.096 22.8982C101.985 23.041 101.846 23.1439 101.673 23.2015C101.533 23.248 101.504 23.3516 101.594 23.4688C101.683 23.5848 101.81 23.6216 101.946 23.6021C102.201 23.5659 102.411 23.4441 102.571 23.2407ZM105.929 25.2697C105.745 25.4112 105.566 25.5592 105.363 25.6722C105.031 25.856 104.677 25.9675 104.301 26.0156C104.253 26.0217 104.175 26.001 104.162 26.0759C104.135 26.2238 104.306 26.4461 104.458 26.4707C104.639 26.5003 104.821 26.5115 105.003 26.5006C105.61 26.4644 106.121 26.2022 106.582 25.8247C106.692 25.751 106.739 25.6161 106.826 25.5367C107.048 25.3333 107.132 25.0724 107.217 24.8057C107.25 24.7021 107.218 24.6068 107.15 24.5219C107.018 24.3554 106.878 24.1961 106.729 24.0445C106.659 23.9733 106.622 23.9787 106.608 24.082C106.561 24.412 106.408 24.6945 106.207 24.9533C106.121 25.0641 106.022 25.1643 105.929 25.269V25.2697ZM107.496 27.1433C107.843 26.742 107.838 26.2899 107.687 25.8174C107.671 25.7674 107.637 25.6962 107.595 25.7842C107.46 26.0746 107.226 26.2835 107.021 26.5173C106.985 26.5042 106.966 26.5338 106.943 26.5514C106.455 26.9417 105.907 27.1935 105.281 27.2605C105.155 27.2739 105.028 27.2809 104.902 27.2964C104.858 27.3019 104.8 27.3193 104.862 27.3814C105.021 27.54 105.187 27.6992 105.409 27.7528C106.218 27.9486 106.91 27.7218 107.496 27.1433ZM104.882 24.4534C104.878 24.5128 104.802 24.5575 104.863 24.6324C104.964 24.7542 105.037 24.7639 105.138 24.6394C105.788 23.8439 105.62 22.5472 104.275 22.1678C104.252 22.1611 104.225 22.1626 104.2 22.1648C104.143 22.1693 104.103 22.1834 104.129 22.2589C104.164 22.3612 104.144 22.4689 104.148 22.5746C104.085 23.2063 103.776 23.6859 103.251 24.0351C103.082 24.1471 102.89 24.1919 102.704 24.2552C102.643 24.2756 102.594 24.2987 102.653 24.3703C102.862 24.6224 103.081 24.7606 103.443 24.5201C103.606 24.412 103.751 24.2722 103.887 24.131C104.085 23.9255 104.402 23.8691 104.652 23.9988C104.845 24.0987 104.879 24.2649 104.882 24.4537L104.882 24.4534ZM105.988 22.7286C106.422 22.6818 106.851 22.6117 107.274 22.514C108.193 22.3024 109.117 22.1158 109.993 21.7446C110.741 21.4277 111.415 21.0148 111.966 20.412C112.157 20.2038 112.313 19.9754 112.426 19.7185C112.536 19.4691 112.476 19.3647 112.204 19.3196C112.083 19.2995 111.962 19.3074 111.84 19.323C111.355 19.3848 110.903 19.5577 110.475 19.7772C109.56 20.247 108.681 20.7804 107.822 21.35C107.185 21.7729 106.597 22.2592 105.988 22.7289V22.7286ZM110.213 18.1057C110.229 17.6493 110.078 17.5199 109.704 17.5936C109.498 17.6341 109.304 17.7105 109.126 17.8192C108.356 18.2899 107.706 18.8949 107.143 19.5997C106.846 19.9712 106.539 20.3322 106.281 20.7344C106.037 21.1141 105.784 21.4867 105.578 21.8889C105.54 21.9648 105.468 22.0576 105.547 22.124C105.636 22.1992 105.702 22.0829 105.757 22.0345C106.05 21.7781 106.358 21.5409 106.671 21.3093C107.619 20.6063 108.584 19.9288 109.649 19.4073C109.722 19.3711 109.763 19.3105 109.798 19.2423C109.838 19.1659 109.88 19.0907 109.918 19.0136C110.072 18.7028 110.188 18.3804 110.213 18.1057ZM106.948 23.3424C106.97 23.3561 106.989 23.3732 107.012 23.3814C107.243 23.4685 107.488 23.4928 107.729 23.537C108.756 23.726 109.787 23.8089 110.831 23.716C111.545 23.6524 112.232 23.4937 112.862 23.1381C112.932 23.0989 113.056 23.076 113.036 22.9771C113.018 22.8903 112.898 22.8909 112.817 22.8708C112.369 22.7594 111.912 22.7722 111.456 22.7679C110.456 22.7585 109.458 22.7792 108.479 23.0176C108.081 23.1144 107.681 23.1896 107.276 23.248C107.164 23.2645 107.046 23.2581 106.948 23.3421V23.3424Z" fill="#231F20"/>
<path d="M104.88 24.4533C104.878 24.2645 104.843 24.098 104.651 23.9984C104.4 23.8687 104.084 23.9253 103.886 24.1306C103.749 24.2718 103.604 24.4119 103.442 24.5197C103.079 24.7605 102.86 24.6223 102.652 24.3699C102.593 24.2983 102.642 24.2752 102.702 24.2548C102.889 24.1914 103.081 24.1467 103.249 24.0346C103.774 23.6854 104.084 23.2059 104.147 22.5739C104.176 22.6247 104.222 22.6615 104.275 22.6734C104.634 22.7547 104.873 22.9937 105.065 23.2857C105.3 23.6419 105.375 24.1497 104.88 24.453L104.88 24.4533Z" fill="#D69B04"/>
<path d="M107.497 27.1431C106.911 27.7215 106.22 27.9484 105.41 27.7526C105.188 27.699 105.022 27.5398 104.863 27.3812C104.801 27.3191 104.859 27.3017 104.904 27.2962C105.029 27.2807 105.156 27.2737 105.282 27.2603C105.908 27.1933 106.456 26.9412 106.945 26.5512C106.967 26.5335 106.986 26.504 107.023 26.5171C107.045 26.529 107.068 26.5387 107.089 26.553C107.169 26.6094 107.249 26.7022 107.327 26.5482C107.337 26.5265 107.361 26.5308 107.377 26.5494C107.397 26.5725 107.395 26.599 107.372 26.6161C107.319 26.6569 107.262 26.6943 107.207 26.733C107.214 26.7433 107.219 26.7515 107.225 26.7585C107.293 26.8377 107.539 26.8319 107.354 27.0338C107.333 27.0563 107.359 27.1065 107.401 27.1111C107.437 27.1151 107.471 27.1129 107.497 27.1431Z" fill="#D69B04"/>
<path d="M106.583 25.8249C106.122 26.2025 105.611 26.4646 105.005 26.5008C104.822 26.5118 104.64 26.5005 104.46 26.471C104.308 26.446 104.137 26.2241 104.163 26.0761C104.176 26.0012 104.254 26.0219 104.302 26.0158C104.678 25.9677 105.033 25.8563 105.364 25.6724C105.568 25.5594 105.747 25.4115 105.93 25.2699C106.034 25.4023 106.164 25.4766 106.337 25.4681C106.392 25.4654 106.405 25.5159 106.39 25.5549C106.316 25.7467 106.436 25.7939 106.583 25.8252V25.8249Z" fill="#D69B04"/>
<path d="M102.097 22.8986C102.133 23.0795 102.316 23.0774 102.428 23.1635C102.471 23.1961 102.523 23.2156 102.572 23.2409C102.411 23.4443 102.201 23.5661 101.947 23.6023C101.811 23.6218 101.684 23.5853 101.594 23.469C101.504 23.3517 101.534 23.2482 101.674 23.2016C101.847 23.1441 101.985 23.0411 102.097 22.8983V22.8986Z" fill="#D69B04"/>
<circle cx="10.2386" cy="63.5774" r="2.10191" fill="#231F20"/>
<circle cx="116.032" cy="36.292" r="2.10191" fill="#231F20"/>
<path d="M6.47842 24.5156C6.20617 24.2541 5.93239 24.0066 5.68329 23.7338C5.08641 23.0804 4.66037 22.3345 4.47826 21.4637C4.39634 21.0731 4.39238 20.6773 4.52881 20.2922C4.7027 19.8017 5.16376 19.6957 5.59375 19.8148C5.71313 19.848 5.82855 19.8988 5.94244 19.949C6.02741 19.9865 6.02984 19.9375 6.02253 19.8808C5.94031 19.2485 6.1209 18.6935 6.53658 18.2206C6.87431 17.8367 7.45749 17.8111 7.84851 18.1445C8.16126 18.4112 8.36195 18.7574 8.54284 19.1197C8.72678 19.4875 8.87082 19.8729 8.98349 20.2639C9.05993 20.5284 9.09708 20.8104 9.1516 21.0844C9.34041 22.0334 9.38456 22.9927 9.37573 23.9563C9.37451 24.0848 9.40557 24.1357 9.53531 24.1125C9.65225 24.0918 9.76736 24.1241 9.88217 24.1387C10.1395 24.1716 10.1355 24.1746 10.2278 23.9493C10.5186 23.239 11.0692 22.8889 11.8159 22.8161C11.8711 22.8107 11.9277 22.8152 11.9828 22.8225C12.1759 22.8475 12.302 22.9647 12.312 23.1246C12.3215 23.2722 12.1942 23.4211 12.0145 23.4613C11.9307 23.4802 11.843 23.4799 11.7581 23.4951C11.1709 23.5992 10.7714 23.9914 10.7629 24.6112C10.7613 24.7151 10.7781 24.758 10.9014 24.7266C11.0887 24.6791 11.2733 24.7129 11.4639 24.761C11.6865 24.817 11.8787 24.9145 12.0596 25.0454C12.1409 25.1042 12.1951 25.0898 12.2319 24.9991C12.3568 24.6919 12.6035 24.5202 12.8806 24.3567C13.2019 24.167 13.5326 24.0775 13.8986 24.1025C13.9915 24.1089 14.0868 24.1204 14.1751 24.1485C14.2994 24.1874 14.3557 24.3436 14.3238 24.5199C14.303 24.6325 14.173 24.7409 14.0396 24.7364C13.7707 24.7269 13.514 24.7686 13.2716 24.8871C13.0679 24.9863 12.8928 25.1197 12.7658 25.3121C12.7015 25.4098 12.6902 25.4996 12.7423 25.6105C12.9491 26.048 13.0106 26.5123 12.9659 26.9906C12.9217 27.4613 12.5931 27.7986 12.1208 27.8689C11.9691 27.8915 11.8172 27.8851 11.6655 27.8696C11.622 27.865 11.572 27.8312 11.5397 27.8796C11.5038 27.9341 11.5501 27.9728 11.5836 28.0105C11.9709 28.4486 12.0602 28.9623 11.9502 29.5185C11.9207 29.6677 11.8744 29.8141 11.741 29.9253C11.6375 30.0114 11.5376 30.0297 11.4222 29.9944C11.3546 29.9737 11.2806 29.7356 11.3046 29.6366C11.3591 29.4138 11.4021 29.1909 11.3549 28.9601C11.3281 28.8301 11.2882 28.705 11.2267 28.5878C11.1898 28.5171 11.1426 28.484 11.0826 28.5695C11.0768 28.5777 11.0686 28.5872 11.0598 28.5893C10.8128 28.6478 10.8859 28.8225 10.9002 28.9915C10.9587 29.6832 10.6368 30.1996 10.1221 30.6194C10.0174 30.705 9.91049 30.7905 9.78045 30.8389C9.5959 30.9078 9.41715 30.8517 9.32457 30.6821C9.27767 30.596 9.30599 30.5086 9.36385 30.4316C9.45339 30.3119 9.57489 30.2282 9.68879 30.1353C9.9784 29.8988 10.215 29.6275 10.2628 29.2366C10.2659 29.2116 10.2698 29.1863 10.2701 29.1611C10.2723 28.8259 10.2729 28.8697 10.0037 28.8682C9.74147 28.8667 9.51216 28.7838 9.3468 28.5613C9.25057 28.4316 9.08277 28.448 8.94878 28.3981C8.85955 28.3649 8.77276 28.3336 8.69784 28.2766C8.61318 28.2121 8.56416 28.2288 8.56872 28.3345C8.58578 28.722 8.47949 29.0886 8.31657 29.4253C8.13751 29.7956 7.89479 30.1359 7.58295 30.4145C7.16879 30.7848 6.70773 31.07 6.16719 31.2293C5.98386 31.2832 5.80419 31.3361 5.61507 31.3559C5.53468 31.3644 5.45306 31.3632 5.37784 31.3215C5.19451 31.2204 5.17442 31.0722 5.32059 30.9254C5.40312 30.8426 5.50666 30.8055 5.61264 30.7698C6.12516 30.5963 6.61911 30.3826 7.02292 30.0126C7.44439 29.6263 7.77694 29.1781 7.8951 28.6003C7.91581 28.4995 7.92251 28.3993 7.91093 28.2979C7.90728 28.266 7.92312 28.2169 7.8753 28.2096C7.83358 28.2032 7.82232 28.2483 7.80526 28.2781C7.53058 28.7644 7.14808 29.1553 6.69129 29.4652C5.80084 30.0696 4.83243 30.2867 3.77053 30.0133C3.13801 29.8504 2.58438 29.5614 2.15803 29.0594C2.02343 28.9008 1.91502 28.7217 1.9141 28.4995C1.90862 27.0554 2.45465 25.8921 3.67216 25.0798C4.10521 24.7909 4.58454 24.6091 5.10255 24.5269C5.44393 24.4727 5.78683 24.462 6.12638 24.4974C6.24271 24.5095 6.35843 24.4958 6.47872 24.5165L6.47842 24.5156ZM11.868 26.4986C11.7693 26.3351 11.678 26.1679 11.6189 25.9846C11.5894 25.8927 11.5431 25.8081 11.4822 25.7332C11.4143 25.6491 11.3266 25.598 11.2166 25.63C11.107 25.6619 11.033 25.7386 11.0169 25.854C11.0071 25.9231 11.0059 25.9962 11.0178 26.0647C11.061 26.3129 11.1612 26.536 11.332 26.7245C11.477 26.9251 11.653 27.0895 11.8863 27.1815C12.0361 27.2405 12.2575 27.1848 12.3473 27.0737C12.4201 26.9839 12.4098 26.8804 12.3071 26.853C12.1034 26.7988 11.992 26.6435 11.868 26.498V26.4986ZM6.60876 26.9373C6.60175 26.8517 6.59049 26.7662 6.58866 26.6803C6.57922 26.2812 6.65352 25.8942 6.76894 25.5143C6.79696 25.4223 6.78173 25.373 6.68306 25.3468C6.46776 25.2893 6.25611 25.2278 6.0271 25.2409C5.93392 25.2463 5.90864 25.2817 5.88458 25.3584C5.73993 25.8199 5.70917 26.2928 5.74054 26.7714C5.74724 26.8749 5.71618 26.9848 5.7783 27.0819C5.82429 27.4001 5.92387 27.7036 6.04355 27.9999C6.13673 28.23 6.23571 28.4581 6.40868 28.6438C6.49943 28.7415 6.58805 28.7875 6.6986 28.6642C6.75889 28.5969 6.83198 28.5388 6.90659 28.487C7.00617 28.4179 7.01348 28.3332 6.96536 28.2355C6.76376 27.8254 6.66449 27.3873 6.60876 26.9373ZM9.88247 25.4397L9.89008 25.4348L9.88582 25.4281C9.92632 25.3115 9.98662 25.2013 10.0746 25.1197C10.1861 25.0168 10.1578 24.9623 10.0405 24.9038C9.95403 24.8606 9.86633 24.8222 9.77223 24.8003C9.30295 24.6904 8.88361 24.8091 8.48924 25.0685C8.18806 25.2667 7.98128 25.5447 7.88718 25.8772C7.78395 26.2413 7.80678 26.6258 7.91672 26.9903C7.96545 27.1519 8.00747 27.338 8.18258 27.433C8.23709 27.5091 8.32692 27.4899 8.40093 27.5136C8.43686 27.5252 8.47493 27.5715 8.51086 27.5334C8.54923 27.4929 8.49472 27.4628 8.4798 27.4296C8.37473 27.1952 8.51208 26.835 8.73347 26.8134C9.08399 26.7793 9.38578 26.8368 9.58921 27.2211C9.7366 27.4993 9.90562 27.7499 10.1672 27.942C10.4264 28.1326 10.8012 28.0909 10.9745 27.8187C11.0208 27.7459 11.0357 27.703 10.9276 27.6665C10.5923 27.5532 10.3402 27.3237 10.1398 27.0414C9.7969 26.5589 9.70889 26.027 9.86664 25.4555C9.8776 25.4558 9.88278 25.4506 9.88247 25.4397ZM4.43471 27.3371C4.41461 27.1459 4.3735 26.9577 4.36741 26.7638C4.35523 26.3707 4.38964 25.9843 4.49257 25.6044C4.50262 25.5675 4.53003 25.5222 4.48922 25.4917C4.45816 25.4686 4.42101 25.4972 4.38873 25.5088C4.22702 25.5681 4.07323 25.6446 3.92188 25.7271C3.67704 25.8604 3.47635 26.0303 3.40722 26.3156C3.36824 26.477 3.36672 26.642 3.36824 26.8064C3.37159 27.1678 3.31891 27.5374 3.50954 27.8744C3.60243 28.2915 3.78119 28.6748 4.00989 29.0298C4.12135 29.2028 4.26478 29.3791 4.49013 29.422C4.74442 29.4704 4.99474 29.422 5.24111 29.3556C5.30871 29.3374 5.32181 29.3008 5.27156 29.2472C5.0322 28.9921 4.88024 28.6828 4.73437 28.3704C4.67103 28.2343 4.5885 28.0985 4.56566 27.9545C4.53246 27.7453 4.46729 27.5447 4.4341 27.3368L4.43471 27.3371ZM5.0791 20.9261C5.0928 21.0195 5.10468 21.1355 5.12752 21.2494C5.2408 21.8075 5.52189 22.2906 5.82672 22.7586C6.32554 23.5243 7.03114 24.079 7.76567 24.5991C7.82688 24.6423 7.92586 24.6834 7.99316 24.6405C8.06868 24.5924 7.99742 24.508 7.9761 24.4499C7.87926 24.1847 7.76232 23.9268 7.66792 23.661C7.34816 22.7595 6.97267 21.8875 6.38219 21.123C6.16688 20.8445 5.91016 20.6256 5.5834 20.4867C5.30384 20.368 5.13148 20.4618 5.09493 20.7671C5.08945 20.8125 5.0858 20.8579 5.07879 20.9264L5.0791 20.9261ZM6.71321 19.4905C6.70651 19.5877 6.72174 19.6823 6.73666 19.7779C6.80762 20.2343 7.0351 20.6277 7.24949 21.0223C7.76354 21.9679 8.20146 22.9446 8.53005 23.97C8.55015 24.0328 8.56964 24.0958 8.58791 24.1588C8.60161 24.2063 8.62293 24.2486 8.68048 24.2367C8.72677 24.227 8.76454 24.1981 8.7624 24.1421C8.76119 24.1067 8.75783 24.0711 8.75327 24.0361C8.70485 23.6537 8.68079 23.2689 8.66343 22.8843C8.61318 21.7633 8.45056 20.6657 8.01326 19.6221C7.88749 19.3219 7.74162 19.0323 7.52509 18.786C7.32806 18.5613 7.12189 18.5671 6.93918 18.7958C6.77686 18.9988 6.72265 19.2375 6.71291 19.4905H6.71321Z" fill="#231F20"/>
<path d="M9.86666 25.4552C9.70891 26.0266 9.79692 26.5585 10.1398 27.0411C10.3402 27.3233 10.5924 27.5529 10.9276 27.6662C11.0358 27.7027 11.0208 27.7456 10.9745 27.8184C10.8016 28.0906 10.4264 28.1323 10.1672 27.9417C9.90564 27.7493 9.73662 27.499 9.58923 27.2207C9.3858 26.8365 9.08401 26.7787 8.73349 26.8131C8.5121 26.8347 8.37476 27.1949 8.47982 27.4293C8.49474 27.4625 8.54926 27.4929 8.51088 27.5331C8.47495 27.5712 8.43688 27.5249 8.40095 27.5133C8.32725 27.4896 8.23711 27.5091 8.1826 27.4326C8.19326 27.3672 8.19356 27.3026 8.17346 27.2378C8.06901 26.8971 8.06475 26.5598 8.17529 26.216C8.31842 25.7703 8.84191 25.3054 9.41108 25.3523C9.57035 25.3654 9.70952 25.4463 9.86666 25.4552Z" fill="#D69B04"/>
<path d="M3.51172 27.8745C3.75169 27.68 4.04648 27.5972 4.32878 27.4967C4.43049 27.4605 4.43445 27.4124 4.43658 27.3365C4.46977 27.5448 4.53525 27.7451 4.56814 27.9543C4.59098 28.0983 4.67351 28.2344 4.73685 28.3702C4.88242 28.6826 5.03468 28.9916 5.27404 29.247C5.32429 29.3006 5.31119 29.3372 5.24359 29.3554C4.99722 29.4218 4.7469 29.4702 4.49262 29.4218C4.26726 29.3789 4.12352 29.2026 4.01237 29.0296C3.78367 28.6746 3.6046 28.2913 3.51202 27.8742L3.51172 27.8745Z" fill="#D69B04"/>
<path d="M5.77734 27.082C6.05416 27.0336 6.33098 26.9855 6.6081 26.9374C6.66383 27.3874 6.76311 27.8255 6.96471 28.2356C7.01283 28.3336 7.00552 28.418 6.90594 28.4871C6.83133 28.5388 6.75824 28.597 6.69794 28.6643C6.5874 28.7876 6.49878 28.7416 6.40803 28.6439C6.23505 28.4582 6.13608 28.2298 6.04289 27.9999C5.92291 27.7034 5.82363 27.4002 5.77765 27.082H5.77734Z" fill="#D69B04"/>
<path d="M11.3321 26.7248C11.3589 26.6965 11.3939 26.6929 11.4286 26.6968C11.615 26.7185 11.7529 26.6338 11.868 26.4986C11.992 26.6442 12.1034 26.7995 12.3071 26.8537C12.4097 26.8811 12.4201 26.9846 12.3473 27.0744C12.2572 27.1853 12.0361 27.2413 11.8863 27.1822C11.653 27.0903 11.477 26.9255 11.3321 26.7252V26.7248Z" fill="#D69B04"/>
<path d="M8.89063 83.8638C8.97681 83.8829 9.05386 83.8656 9.13303 83.8467C9.44152 83.7727 9.75276 83.7383 10.0673 83.8035C10.4191 83.8762 10.6395 84.2078 10.5726 84.5622C10.4395 85.2649 10.0168 85.7806 9.48324 86.2185C9.06269 86.5631 8.59036 86.8252 8.10372 87.067C7.87227 87.1821 7.63718 87.2719 7.38898 87.3343C7.35244 87.3434 7.31315 87.3504 7.30524 87.3864C7.29397 87.436 7.34056 87.4491 7.37619 87.4695C7.60703 87.6031 7.82842 87.7484 8.03185 87.9237C8.31872 88.171 8.54742 88.4626 8.70974 88.8003C9.01548 89.4354 9.11263 90.0997 8.99234 90.8024C8.93113 91.1595 8.69816 91.3459 8.41982 91.4926C7.91247 91.7599 7.3634 91.9048 6.79058 91.8616C5.72655 91.7812 4.86746 91.3306 4.30773 90.3883C4.27941 90.3405 4.25414 90.2906 4.23099 90.2397C4.13801 90.0362 3.99366 89.983 3.79795 90.0802C3.71999 90.1192 3.75105 90.1828 3.75958 90.2394C3.88352 91.0679 4.35311 91.6314 5.10348 91.9727C5.31543 92.0692 5.53713 92.1444 5.75395 92.23C5.92175 92.2964 6.00519 92.4215 5.97778 92.5637C5.94825 92.7177 5.83009 92.8073 5.65194 92.8079C5.3337 92.8088 5.06571 92.6483 4.79255 92.5208C4.2179 92.2528 3.75684 91.8473 3.43373 91.2977C3.24553 90.9781 3.14412 90.6288 3.13833 90.2559C3.13712 90.1798 3.13194 90.135 3.03358 90.1378C2.71717 90.1463 2.43426 90.0434 2.19185 89.8415C2.09623 89.7621 2.04933 89.7669 2.01553 89.8902C1.92021 90.2379 1.97838 90.568 2.12151 90.8898C2.15226 90.9592 2.18698 91.028 2.20921 91.1002C2.25946 91.264 2.14039 91.4746 1.9802 91.5054C1.91199 91.5185 1.8593 91.4759 1.81088 91.4308C1.41347 91.0597 1.31267 90.5868 1.35013 90.0702C1.37236 89.7618 1.4628 89.4743 1.64339 89.2177C1.71161 89.1209 1.68268 89.0691 1.56726 89.0575C0.864095 88.9869 0.47734 88.4861 0.587581 87.7852C0.655491 87.3532 0.836383 86.972 1.13056 86.6493C1.22557 86.5451 1.24994 86.452 1.18111 86.325C0.986821 85.9673 0.724315 85.6981 0.316243 85.5901C0.181641 85.5544 0.0214571 85.5276 0.00196712 85.3373C-0.0190455 85.1306 0.141747 84.9626 0.365577 84.9887C0.671022 85.0244 0.949668 85.1321 1.20304 85.309C1.51457 85.5264 1.70704 85.8278 1.82063 86.1816C1.85382 86.2851 1.89676 86.2897 1.98568 86.2626C2.17571 86.2048 2.3697 86.181 2.57008 86.2118C2.72143 86.2349 2.79361 86.1728 2.80518 86.0041C2.83137 85.6141 2.74458 85.2618 2.40959 85.0195C2.29935 84.9397 2.16597 84.8916 2.04172 84.8316C1.866 84.7467 1.77312 84.6149 1.80784 84.4946C1.86022 84.3119 2.0067 84.2051 2.20525 84.2291C2.46258 84.2605 2.70468 84.3524 2.90385 84.5174C3.23 84.7878 3.40906 85.1385 3.44134 85.5681C3.45535 85.7551 3.47393 85.938 3.4386 86.1241C3.42216 86.2108 3.43525 86.2705 3.55554 86.2873C3.66883 86.3028 3.78851 86.3832 3.89418 86.3485C4.01721 86.3077 4.00838 86.1484 4.05193 86.0416C4.25261 85.5462 4.52639 85.0889 4.82696 84.6548C5.11139 84.244 5.44272 83.8641 5.77984 83.4905C6.00732 83.2384 6.25887 83.0186 6.51163 82.7972C6.80306 82.5418 7.14658 82.3689 7.49374 82.2035C7.73919 82.0866 7.99896 82.0352 8.26877 82.051C8.67258 82.0745 8.91225 82.2791 9.01305 82.6703C9.09984 83.0064 9.05233 83.3346 8.95702 83.6601C8.93722 83.7277 8.91377 83.794 8.89093 83.8644L8.89063 83.8638ZM1.54076 87.8826C1.4896 87.903 1.43996 87.935 1.38698 87.9414C1.24659 87.9587 1.19329 88.0352 1.21217 88.1688C1.23136 88.3043 1.32302 88.3478 1.44758 88.3533C1.75119 88.3667 1.9933 88.2458 2.1885 88.0199C2.33407 87.8756 2.44065 87.7045 2.50765 87.5127C2.55029 87.3903 2.5984 87.2524 2.45405 87.158C2.31823 87.0694 2.20434 87.1507 2.09501 87.225C2.06669 87.2442 2.04598 87.2752 2.02284 87.3017C1.85717 87.4911 1.72775 87.7106 1.54107 87.8826H1.54076ZM7.15906 89.6564C6.97756 90.146 6.7452 90.6081 6.41022 91.0125C6.33865 91.0989 6.40717 91.1178 6.46503 91.133C6.66146 91.1851 6.86153 91.2128 7.06527 91.1939C7.17002 91.1842 7.26108 91.14 7.32442 91.0536C7.54977 90.7461 7.72031 90.4118 7.80893 90.0385C7.8942 89.8102 7.93805 89.5724 7.98617 89.3343C8.08575 88.8389 7.78122 88.5789 7.43436 88.308C7.3564 88.2471 7.34513 88.3003 7.34269 88.3695C7.33782 88.501 7.32777 88.6325 7.31955 88.7637C7.30067 89.0673 7.21144 89.3583 7.15937 89.6558L7.15906 89.6564ZM4.32844 88.6803C4.42133 88.8867 4.29068 89.0816 4.29738 89.2831C4.48954 89.1507 4.52334 89.1047 4.60831 88.9096C4.75966 88.5613 4.74991 88.2084 4.64028 87.8546C4.48771 87.3626 4.13781 87.0874 3.64721 86.9735C3.58478 86.9592 3.50316 86.9409 3.54945 87.0478C3.6335 87.2427 3.61614 87.4445 3.61767 87.6464C3.43982 88.2553 3.09783 88.7153 2.46837 88.9163C2.41294 88.9339 2.33589 88.9409 2.33285 89.0177C2.3295 89.0983 2.37944 89.1592 2.44583 89.204C2.64987 89.3413 2.89441 89.3142 3.06312 89.1266C3.18158 88.9951 3.28573 88.8505 3.40358 88.7181C3.69228 88.3935 4.03061 88.3816 4.32875 88.6803H4.32844ZM5.40131 88.8892C5.33035 89.1866 5.22711 89.4692 5.03161 89.7118C4.97527 89.7818 4.93568 89.8662 4.89183 89.9459C4.85467 90.0135 4.86107 90.0793 4.90248 90.1463C5.01821 90.3335 5.16225 90.4937 5.33279 90.6325C5.38973 90.6788 5.41653 90.6788 5.46313 90.6179C5.79598 90.1837 6.05057 89.7118 6.17634 89.1757C6.29754 88.7646 6.31155 88.3399 6.34079 87.9167C6.34809 87.8123 6.28567 87.8242 6.22628 87.837C5.98418 87.889 5.7433 87.9457 5.5015 87.9992C5.45034 88.0105 5.41227 88.0346 5.42536 88.0906C5.4884 88.3591 5.42049 88.6234 5.40131 88.8889V88.8892ZM9.69398 84.438C9.24601 84.4867 8.80353 84.6441 8.37932 84.8542C7.90334 85.0895 7.47273 85.4007 7.02141 85.6774C6.59659 85.938 6.18152 86.2084 5.79567 86.5229C5.55753 86.7172 5.32213 86.9151 5.08794 87.1142C5.05231 87.1446 4.99689 87.1799 5.02643 87.2396C5.06023 87.3078 5.11474 87.2597 5.15951 87.25C5.72381 87.1273 6.28414 86.9909 6.83534 86.8149C7.69016 86.5421 8.47068 86.1359 9.15496 85.5547C9.44975 85.3045 9.70799 85.018 9.86056 84.6535C9.92207 84.5071 9.87244 84.4355 9.69428 84.4383L9.69398 84.438ZM4.56902 86.5074L4.59795 86.5369C4.65764 86.4928 4.72098 86.4523 4.77671 86.4033C5.1254 86.0973 5.51551 85.8461 5.88825 85.5727C6.41601 85.1857 6.96812 84.8323 7.5047 84.4572C7.92983 84.16 8.2103 83.7548 8.34765 83.2545C8.38906 83.1035 8.40977 82.94 8.29222 82.8143C8.16554 82.6785 8.01114 82.7473 7.86618 82.7936C7.84213 82.8012 7.81837 82.8103 7.79492 82.8195C7.32442 83.0006 6.94893 83.324 6.60695 83.675C6.32282 83.9664 6.03991 84.2611 5.77497 84.5741C5.27584 85.1638 4.94086 85.8446 4.56902 86.5071V86.5074Z" fill="#231F20"/>
<path d="M6.1763 89.1755C6.05084 89.7117 5.79594 90.1836 5.46309 90.6178C5.4165 90.6787 5.3897 90.6787 5.33275 90.6324C5.16221 90.4935 5.01817 90.3334 4.90245 90.1462C4.86103 90.0792 4.85464 90.0134 4.89179 89.9458C4.93564 89.866 4.97493 89.7817 5.03157 89.7117C5.22708 89.4687 5.33001 89.1865 5.40127 88.889C5.47223 88.8921 5.53405 88.9277 5.60074 88.9454C5.80234 88.9993 5.96557 89.1472 6.17661 89.1755H6.1763Z" fill="#D69B04"/>
<path d="M4.32818 88.6805C4.03005 88.3815 3.69171 88.3937 3.40302 88.7182C3.28516 88.8507 3.18102 88.995 3.06255 89.1268C2.89354 89.3147 2.6493 89.3418 2.44527 89.2041C2.37888 89.1597 2.32924 89.0985 2.33229 89.0178C2.33533 88.9411 2.41268 88.9341 2.4678 88.9164C3.09727 88.7155 3.43926 88.2554 3.6171 87.6465C4.1814 87.6243 4.28433 87.9312 4.42228 88.2908C4.47527 88.4284 4.45974 88.5751 4.32788 88.6808L4.32818 88.6805Z" fill="#D69B04"/>
<path d="M7.80841 90.039C7.71948 90.4119 7.54925 90.7462 7.3239 91.054C7.26055 91.1402 7.1695 91.1846 7.06474 91.1944C6.86131 91.2133 6.66093 91.1855 6.46451 91.1335C6.40665 91.1183 6.33813 91.0994 6.40969 91.0129C6.74468 90.6083 6.97704 90.1464 7.15854 89.6569C7.28492 89.7552 7.44266 89.7732 7.58701 89.8261C7.6872 89.8627 7.84952 89.8505 7.80841 90.0396V90.039Z" fill="#D69B04"/>
<path d="M1.53939 87.8825C1.76533 87.8818 1.97544 87.9552 2.18707 88.0198C1.99189 88.2457 1.7498 88.3666 1.44621 88.3532C1.32197 88.3477 1.23001 88.3045 1.21082 88.1687C1.19195 88.035 1.24523 87.9586 1.38561 87.9412C1.4386 87.9348 1.48823 87.9025 1.53939 87.8825Z" fill="#D69B04"/>
<path d="M67.3174 3.23832C67.6161 3.21731 67.9201 3.28368 68.2124 3.41338C68.2496 3.42982 68.2977 3.47366 68.3348 3.43043C68.3635 3.39724 68.3239 3.35432 68.3099 3.31809C68.0468 2.63214 68.0166 1.93188 68.206 1.22706C68.3275 0.775849 68.5514 0.380661 68.971 0.133136C69.394 -0.116217 69.8608 -0.0127009 70.1419 0.421763C70.3003 0.666548 70.3633 0.940561 70.3798 1.2298C70.3837 1.30013 70.3408 1.40486 70.4203 1.43592C70.4827 1.46027 70.5351 1.36863 70.5887 1.32448C70.8631 1.09949 71.1712 0.957306 71.5297 0.943909C71.9463 0.928382 72.2401 1.17956 72.2864 1.59454C72.3321 2.00221 72.1817 2.36056 71.9877 2.70521C71.9627 2.74936 71.9314 2.78954 71.9043 2.83217C71.8805 2.86962 71.8351 2.90646 71.8616 2.95334C71.8857 2.99657 71.9356 2.96613 71.9737 2.96674C72.1628 2.96917 72.3312 3.08 72.3617 3.22401C72.4006 3.4076 72.2548 3.59788 72.0635 3.60367C71.9594 3.60671 71.8564 3.58753 71.7523 3.57048C71.516 3.53212 71.2949 3.61067 71.1076 3.7559C70.9946 3.84358 70.8993 3.95502 70.8012 4.06066C70.7537 4.11181 70.7151 4.16266 70.8332 4.19371C71.0034 4.23847 71.1399 4.34777 71.241 4.48965C71.2851 4.55175 71.3162 4.54627 71.3619 4.50822C71.7148 4.2132 72.1363 4.18001 72.5693 4.19249C72.6528 4.19493 72.728 4.23268 72.7935 4.27987C72.9089 4.36299 72.9756 4.47381 72.9296 4.62117C72.8851 4.76366 72.7746 4.81511 72.6342 4.80841C72.3805 4.79654 72.1311 4.78284 71.8899 4.90097C71.6947 4.99657 71.6411 5.05198 71.6381 5.26723C71.6326 5.64233 71.5257 5.98241 71.3004 6.28596C71.1082 6.54505 70.8539 6.64705 70.5424 6.59316C70.4172 6.57154 70.4075 6.6032 70.4096 6.7192C70.419 7.23252 70.2007 7.63715 69.7905 7.941C69.7744 7.95318 69.7576 7.96566 69.739 7.97327C69.619 8.02381 69.4969 8.06278 69.3919 7.94739C69.3127 7.86032 69.33 7.70321 69.4363 7.59178C69.6142 7.40545 69.7625 7.20451 69.8179 6.94633C69.8615 6.74295 69.8484 6.75635 69.6489 6.77766C69.3511 6.80932 69.2101 6.96795 69.084 7.22521C68.8644 7.67277 68.4761 7.93369 67.9877 8.04116C67.9728 8.04451 67.9581 8.04847 67.9432 8.0506C67.7556 8.07861 67.6116 8.01133 67.5805 7.88132C67.5467 7.74036 67.6429 7.6064 67.8217 7.5455C68.1503 7.43316 68.4073 7.22856 68.5983 6.93993C68.6634 6.84159 68.5413 6.55571 68.4253 6.53561C68.3772 6.52739 68.3559 6.56941 68.3324 6.60138C68.1348 6.86839 67.8783 7.0401 67.5498 7.11013C66.8024 7.26997 66.1142 7.14423 65.5167 6.66196C65.1324 6.35172 64.8748 5.94466 64.7551 5.45752C64.7274 5.34487 64.7353 5.22613 64.7691 5.12962C65.0279 4.3913 65.4859 3.81679 66.2013 3.47092C66.5454 3.30469 66.9157 3.24684 67.3174 3.23892V3.23832ZM70.659 5.43773C70.6404 5.28185 70.6794 5.12383 70.6377 4.96826C70.6118 4.87205 70.5607 4.78284 70.4647 4.7801C70.363 4.77705 70.3198 4.87631 70.2966 4.96795C70.2452 5.17194 70.2376 5.37775 70.2784 5.58479C70.332 5.73732 70.3892 5.88894 70.536 5.97967C70.6069 6.02351 70.6831 6.05183 70.7568 5.98211C70.8274 5.91573 70.8487 5.83414 70.7988 5.75102C70.7388 5.65177 70.7004 5.5446 70.659 5.43773ZM69.5913 4.83581C69.6666 4.64461 69.7713 4.47259 69.9278 4.33711C70.0238 4.25369 69.9933 4.22751 69.887 4.19828C69.3057 4.03935 68.5855 4.48173 68.474 5.07329C68.4649 5.12262 68.446 5.17803 68.4865 5.23648C68.5559 5.18107 68.6062 5.11348 68.6884 5.09461C68.7843 5.09369 68.8806 5.08821 68.9765 5.09278C69.1641 5.10161 69.2439 5.17864 69.2512 5.36497C69.2576 5.52176 69.2518 5.67917 69.2527 5.83627C69.2545 6.22902 69.2975 6.26038 69.6839 6.15443C69.6937 6.15169 69.7037 6.14956 69.7135 6.14773C69.7954 6.1316 69.7948 6.08897 69.7549 6.02838C69.5112 5.65694 69.4686 5.25749 69.5913 4.83551V4.83581ZM66.3012 4.91893C66.3983 4.59468 66.5539 4.29753 66.7312 4.00586C66.3411 4.09933 66.0274 4.28657 65.841 4.64857C65.6833 4.9095 65.6815 5.20573 65.6385 5.49497C65.5855 5.85271 65.7957 6.04878 66.0493 6.22324C66.1526 6.29418 66.1934 6.2683 66.1845 6.13768C66.1568 5.72453 66.2016 5.3193 66.3012 4.91893ZM67.7873 5.16098C67.8403 4.92289 67.9316 4.70155 68.0538 4.48904C68.1061 4.3977 68.2685 4.33163 68.1966 4.21289C68.1424 4.12308 68.0114 4.07984 67.9015 4.03905C67.8826 4.03204 67.861 4.0293 67.8448 4.01834C67.7221 3.93705 67.6378 3.99125 67.5656 4.09446C67.3637 4.38308 67.2181 4.69607 67.1511 5.04315C67.0086 5.46635 67.0104 5.89594 67.0893 6.33041C67.1118 6.45554 67.1749 6.49908 67.3003 6.48324C67.4547 6.46376 67.5942 6.41109 67.7261 6.33315C67.7885 6.29631 67.8217 6.24668 67.8004 6.16904C67.7087 5.83414 67.7425 5.49741 67.7873 5.16067V5.16098ZM68.7688 2.03601C68.7883 2.52284 68.8937 3.01302 68.9987 3.50289C69.0094 3.55252 68.9868 3.66091 69.0758 3.63411C69.176 3.60397 69.3444 3.66882 69.3684 3.50928C69.4278 3.11684 69.5021 2.72804 69.5828 2.33955C69.6257 2.13343 69.6477 1.92244 69.6745 1.71328C69.7092 1.44201 69.7485 1.16952 69.6638 0.900069C69.5922 0.671724 69.4065 0.612354 69.2155 0.757885C69.1641 0.79716 69.1202 0.848615 69.0794 0.899764C68.8172 1.22858 68.7831 1.62133 68.7685 2.03601H68.7688ZM71.4353 1.59758C71.2172 1.63047 71.0175 1.75712 70.8585 1.94101C70.4693 2.39131 70.1858 2.90158 70.0247 3.47671C70.0107 3.52725 69.9662 3.58845 70.0311 3.6265C70.0862 3.65878 70.1355 3.61554 70.1797 3.57901C70.5329 3.28612 70.8698 2.97496 71.1877 2.64493C71.3963 2.42846 71.5626 2.17849 71.6545 1.88743C71.7121 1.70567 71.6384 1.59698 71.435 1.59758H71.4353Z" fill="#231F20"/>
<path d="M67.7869 5.16079C67.7422 5.49753 67.7081 5.83426 67.8 6.16916C67.8213 6.2468 67.7881 6.29612 67.7257 6.33327C67.5938 6.41121 67.4541 6.46388 67.3 6.48336C67.1742 6.4992 67.1115 6.45566 67.0889 6.33053C67.0101 5.89606 67.0082 5.46647 67.1508 5.04327C67.3569 5.1136 67.5744 5.12456 67.7869 5.1611V5.16079Z" fill="#D69B04"/>
<path d="M66.3037 4.9191C66.2044 5.31947 66.1597 5.72501 66.1871 6.13785C66.1959 6.26816 66.1551 6.29434 66.0519 6.2234C65.7982 6.04895 65.5881 5.85288 65.6411 5.49514C65.684 5.2059 65.6858 4.90936 65.8436 4.64844C65.8883 4.84146 66.0181 4.91758 66.3037 4.9188V4.9191Z" fill="#D69B04"/>
<path d="M69.5904 4.8359C69.468 5.25788 69.5103 5.65733 69.754 6.02877C69.7939 6.08935 69.7945 6.13198 69.7126 6.14811C69.7025 6.14994 69.6928 6.15238 69.683 6.15481C69.2969 6.26076 69.2539 6.2291 69.2518 5.83665C69.2512 5.67955 69.2567 5.52215 69.2503 5.36535C69.243 5.17902 69.1629 5.10169 68.9756 5.09316C68.8797 5.0886 68.7834 5.09408 68.6875 5.09499C68.7371 4.97016 68.8236 4.87304 68.9278 4.79297C69.186 4.59476 69.4309 4.61242 69.5907 4.8362L69.5904 4.8359Z" fill="#D69B04"/>
<path d="M70.2773 5.58458C70.3757 5.57696 70.4741 5.56478 70.5727 5.56265C70.6665 5.56052 70.6516 5.49383 70.658 5.4375C70.6994 5.54438 70.7378 5.65157 70.7977 5.75084C70.848 5.83397 70.8264 5.91558 70.7557 5.98196C70.6817 6.05139 70.6059 6.02337 70.535 5.97952C70.3882 5.88878 70.3309 5.73744 70.2773 5.58458Z" fill="#D69B04"/>
</svg>
