<svg xmlns="http://www.w3.org/2000/svg" width="126" height="133" fill="none"><path fill="#231F20" stroke="#231F20" stroke-width="1.62" d="M25.75 110.791V70.624h81.555v40.167L66.622 132z"/><path fill="#F8EFDA" stroke="#231F20" stroke-width="1.682" d="M22.719 104.399v-41.95h88.096v41.952a1.62 1.62 0 0 1-.872 1.437l-43.075 22.43-43.274-22.431a1.62 1.62 0 0 1-.875-1.438Z"/><path fill="#EDD8A2" stroke="#231F20" stroke-width="1.682" d="M66.868 128.268V67.681l43.947-5.231V104.4c0 .604-.337 1.158-.872 1.437z"/><path stroke="#231F20" stroke-width=".841" d="M22.719 82.122V62.45h88.096v19.674a1.62 1.62 0 0 1-.872 1.437l-40.835 21.264a4.86 4.86 0 0 1-4.482.004l-41.032-21.27a1.62 1.62 0 0 1-.875-1.437Z"/><path fill="#FBF7EC" stroke="#231F20" stroke-width="1.682" d="M19.073 56.57v-9.93a4.86 4.86 0 0 1 2.452-4.22l43.038-24.564a4.86 4.86 0 0 1 4.827.005l42.83 24.556a4.86 4.86 0 0 1 2.443 4.217v9.942a4.86 4.86 0 0 1-2.588 4.297l-42.83 22.655a4.86 4.86 0 0 1-4.537.004L21.67 60.871a4.86 4.86 0 0 1-2.596-4.301Z"/><path fill="#F8EFDA" stroke="#231F20" stroke-width=".841" d="M64.577 69.595 21.553 45.222a1.62 1.62 0 0 1-.005-2.816l43.015-24.55a4.86 4.86 0 0 1 4.827.005l42.812 24.546c1.088.624 1.086 2.194-.004 2.814L69.377 69.59a4.86 4.86 0 0 1-4.8.004Z"/><path fill="#EDD8A2" stroke="#231F20" stroke-width="1.682" d="m66.571 67.093-40.79-22.545a.405.405 0 0 1-.005-.707L66.56 20.555a.81.81 0 0 1 .805.001l40.599 23.286a.405.405 0 0 1-.005.705L67.356 67.092a.81.81 0 0 1-.785.001Z"/><path fill="#231F20" stroke="#231F20" stroke-width=".81" d="M104.483 46.404 67.36 25.41a.81.81 0 0 0-.796 0L29.272 46.403l37.3 20.489a.81.81 0 0 0 .78 0z"/><path stroke="#231F20" stroke-width="1.682" d="M22.719 61.235v37.898c0 .606.337 1.16.875 1.439l41.032 21.269a4.86 4.86 0 0 0 4.482-.004l40.835-21.265a1.62 1.62 0 0 0 .872-1.437v-37.9M66.948 127.796v-43.72"/><path stroke="#231F20" stroke-width=".841" d="M66.948 127.796V70.624M66.868 25.389v-4.86"/><path stroke="#231F20" stroke-width=".81" d="M37.239 75.799v-5.684L50.808 77v3.298c0 2.4-2.52 3.968-4.672 2.907l-6.184-3.046a4.86 4.86 0 0 1-2.713-4.36Z"/><path fill="#231F20" stroke="#231F20" stroke-width=".81" d="M39.061 75.556v-4.429L50.807 77v3.538a1.62 1.62 0 0 1-2.302 1.47l-7.568-3.513a3.24 3.24 0 0 1-1.876-2.94Z"/><path stroke="#231F20" stroke-width=".81" d="M95.65 75.799v-5.684L82.083 77v3.298c0 2.4 2.519 3.968 4.672 2.907l6.184-3.046a4.86 4.86 0 0 0 2.713-4.36Z"/><path fill="#231F20" stroke="#231F20" stroke-width=".81" d="M93.829 75.556v-4.429L82.082 77v3.538a1.62 1.62 0 0 0 2.303 1.47l7.567-3.513a3.24 3.24 0 0 0 1.877-2.94Z"/><mask id="a" width="76" height="42" x="29" y="25" maskUnits="userSpaceOnUse" style="mask-type:alpha"><path fill="#000" d="M104.484 46.405 67.361 25.412a.81.81 0 0 0-.796-.001L29.273 46.404l37.3 20.49a.81.81 0 0 0 .78-.001z"/></mask><g stroke="#EDD8A2" stroke-width="4.204" mask="url(#a)"><path d="m73.951 23.511-49.322 27.98M80.597 29.181 38.472 53.078M87.322 34.852 45.198 58.749M97.412 39.307 51.764 65.203M107.5 42.185 61.853 68.081"/></g><path stroke="#231F20" stroke-width="1.682" d="M66.57 67.093 25.78 44.548a.405.405 0 0 1-.005-.707L66.56 20.555a.81.81 0 0 1 .805.001l40.6 23.286a.405.405 0 0 1-.005.705L67.355 67.092a.81.81 0 0 1-.785.001Z"/><circle cx="85.14" cy="8.828" r="1.261" fill="#231F20"/><circle cx="124.013" cy="77.771" r="1.261" fill="#231F20"/><circle cx="39.918" cy="18.58" r="2.102" fill="#231F20"/><circle cx="5.151" cy="46.879" r="1.261" fill="#231F20"/><path fill="#231F20" d="M111.657 22.058c.478.015.951.065 1.416.182.083.021.166.048.247.076.421.149.705.63.258 1.09-.281.288-.618.48-.982.637-.415.18-.858.281-1.297.362-.594.11-1.203.092-1.808.065-.217-.01-.44.01-.65-.034-.232-.049-.47-.066-.699-.128-.029-.008-.059-.018-.089-.017-.064 0-.151-.037-.186.023-.042.068.05.108.084.16.442.698.628 1.45.506 2.277a3.291 3.291 0 0 1-.538 1.347 2.242 2.242 0 0 1-.525.535c-.402.306-.843.374-1.335.279-.763-.148-1.313-.606-1.792-1.176-.425-.508-.71-1.083-.801-1.745-.002-.015-.01-.032-.007-.045.07-.297-.1-.398-.352-.431a.926.926 0 0 1-.407-.181c-.076-.053-.138-.055-.209.021-.183.198-.24.436-.236.694.004.262.078.508.199.742.105.2.02.388-.183.44-.129.032-.213-.044-.294-.12-.274-.26-.354-.6-.361-.954-.009-.5.087-.973.459-1.348.045-.046.046-.095.028-.152-.029-.097-.092-.182-.096-.29-.003-.066-.063-.048-.107-.051-.715-.061-1.06-.656-1.003-1.13.03-.25.114-.483.227-.706.212-.42.517-.764.903-1.03.108-.074.115-.144.081-.253-.121-.382-.423-.581-.749-.756-.08-.043-.168-.069-.25-.105-.124-.055-.182-.19-.147-.374.024-.124.113-.194.24-.199.331-.013.602.138.863.317.384.263.599.636.702 1.08.022.098.064.132.165.13.28-.004.541.067.778.22.043.028.089.066.119-.013.144-.368.309-.734.226-1.146-.072-.361-.221-.665-.595-.816-.192-.077-.268-.24-.245-.434a.212.212 0 0 1 .16-.19c.235-.072.43.03.609.158.799.57.954 1.49.563 2.363-.066.145-.017.2.099.249.046.02.095.032.14.054.089.043.139-.006.162-.077.099-.318.292-.587.46-.866.249-.414.501-.828.814-1.198.462-.546.896-1.117 1.437-1.593.435-.382.915-.7 1.44-.933.319-.14.67-.22 1.034-.17.39.056.55.28.679.637.151.417.068.826-.07 1.228-.015.046-.038.087 0 .125.039.038.069-.01.104-.02.513-.155 1.031-.3 1.576-.23.638.08.885.559.713 1.13-.066.219-.172.414-.278.614-.176.333-.433.599-.694.855-.233.228-.516.406-.777.606-.066.051-.181.104-.153.183.025.073.146.025.225.03.066.003.132 0 .198 0zm-9.086 1.183c.185-.153.303-.352.377-.575.054-.161-.002-.311-.117-.373-.128-.07-.247-.038-.374.1-.142.153-.243.335-.361.505a.873.873 0 0 1-.422.303c-.141.047-.17.15-.08.268a.358.358 0 0 0 .353.133.94.94 0 0 0 .624-.361m3.358 2.029c-.183.141-.363.29-.566.402a2.93 2.93 0 0 1-1.062.344c-.048.006-.126-.015-.139.06-.026.148.145.37.297.395.18.03.362.04.545.03.606-.037 1.117-.299 1.578-.676.11-.074.157-.209.244-.288.222-.204.307-.465.392-.731.032-.104 0-.2-.067-.284a6.177 6.177 0 0 0-.422-.477c-.07-.072-.107-.066-.121.037-.047.33-.2.613-.401.871-.085.111-.185.211-.278.316zm1.567 1.873c.348-.401.342-.853.191-1.326-.016-.05-.05-.12-.091-.033-.136.29-.37.5-.574.733-.037-.013-.056.017-.078.034-.489.39-1.037.643-1.663.71-.126.013-.253.02-.378.035-.045.006-.103.023-.041.085.159.159.325.318.547.372.809.196 1.501-.031 2.087-.61m-2.614-2.69c-.004.06-.08.105-.018.18.101.121.173.13.275.006.65-.795.481-2.092-.863-2.471a.212.212 0 0 0-.075-.003c-.057.004-.098.018-.072.094.036.102.016.21.02.316-.064.631-.372 1.11-.898 1.46-.168.112-.361.157-.547.22-.06.02-.11.044-.05.115.208.252.427.39.79.15.162-.108.307-.248.443-.389a.656.656 0 0 1 .765-.132c.193.1.228.266.23.455zm1.107-1.724c.433-.047.862-.117 1.286-.215.919-.212 1.843-.398 2.718-.77.748-.316 1.422-.73 1.974-1.332.19-.208.346-.437.459-.694.11-.249.05-.353-.222-.398a1.24 1.24 0 0 0-.363.003c-.485.062-.938.235-1.365.454a27.491 27.491 0 0 0-2.653 1.573c-.638.423-1.226.91-1.834 1.379zm4.224-4.623c.016-.457-.135-.586-.508-.512-.207.04-.4.116-.578.225-.771.47-1.42 1.076-1.983 1.78-.297.372-.605.733-.863 1.135-.243.38-.497.753-.702 1.155-.039.076-.111.169-.032.235.09.075.155-.041.21-.09.294-.256.602-.493.914-.725.949-.703 1.914-1.38 2.978-1.902a.344.344 0 0 0 .15-.165c.039-.076.081-.151.119-.228.155-.311.271-.634.295-.908m-3.265 5.236c.023.014.042.031.064.04.231.086.476.11.717.155 1.027.189 2.059.272 3.102.179.715-.064 1.402-.222 2.032-.578.069-.04.194-.062.174-.16-.018-.088-.138-.087-.22-.107-.447-.112-.905-.099-1.361-.103-.999-.01-1.998.011-2.976.25-.398.096-.799.172-1.203.23-.113.017-.231.01-.329.094z"/><path fill="#D69B04" d="M104.883 24.453c-.003-.188-.038-.355-.23-.455a.656.656 0 0 0-.765.133 2.715 2.715 0 0 1-.444.389c-.362.24-.582.102-.79-.15-.059-.072-.01-.095.05-.115.187-.063.379-.108.547-.22.526-.35.835-.83.898-1.461.029.05.076.088.128.1.36.08.598.32.791.612.234.356.31.864-.186 1.167zM107.498 27.143c-.586.578-1.278.805-2.087.61-.222-.054-.389-.213-.547-.372-.063-.062-.005-.08.04-.085.126-.015.253-.022.378-.036.627-.067 1.174-.319 1.663-.709.022-.017.041-.047.078-.034.022.012.046.022.066.036.081.056.161.15.238-.005.011-.021.034-.017.05.001.02.024.018.05-.004.067-.054.04-.11.078-.166.117l.019.026c.067.079.314.073.128.275-.021.022.006.073.047.077.036.004.071.002.097.032M106.582 25.825c-.46.378-.971.64-1.578.676-.183.01-.364 0-.545-.03-.152-.025-.323-.247-.297-.395.014-.075.091-.054.139-.06.376-.048.731-.16 1.062-.344.204-.113.383-.26.567-.402a.462.462 0 0 0 .407.198c.055-.003.067.048.052.087-.074.192.047.239.193.27zM102.096 22.899c.036.18.22.178.332.265.043.032.095.052.143.077a.94.94 0 0 1-.624.361.358.358 0 0 1-.353-.133c-.09-.117-.061-.22.08-.267a.874.874 0 0 0 .422-.304z"/><circle cx="10.238" cy="63.578" r="2.102" fill="#231F20"/><circle cx="116.033" cy="36.292" r="2.102" fill="#231F20"/><path fill="#231F20" d="M6.48 24.516c-.273-.262-.547-.51-.796-.782-.597-.654-1.023-1.4-1.205-2.27-.082-.391-.086-.787.05-1.172.175-.49.636-.596 1.066-.477a2.6 2.6 0 0 1 .348.134c.085.037.088-.012.08-.068a2.024 2.024 0 0 1 .514-1.66.935.935 0 0 1 1.312-.077c.313.267.514.613.695.976.184.367.328.753.44 1.144.077.264.114.546.168.82.19.95.233 1.909.225 2.872-.002.129.03.18.16.156.116-.02.231.012.346.027.257.033.253.036.346-.19.29-.71.841-1.06 1.588-1.133a.73.73 0 0 1 .167.006c.193.025.319.143.329.303.01.147-.118.296-.298.336-.083.02-.171.019-.256.034-.587.104-.987.496-.995 1.116-.002.104.015.147.138.116.188-.048.372-.014.563.034.222.056.415.153.595.284.082.06.136.045.173-.046.125-.307.371-.479.648-.642.322-.19.652-.28 1.018-.255.093.007.189.018.277.046.124.04.18.195.149.372-.021.113-.151.22-.284.216a1.588 1.588 0 0 0-.768.151c-.204.1-.38.233-.506.425a.277.277 0 0 0-.024.298c.207.438.268.902.224 1.38-.045.471-.373.809-.845.879a1.825 1.825 0 0 1-.456 0c-.043-.004-.093-.038-.125.01-.036.055.01.094.043.131.388.439.477.952.367 1.508-.03.15-.076.296-.21.407a.315.315 0 0 1-.318.07c-.068-.021-.142-.26-.117-.358.054-.223.097-.446.05-.677a1.405 1.405 0 0 0-.129-.372c-.036-.07-.084-.104-.143-.019-.006.009-.014.018-.023.02-.247.059-.174.233-.16.402.059.692-.263 1.209-.778 1.628a1.232 1.232 0 0 1-.342.22c-.184.069-.363.013-.456-.157-.046-.086-.018-.173.04-.25.09-.12.21-.204.325-.297.29-.236.526-.508.574-.899.003-.024.007-.05.007-.075.002-.335.003-.291-.267-.293-.262-.001-.491-.084-.656-.307-.097-.13-.264-.113-.398-.163-.09-.033-.176-.064-.251-.122-.085-.064-.134-.047-.13.058.018.388-.089.755-.252 1.091-.179.37-.421.71-.733.99-.414.37-.875.655-1.416.814-.183.054-.363.107-.552.127a.389.389 0 0 1-.237-.035c-.184-.1-.204-.249-.058-.396a.703.703 0 0 1 .292-.155c.513-.174 1.007-.387 1.41-.757.422-.387.755-.835.873-1.413.02-.1.027-.2.016-.302-.004-.032.012-.081-.036-.088-.042-.007-.053.038-.07.068a3.533 3.533 0 0 1-1.114 1.187c-.89.605-1.859.822-2.92.548-.633-.163-1.187-.452-1.613-.954-.135-.158-.243-.337-.244-.56-.006-1.444.54-2.607 1.758-3.42a3.55 3.55 0 0 1 1.43-.552 3.928 3.928 0 0 1 1.024-.03c.117.012.232-.001.353.02zm5.389 1.983a2.461 2.461 0 0 1-.25-.514.773.773 0 0 0-.136-.252c-.068-.084-.156-.135-.266-.103a.263.263 0 0 0-.2.224.688.688 0 0 0 .002.21c.043.249.143.472.314.66.145.201.32.365.554.457.15.06.371.004.461-.107.073-.09.063-.194-.04-.221-.204-.054-.315-.21-.44-.355zm-5.26.438c-.006-.085-.018-.17-.02-.257-.009-.399.065-.786.18-1.166.029-.092.014-.141-.085-.167-.215-.058-.427-.12-.656-.106-.093.005-.118.04-.143.117-.144.462-.175.935-.144 1.413.007.104-.024.214.038.31.046.319.146.622.265.919.094.23.193.458.366.644.09.097.179.143.29.02.06-.067.133-.125.207-.177.1-.07.107-.154.06-.252-.202-.41-.302-.848-.357-1.298m3.274-1.497.008-.005-.004-.007c.04-.117.1-.227.188-.308.112-.103.084-.158-.034-.216a1.224 1.224 0 0 0-.268-.104c-.47-.11-.889.009-1.283.268a1.422 1.422 0 0 0-.602.81 1.98 1.98 0 0 0 .03 1.112c.048.162.09.348.265.443.055.076.145.057.219.08.036.012.074.058.11.02.038-.04-.016-.07-.031-.104-.105-.234.032-.594.253-.616.35-.034.653.024.856.408.147.278.316.529.578.72.26.192.634.15.807-.122.047-.073.062-.116-.046-.153-.336-.113-.588-.342-.788-.625a1.793 1.793 0 0 1-.274-1.586c.011 0 .017-.004.016-.015m-5.447 1.897c-.02-.191-.062-.38-.068-.573-.012-.393.022-.78.125-1.16.01-.037.038-.082-.003-.112-.031-.024-.068.005-.1.017-.162.06-.316.136-.467.218-.245.133-.446.303-.515.588-.039.162-.04.327-.039.491.003.362-.05.731.141 1.068.093.418.272.8.5 1.156.112.173.256.349.481.392.254.048.505 0 .751-.067.068-.018.08-.054.03-.108-.239-.255-.39-.564-.537-.877-.063-.136-.146-.272-.168-.416-.034-.209-.099-.41-.132-.617zm.644-6.411c.014.093.026.21.048.323.114.558.395 1.042.7 1.51.498.765 1.204 1.32 1.939 1.84.06.043.16.084.227.041.076-.048.004-.132-.017-.19-.097-.265-.214-.523-.308-.79-.32-.9-.695-1.773-1.286-2.537a1.979 1.979 0 0 0-.799-.636c-.28-.12-.452-.025-.488.28-.006.045-.01.09-.016.16zm1.634-1.436c-.007.098.009.192.024.288.07.456.298.85.512 1.244A17.088 17.088 0 0 1 8.59 24.16c.013.047.035.09.092.078.047-.01.084-.039.082-.095a1.122 1.122 0 0 0-.009-.106 14.291 14.291 0 0 1-.09-1.152c-.05-1.12-.213-2.218-.65-3.262-.126-.3-.272-.59-.488-.836-.197-.225-.403-.219-.586.01-.162.203-.216.441-.226.694z"/><path fill="#D69B04" d="M9.868 25.455a1.793 1.793 0 0 0 .273 1.586c.2.282.453.512.788.625.108.037.093.08.047.152-.173.272-.548.314-.807.124-.262-.193-.43-.443-.578-.721-.204-.385-.506-.442-.856-.408-.221.021-.359.382-.254.616.015.033.07.064.031.104-.036.038-.074-.008-.11-.02-.073-.024-.163-.004-.218-.08a.418.418 0 0 0-.01-.195 1.66 1.66 0 0 1 .003-1.022c.143-.446.666-.91 1.236-.864.159.013.298.094.455.103M3.511 27.874c.24-.194.535-.277.817-.377.102-.037.106-.085.108-.16.033.208.099.408.131.617.023.144.106.28.17.416.145.312.297.621.536.877.05.053.037.09-.03.108-.247.067-.497.115-.751.067-.225-.043-.37-.22-.48-.393a3.56 3.56 0 0 1-.5-1.155zM5.779 27.082l.83-.145c.056.45.156.888.357 1.298.048.098.04.183-.059.252a1.18 1.18 0 0 0-.208.177c-.11.123-.199.077-.29-.02-.173-.186-.272-.414-.365-.644a3.96 3.96 0 0 1-.265-.918zM11.333 26.725c.027-.029.062-.032.097-.028.186.021.324-.063.439-.198.124.145.235.3.439.355.103.027.113.13.04.22-.09.111-.311.167-.46.108a1.257 1.257 0 0 1-.555-.457z"/><path fill="#231F20" d="M8.89 83.864c.087.019.164.002.243-.017.309-.074.62-.109.935-.043a.643.643 0 0 1 .505.758c-.133.703-.556 1.219-1.09 1.656-.42.345-.893.607-1.38.849a3.53 3.53 0 0 1-.714.267c-.036.01-.076.016-.084.052-.01.05.036.063.071.084.231.133.453.278.656.454.287.247.516.539.678.876.306.635.403 1.3.282 2.002-.06.357-.294.544-.572.69-.507.268-1.056.413-1.63.37-1.063-.08-1.922-.531-2.482-1.474a1.549 1.549 0 0 1-.077-.148c-.093-.204-.237-.257-.433-.16-.078.04-.047.103-.038.16.124.828.593 1.391 1.344 1.733.212.096.433.171.65.257.168.066.251.191.224.334-.03.154-.148.243-.326.244-.318 0-.586-.16-.86-.287a3.02 3.02 0 0 1-1.358-1.223 2.093 2.093 0 0 1-.296-1.042c0-.076-.006-.121-.104-.118-.317.008-.6-.095-.842-.297-.096-.079-.143-.074-.176.05-.096.347-.038.677.106.999.03.07.065.138.087.21.05.164-.068.375-.229.405-.068.014-.12-.03-.169-.074-.397-.371-.498-.844-.46-1.36.021-.31.112-.597.293-.853.068-.097.039-.149-.077-.16-.703-.071-1.09-.572-.98-1.273a2.15 2.15 0 0 1 .544-1.136c.095-.104.12-.197.05-.324-.194-.358-.457-.627-.865-.735-.134-.036-.294-.062-.314-.253-.02-.206.14-.374.364-.348.305.035.584.143.837.32.312.217.504.519.618.873.033.103.076.108.165.08.19-.057.384-.081.584-.05.152.023.224-.04.235-.208.026-.39-.06-.742-.395-.985-.11-.08-.244-.127-.368-.187-.176-.085-.269-.217-.234-.337a.348.348 0 0 1 .397-.266c.258.031.5.123.699.288.326.27.505.621.537 1.051.014.187.033.37-.002.556-.017.087-.004.147.117.163.113.016.233.096.338.061.123-.04.114-.2.158-.306.2-.496.475-.953.775-1.387.285-.411.616-.791.953-1.165.227-.252.479-.471.732-.693.291-.255.635-.428.982-.593.245-.117.505-.169.775-.153.404.023.643.228.744.62.087.335.04.664-.056.99-.02.067-.043.133-.066.203zm-7.35 4.019c-.05.02-.1.052-.153.058-.14.018-.194.094-.175.228.02.135.111.179.236.184a.887.887 0 0 0 .74-.333c.146-.144.253-.316.32-.507.042-.123.09-.26-.054-.355-.136-.089-.25-.007-.359.067-.028.02-.049.05-.072.077-.166.19-.295.409-.482.58zm5.62 1.773c-.182.49-.415.952-.75 1.356-.071.087-.003.106.055.121.197.052.397.08.6.06a.348.348 0 0 0 .26-.14c.225-.307.395-.641.484-1.014.085-.229.13-.467.177-.705.1-.495-.205-.755-.552-1.026-.077-.061-.089-.008-.091.061-.005.132-.015.263-.023.395-.02.303-.108.594-.16.892zm-2.831-.976c.092.207-.038.402-.031.603.192-.132.225-.178.31-.374.152-.348.142-.7.032-1.054-.152-.492-.502-.768-.993-.882-.062-.014-.144-.032-.097.075.084.195.066.397.068.598-.178.61-.52 1.07-1.15 1.27-.055.018-.132.025-.135.102-.003.08.047.141.113.186.204.137.449.11.617-.077.119-.132.223-.276.34-.409.29-.325.628-.336.926-.038zm1.072.21c-.07.297-.174.58-.37.822-.056.07-.095.154-.14.234-.036.067-.03.133.012.2.115.188.26.348.43.486.057.047.084.047.13-.014.333-.434.588-.906.713-1.442.122-.411.136-.836.165-1.26.007-.104-.055-.092-.115-.08-.242.053-.483.11-.724.163-.052.011-.09.035-.077.092.064.268-.004.532-.024.798zm4.293-4.452c-.448.049-.89.206-1.315.416-.476.236-.906.547-1.357.823-.425.261-.84.531-1.226.846-.238.194-.474.392-.708.591-.036.03-.091.066-.061.126.033.068.088.02.133.01a18.25 18.25 0 0 0 1.675-.435c.855-.273 1.636-.68 2.32-1.26.295-.25.553-.537.706-.902.061-.146.012-.218-.167-.215zm-5.125 2.07.03.029c.059-.044.122-.085.178-.134.349-.306.739-.557 1.111-.83.528-.387 1.08-.74 1.617-1.116.425-.297.705-.702.843-1.203.041-.15.062-.314-.056-.44-.126-.135-.28-.067-.426-.02a1.184 1.184 0 0 0-.071.025c-.47.182-.846.505-1.188.856-.284.291-.567.586-.832.899-.499.59-.834 1.27-1.206 1.933z"/><path fill="#D69B04" d="M6.177 89.176c-.126.536-.38 1.008-.713 1.442-.047.06-.074.06-.13.014a1.933 1.933 0 0 1-.431-.486c-.041-.067-.048-.133-.01-.2.043-.08.082-.164.14-.234.195-.243.297-.525.369-.823.07.003.133.039.2.056.2.054.364.202.575.23zM4.33 88.68c-.299-.299-.637-.287-.926.038-.118.132-.222.277-.34.409a.456.456 0 0 1-.618.077c-.066-.044-.116-.106-.112-.186.003-.077.08-.084.135-.102.63-.2.971-.66 1.15-1.27.564-.022.667.285.805.645.052.137.037.284-.095.39zM7.81 90.039c-.09.373-.26.707-.485 1.015a.35.35 0 0 1-.259.14 1.719 1.719 0 0 1-.6-.06c-.058-.016-.127-.035-.055-.121.335-.405.567-.867.749-1.356.126.098.284.116.428.169.1.037.263.024.222.214zM1.541 87.883c.226-.001.436.072.648.137a.887.887 0 0 1-.741.333c-.124-.005-.216-.048-.236-.184-.018-.134.035-.21.175-.228.053-.006.103-.038.154-.059"/><path fill="#231F20" d="M67.318 3.238c.3-.02.603.046.895.175.038.017.086.06.123.017.028-.033-.011-.076-.025-.112a3.311 3.311 0 0 1-.104-2.09c.121-.452.345-.847.765-1.095.423-.25.89-.146 1.17.289.16.245.222.519.239.808.004.07-.04.175.04.206.063.024.115-.067.169-.112.274-.225.582-.367.94-.38.417-.016.711.236.757.65.046.408-.104.767-.298 1.111-.025.044-.057.085-.084.127-.024.038-.069.074-.043.121.025.044.075.013.113.014.189.002.357.113.388.257a.322.322 0 0 1-.299.38c-.104.003-.207-.016-.31-.034a.825.825 0 0 0-.645.186c-.113.088-.209.199-.307.305-.047.05-.086.102.032.133.17.044.307.154.408.296.044.062.075.056.12.018.354-.295.775-.328 1.208-.316a.41.41 0 0 1 .224.088c.116.083.183.194.136.341-.044.143-.155.194-.295.187-.254-.011-.503-.025-.744.093-.195.096-.249.151-.252.366a1.704 1.704 0 0 1-.338 1.019.729.729 0 0 1-.758.307c-.125-.021-.135.01-.133.126.01.514-.208.918-.619 1.222a.238.238 0 0 1-.051.032c-.12.05-.242.09-.347-.026-.08-.087-.062-.244.044-.355.178-.187.326-.387.382-.646.043-.203.03-.19-.17-.168-.297.031-.438.19-.564.447-.22.448-.608.709-1.096.816l-.045.01c-.187.028-.332-.04-.363-.17-.033-.14.063-.275.242-.336.328-.112.585-.316.776-.605.065-.098-.057-.384-.173-.404-.048-.009-.07.033-.093.065a1.272 1.272 0 0 1-.782.51c-.748.159-1.436.033-2.033-.449a2.187 2.187 0 0 1-.762-1.204.589.589 0 0 1 .014-.328c.259-.739.717-1.313 1.432-1.66.344-.165.715-.223 1.116-.231zm3.342 2.2c-.019-.156.02-.314-.021-.47-.026-.096-.077-.185-.173-.188-.102-.003-.145.096-.168.188-.052.204-.06.41-.019.617.054.152.111.304.258.395.07.044.147.072.22.002.071-.066.093-.148.043-.231-.06-.1-.099-.206-.14-.313m-1.068-.602c.076-.191.18-.363.337-.499.096-.083.065-.11-.041-.139-.581-.159-1.302.284-1.413.875-.01.05-.028.105.012.163.07-.055.12-.123.202-.141.096-.001.193-.007.288-.002.188.009.268.086.275.272.007.157 0 .314.002.471.001.393.044.424.43.318a.346.346 0 0 1 .03-.006c.082-.016.082-.059.042-.12-.244-.371-.287-.77-.164-1.192zm-3.29.083c.097-.324.253-.621.43-.913-.39.093-.704.28-.89.643-.158.26-.16.557-.203.846-.053.358.158.554.411.728.103.071.144.045.136-.085a3.926 3.926 0 0 1 .116-1.22m1.486.242c.053-.238.145-.46.267-.672.052-.091.214-.157.142-.276-.054-.09-.185-.133-.295-.174-.019-.007-.04-.01-.056-.02-.123-.082-.207-.028-.28.075a2.458 2.458 0 0 0-.414.95c-.142.422-.14.852-.062 1.286.023.126.086.17.211.153.155-.02.294-.072.426-.15.062-.037.096-.086.074-.164-.091-.335-.058-.672-.013-1.008zm.982-3.125c.02.487.125.977.23 1.467.01.05-.012.158.077.131.1-.03.268.035.292-.125.06-.392.134-.781.215-1.17.043-.206.065-.417.091-.626.035-.271.074-.543-.01-.813-.072-.228-.258-.288-.449-.142A.812.812 0 0 0 69.08.9c-.262.329-.296.721-.31 1.136zm2.666-.438a.968.968 0 0 0-.577.343c-.389.45-.672.96-.833 1.536-.014.05-.059.111.006.15.055.032.104-.011.149-.048.353-.293.69-.604 1.008-.934.208-.217.375-.467.466-.758.058-.181-.016-.29-.22-.29z"/><path fill="#D69B04" d="M67.788 5.16c-.045.338-.079.674.013 1.01.021.077-.012.126-.074.163-.132.078-.272.13-.426.15-.126.016-.189-.027-.211-.152-.079-.435-.08-.865.062-1.288.206.07.423.082.636.118zM66.303 4.92c-.1.4-.144.805-.117 1.218.01.13-.032.156-.135.085-.254-.174-.464-.37-.41-.728.042-.29.044-.586.202-.847.044.194.174.27.46.27zM69.592 4.836c-.122.422-.08.821.164 1.193.04.06.04.103-.041.12a.461.461 0 0 0-.03.006c-.386.106-.43.074-.431-.318 0-.157.005-.315-.002-.472-.007-.186-.087-.263-.274-.272-.096-.004-.193.001-.288.002a.717.717 0 0 1 .24-.302c.258-.198.503-.18.663.043zM70.279 5.585c.098-.008.197-.02.295-.022.094-.002.08-.07.086-.125.041.106.08.214.14.313.05.083.028.165-.043.231-.074.07-.15.041-.22-.002-.147-.091-.205-.242-.258-.395"/></svg>