<svg xmlns="http://www.w3.org/2000/svg" width="59" height="40" fill="none"><path fill="currentColor" d="M54.309 15.38a1.764 1.764 0 1 0-3.525 0 1.764 1.764 0 1 0 3.525 0m-9.399 0a1.595 1.595 0 1 0-3.19 0 1.595 1.595 0 1 0 3.19 0m-28.089 0a1.174 1.174 0 1 0-2.35 0c0 .655.52 1.177 1.175 1.177s1.175-.522 1.175-1.178m9.349.001c0-.715-.58-1.304-1.3-1.304-.723 0-1.302.58-1.302 1.303 0 .724.58 1.304 1.301 1.304.722 0 1.3-.58 1.3-1.303m-9.348 9.24a1.174 1.174 0 1 0-2.35 0c0 .656.52 1.177 1.175 1.177s1.175-.53 1.175-1.177m9.349 0c0-.714-.58-1.303-1.3-1.303-.723 0-1.302.58-1.302 1.304 0 .723.58 1.303 1.301 1.303.722 0 1.3-.58 1.3-1.303m28.14-.001a1.763 1.763 0 1 0-3.525 0 1.764 1.764 0 1 0 3.525 0m-9.399 0a1.595 1.595 0 1 0-3.19 0 1.595 1.595 0 1 0 3.19 0m4.565-3.968a1.68 1.68 0 1 0-3.222-.656 1.696 1.696 0 0 0 1.677 1.69 1.64 1.64 0 0 0 1.184-.496 1.7 1.7 0 0 0 .36-.538m-18.73-.118a1.37 1.37 0 0 0-1.259-1.9 1.37 1.37 0 0 0 0 2.741c.378 0 .722-.151.965-.404a1.29 1.29 0 0 0 .294-.437m27.946.505c.067-.101.125-.202.167-.32.093-.227.143-.47.143-.723 0-.387-.117-.74-.319-1.043a1.858 1.858 0 0 0-1.544-.824c-.126 0-.252.017-.378.042a1.87 1.87 0 0 0-.94.505 1.863 1.863 0 0 0-.504.942 1.8 1.8 0 0 0-.041.378 1.932 1.932 0 0 0 .319 1.052 1.808 1.808 0 0 0 1.167.782c.117.024.243.041.377.041a1.864 1.864 0 0 0 1.544-.824zm-37.404-.345c.042-.067.084-.134.117-.21a1.216 1.216 0 0 0-.11-1.169 1.23 1.23 0 0 0-1.274-.521 1.218 1.218 0 0 0-.773.521 1.169 1.169 0 0 0-.184.446 1.223 1.223 0 0 0 0 .504 1.16 1.16 0 0 0 .193.446c.042.067.092.126.15.185a1.252 1.252 0 0 0 .874.361 1.215 1.215 0 0 0 1.023-.546zM30.82 1.8c.016-.093.025-.186.025-.278a1.37 1.37 0 0 0-1.368-1.37 1.37 1.37 0 0 0-1.368 1.37c0 .092.008.185.025.277a1.37 1.37 0 0 0 1.343 1.094 1.36 1.36 0 0 0 1.334-1.094zm9.365.025c.017-.101.033-.202.033-.303a1.55 1.55 0 0 0-.663-1.261A1.552 1.552 0 0 0 38.709 0c-.1 0-.21.008-.302.034a1.523 1.523 0 0 0-1.209 1.488c0 .1.009.21.034.303a1.51 1.51 0 0 0 1.175 1.177c.1.017.201.034.302.034.31 0 .604-.093.848-.261.318-.219.553-.555.637-.95zm-37.538.26a.921.921 0 0 0 .15-.361c.018-.068.018-.135.018-.202 0-.21-.067-.404-.168-.564a.995.995 0 0 0-.83-.445c-.068 0-.135 0-.202.017a.966.966 0 0 0-.504.277 1.2 1.2 0 0 0-.126.151.922.922 0 0 0-.15.362c-.018.067-.018.134-.018.202 0 .067 0 .134.017.202a1.002 1.002 0 0 0 .277.513c.134.134.31.235.504.277.067.017.134.017.201.017a.995.995 0 0 0 .83-.446m9.484-.336a1.117 1.117 0 1 0-2.207-.227.7.7 0 0 0 .026.227c.1.504.553.891 1.09.891.538 0 .99-.387 1.092-.891m28.087 9.014a1.55 1.55 0 0 0-.663-1.261 1.552 1.552 0 0 0-.847-.26 1.523 1.523 0 0 0-1.51 1.522 1.522 1.522 0 0 0 1.51 1.521 1.505 1.505 0 0 0 1.51-1.522m9.391 0a1.68 1.68 0 1 0-3.357 0 1.68 1.68 0 0 0 1.678 1.681c.923 0 1.679-.756 1.679-1.681m-28.323.689c.134-.193.21-.437.21-.69 0-.252-.076-.496-.21-.69a1.23 1.23 0 0 0-1.276-.52 1.218 1.218 0 0 0-.772.52 1.169 1.169 0 0 0-.184.447 1.224 1.224 0 0 0 0 .504c.033.16.1.311.184.446a1.252 1.252 0 0 0 1.024.547 1.24 1.24 0 0 0 1.024-.547zm-9.14-.689a1.117 1.117 0 1 0-2.232 0c0 .622.495 1.118 1.116 1.118.621 0 1.116-.496 1.116-1.118M44.91 6.138a1.595 1.595 0 1 0-3.19 0 1.595 1.595 0 1 0 3.19 0m-37.43.001c0-.589-.47-1.06-1.057-1.06s-1.057.471-1.057 1.06c0 .588.47 1.06 1.057 1.06.588 0 1.058-.472 1.058-1.06m28.055-.001c0-.799-.647-1.438-1.435-1.438a1.44 1.44 0 0 0-1.435 1.438c0 .79.646 1.438 1.435 1.438.788 0 1.435-.648 1.435-1.438m-18.715.001a1.174 1.174 0 1 0-2.35 0c0 .656.52 1.177 1.175 1.177s1.175-.53 1.175-1.177m18.715 27.723c0-.8-.647-1.438-1.435-1.438a1.44 1.44 0 0 0-1.435 1.438c0 .79.646 1.438 1.435 1.438.788 0 1.435-.648 1.435-1.438m-23.39-4.617a1.117 1.117 0 1 0-2.232 0c0 .622.495 1.119 1.116 1.119.621 0 1.116-.497 1.116-1.119m9.14.689c.134-.193.21-.437.21-.69 0-.251-.076-.495-.21-.689a1.23 1.23 0 0 0-1.276-.521 1.218 1.218 0 0 0-.772.521 1.168 1.168 0 0 0-.184.446 1.224 1.224 0 0 0 0 .505c.033.16.1.31.184.445a1.252 1.252 0 0 0 1.024.547 1.24 1.24 0 0 0 1.024-.547zm18.932-.688a1.55 1.55 0 0 0-.663-1.262 1.552 1.552 0 0 0-.847-.26 1.523 1.523 0 0 0-1.51 1.522 1.523 1.523 0 0 0 1.51 1.522 1.508 1.508 0 0 0 1.51-1.522m9.391-.001a1.68 1.68 0 1 0-3.357 0 1.68 1.68 0 0 0 1.678 1.682c.923 0 1.679-.757 1.679-1.682M7.48 33.861c0-.588-.47-1.06-1.057-1.06s-1.057.472-1.057 1.06c0 .589.47 1.06 1.057 1.06.588 0 1.058-.471 1.058-1.06m4.582 5.055a1.07 1.07 0 0 0 .083-.438 1.117 1.117 0 1 0-2.232 0c0 .152.034.303.084.438a1.108 1.108 0 0 0 1.024.681 1.109 1.109 0 0 0 1.024-.681zm18.681.101a1.37 1.37 0 0 0-1.259-1.9 1.37 1.37 0 0 0 0 2.74c.378 0 .722-.15.965-.403a1.3 1.3 0 0 0 .294-.437m9.03.537a1.57 1.57 0 0 0 .327-.48c.075-.176.117-.377.117-.588a1.55 1.55 0 0 0-.663-1.261 1.553 1.553 0 0 0-.847-.26 1.523 1.523 0 0 0-1.393 2.11c.075.185.184.345.327.48.201.21.47.352.764.411.1.017.201.034.302.034a1.498 1.498 0 0 0 1.074-.446zM2.647 39.05c.033-.05.067-.11.092-.168.05-.118.076-.252.076-.395 0-.21-.067-.404-.168-.564a.995.995 0 0 0-.83-.446c-.068 0-.135 0-.202.017a.966.966 0 0 0-.504.278 1.203 1.203 0 0 0-.126.151.921.921 0 0 0-.15.362c-.018.067-.018.134-.018.202 0 .067 0 .134.017.201.017.068.034.127.059.185a1.083 1.083 0 0 0 .218.32c.134.134.31.235.504.277a.816.816 0 0 0 .201.017 1 1 0 0 0 .84-.445zm42.263-5.188a1.595 1.595 0 1 0-3.19 0 1.595 1.595 0 1 0 3.19 0m-28.089 0a1.174 1.174 0 1 0-2.35 0c0 .656.52 1.177 1.175 1.177s1.175-.521 1.175-1.177"/></svg>