<svg width="16" height="17" viewBox="0 0 16 17" fill="none" xmlns="http://www.w3.org/2000/svg">
<g id="coins-stacked-01">
<path id="Icon" d="M7.9987 11.8333C7.9987 13.6743 9.49108 15.1667 11.332 15.1667C13.173 15.1667 14.6654 13.6743 14.6654 11.8333C14.6654 9.99238 13.173 8.5 11.332 8.5C9.49108 8.5 7.9987 9.99238 7.9987 11.8333ZM7.9987 11.8333C7.9987 11.0828 8.24676 10.3902 8.66536 9.83301V3.83333M7.9987 11.8333C7.9987 12.3836 8.13202 12.9027 8.36812 13.3601C7.80648 13.8345 6.50926 14.1667 4.9987 14.1667C2.97365 14.1667 1.33203 13.5697 1.33203 12.8333V3.83333M8.66536 3.83333C8.66536 4.56971 7.02374 5.16667 4.9987 5.16667C2.97365 5.16667 1.33203 4.56971 1.33203 3.83333M8.66536 3.83333C8.66536 3.09695 7.02374 2.5 4.9987 2.5C2.97365 2.5 1.33203 3.09695 1.33203 3.83333M1.33203 9.83333C1.33203 10.5697 2.97365 11.1667 4.9987 11.1667C6.45803 11.1667 7.71825 10.8567 8.30846 10.4079M8.66536 6.83333C8.66536 7.56971 7.02374 8.16667 4.9987 8.16667C2.97365 8.16667 1.33203 7.56971 1.33203 6.83333" stroke="#231F20" stroke-width="1.5" stroke-linecap="round" stroke-linejoin="round"/>
</g>
</svg>
