<svg xmlns="http://www.w3.org/2000/svg" width="121" height="81" fill="none"><path fill="#F3E5C1" fill-rule="evenodd" d="M2.65 48.079c-3.533 2.04-3.533 5.346 0 7.386L44.234 79.47c3.533 2.04 9.261 2.04 12.795 0l39.955-23.065.944.545 13.841 7.99c.667.386 1.59.33 2.609-.259 2.039-1.176 3.691-4.038 3.691-6.392 0-1.2-.429-2.036-1.121-2.411l-9.526-5.5 3.985-2.3c3.533-2.039 6.847-7.253 3.313-9.293v-6.742L57.933 65.148a13.484 13.484 0 0 1-13.628-.027L.875 39.572v6.293z" clip-rule="evenodd"/><path fill="#FBF7EC" stroke="#EACF88" stroke-width="1.124" d="M3.323 41.307c-3.533-2.04-3.533-5.346 0-7.386L57.701 2.53c3.533-2.04 9.262-2.04 12.795 0l41.583 24.005c3.534 2.04 3.534 5.346 0 7.386L57.701 65.312c-3.533 2.04-9.261 2.04-12.794 0z"/><path stroke="#EACF88" stroke-width="1.124" d="M.676 37.192c0 7.94-.462 9.787 2.65 11.502l41.583 24.004c3.533 2.04 9.262 2.04 12.795 0l54.378-31.39c3.533-2.04 2.633-2.454 2.633-11.502"/><path fill="#EACF88" stroke="#EACF88" stroke-width=".225" d="m35.421 50.302-.575.332-23.605-13.627.575-.332zm3.999-2.308-.575.332-23.606-13.627.575-.332zm3.423-1.976L19.237 32.39l.575-.332 23.606 13.627zm4.573-2.64-.574.331-23.606-13.627.575-.331zM50.84 41.4 27.234 27.774l.575-.332L51.415 41.07zm4.573-2.64-.575.332-23.605-13.627.575-.332zm3.424-1.976L35.23 23.158l.575-.332 23.606 13.627zm4.573-2.64-.575.332L39.23 20.85l.574-.332zm3.424-1.976L43.228 18.542l.575-.332 23.605 13.627zm4.573-2.64-.575.331-23.606-13.627.575-.332zm3.423-1.977L51.225 13.925l.575-.332L75.405 27.22zm4.574-2.64-.575.332-23.606-13.627.575-.332zm3.423-1.976L59.221 9.309l.575-.332 23.606 13.627zm4.573-2.64-.575.332L63.22 7l.575-.332zM51.93 59.628l-.575.332-10.01-5.78.574-.331zm3.999-2.308-.575.332-10.011-5.78.574-.331zm3.423-1.976-10.011-5.78.575-.331 10.011 5.779zm4.573-2.64-.575.331-10.01-5.779.574-.332zm3.424-1.977-10.011-5.779.575-.332 10.01 5.78zm4.573-2.64-.575.332-10.01-5.78.574-.331zm3.424-1.976-10.011-5.78.574-.331 10.011 5.78zm4.573-2.64-.575.332-10.011-5.78.575-.331zm3.423-1.976-10.01-5.78.574-.332 10.011 5.78zm4.574-2.64-.575.331-10.011-5.779.575-.332zm3.423-1.977L81.328 31.1l.575-.332 10.011 5.78zm4.573-2.64-.575.332-10.01-5.78.574-.331zm3.424-1.976-10.011-5.78.575-.331 10.01 5.779zm4.573-2.64-.575.332-10.01-5.78.574-.331z"/><path fill="#EACF88" fill-rule="evenodd" stroke="#EACF88" stroke-width=".225" d="M46.952 15.49c0-3.211 2.122-6.423 6.367-8.873 8.489-4.9 22.252-4.9 30.742 0 4.074 2.352 6.193 5.406 6.356 8.488v8.676c-.163-3.082-2.282-6.136-6.356-8.488-8.49-4.9-22.253-4.9-30.742 0-4.245 2.45-6.367 5.662-6.367 8.873z" clip-rule="evenodd"/><path fill="#EACF88" fill-rule="evenodd" stroke="#EACF88" stroke-width=".225" d="M90.417 15.106c.177 3.338-1.942 6.71-6.356 9.258-8.49 4.901-22.253 4.901-30.742 0-4.245-2.45-6.367-5.661-6.367-8.873v7.676c0 3.212 2.122 6.423 6.367 8.874 8.489 4.9 22.252 4.9 30.742 0 4.414-2.549 6.533-5.92 6.356-9.26z" clip-rule="evenodd"/><path fill="#FBF7EC" stroke="#EACF88" stroke-width=".899" d="M83.836 23.974c-4.16 2.402-9.64 3.616-15.146 3.616-5.505 0-10.986-1.214-15.146-3.616-4.163-2.403-6.142-5.49-6.142-8.484 0-2.994 1.979-6.08 6.142-8.484 4.16-2.401 9.64-3.615 15.146-3.615 5.505 0 10.986 1.214 15.146 3.615 4.163 2.403 6.142 5.49 6.142 8.484 0 2.995-1.979 6.081-6.142 8.484Z"/><path fill="#EACF88" stroke="#EACF88" stroke-width="1.573" d="M81.522 22.473c-3.517 2.021-8.177 3.055-12.879 3.055s-9.361-1.034-12.879-3.055c-3.522-2.025-5.102-4.567-5.102-6.946 0-2.38 1.58-4.922 5.102-6.946 3.517-2.022 8.177-3.055 12.88-3.055 4.701 0 9.361 1.033 12.878 3.055 3.522 2.024 5.103 4.567 5.103 6.946 0 2.379-1.58 4.921-5.103 6.946Z"/><path fill="#FBF7EC" stroke="#EACF88" stroke-width="1.573" d="M80.587 22.216c-3.259 1.744-7.581 2.638-11.946 2.638-4.366 0-8.688-.894-11.947-2.638-1.135-.608-2.115-1.274-2.905-1.97-.899-.791-1.037-1.745-.684-2.708.372-1.015 1.305-2.038 2.547-2.697l.337-.179a27.164 27.164 0 0 1 25.853.204c1.18.651 2.07 1.642 2.428 2.624.34.935.212 1.855-.63 2.624-.815.743-1.846 1.455-3.053 2.102Z"/><path fill="#FBF7EC" fill-rule="evenodd" stroke="#EACF88" stroke-width="1.348" d="M90.934 25.425c.73.396 1.183 1.278 1.183 2.544 0 2.482-1.743 5.501-3.893 6.742-1.075.62-2.048.68-2.753.273l-4.113-2.248c.704.407 1.678.348 2.753-.272 2.15-1.241 3.893-4.26 3.893-6.742 0-1.266-.454-2.149-1.183-2.544z" clip-rule="evenodd"/><path fill="#FBF7EC" fill-rule="evenodd" stroke="#EACF88" stroke-width=".225" d="M85.473 34.984c-.705-.407-1.14-1.279-1.14-2.52 0-2.482 1.742-5.501 3.892-6.742 1.054-.608 2.01-.677 2.71-.297l-3.663-2.022c-.701-.38-1.657-.312-2.71.296-2.15 1.241-3.894 4.26-3.894 6.742 0 1.242.436 2.114 1.14 2.52z" clip-rule="evenodd"/><path fill="#EDD8A2" fill-rule="evenodd" stroke="#EACF88" stroke-width=".225" d="M85.472 34.984c-.705-.407-1.14-1.28-1.14-2.52l-3.664-2.023c0 1.241.436 2.113 1.14 2.52z" clip-rule="evenodd"/><path fill="#EACF88" stroke="#EACF88" stroke-width=".225" d="M92.003 27.969c0 1.217-.428 2.573-1.125 3.78-.697 1.208-1.658 2.256-2.711 2.865-1.055.609-1.983.652-2.64.273-.658-.38-1.084-1.206-1.084-2.423s.428-2.573 1.125-3.78c.697-1.208 1.657-2.257 2.711-2.865 1.054-.609 1.983-.652 2.64-.273.657.38 1.084 1.205 1.084 2.423Z"/><path stroke="#EACF88" stroke-width=".225" d="M113.697 50.907c-.668-.386-1.081-1.212-1.081-2.39 0-2.353 1.653-5.215 3.691-6.391.999-.577 1.905-.642 2.57-.281l-27.682-15.98c-.665-.361-1.57-.296-2.57.28-2.038 1.177-3.69 4.04-3.69 6.393 0 1.176.412 2.003 1.08 2.389z" clip-rule="evenodd"/><path stroke="#EACF88" stroke-width=".225" d="M118.876 41.845c.692.375 1.122 1.211 1.122 2.412 0 2.353-1.653 5.215-3.691 6.392-1.02.588-1.942.644-2.61.258l-27.682-15.98c.668.386 1.59.33 2.61-.258 2.038-1.177 3.69-4.039 3.69-6.392 0-1.2-.43-2.037-1.12-2.412z" clip-rule="evenodd"/><path fill="#EACF88" fill-rule="evenodd" stroke="#EACF88" stroke-width=".225" d="M113.697 50.907c-.668-.386-1.081-1.212-1.081-2.39 0-2.353 1.653-5.215 3.691-6.391.999-.577 1.905-.642 2.57-.281l-27.682-15.98c-.665-.361-1.57-.296-2.57.28-2.038 1.177-3.69 4.04-3.69 6.393 0 1.176.413 2.003 1.08 2.389z" clip-rule="evenodd"/><path fill="#EACF88" fill-rule="evenodd" stroke="#EACF88" stroke-width=".225" d="M118.876 41.845c.692.375 1.122 1.211 1.122 2.412 0 2.353-1.653 5.215-3.691 6.392-1.019.588-1.942.644-2.61.258l-27.682-15.98c.668.386 1.59.33 2.61-.258 2.038-1.177 3.69-4.039 3.69-6.392 0-1.2-.429-2.037-1.12-2.412z" clip-rule="evenodd"/><path fill="#EACF88" stroke="#EACF88" stroke-width=".225" d="M119.887 44.257c0 1.152-.405 2.437-1.066 3.58-.66 1.145-1.57 2.138-2.568 2.714-.999.577-1.876.617-2.497.259s-1.025-1.139-1.025-2.292c0-1.152.405-2.437 1.066-3.581.66-1.144 1.57-2.137 2.568-2.714.999-.576 1.877-.617 2.497-.258.621.358 1.025 1.139 1.025 2.292Z"/><path fill="#FBF7EC" stroke="#EACF88" stroke-width=".225" d="M119.186 44.749c0 .896-.32 1.896-.843 2.789-.522.892-1.242 1.666-2.03 2.114-.788.45-1.477.478-1.96.203-.483-.275-.802-.876-.802-1.772s.32-1.897.843-2.79c.523-.892 1.242-1.666 2.03-2.114.789-.449 1.477-.477 1.961-.202.483.275.801.875.801 1.772Z"/><path fill="#FBF7EC" d="M88.891 29.117a.387.387 0 0 1 .387-.67l22.268 12.856a.386.386 0 1 1-.386.67z"/><g opacity=".2"><mask id="a" fill="#fff"><path fill-rule="evenodd" d="M52.15 18.283c-.021.33.01.659.098.98l9.876 5.7c.748.162 1.512.295 2.288.398zm20.343 7.127c-.453.055-.908.1-1.366.135L53.58 15.415c.193-.197.402-.386.624-.562zm5.734-1.306c-.335.118-.675.23-1.021.334l-19.71-11.379c.307-.135.616-.264.927-.387zm4.302-2.133c-.245.164-.5.325-.764.482L62.591 11.384c.393-.088.788-.168 1.184-.24zm2.667-3.077a2.853 2.853 0 0 1-.247.78l-15.528-8.963c.591.014 1.182.048 1.772.1z" clip-rule="evenodd"/></mask><path fill="#EACF88" fill-rule="evenodd" d="M52.15 18.283c-.021.33.01.659.098.98l9.876 5.7c.748.162 1.512.295 2.288.398zm20.343 7.127c-.453.055-.908.1-1.366.135L53.58 15.415c.193-.197.402-.386.624-.562zm5.734-1.306c-.335.118-.675.23-1.021.334l-19.71-11.379c.307-.135.616-.264.927-.387zm4.302-2.133c-.245.164-.5.325-.764.482L62.591 11.384c.393-.088.788-.168 1.184-.24zm2.667-3.077a2.853 2.853 0 0 1-.247.78l-15.528-8.963c.591.014 1.182.048 1.772.1z" clip-rule="evenodd"/><path fill="#EACF88" d="m52.248 19.263-.217.06.024.088.08.046zm-.098-.98.112-.195-.313-.18-.023.36zm9.974 6.68-.113.195.031.018.034.008zm2.288.398-.03.223.142-.417zm8.081.05.027.222.669-.08-.584-.338zm-1.366.134-.113.194.06.035.07-.005zM53.58 15.415l-.161-.157-.203.207.251.145zm.624-.562.113-.195-.133-.076-.12.095zm24.023 9.25.075.212.46-.162-.423-.244zm-1.021.335-.112.194.084.049.093-.028zm-19.71-11.379-.09-.205-.407.178.384.222zm.927-.387.113-.195-.094-.054-.102.04zM82.53 21.97l.125.187.3-.201-.313-.18zm-.764.482-.112.195.114.066.114-.068zM62.591 11.384l-.05-.219-.56.126.497.288zm1.184-.24.112-.194-.071-.041-.08.014zm21.421 7.75.222.037.025-.154-.135-.077zm-.247.78-.112.196.21.12.105-.217zm-15.528-8.963.005-.225-.118.42zm1.772.1.113-.195-.043-.025-.05-.004zm-18.729 8.392a2.747 2.747 0 0 1-.09-.906l-.448-.028c-.023.353.01.707.105 1.053zm-.329.254 9.877 5.701.224-.389-9.876-5.701zm12.306 5.682a28.92 28.92 0 0 1-2.27-.395l-.095.44c.754.162 1.525.296 2.306.4zm.083.028-12.262-7.079-.224.39 12.261 7.078zm7.942.02c-.45.054-.902.099-1.356.134l.034.448c.461-.036.92-.08 1.376-.136zm-1.227.163L53.692 15.22l-.225.39 17.547 10.13zM53.74 15.572c.187-.19.389-.372.604-.543l-.28-.352c-.23.182-.445.377-.645.58zm.352-.525 18.289 10.558.224-.39-18.288-10.557zm24.06 8.845c-.331.117-.669.227-1.011.33l.13.43c.349-.105.693-.217 1.03-.337zM57.383 13.254l19.71 11.378.225-.389-19.71-11.378zm.203.011c.305-.134.612-.262.92-.384l-.166-.418a28.11 28.11 0 0 0-.935.39zM78.339 23.91 58.536 12.477l-.225.39 19.803 11.431zm4.065-2.125c-.242.162-.494.32-.754.476l.23.386a17.8 17.8 0 0 0 .774-.488zm-.526.475-19.175-11.07-.225.39 19.175 11.069zM62.64 11.604c.39-.088.782-.167 1.175-.238l-.08-.442c-.399.071-.797.152-1.194.241zm1.023-.265 18.753 10.826.225-.389L63.887 10.95zm21.311 7.519a2.63 2.63 0 0 1-.227.72l.404.195c.132-.274.22-.556.267-.842zm-15.666-7.953 15.529 8.965.224-.39-15.528-8.964zm.107.03c.587.015 1.173.048 1.759.1l.04-.448a28.152 28.152 0 0 0-1.788-.101zM85.308 18.7l-14.002-8.084-.225.39 14.003 8.083z" mask="url(#a)"/></g></svg>