<svg xmlns="http://www.w3.org/2000/svg" width="342" height="124" fill="none"><rect width="87" height="87" x=".5" y="16.5" stroke="#E2B950" rx="43.5"/><rect width="72" height="72" x="8" y="24" fill="#FF004D" rx="36"/><path fill="#fff" d="m34 59.03-5.858 5.646C23.074 69.56 14 66.143 14 59.031L29 59c0-7.113 8.923-10.675 14.142-5.646L49 59c0-7.113 8.923-10.675 14.141-5.646L69 59H74c0 7.113-8.923 10.675-14.141 5.646L54 59c0 7.113-8.923 10.675-14.142 5.646L34.001 59"/><path stroke="url(#a)" d="M88 60h123"/><path fill="#231F20" d="M184.983 56.38c.026-.305.052-.555.067-.805.07-1.102.026-2.195-.437-3.216-.256-.563-.621-1.056-1.255-1.285-.479-.174-1.176-.053-1.559.498-.178.255-.363.525-.452.797-.163.498-.308 1.022-.261 1.566.004.051 0 .104 0 .154-.021.005-.045.014-.047.01-.24-.362-.622-.575-.955-.818-.247-.18-.59-.288-.924-.318-.3-.027-.612-.032-.866.137-.344.23-.494.593-.546.995-.09.698.091 1.348.369 1.975.366.826.927 1.505 1.617 2.082.048.04.117.066.133.168-.207-.028-.403-.067-.6-.081-1.882-.138-3.468.407-4.579 2.015a4.14 4.14 0 0 0-.679 1.745c-.049.32.113.586.254.844 1.019 1.873 3.296 2.396 4.77 2.107.226-.044.448-.11.681-.167.018.095-.049.128-.091.17a3.68 3.68 0 0 1-1.53.908 2.533 2.533 0 0 0-.314.12c-.265.12-.382.303-.326.495a.48.48 0 0 0 .561.317c.706-.14 1.363-.39 1.912-.884.584-.525 1.01-1.16 1.337-1.867.079-.172.126-.359.179-.542.039-.136.087-.138.173-.035.178.212.405.355.667.436.141.044.168.099.11.242-.284.698-.696 1.297-1.312 1.745-.097.07-.198.137-.282.22-.2.201-.218.427-.062.622.141.176.406.218.624.078.789-.5 1.405-1.154 1.778-2.021.101-.236.192-.474.194-.734.001-.114.039-.153.146-.12.397.119.758-.002 1.1-.183.176-.092.193-.04.201.124.018.382-.111.723-.255 1.064-.054.126-.113.252-.148.384-.053.195.015.354.189.462.171.108.333.076.472-.055.322-.304.492-.698.593-1.115.116-.476.194-.959-.067-1.423a.224.224 0 0 1 .031-.273c.067-.073.147-.055.229-.034 1.161.292 2.016-.362 2.058-1.578a3.802 3.802 0 0 0-.37-1.788c-.094-.197-.077-.354.028-.543.355-.644.938-.866 1.62-.924.129-.01.248-.035.33-.151a.46.46 0 0 0-.269-.71c-.56-.133-1.082.003-1.573.278-.467.26-.811.636-1.023 1.127-.066.154-.125.193-.272.079-.257-.199-.539-.355-.878-.36-.132-.003-.131-.104-.136-.192a1.445 1.445 0 0 1 .258-.888c.265-.4.656-.666 1.085-.853.181-.078.404-.069.599-.143.185-.07.306-.216.301-.393a.43.43 0 0 0-.316-.407c-.537-.16-1.013.032-1.473.277-.297.157-.54.387-.808.666zm-9.722 4.996c-.016-.04-.004-.072.03-.097.19-.507.527-.894.971-1.203a15.45 15.45 0 0 0-.281 1.517c.024.528.005 1.058.11 1.58.009.048.032.109-.031.139-.056.026-.098-.018-.141-.047-.174-.119-.306-.282-.451-.432-.398-.41-.502-.865-.222-1.383l.014-.074zm11.08-.413c.11.177.25.312.44.414.182.097.175.289.013.426-.176.15-.376.167-.585.075-.268-.118-.459-.321-.611-.566a2.216 2.216 0 0 1-.461-1.05c-.033-.192.103-.466.238-.518.157-.061.375.042.492.262.167.314.317.638.474.957m-7.642.672v-.005c.026.734.108 1.458.387 2.148.056.138-.045.208-.145.218-.275.028-.551.057-.827.017-.129-.018-.227-.076-.272-.202-.057-.16-.133-.318-.162-.484a10.38 10.38 0 0 1-.181-1.732c.013-.057.034-.113.035-.17a4.686 4.686 0 0 1 .32-1.604c.178-.46.378-.602.86-.57.156.01.311.039.466.06.144.02.192.065.106.217a4.324 4.324 0 0 0-.555 1.761c.012.118.02.235-.032.346zm4.799-1.937c.012.024.008.044-.018.056a.066.066 0 0 1-.008.037l.002.268c.006.702.18 1.345.652 1.888.162.187.356.336.548.487.097.077.121.136.029.235-.16.17-.339.284-.584.29-.42.009-.688-.22-.876-.56-.199-.362-.439-.676-.838-.835a.64.64 0 0 0-.474.07l-.082.05a.499.499 0 0 0-.203.45c.008.084.016.18-.111.172-.097-.005-.221.099-.283-.074-.074-.204-.169-.4-.203-.617-.265-1.689.891-2.633 2.155-2.81.175-.024.357-.045.533.023.097.037.142.089.064.181-.169.2-.229.448-.303.69zm-1.366-5.747c.009-.153.011-.348.034-.541.051-.42.148-.826.416-1.17.204-.262.396-.281.645-.06.141.125.247.28.34.443.387.679.481 1.426.499 2.187.02.818-.111 1.624-.239 2.427-.087.538-.108.535-.663.583-.023.002-.045.003-.067.006-.112.018-.156-.035-.185-.141-.109-.411-.23-.818-.372-1.22-.28-.796-.405-1.626-.408-2.515zm-3.412.597c-.011-.495.192-.637.619-.475.226.085.447.2.613.36.514.497.96 1.055 1.267 1.706.277.59.482 1.209.689 1.827.058.175.031.262-.142.349-.134.068-.222.052-.323-.028a78.877 78.877 0 0 1-.439-.348c-.692-.551-1.337-1.144-1.768-1.935-.256-.47-.468-.953-.516-1.456"/><path fill="#D69B04" d="M182.405 61.563c.399.16.638.474.838.836.188.34.456.568.876.559.244-.005.424-.119.584-.29.092-.099.068-.158-.029-.234-.193-.15-.386-.3-.548-.487-.472-.544-.646-1.186-.652-1.889l-.002-.268c-.058-.011-.118-.017-.173-.035a1.098 1.098 0 0 0-.956.139c-.338.22-.6.521-.771.89-.068.145-.097.309-.169.45-.078.154-.055.31-.036.46.021.163.158.197.291.092.058-.045.109-.102.19-.102l.082-.05c-.022-.043-.033-.107.018-.111.153-.014.313-.06.457.04zM177.499 61.594c.004.583.08 1.16.181 1.732.029.166.105.324.162.484.045.126.143.185.272.203.276.039.553.01.827-.018.1-.01.201-.08.145-.218-.278-.69-.361-1.414-.387-2.149-.401.02-.797-.128-1.2-.035zM175.247 61.45c-.28.518-.176.973.221 1.383.145.15.278.313.452.432.042.029.084.073.14.047.064-.03.041-.09.032-.139-.106-.522-.086-1.052-.111-1.58-.234-.103-.489-.093-.734-.142zM186.34 60.963c-.176.033-.316.14-.463.232-.087.054-.168.123-.28.117.153.245.344.448.612.566.209.092.408.075.585-.075.162-.137.169-.329-.013-.426a1.135 1.135 0 0 1-.441-.414"/><path fill="#231F20" d="M119.983 56.38c.026-.305.052-.555.067-.805.07-1.102.026-2.195-.437-3.216-.256-.563-.621-1.056-1.255-1.285-.479-.174-1.176-.053-1.559.498-.178.255-.363.525-.452.797-.163.498-.308 1.022-.261 1.566.004.051 0 .104 0 .154-.021.005-.045.014-.047.01-.24-.362-.622-.575-.955-.818-.247-.18-.59-.288-.924-.318-.3-.027-.612-.032-.866.137-.344.23-.494.593-.546.995-.09.698.091 1.348.369 1.975.366.826.927 1.505 1.617 2.082.048.04.117.066.133.168-.207-.028-.403-.067-.6-.081-1.882-.138-3.468.407-4.579 2.015a4.14 4.14 0 0 0-.679 1.745c-.049.32.113.586.254.844 1.019 1.873 3.296 2.396 4.77 2.107.226-.044.448-.11.681-.167.018.095-.049.128-.091.17a3.68 3.68 0 0 1-1.53.908 2.533 2.533 0 0 0-.314.12c-.265.12-.382.303-.326.495a.48.48 0 0 0 .561.317c.706-.14 1.363-.39 1.912-.884.584-.525 1.01-1.16 1.337-1.867.079-.172.126-.359.179-.542.039-.136.087-.138.173-.035.178.212.405.355.667.436.141.044.168.099.11.242-.284.698-.696 1.297-1.312 1.745-.097.07-.198.137-.282.22-.2.201-.218.427-.062.622.141.176.406.218.624.078.789-.5 1.405-1.154 1.778-2.021.101-.236.192-.474.194-.734.001-.114.039-.153.146-.12.397.119.758-.002 1.1-.183.176-.092.193-.04.201.124.018.382-.111.723-.255 1.064-.054.126-.113.252-.148.384-.053.195.015.354.189.462.171.108.333.076.472-.055.322-.304.492-.698.593-1.115.116-.476.194-.959-.067-1.423a.224.224 0 0 1 .031-.273c.067-.073.147-.055.229-.034 1.161.292 2.016-.362 2.058-1.578a3.802 3.802 0 0 0-.37-1.788c-.094-.197-.077-.354.028-.543.355-.644.938-.866 1.62-.924.129-.01.248-.035.33-.151a.46.46 0 0 0-.269-.71c-.56-.133-1.082.003-1.573.278-.467.26-.811.636-1.023 1.127-.066.154-.125.193-.272.079-.257-.199-.539-.355-.878-.36-.132-.003-.131-.104-.136-.192a1.445 1.445 0 0 1 .258-.888c.265-.4.656-.666 1.085-.853.181-.078.404-.069.599-.143.185-.07.306-.216.301-.393a.43.43 0 0 0-.316-.407c-.537-.16-1.013.032-1.473.277-.297.157-.54.387-.808.666zm-9.722 4.996c-.016-.04-.004-.072.03-.097.19-.507.527-.894.971-1.203a15.45 15.45 0 0 0-.281 1.517c.024.528.005 1.058.11 1.58.009.048.032.109-.031.139-.056.026-.098-.018-.141-.047-.174-.119-.306-.282-.451-.432-.398-.41-.502-.865-.222-1.383zm11.08-.413c.11.177.25.312.44.414.182.097.175.289.013.426-.176.15-.376.167-.585.075-.268-.118-.459-.321-.611-.566a2.216 2.216 0 0 1-.461-1.05c-.033-.192.103-.466.238-.518.157-.061.375.042.492.262.167.314.317.638.474.957m-7.642.672v-.005c.026.734.108 1.458.387 2.148.056.138-.045.208-.145.218-.275.028-.551.057-.827.017-.129-.018-.227-.076-.272-.202-.057-.16-.133-.318-.162-.484a10.38 10.38 0 0 1-.181-1.732c.013-.057.034-.113.035-.17a4.686 4.686 0 0 1 .32-1.604c.178-.46.378-.602.86-.57.156.01.311.039.466.06.144.02.192.065.106.217a4.324 4.324 0 0 0-.555 1.761c.012.118.02.235-.032.346zm4.799-1.937c.012.024.008.044-.018.056a.066.066 0 0 1-.008.037l.002.268c.006.702.18 1.345.652 1.888.162.187.356.336.548.487.097.077.121.136.029.235-.16.17-.339.284-.584.29-.42.009-.688-.22-.876-.56-.199-.362-.439-.676-.838-.835a.64.64 0 0 0-.474.07.499.499 0 0 0-.285.5c.008.084.016.18-.111.172-.097-.005-.221.099-.283-.074-.074-.204-.169-.4-.203-.617-.265-1.689.891-2.633 2.155-2.81.175-.024.357-.045.533.023.097.037.142.089.064.181-.169.2-.229.448-.303.69zm-1.366-5.747c.009-.153.011-.348.034-.541.051-.42.148-.826.416-1.17.204-.262.396-.281.645-.06.141.125.247.28.34.443.387.679.481 1.426.499 2.187.02.818-.111 1.624-.239 2.427-.087.538-.108.535-.663.583-.023.002-.045.003-.067.006-.112.018-.156-.035-.185-.141-.109-.411-.23-.818-.372-1.22-.28-.796-.405-1.626-.408-2.515zm-3.412.597c-.011-.495.192-.637.619-.475.226.085.447.2.613.36.514.497.96 1.055 1.267 1.706.277.59.482 1.209.689 1.827.058.175.031.262-.142.349-.134.068-.222.052-.323-.028a78.877 78.877 0 0 1-.439-.348c-.692-.551-1.337-1.144-1.768-1.935-.256-.47-.468-.953-.516-1.456"/><path fill="#D69B04" d="M117.405 61.563c.399.16.638.474.838.836.188.34.456.568.876.559.244-.005.424-.119.584-.29.092-.099.068-.158-.029-.234-.193-.15-.386-.3-.548-.487-.472-.544-.646-1.186-.652-1.889l-.002-.268c-.058-.011-.118-.017-.173-.035a1.098 1.098 0 0 0-.956.139c-.338.22-.6.521-.771.89-.068.145-.097.309-.169.45-.078.154-.055.31-.036.46.021.163.158.197.291.092.058-.045.109-.102.19-.102l.082-.05c-.022-.043-.033-.107.018-.111.153-.014.313-.06.457.04zM112.499 61.594c.004.583.08 1.16.181 1.732.029.166.105.324.162.484.045.126.143.185.272.203.276.039.553.01.827-.018.1-.01.201-.08.145-.218-.278-.69-.361-1.414-.387-2.149-.401.02-.797-.128-1.2-.035zM110.247 61.45c-.28.518-.176.973.221 1.383.145.15.278.313.452.432.042.029.084.073.14.047.064-.03.041-.09.032-.139-.106-.522-.086-1.052-.111-1.58-.234-.103-.489-.093-.734-.142zM121.34 60.963c-.176.033-.316.14-.463.232-.087.054-.168.123-.28.117.153.245.344.448.612.566.209.092.408.075.585-.075.162-.137.169-.329-.013-.426a1.135 1.135 0 0 1-.441-.414"/><path fill="url(#b)" fill-rule="evenodd" d="M302.552 122.454a5.19 5.19 0 0 1-5.273-.019l-36.324-21.614 42.09-24.638 35.179 20.932c1.696 1.01 1.688 3.47-.016 4.467z" clip-rule="evenodd" opacity=".2"/><path fill="#FFFCF6" stroke="#231F20" stroke-linejoin="round" stroke-width="2.593" d="m266.404 6.435-37.503 21.678a3.89 3.89 0 0 0-1.944 3.368v46.602a3.89 3.89 0 0 0 1.946 3.37l37.552 21.678a3.89 3.89 0 0 0 3.894-.002l37.453-21.677a3.889 3.889 0 0 0 1.941-3.367V31.481a3.89 3.89 0 0 0-1.943-3.368L270.297 6.435a3.889 3.889 0 0 0-3.893 0Z"/><mask id="c" width="81" height="96" x="228" y="7" maskUnits="userSpaceOnUse" style="mask-type:alpha"><path fill="#D9D9D9" d="M269.648 7.558a2.592 2.592 0 0 0-2.595 0L229.55 29.236a2.594 2.594 0 0 0-1.296 2.245v46.602c0 .927.494 1.783 1.297 2.246l37.552 21.679a2.592 2.592 0 0 0 2.596-.001l37.453-21.677a2.594 2.594 0 0 0 1.295-2.245V31.481c0-.926-.494-1.782-1.296-2.245z"/></mask><g mask="url(#c)"><path fill="#FFFCF6" fill-rule="evenodd" d="m228.254 29.987 40.096 23.179 40.097-23.18L268.35 6.809z" clip-rule="evenodd"/><path fill="#8A816C" fill-rule="evenodd" d="M269.646 52.417a2.593 2.593 0 0 0-1.296 2.245v48.104l40.097-23.18v-49.6z" clip-rule="evenodd"/><path fill="#FBF7EC" d="m228.254 29.987 38.801 22.43a2.592 2.592 0 0 1 1.295 2.245v48.104l-40.096-23.18v-24.8z"/></g><path fill="#231F20" d="m242.55 47.655 11.023 6.378c0 3.522-2.468 4.95-5.512 3.188-3.043-1.76-5.511-6.044-5.511-9.566M304.469 76.623c0-1.84-1.306-2.587-2.917-1.667-1.612.921-2.918 3.16-2.918 5.001 0 1.841 1.306 2.588 2.918 1.667 1.611-.92 2.917-3.16 2.917-5M280.804 72.409c0-1.841-1.306-2.588-2.918-1.667-1.611.92-2.917 3.16-2.917 5 0 1.842 1.306 2.588 2.917 1.668 1.612-.921 2.918-3.16 2.918-5.001M296.365 52.634c0-1.842-1.307-2.588-2.918-1.667-1.611.92-2.918 3.16-2.918 5 0 1.842 1.307 2.588 2.918 1.667 1.611-.92 2.918-3.159 2.918-5"/><path fill="#FFFCF6" stroke="#231F20" stroke-linejoin="round" stroke-width="2.593" d="M267.055 2.095 226.634 25.46a3.891 3.891 0 0 0-1.943 3.368v5.09c0 1.39.742 2.674 1.945 3.369l39.925 23.048a3.889 3.889 0 0 0 3.893-.002l39.819-23.046a3.89 3.89 0 0 0 1.942-3.367v-5.541a3.89 3.89 0 0 0-1.091-2.702l-19.865-20.58a3.886 3.886 0 0 0-2.335-1.162L269.466 1.6a3.892 3.892 0 0 0-2.411.495Z"/><mask id="d" width="86" height="58" x="225" y="2" maskUnits="userSpaceOnUse" style="mask-type:alpha"><path fill="#D9D9D9" d="M269.751 3.344a2.594 2.594 0 0 0-2.596 0L227.283 26.39a2.595 2.595 0 0 0-1.295 2.245v5.282c0 .926.494 1.783 1.297 2.246l39.924 23.048a2.594 2.594 0 0 0 2.596-.001l39.819-23.047a2.593 2.593 0 0 0 1.294-2.244v-5.284c0-.926-.494-1.782-1.295-2.245z"/></mask><g mask="url(#d)"><path fill="#FFFCF6" fill-rule="evenodd" d="m225.988 27.334 42.465 24.548 42.465-24.548-42.465-24.549z" clip-rule="evenodd"/><path fill="#C1B8A3" fill-rule="evenodd" d="M269.748 51.133a2.595 2.595 0 0 0-1.295 2.245v6.592l42.465-24.548v-8.088z" clip-rule="evenodd"/><path fill="#F8EFDA" d="m225.988 27.334 41.169 23.8a2.593 2.593 0 0 1 1.296 2.244v6.592l-42.465-24.548z"/></g><path fill="#F8EFDA" fill-rule="evenodd" d="M249.846 29.224a1.297 1.297 0 0 0-.243 2.07l18.261 17.163c.416.39 1.038.463 1.532.18l36.734-21.015a1.297 1.297 0 0 0 .294-2.02L289.339 7.704a1.297 1.297 0 0 0-1.583-.23z" clip-rule="evenodd"/><path stroke="#231F20" stroke-linejoin="round" stroke-width="2.593" d="m227.607 38.902 1.125 12.84a3.891 3.891 0 0 0 1.921 3.024l35.997 20.923a3.89 3.89 0 0 0 3.926-.01l35.59-20.911a3.89 3.89 0 0 0 1.904-3.014l1.127-12.852"/><path stroke="#231F20" stroke-linejoin="round" stroke-width="2.593" d="m227.607 50.573 1.146 15.078a3.89 3.89 0 0 0 1.924 3.069l35.973 20.909a3.89 3.89 0 0 0 3.926-.01l35.565-20.897a3.888 3.888 0 0 0 1.908-3.059l1.148-15.09"/><mask id="e" width="69" height="45" x="206" y="67" maskUnits="userSpaceOnUse" style="mask-type:alpha"><path fill="#D9D9D9" d="m274.158 95.31-48.141-27.88-19.775 20.424 38.74 23.665z"/></mask><g mask="url(#e)"><path fill="#FFFCF6" stroke="#231F20" stroke-linejoin="round" stroke-width="2.14" d="m243.969 66.253-22.304 12.893a3.21 3.21 0 0 0-1.604 2.78v2.182a3.21 3.21 0 0 0 1.605 2.78l22.335 12.894a3.21 3.21 0 0 0 3.213-.002l22.274-12.892a3.209 3.209 0 0 0 1.602-2.778v-2.185a3.21 3.21 0 0 0-1.603-2.779l-22.305-12.893a3.21 3.21 0 0 0-3.213 0Z"/><mask id="f" width="50" height="34" x="221" y="66" maskUnits="userSpaceOnUse" style="mask-type:alpha"><path fill="#D9D9D9" d="M246.647 67.07a2.14 2.14 0 0 0-2.142 0L222.2 79.961a2.141 2.141 0 0 0-1.069 1.853v2.293a2.14 2.14 0 0 0 1.07 1.854l22.335 12.893a2.14 2.14 0 0 0 2.142 0l22.275-12.893a2.14 2.14 0 0 0 1.068-1.852v-2.295a2.14 2.14 0 0 0-1.07-1.853z"/></mask><g mask="url(#f)"><path fill="#FFFCF6" fill-rule="evenodd" d="m221.131 80.692 24.445 14.13 15.094-8.78-24.445-14.132z" clip-rule="evenodd"/><path fill="#FBF7EC" fill-rule="evenodd" d="M224.831 80.26a.535.535 0 0 0 0 .923l18.984 11.148a3.478 3.478 0 0 0 3.522 0l18.984-11.148a.535.535 0 0 0 0-.923l-18.984-11.148a3.478 3.478 0 0 0-3.522 0z" clip-rule="evenodd"/><path fill="#8A816C" fill-rule="evenodd" d="M246.645 94.205a2.139 2.139 0 0 0-1.069 1.853v3.42l24.445-14.13v-4.656z" clip-rule="evenodd"/><path fill="#F8EFDA" d="m221.131 80.692 23.376 13.513a2.141 2.141 0 0 1 1.069 1.853v3.42l-24.445-14.13z"/></g></g><path fill="#231F20" d="m236.553 73.427 21.234 12.32-4.462-1.08a29.179 29.179 0 0 1-16.589-10.992zM240.605 60.675l11.022 6.378c0 3.522-2.467 4.95-5.511 3.189-3.043-1.761-5.511-6.044-5.511-9.567"/><circle cx="241.902" cy="28.852" r="1.621" fill="#231F20"/><circle cx="258.111" cy="77.48" r="1.621" fill="#231F20"/><circle cx="241.902" cy="87.205" r="1.621" fill="#231F20"/><circle cx="238.984" cy="8.429" r="1.621" fill="#231F20"/><circle cx="212.401" cy="69.375" r="1.621" fill="#231F20"/><path fill="#231F20" d="M233.884 77.728c.202-.014.407.03.605.119.025.01.058.04.083.011.019-.022-.008-.051-.017-.076a2.24 2.24 0 0 1-.07-1.416c.082-.306.233-.573.517-.741.286-.17.602-.099.792.195.107.166.15.352.161.548.002.047-.027.118.027.14.042.016.078-.046.114-.076.186-.153.394-.249.636-.258.282-.01.481.16.512.44.031.277-.071.52-.202.753-.017.03-.038.057-.056.086-.016.025-.047.05-.029.082.016.03.05.009.076.01.128 0 .241.076.262.173a.218.218 0 0 1-.202.257c-.07.003-.14-.01-.21-.022a.557.557 0 0 0-.436.126c-.077.059-.141.134-.207.206-.032.035-.059.07.021.09.115.03.208.105.276.2.03.043.051.039.082.013.239-.2.524-.222.816-.214a.275.275 0 0 1 .152.06c.078.056.123.13.092.23-.03.097-.105.132-.2.127-.171-.008-.34-.017-.503.063-.132.065-.168.102-.17.248a1.154 1.154 0 0 1-.229.69.492.492 0 0 1-.512.208c-.085-.014-.092.007-.09.086a.963.963 0 0 1-.419.827c-.011.008-.022.017-.035.022-.081.034-.163.06-.234-.017-.054-.06-.042-.166.03-.241.12-.127.22-.263.258-.437.029-.138.02-.13-.115-.115-.201.022-.296.13-.382.303-.148.303-.411.48-.741.553l-.03.007c-.127.018-.224-.027-.245-.115-.023-.096.042-.186.163-.228.222-.076.396-.214.525-.41.044-.066-.039-.26-.117-.274-.033-.005-.047.023-.063.045a.862.862 0 0 1-.529.344c-.506.109-.971.024-1.375-.303a1.48 1.48 0 0 1-.515-.816.396.396 0 0 1 .009-.222c.175-.5.485-.89.969-1.123.233-.113.483-.152.755-.158zm2.26 1.49c-.013-.106.013-.213-.015-.318-.017-.065-.052-.126-.117-.128-.069-.002-.098.066-.114.127a.95.95 0 0 0-.012.418c.036.104.075.206.174.268.048.03.1.049.15.001.047-.044.062-.1.028-.156-.041-.067-.066-.14-.094-.212m-.723-.408a.843.843 0 0 1 .228-.338c.065-.056.044-.074-.028-.094-.393-.107-.88.192-.955.593-.006.033-.019.07.008.11.047-.037.081-.083.137-.096.065 0 .13-.004.195 0 .127.005.18.057.185.183.005.107.001.213.001.32.002.266.031.287.292.215a.24.24 0 0 1 .02-.004c.055-.011.055-.04.028-.081a.933.933 0 0 1-.111-.808zm-2.225.056c.066-.22.171-.42.291-.618-.264.063-.476.19-.602.435-.107.177-.108.378-.137.573-.036.243.106.376.278.494.07.048.097.03.091-.058a2.7 2.7 0 0 1 .079-.826m1.005.164c.036-.161.098-.31.181-.455.035-.062.145-.106.096-.187-.036-.06-.125-.09-.199-.118-.013-.004-.028-.006-.039-.014-.083-.055-.14-.018-.189.052a1.669 1.669 0 0 0-.28.642 1.73 1.73 0 0 0-.042.872c.016.085.058.115.143.104a.742.742 0 0 0 .288-.102c.042-.025.065-.058.05-.111-.062-.227-.039-.455-.009-.683zm.664-2.116c.013.33.085.661.156.993.007.034-.008.107.052.09.068-.021.181.023.198-.085.04-.266.09-.53.145-.793.029-.14.044-.282.062-.424.023-.184.05-.368-.008-.55-.048-.155-.174-.196-.303-.097a.596.596 0 0 0-.092.096c-.177.223-.2.489-.21.77m1.804-.297a.657.657 0 0 0-.391.232c-.263.305-.455.65-.563 1.04-.01.035-.04.076.004.102.037.022.071-.007.1-.032.239-.199.467-.41.682-.633.141-.146.254-.316.316-.513.039-.123-.011-.197-.149-.196z"/><path fill="#D69B04" d="M234.201 79.03c-.03.228-.053.456.009.683.015.053-.008.086-.05.111a.742.742 0 0 1-.288.102c-.085.01-.127-.019-.143-.103a1.73 1.73 0 0 1 .042-.872c.14.047.287.055.43.08zM233.196 78.866a2.7 2.7 0 0 0-.079.826c.006.088-.021.106-.091.058-.172-.118-.314-.251-.278-.493.029-.196.03-.397.137-.574.03.13.118.182.311.183zM235.421 78.81a.936.936 0 0 0 .111.808c.027.041.027.07-.028.08l-.02.005c-.261.072-.29.05-.292-.215 0-.107.004-.213-.001-.32-.005-.126-.059-.178-.185-.184-.065-.003-.13 0-.195.002a.484.484 0 0 1 .162-.205c.175-.134.341-.122.449.03zM235.886 79.317c.067-.005.133-.013.2-.014.063-.002.053-.047.058-.085.028.072.053.145.094.212.034.056.019.111-.028.156-.05.047-.102.029-.15-.001-.099-.062-.138-.164-.174-.268"/><circle cx="204.621" cy="39.55" r="1.621" fill="#231F20"/><circle cx="315.816" cy="17.182" r="1.621" fill="#231F20"/><path fill="#231F20" d="M284.424 25.55c.324.01.644.043.958.123.056.014.112.032.167.051.285.101.477.427.174.738-.19.195-.417.326-.663.432-.281.122-.581.19-.877.245-.402.075-.814.063-1.223.044-.147-.006-.298.007-.44-.023-.157-.033-.318-.045-.472-.087-.02-.005-.041-.012-.061-.011-.043 0-.102-.025-.126.015-.028.047.034.073.057.109.299.473.425.982.342 1.542-.05.335-.179.636-.364.912-.093.14-.217.259-.354.363-.273.207-.571.253-.903.189-.517-.1-.889-.41-1.212-.797a2.309 2.309 0 0 1-.542-1.182c-.001-.01-.007-.021-.005-.03.047-.201-.067-.27-.238-.292a.628.628 0 0 1-.275-.123c-.052-.036-.093-.037-.141.015a.64.64 0 0 0-.16.47c.003.177.052.344.135.502.07.136.013.263-.124.298-.087.022-.144-.03-.199-.081-.185-.175-.24-.406-.244-.646-.006-.339.059-.66.31-.913.031-.031.031-.065.019-.103-.02-.066-.062-.123-.065-.197-.002-.044-.043-.032-.072-.034-.484-.042-.717-.445-.678-.766.02-.169.077-.326.153-.478.144-.285.349-.517.611-.697.073-.05.077-.098.054-.172-.081-.259-.286-.393-.506-.512-.054-.029-.114-.046-.169-.071-.084-.037-.123-.129-.1-.253.016-.084.077-.131.163-.135.224-.009.407.093.584.215.259.178.404.43.474.731.015.066.044.09.112.088a.921.921 0 0 1 .526.15c.029.018.06.044.081-.01.097-.249.208-.497.152-.776-.048-.244-.149-.45-.402-.552-.13-.053-.181-.162-.166-.294a.144.144 0 0 1 .109-.128c.158-.05.29.02.411.106.54.386.645 1.01.381 1.6-.044.099-.012.136.067.17.031.012.064.02.095.036.06.03.094-.004.109-.052.067-.216.198-.398.311-.587.168-.28.339-.561.551-.811.312-.37.606-.757.972-1.08.294-.258.618-.474.974-.631.215-.096.452-.15.699-.115.264.037.372.189.459.43.102.284.046.56-.047.833-.011.031-.026.059 0 .084.026.026.046-.006.07-.013.347-.105.697-.203 1.066-.156.431.054.598.378.482.766-.044.148-.116.28-.188.415-.119.226-.293.406-.47.58-.157.154-.349.274-.525.41-.045.034-.122.07-.103.124.016.049.099.016.152.02.044.002.089 0 .134 0zm-6.144.8a.829.829 0 0 0 .255-.388c.036-.11-.001-.211-.079-.254-.087-.047-.167-.025-.254.068-.095.104-.164.227-.243.343a.596.596 0 0 1-.286.205c-.095.031-.115.102-.054.181a.24.24 0 0 0 .238.09.636.636 0 0 0 .423-.244m2.271 1.375c-.124.096-.246.196-.383.272-.224.125-.464.2-.718.233-.033.004-.085-.01-.094.04-.018.101.098.252.2.268.122.02.245.028.369.02.41-.024.755-.202 1.067-.457.075-.05.107-.142.165-.195.151-.138.208-.315.265-.495.022-.07.001-.135-.045-.193a4.151 4.151 0 0 0-.285-.323c-.048-.048-.072-.045-.082.025a1.248 1.248 0 0 1-.271.59c-.058.076-.125.143-.188.214zm1.06 1.269c.235-.272.231-.578.129-.898-.011-.034-.034-.082-.062-.023-.092.197-.25.338-.388.497-.025-.009-.038.011-.053.023a2.14 2.14 0 0 1-1.125.48c-.085.01-.171.014-.255.024-.031.004-.07.016-.028.058.108.107.22.215.37.252.547.132 1.015-.021 1.412-.413m-1.768-1.822c-.003.04-.055.07-.013.121.068.083.117.09.186.005.44-.539.326-1.417-.583-1.674a.145.145 0 0 0-.051-.002c-.039.003-.066.012-.048.064.023.069.01.142.013.213-.043.428-.252.753-.607.99-.114.075-.244.106-.37.149-.041.014-.075.03-.035.078.142.17.29.264.535.101.11-.073.208-.168.3-.264a.443.443 0 0 1 .517-.089c.131.068.154.18.156.308zm.748-1.168c.293-.032.583-.08.87-.146.621-.143 1.246-.27 1.838-.52.506-.216.962-.495 1.335-.903a1.73 1.73 0 0 0 .311-.47c.074-.17.033-.24-.15-.27a.842.842 0 0 0-.246.002 2.798 2.798 0 0 0-.923.308c-.62.318-1.214.68-1.795 1.065-.431.286-.828.616-1.24.934zm2.857-3.132c.011-.309-.091-.396-.344-.346-.139.027-.27.079-.391.152-.521.32-.96.729-1.341 1.206-.201.252-.409.497-.583.769-.165.257-.336.51-.475.782-.027.051-.075.114-.022.16.061.05.105-.029.143-.061a9.54 9.54 0 0 1 .618-.492c.641-.476 1.294-.935 2.013-1.288a.232.232 0 0 0 .102-.112c.027-.052.055-.102.081-.155.104-.21.183-.428.199-.614m-2.208 3.547c.015.01.028.021.043.027.157.059.322.075.485.105a7.734 7.734 0 0 0 2.098.121c.483-.043.948-.15 1.374-.391.047-.027.131-.042.117-.11-.011-.058-.093-.057-.148-.071-.303-.076-.612-.067-.92-.07-.676-.006-1.352.008-2.013.17-.269.065-.54.116-.814.155-.076.012-.156.007-.222.064z"/><path fill="#D69B04" d="M279.843 27.172c-.002-.128-.026-.24-.156-.308a.443.443 0 0 0-.517.09c-.092.095-.19.19-.3.263-.245.163-.394.07-.535-.102-.04-.048-.006-.064.034-.078.126-.043.256-.073.37-.149.356-.236.565-.561.607-.99a.14.14 0 0 0 .087.068c.243.055.405.217.535.415.158.241.209.585-.126.79zM281.611 28.994c-.397.392-.864.545-1.412.413-.15-.037-.262-.145-.37-.252-.042-.042-.003-.054.028-.058.085-.01.17-.015.255-.024a2.143 2.143 0 0 0 1.125-.48c.015-.012.028-.032.053-.023.015.008.031.014.044.024.055.038.109.101.161-.003.008-.015.023-.012.034 0 .014.016.012.034-.003.046-.036.027-.074.053-.112.079.005.007.008.013.013.017.045.054.212.05.087.187-.014.015.003.05.031.052.025.003.048.001.066.022M280.992 28.1c-.311.257-.657.434-1.067.459-.124.007-.247 0-.369-.02-.102-.017-.218-.168-.2-.268.009-.05.061-.037.094-.04.254-.033.494-.109.718-.233.138-.077.259-.177.383-.273.07.09.158.14.275.134.037-.002.046.033.035.059-.05.13.032.162.131.183zM277.959 26.119c.024.122.148.12.224.18.029.021.064.034.097.052a.639.639 0 0 1-.423.244.24.24 0 0 1-.238-.09c-.061-.08-.041-.15.054-.181a.596.596 0 0 0 .286-.206z"/><circle cx="218.885" cy="38.902" r="1.621" fill="#231F20"/><circle cx="290.529" cy="20.424" r="1.621" fill="#231F20"/><path fill="#231F20" d="M216.124 12.253c-.184-.177-.37-.345-.538-.53-.404-.442-.692-.947-.815-1.537a1.458 1.458 0 0 1 .034-.794c.118-.332.43-.404.72-.323.081.023.159.057.236.091.058.025.059-.008.054-.046a1.375 1.375 0 0 1 .348-1.125.632.632 0 0 1 .887-.051c.212.18.348.415.47.66.124.25.222.51.298.775.052.18.077.37.114.556.127.643.157 1.293.151 1.945-.001.087.02.122.108.106.079-.014.157.008.235.018.174.022.171.024.233-.129.197-.48.57-.718 1.075-.767a.489.489 0 0 1 .112.004c.131.017.216.097.223.205.006.1-.08.2-.201.228-.057.013-.116.013-.174.023-.397.07-.667.336-.673.756-.001.07.011.1.094.078a.76.76 0 0 1 .38.023c.151.038.281.104.403.193.055.04.092.03.117-.031.084-.209.251-.325.439-.436.217-.128.44-.189.688-.172a.802.802 0 0 1 .187.031c.084.027.122.133.101.252-.014.076-.102.15-.193.146a1.073 1.073 0 0 0-.519.103.83.83 0 0 0-.342.287.187.187 0 0 0-.016.203c.14.296.181.61.151.934a.646.646 0 0 1-.571.595c-.103.016-.206.011-.308 0-.03-.002-.063-.025-.085.008-.025.036.007.063.029.088.262.297.323.645.248 1.022a.445.445 0 0 1-.141.275.214.214 0 0 1-.216.047c-.046-.014-.096-.175-.079-.242.037-.151.066-.302.034-.459a.935.935 0 0 0-.087-.252c-.025-.048-.057-.07-.097-.012-.004.005-.01.012-.016.013-.167.04-.117.158-.108.273.04.468-.178.818-.526 1.102a.833.833 0 0 1-.231.149c-.125.046-.246.009-.308-.106-.032-.059-.013-.118.026-.17.061-.081.143-.138.22-.2.196-.16.356-.345.388-.61.002-.016.005-.033.005-.05.002-.228.002-.198-.18-.199a.52.52 0 0 1-.444-.208c-.065-.088-.179-.077-.27-.11-.06-.023-.119-.044-.169-.083-.058-.043-.091-.032-.088.04.012.262-.06.51-.17.738a2.14 2.14 0 0 1-.496.67c-.28.251-.592.444-.958.552-.124.037-.245.073-.373.086a.265.265 0 0 1-.161-.023c-.124-.069-.137-.17-.038-.268a.478.478 0 0 1 .197-.106c.347-.117.681-.262.954-.513.285-.262.51-.565.59-.956a.672.672 0 0 0 .011-.205c-.003-.022.008-.055-.025-.06-.028-.004-.035.026-.047.046-.186.33-.444.595-.753.804-.602.41-1.257.557-1.976.372-.427-.11-.802-.306-1.09-.646-.091-.108-.164-.23-.165-.38-.004-.978.365-1.766 1.189-2.316a2.4 2.4 0 0 1 .967-.374c.231-.037.463-.044.693-.02.078.008.157-.001.238.013zm3.645 1.343a1.664 1.664 0 0 1-.169-.348.525.525 0 0 0-.092-.17c-.046-.057-.105-.092-.18-.07a.178.178 0 0 0-.135.152.455.455 0 0 0 .001.142c.029.168.097.32.212.447a.847.847 0 0 0 .375.31c.101.04.251.002.312-.073.049-.061.042-.131-.027-.15-.138-.037-.213-.142-.297-.24zm-3.557.297c-.005-.058-.012-.116-.014-.174a2.52 2.52 0 0 1 .122-.79c.019-.062.009-.095-.058-.113-.145-.039-.289-.08-.443-.072-.063.004-.081.028-.097.08a2.603 2.603 0 0 0-.097.957c.004.07-.017.144.025.21.031.216.099.421.18.622.063.156.13.31.247.436.061.066.121.097.196.014a.781.781 0 0 1 .14-.12c.068-.047.073-.104.04-.17a2.745 2.745 0 0 1-.241-.88m2.214-1.014.005-.003-.003-.005a.512.512 0 0 1 .128-.209c.075-.07.056-.107-.023-.146a.835.835 0 0 0-.182-.07c-.317-.075-.601.006-.867.181a.964.964 0 0 0-.408.548c-.069.247-.054.507.02.754.033.11.062.236.18.3.037.052.098.039.148.055.024.007.05.039.074.013.026-.027-.011-.048-.021-.07-.071-.16.022-.403.172-.418.237-.023.441.016.579.276.099.189.214.359.39.489.176.129.429.1.546-.084.032-.049.042-.078-.031-.103a1.08 1.08 0 0 1-.533-.423 1.218 1.218 0 0 1-.185-1.074c.008 0 .011-.004.011-.011m-3.684 1.285c-.014-.13-.042-.257-.046-.388a2.664 2.664 0 0 1 .085-.786c.007-.024.025-.055-.003-.076-.021-.015-.046.004-.068.012-.109.04-.213.092-.315.147-.166.09-.302.206-.348.4-.027.108-.028.22-.027.332.003.244-.033.495.096.723.063.282.184.542.338.783.076.117.173.236.325.265.172.033.341 0 .508-.045.046-.012.055-.037.021-.073-.162-.173-.265-.383-.364-.594-.043-.092-.098-.184-.114-.282-.022-.142-.066-.277-.089-.418zm.435-4.342c.01.063.018.142.033.219.077.378.267.705.473 1.022.337.519.815.894 1.311 1.246.042.03.109.058.154.029.051-.033.003-.09-.011-.13-.066-.18-.145-.354-.209-.534-.216-.61-.47-1.201-.869-1.719a1.343 1.343 0 0 0-.541-.43c-.189-.081-.305-.018-.33.19zm1.106-.973c-.005.066.005.13.015.195.048.31.202.576.347.843a11.54 11.54 0 0 1 .905 2.124c.01.033.024.061.063.053.031-.007.057-.026.055-.064a.576.576 0 0 0-.006-.072 9.702 9.702 0 0 1-.061-.78c-.034-.76-.143-1.503-.439-2.21a2.028 2.028 0 0 0-.33-.566c-.134-.152-.273-.148-.397.007a.78.78 0 0 0-.153.47z"/><path fill="#D69B04" d="M218.415 12.89c-.106.386-.047.747.185 1.074.135.19.306.346.533.423.073.025.063.054.031.103-.117.184-.37.213-.546.083-.176-.13-.291-.3-.39-.488-.138-.26-.342-.3-.579-.276-.15.015-.243.259-.172.418.01.022.047.043.021.07-.024.026-.05-.006-.074-.014-.05-.016-.111-.002-.148-.054a.28.28 0 0 0-.006-.132c-.071-.231-.073-.46.001-.692.097-.302.451-.617.836-.585.108.008.202.063.308.07M214.116 14.528c.163-.132.362-.188.553-.256.069-.024.071-.057.073-.108.022.14.067.277.089.418.015.098.071.19.114.282.098.211.201.42.363.594.034.036.025.06-.02.073-.167.045-.336.078-.508.045-.153-.029-.25-.148-.325-.265-.155-.24-.276-.5-.338-.783zM215.65 13.991l.562-.098c.038.305.105.602.241.88.033.066.028.123-.039.17a.788.788 0 0 0-.141.12c-.075.083-.135.052-.196-.014-.117-.126-.184-.28-.247-.436a2.687 2.687 0 0 1-.179-.622zM219.406 13.75c.018-.02.042-.022.066-.02.126.015.219-.042.297-.134.084.099.159.204.297.24.069.02.076.09.027.15-.061.075-.211.113-.312.073a.848.848 0 0 1-.375-.31z"/><path fill="#231F20" d="M217.754 52.45a.35.35 0 0 0 .164-.01c.209-.051.419-.074.632-.03.238.05.387.274.342.514-.09.476-.376.825-.737 1.121a4.841 4.841 0 0 1-.933.575 2.363 2.363 0 0 1-.483.181c-.025.006-.051.011-.057.035-.007.034.024.043.048.057.156.09.306.189.444.307.194.168.348.365.458.594.207.43.273.88.191 1.356-.041.242-.199.368-.387.468a2.02 2.02 0 0 1-1.102.25c-.719-.055-1.3-.36-1.679-.998a1.179 1.179 0 0 1-.052-.1c-.063-.139-.16-.175-.293-.109-.052.026-.031.07-.026.108.084.561.402.943.909 1.174.144.065.293.116.44.174.114.045.17.13.151.226-.019.105-.099.165-.22.166-.215 0-.396-.108-.581-.195a2.04 2.04 0 0 1-.919-.828 1.423 1.423 0 0 1-.2-.706c-.001-.051-.004-.082-.071-.08a.832.832 0 0 1-.569-.2c-.065-.054-.096-.051-.119.032-.065.236-.025.46.071.678.021.047.045.093.06.142.034.11-.047.254-.155.274-.046.01-.082-.02-.115-.05-.268-.252-.337-.572-.311-.922.015-.209.076-.403.198-.577.046-.066.027-.1-.051-.108-.476-.048-.737-.388-.663-.862.046-.293.168-.551.367-.77.065-.07.081-.133.035-.22-.132-.242-.309-.424-.585-.497-.091-.024-.2-.042-.213-.171a.213.213 0 0 1 .246-.236c.207.024.395.097.566.216.211.148.341.352.418.591.022.07.051.074.112.055a.877.877 0 0 1 .395-.034c.102.016.151-.026.159-.14.018-.265-.041-.503-.268-.668-.074-.054-.164-.086-.248-.127-.119-.057-.182-.147-.159-.228.036-.124.135-.196.269-.18a.904.904 0 0 1 .473.195c.22.184.341.421.363.712.01.127.022.25-.002.377-.011.058-.002.099.079.11.077.01.158.065.229.041.084-.027.078-.135.107-.207.136-.336.321-.646.524-.94.193-.278.417-.535.645-.788.153-.17.324-.32.495-.47.197-.173.429-.29.664-.402.166-.08.341-.114.524-.103.273.016.435.154.503.42.059.227.027.45-.038.67-.013.045-.029.09-.044.138zm-4.97 2.723c-.035.014-.068.035-.104.04-.095.011-.131.063-.118.154.012.091.074.12.159.125a.6.6 0 0 0 .501-.226.91.91 0 0 0 .216-.344c.028-.083.061-.176-.037-.24-.091-.06-.168-.005-.242.045-.02.013-.034.034-.049.052-.112.128-.2.277-.326.394m3.799 1.201c-.122.332-.28.645-.506.919-.048.058-.002.07.037.081.133.035.268.054.406.041a.235.235 0 0 0 .175-.095c.153-.208.268-.434.328-.687.058-.155.087-.316.12-.477.067-.336-.139-.512-.373-.695-.053-.041-.061-.005-.062.041-.004.09-.011.179-.016.267-.013.206-.073.403-.108.605zm-1.914-.661c.063.14-.026.272-.021.408.13-.09.153-.12.21-.253a.995.995 0 0 0 .022-.714c-.103-.334-.34-.52-.672-.597-.042-.01-.097-.022-.066.05.057.132.045.269.046.406-.12.412-.351.724-.777.86-.037.012-.09.017-.092.068-.002.055.032.096.077.127a.308.308 0 0 0 .417-.053c.08-.089.151-.187.231-.276.195-.22.424-.228.625-.026m.726.141a1.37 1.37 0 0 1-.25.558c-.039.047-.065.104-.095.158-.025.046-.021.09.007.136.079.127.176.235.291.33.039.03.057.03.088-.01a2.55 2.55 0 0 0 .483-.978c.082-.278.091-.566.111-.852.005-.071-.037-.063-.077-.054-.164.035-.327.073-.491.11-.034.007-.06.024-.051.061.043.182-.003.361-.016.541zm2.903-3.014c-.303.032-.602.14-.889.281-.322.16-.613.37-.919.558a7.56 7.56 0 0 0-.829.573c-.161.131-.32.265-.478.4-.024.02-.062.045-.042.085.023.046.06.014.09.007.382-.083.761-.175 1.133-.294a4.496 4.496 0 0 0 1.569-.854c.2-.17.374-.364.477-.61.042-.1.008-.148-.112-.146zm-3.466 1.401.019.02c.041-.03.084-.057.121-.09.236-.208.5-.378.752-.563.357-.262.73-.501 1.093-.755.288-.202.477-.476.57-.815.028-.102.042-.213-.037-.298-.086-.092-.19-.046-.288-.014l-.049.017c-.318.123-.572.342-.803.58-.192.197-.384.397-.563.609-.337.4-.564.86-.815 1.309z"/><path fill="#D69B04" d="M215.919 56.049a2.562 2.562 0 0 1-.482.976c-.032.042-.05.042-.089.01a1.331 1.331 0 0 1-.291-.33c-.028-.044-.032-.089-.007-.135.03-.054.057-.11.095-.158.132-.165.202-.356.25-.558.048.002.09.027.135.039.136.036.246.136.389.155M214.669 55.713c-.202-.203-.43-.194-.626.026-.079.09-.15.187-.23.276a.307.307 0 0 1-.417.053c-.045-.03-.079-.072-.077-.127.002-.052.055-.056.092-.068.426-.136.657-.448.777-.86.382-.015.451.193.545.436.036.093.025.193-.064.264zM217.023 56.633c-.06.253-.176.48-.328.688a.236.236 0 0 1-.175.095 1.157 1.157 0 0 1-.406-.041c-.039-.01-.086-.023-.037-.082a3.13 3.13 0 0 0 .506-.919c.086.067.192.08.29.115.068.025.178.017.15.145zM212.784 55.173c.153 0 .295.049.438.093a.6.6 0 0 1-.501.226c-.084-.004-.146-.033-.159-.125-.013-.091.023-.143.118-.154.036-.005.069-.027.104-.04"/><defs><linearGradient id="a" x1="88" x2="211" y1="60.5" y2="60.5" gradientUnits="userSpaceOnUse"><stop stop-color="#E2B950"/><stop offset="1" stop-color="#FBF7EC"/></linearGradient><linearGradient id="b" x1="301.477" x2="324.459" y1="76.183" y2="107.272" gradientUnits="userSpaceOnUse"><stop/><stop offset="1" stop-opacity="0"/></linearGradient></defs></svg>