<svg xmlns="http://www.w3.org/2000/svg" width="252" height="124" fill="none"><g clip-path="url(#a)"><path fill="#EDD8A2" d="M216.599 68.997c1.978-2.222 3.899-4.921 4.547-7.969-1.679 3.687-3.774 5.006-6.085 6.683 2.086-3.618 3.45-7.126 7.856-8.956-2.378.468-4.656 2.018-6.701 3.993 1.397-2.358 2.586-5.015 3.176-7.952-2.993 6.317-5.096 8.275-7.598 10.787 2.743-4.078 5.728-9.11 6.517-13.946-2.161 6.522-4.938 8.548-8.014 12.6 3.5-5.67 7.474-12.923 7.69-19.751-2.203 8.224-5.387 11.264-9.003 16.406v-.162c2.311-3.771 4.323-7.943 4.68-11.962-1.097 3.831-2.627 6.3-4.356 8.463.291-1.38.823-2.954 1.795-4.904-1.247 2.01-2.186 4.138-2.926 6.258-.698.8-1.422 1.6-2.153 2.435.116-.877.199-1.712.274-2.512 1.513-2.929 3.442-8.318 3.442-8.318s-1.771 4.095-3.217 5.977c.424-3.891 1.189-7.722 5.537-14.312-5.571 5.543-7.84 12.558-9.145 18.577-1.098 1.252-2.22 2.537-3.276 3.916-.041-.647-.1-1.294-.166-1.932 2.419-4.061 4.938-8.99 5.412-13.707-1.43 5.338-3.45 7.713-5.662 10.625-.016-.46-.033-.92-.025-1.38-.407.92-.756 1.797-1.047 2.631.025-3.065-.216-5.576 1.563-9.484.424-.51.865-1.03 1.338-1.558-.307.196-.598.392-.873.587.316-.613.674-1.26 1.098-1.95a22.479 22.479 0 0 0-2.261 2.81c-1.996 1.558-3.243 3.04-4.016 4.47.549-4.853 1.621-9.987 7.258-16.534-6.659 4.623-9.486 11.324-10.974 17.454.017-.58.042-1.158.075-1.729.923-2.418 1.654-4.946 1.962-7.509.432-.928.964-1.924 1.613-3.014a27.214 27.214 0 0 0-1.497 1.84c.125-1.73.033-3.466-.332-5.177-.499 7.075-2.993 10.506-5.745 14.482.108-2.997.54-6.045 3.409-11.009-3.924 4.521-5.737 9.638-6.743 14.201-.216-3.303-.449-6.198 2.37-11.45-3.617 4.197-4.947 9.067-5.546 13.358-.224-1.303-.44-2.606-.507-3.925a34.072 34.072 0 0 0-1.18 3.729c.016-4.513-.441-8.455 1.255-13.035-1.546 2.886-2.386 7.058-2.935 11.076-.083-.85-.166-1.668-.207-2.503.715-1.822 1.205-3.567 1.272-5.057a14.872 14.872 0 0 1-1.289 3.482c.067-2.111.557-4.47 2.211-7.764a20.714 20.714 0 0 0-2.726 4.333c.199-1.66.232-3.371.016-5.133-.59 5.627-2.269 8.24-4.198 10.863v-.068c1.787-4.061 3.167-8.573 2.66-12.898-.482 5.031-2.12 7.832-4.015 10.531 1.679-4.793 2.976-10.063 2.436-14.958-.616 6.606-2.511 10.071-4.598 13.92.524-2.708.624-5.475-.1-8.071.059 5.312-1.047 8.198-2.452 11.025-.582-2.92-.931-5.739.274-8.863-.066.11-.133.23-.199.34.906-3.584 1.604-7.483 1.82-11.63-2.095 9.715-3.865 13.623-5.827 17.582-.233-2.401-.075-4.99 1.604-8.897-3.325 4.495-4.032 9.714-4.215 14.073 0 .12-.016.238-.016.358-.017.034-.025.068-.042.093-.224-1.745-.499-3.295-.424-5.108 1.812-4.478 3.325-9.757 3.317-15.69-.441 2.323-.923 4.265-1.43 5.942-3.142 2.92-4.614 5.483-5.212 7.832-.316-1.975-.341-3.967.374-6.112-1.646 2.818-1.912 6.904-1.796 10.786-.166.264-.333.528-.499.81a9.634 9.634 0 0 1-.083-2.512c.723-3.108 1.272-6.513 1.272-9.987-.748 6.292-1.97 8.727-3.317 12.013l-.05-.758c2.145-5.832 4.215-12.898 3.201-19.454-.183 6.462-1.854 9.919-3.733 13.47-.1-2.283.033-4.88.856-8.668-1.164 3.448-1.696 7.152-1.937 10.685a46.21 46.21 0 0 0-1.787 3.72c0-.034-.009-.06-.017-.093 1.397-5.56 2.469-12.039.964-17.734.308 6.027-.465 9.552-1.521 12.838.158-1.575.141-3.15-.116-4.69-.034 1.523-.191 2.809-.441 3.941a34.898 34.898 0 0 1-.391-3.03c.067-.801.075-1.567 0-2.282-.016.22-.041.434-.066.646 0-1.506.141-3.039.557-4.656-1.098 2.443-1.555 5.602-1.696 8.913-.532 1.329-1.197 2.606-1.912 3.9 1.105-4.35 1.654-9.323.233-14.533.266 6.59-1.264 9.68-3.068 12.856 1.397-4.82 2.278-10.166.939-15.18.291 5.806-1.114 9.11-2.818 12.319 1.114-5.594 1.704-11.724.249-17.309.424 7.62-1.163 11.707-2.893 16.245.133-3.142-.216-6.318-1.496-9.263.981 6.104.208 9.476-.906 12.796-1.164-3.32-2.045-6.53-1.214-10.191-1.796 3.78-1.38 9.314-.607 14.337-1.214-2.835-2.336-5.38-1.372-10.319-1.338 3.15-1.438 6.547-1.072 9.74-1.123-4.172-2.503-7.262-.773-13.903-1.646 3.09-2.287 6.403-2.428 9.612-.474-1.175-.931-2.324-1.322-3.473.757-3.21 1.979-6.82 3.974-10.855-2.652 2.835-4.107 5.363-4.822 7.67-.282-1.583-.341-3.218 0-4.955-1.646 3.755-1.056 9.204-.108 14.176a38.22 38.22 0 0 0-.1 1.873c-.033-.068-.066-.136-.091-.205-1.122-6.938-3.292-12.89-1.305-19.607-1.156 2.24-1.771 5.092-2.079 8.182a19.033 19.033 0 0 0-.964-2.358c.998 4.453.715 7.279.1 9.893-.133-.945-.399-1.822-.848-2.588.224 2.962-.699 5.27-1.829 7.45 1.28-5.62 2.544-12.542.598-17.045.491 2.622.092 5.014-.656 7.364-.316-2.954-1.713-6.232-5.313-10.089 2.395 4.844 3.675 9.076 4.357 12.728-.549 1.388-1.156 2.793-1.721 4.257.141-4.001-.316-8.318-2.411-12.277 1.712 6.641.332 9.732-.807 13.895.374-3.184.275-6.581-1.056-9.74.957 4.947-.174 7.484-1.388 10.319.782-5.024 1.206-10.557-.582-14.338.832 3.661-.066 6.871-1.23 10.191-1.106-3.328-1.879-6.7-.881-12.796-1.738 3.95-1.788 8.344-1.231 12.481-.723-1.251-1.43-2.452-2.037-3.737-.183-2.018-.557-4.044-1.205-5.985.299 1.634.44 3.022.474 4.265-.823-2.23-1.322-4.836-1.064-8.428-1.405 4.614-.732 9.518.515 14.005-.1.46-.2.91-.308 1.37-.939-2.273-1.72-4.674-1.928-9.211-.383 3.626.041 7.16.731 10.335-1.172-2.699-2.22-5.168-2.294-8.982.174-.604.357-1.217.573-1.847-.2.255-.39.51-.573.757a32.32 32.32 0 0 1 .158-2.23 17.494 17.494 0 0 0-.89 3.32c-1.197 1.958-1.72 3.72-1.804 5.347-1.696-5.194-3.034-10.779-.607-18.569-4.298 5.926-3.924 13.435-2.544 20.135-.25-.613-.49-1.217-.723-1.839-.224-2.69-.69-5.474-1.571-8.215a31.77 31.77 0 0 1 .166-3.423 22.88 22.88 0 0 0-.599 2.18 26.628 26.628 0 0 0-2.71-5.398c2.794 7.526 1.97 11.545 1.156 16.159-1.28-3.176-2.27-6.445-1.804-12.14-1.705 5.389-1.073 11.059.075 16.022-1.738-3.448-3.31-6.453-3.018-12.438-1.547 4.989-.566 10.335.848 14.941-.823-1.336-1.63-2.673-2.312-4.052.133 1.49.341 2.852.6 4.112-2.088-4.76-4.374-8.837-4.864-13.929-.15 3.278.989 7.808 2.328 12.133-.898-1.678-1.763-3.227-2.42-5.024-.183-2-.532-4.027-1.164-6.019a23.975 23.975 0 0 1-.025-1.745c-.091.323-.166.655-.232.979a21.3 21.3 0 0 0-1.813-3.89c1.455 4.077 1.555 6.938 1.19 9.458-.2-.366-.425-.74-.69-1.124a7.35 7.35 0 0 1 .839-1.115 6.19 6.19 0 0 0-1.056.817c-.89-1.234-2.103-2.528-3.766-3.89a47.707 47.707 0 0 1 2.935 4.86c-.857 1.201-1.455 2.725-1.846 4.42-.291-4.053-1.18-8.608-3.425-13.41 1.056 4.921 1.322 8.165 1.239 10.728-.898-1.9-2.495-3.908-5.246-6.096 2.336 3.252 3.915 6.19 5.013 8.811-.3 2.12-.79 3.976-1.106 6.445-.3-3.703-1.023-7.986-2.968-12.268 1.713 5.815 1.28 8.199 1.04 11.383-.125-.23-.25-.46-.375-.681.133-5.61-.357-12.311-4.231-18.118C64.17 46.13 63.637 49.51 62.872 53c-1.056-2.052-1.962-4.428-2.552-7.986.041 3.303.939 6.743 2.111 9.978a31.114 31.114 0 0 0-.582 3.644c-.016-.026-.041-.051-.058-.085-.632-5.253-2.037-11.29-6.135-16.228 3.059 5.866 3.45 9.263 3.491 12.652-2.278-3.116-4.265-6.164-4.689-9.85-.473 3.907 1.83 9.288 4.315 14.124-2.17-2.648-4.157-5.006-4.897-9.961-.24 3.243.824 6.59 2.279 9.671-2.544-3.959-4.964-6.836-5.53-13.537-.722 4.121.292 8.403 1.797 12.311-1.056-1.37-2.137-2.673-3.16-3.976-.573-3.66-.74-7.96-.033-12.975-2.244 4.19-2.51 7.56-1.82 10.498-1.538-2.222-2.752-4.521-3.16-7.152-.39 4.64 3.226 11.281 6.41 16.645-1.862-2.01-3.566-4.164-4.356-7.1-.183.808-.15 1.693.041 2.638-1.504-2.494-2.743-5.227-3.275-9.705a16.96 16.96 0 0 0-.15 2.682c-1.022-2.205-2.286-4.376-3.882-6.403 4.165 7.97 3.583 11.502 4.19 17.028-.042-.051-.083-.094-.117-.145-.748-3.976-2.053-8.241-4.738-11.953 1.887 3.729 2.352 6.343 2.419 8.718-.765-1.311-1.463-2.87-2.062-4.87.383 2.12 1.13 4.274 2.054 6.368-.025.894-.083 1.797-.117 2.733a116.667 116.667 0 0 0-1.63-2.341c-.83-3.014-3.125-8.36-3.125-8.36s1.471 4.128 1.58 6.189c-2.536-3.619-4.706-7.262-5.728-14.286-.865 6.377 2.344 13.273 5.678 19.028-.05 1.405-.092 2.844-.025 4.342l-.948-1.022c-.557-2.945-1.63-6.147-3.957-8.922 1.712 2.988 1.987 4.955 1.937 6.794-.773-.826-1.53-1.652-2.22-2.512.549 1.601 1.18 3.057 1.829 4.35-3.334-4.494-5.96-6.384-8.912-14.106.84 3.89 2.527 7.602 4.39 10.923-3.426-3.414-6.618-6.139-8.464-12.618.291 5.679 3.94 11.426 7.516 16.168-3.11-3.371-5.637-5.713-9.536-13.937.84 3.652 2.353 6.973 4.057 9.927-2.41-2.495-5.063-4.47-7.757-5.083 5.064 2.35 6.81 6.735 9.378 11.264-2.685-2.128-5.104-3.806-7.24-8.412 1.03 4.18 3.765 7.876 6.35 10.813-2.252-1.098-4.256-2.214-5.794-5.33.723 4.972 5.687 8.173 8.763 10.149 2.194-.34 3.292-.511 5.487-.826-.25-.392-.516-.818-.799-1.269.383.451.74.86 1.056 1.226l2.361-.34a76.526 76.526 0 0 0-1.297-1.958c.599.723 1.123 1.353 1.563 1.915 2.76-.392 4.14-.579 6.909-.936-.308-1.269-.665-2.955-1.072-4.853.024.042.058.094.09.136a34.22 34.22 0 0 0 1.273 4.683c3.176-.41 4.764-.605 7.94-.971-.982-2.384-1.996-4.18-3.01-5.67a91.652 91.652 0 0 0-.358-2.06c1.555 3.124 3.168 5.797 4.157 7.636 1.031-.119 1.547-.178 2.577-.29a47.807 47.807 0 0 0-.74-2.068c.55.75 1.04 1.422 1.439 1.992 7.715-.843 11.58-1.2 19.32-1.796.05-.162.092-.332.133-.494.034.153.067.315.092.477l3.442-.256c.041-.817.174-1.932.207-3.354.749 1.294 1.414 2.4 1.854 3.218 2.486-.17 3.725-.247 6.21-.391-.058-.29-.116-.57-.174-.852a93 93 0 0 1 .358.835c2.652-.154 3.982-.222 6.634-.341-.241-2.477-.59-4.563-1.006-6.377.016-.196.025-.391.041-.596.915 3.04 1.771 5.475 2.07 6.922.965-.043 1.447-.06 2.411-.102a62.499 62.499 0 0 0-.349-3.533c.474 1.447.848 2.639 1.048 3.499 1.014-.043 1.53-.06 2.544-.094v-.409l.158.4c1.679-.059 2.527-.085 4.206-.127a48.047 48.047 0 0 0-.291-2.801c.358 1.081.566 1.856.516 2.247 0 0 .05-.025.133-.076.008.204.033.417.041.621 3.509-.093 5.263-.127 8.771-.17.025-.238.067-.502.108-.792.033.034.075.068.108.102 0 .23.017.46.025.69 1.463-.017 2.195-.025 3.658-.034.2-.715.549-1.728.973-2.937a43.527 43.527 0 0 0 0 2.937h2.452c.2-1.388.682-3.474 1.139-5.977.2 2.486.391 4.572.458 5.977 1.23 0 1.845 0 3.076.017.058-.587.108-1.166.133-1.737.224.673.424 1.26.557 1.737 6.044.051 9.07.11 15.114.306.232-.604.532-1.353.889-2.222-.166.69-.324 1.44-.465 2.231.74.026 1.105.034 1.845.068.424-1.013.998-2.29 1.63-3.763a64.398 64.398 0 0 0-.607 3.797c.607.026.914.034 1.521.06.191-.732.457-1.635.782-2.674a60.092 60.092 0 0 0-.441 2.69c2.694.111 4.04.18 6.726.316.316-.588.706-1.26 1.155-2.035.15.792.291 1.507.399 2.12 2.262.128 3.392.196 5.645.34a31.58 31.58 0 0 0 .366-2.588c.033-.076.075-.161.108-.238.067 1.158.125 2.128.108 2.86 4.115.273 6.177.426 10.292.758.308-.545.665-1.166 1.065-1.856.108.758.199 1.422.266 1.967 2.519.213 3.774.323 6.293.562l.125-.51v.518c2.677.256 4.023.392 6.7.673.765-2.12 1.289-3.933 1.63-5.525.1-.17.191-.35.291-.52-.374 2.648-.574 4.81-.865 6.164.973.102 1.463.162 2.444.273a47.84 47.84 0 0 0 1.048-2.92c-.141 1.208-.258 2.221-.407 2.988l2.61.298.05-.103v.103c2.86.34 4.29.51 7.15.885.681-1.268 1.712-3.03 2.901-5.057 0 .051-.017.094-.025.145a42.146 42.146 0 0 0-2.552 4.955c2.336.306 3.5.46 5.828.791.049-.076.091-.161.141-.238a2.83 2.83 0 0 0-.042.255l3.001.426c.3-.323.632-.69.998-1.09-.266.4-.515.784-.748 1.133 1.671.247 2.511.366 4.182.621 1.804-1.566 5.237-3.882 8.854-6.01-1.755.664-3.342 1.004-4.889 1.498zM38.315 70.751l-.142-.273c.042.051.075.103.108.154.009.042.025.085.034.119m6.792-2.197c-.366-.8-.732-1.558-1.09-2.273a96.312 96.312 0 0 0-.265-2.656c.058.093.108.187.166.28a52.024 52.024 0 0 0 1.189 4.65m15.014-1.856c-.34-.928-.69-1.78-1.047-2.57.266.425.523.833.781 1.234.083.434.175.877.274 1.336zm6.643.528a27.924 27.924 0 0 0-1.131-2.597c.05-.621.108-1.294.158-1.992.191.4.382.792.574 1.167.074 1.004.199 2.128.399 3.422m6.991-10.668v-.06c0 .018.009.026.017.043v.026zm.482-2.043a7.427 7.427 0 0 1-.673-2.333c.067-.851.225-1.66.499-2.443.332.672.632 1.32.906 1.95-.224.936-.482 1.855-.74 2.826zm3.151 4.512c.042-.468.075-.936.108-1.422.316.946.649 1.865.99 2.742-.366-.451-.74-.886-1.098-1.32m20.76-.715c-.45-1.685-.998-3.312-1.555-4.93.033-1.302.15-2.707.382-4.205.125 3.763 1.03 7.415 1.962 10.523-.266-.468-.532-.928-.79-1.388m6.185 2.427a33.794 33.794 0 0 0-1.389-4.623c.033-.332.058-.664.083-.996a97.377 97.377 0 0 0 1.605 4.146c-.117.485-.216.979-.299 1.481zm5.944 2.256c-.058-.46-.125-.911-.192-1.345.117-.418.233-.852.341-1.294a35.248 35.248 0 0 0-.158 2.639zm20.908.23a31.412 31.412 0 0 0-.149-2.64c.108.443.224.877.34 1.294-.066.435-.133.877-.191 1.346m13.26-5.909a70.553 70.553 0 0 0 1.455-4.248c0 .519.017 1.038.034 1.55-.466.902-.973 1.77-1.489 2.698m4.997 8.241c.058-.987.066-1.932.041-2.852.266-.647.549-1.336.848-2.051.009.442.025.876.034 1.285a58.78 58.78 0 0 0-.923 3.618m3.259-5.287c.083-.255.158-.519.241-.791v.289c-.083.162-.166.332-.25.502zm8.554-15.708c-1.321 4.215-2.818 6.641-4.397 8.965.939-2.647 2.327-5.636 4.397-8.965m2.478 11.869c.324-.852.64-1.737.956-2.657-.233 1.856-.299 3.797-.299 5.654-.275-.997-.532-1.95-.657-3.006zm30.419 6.76c.274-1.558.424-3.074.565-4.598a35.295 35.295 0 0 1 2.154-3.67c-1.464 3.347-2.129 6.718-2.528 9.613-.058-.451-.124-.903-.183-1.345zm9.968 5.976c.274-.817.507-1.583.715-2.324.565-.775 1.164-1.6 1.754-2.46-.025.102-.041.195-.066.297a61.109 61.109 0 0 0-2.411 4.487z"/><path fill="#FBF7EC" d="M50.722 71.454c56.2-5.594 111.992-4.266 167.876 4.001.939-.885 6.526-1.72 7.249-2.503-4.098.034 1.28-3.865 1.488-4.12.408-.511-4.88 2.324-4.547 1.838 1.837-2.588 2.818-4.776 5.096-7.04-3.317 2-5.728 4.222-7.615 6.266a5.626 5.626 0 0 0-.275-.494c.2-.256.399-.511.591-.766.199-.137.407-.264.623-.392-.133.025-.257.06-.391.094 1.065-1.405 2.021-2.674 2.877-3.517-1.646.8-3.143 1.84-4.489 2.938-.083-.392-.067-.835.116-1.354-1.197 1.183-2.012 2.23-2.585 3.159-.333.127-.657.255-.973.383a7.71 7.71 0 0 0-1.413.144c2.003-1.558 3.998-3.6 5.52-6.121-3.168 2.444-6.659 4.453-10.276 6.266.067-.06.133-.119.2-.187 1.189-.996 2.269-1.916 3.616-2.81-.374.085-.74.188-1.089.281 1.912-2.017 3.525-3.865 5.803-5.423a56.25 56.25 0 0 0-6.609 3.38c1.837-2.12 3.408-4.282 4.015-6.028a87.685 87.685 0 0 1-6.252 5.85 18.918 18.918 0 0 0 1.63-2.632 45.79 45.79 0 0 1-4.415 3.287c1.164-1.788 2.062-3.576 2.212-4.99-1.281 1.755-3.509 4.24-5.753 6.854 1.139-1.856 2.095-3.541 3.142-5.1a57.533 57.533 0 0 0-3.383 2.572c.573-1.482.806-2.92.365-4.104-1.064 1.78-3.242 4.308-5.329 6.964.341-.757.665-1.464 1.064-2.137-.498.29-.964.57-1.413.86a16.501 16.501 0 0 0 1.571-2.843c-1.338 1.277-2.793 2.426-4.314 3.49 2.086-2.29 4.107-4.614 5.279-5.525-3.625.962-7.482 4.316-9.985 6.853 1.322-1.932 2.361-3.635 3.509-5.176a43.677 43.677 0 0 0-4.157 2.98c2.261-2.648 4.24-5.21 6.06-6.922-2.577 1.039-4.896 2.563-6.867 4.172-1.288.553-2.643 1.294-3.915 2.077 2.51-2.869 4.472-5.312 6.908-7.696a31.113 31.113 0 0 0-5.412 3.116c.94-1.26 1.821-2.392 2.602-3.312-2.66 1.839-5.295 4.683-7.341 7.169.034-.46.034-.937-.008-1.422-.615.655-1.338 1.31-2.12 2.026 1.954-2.665 3.65-5.244 5.263-6.964-2.095.92-3.958 2.196-5.57 3.567.29-.92.532-1.881.681-2.843-1.305 1.532-2.868 3.15-4.522 4.955 1.762-2.665 3.35-5.21 4.73-6.965-1.929 1.26-3.733 3.014-5.296 4.802a65.92 65.92 0 0 1 5.72-7.918c-2.652 1.66-5.379 4.36-7.64 7.05.05-1.533-.166-3.159-.898-4.802-.299 2.086-1.979 4.342-3.4 6.896a7.1 7.1 0 0 0-1.58-1.584c-.108 1.09-.507 2.146-.914 3.32-.591-2.255-.782-4.648-.067-7.355-2.244 2.443-3.408 4.572-3.874 6.292a3.715 3.715 0 0 0-1.014-.392 8.46 8.46 0 0 0-.299-.51 14.986 14.986 0 0 0 2.219-3.193c-.582.485-1.18.86-1.812 1.183.391-1.192.557-2.367.274-3.363-.449.885-1.421 2.154-2.477 3.559-.067-.051-.133-.102-.208-.154 0 .154-.008.307-.025.46l-.574.766c-.299.12-.606.239-.922.366 1.247-2.102 2.294-4.47 2.269-6.81-1.23 2.383-3.475 4.452-5.537 7.032 1.223-2.605 2.228-5.423 1.863-7.475-.724 1.524-2.395 3.967-4.007 6.547.989-3.49 1.612-6.411 2.735-9.476-1.854 1.873-3.276 3.89-4.398 5.866-.416-.91-1.039-1.686-1.921-2.205.158 1.269-.648 4.402-1.288 7.441-.383.315-.748.63-1.081.936.956-3.652 1.33-6.512 2.328-9.526-2.702 2.647-4.282 5.636-5.271 8.25a11.174 11.174 0 0 0-.54-1.354c-.333.68-.774 1.379-1.247 2.12.839-2.75 1.471-5.39 2.352-7.186-1.654 1.03-2.951 2.393-3.965 3.84a17.569 17.569 0 0 0-.457-2.852c-.89 2.128-2.145 4.435-3.318 7.143a6.05 6.05 0 0 0-1.122.493c.416-1.362.698-2.545 1.347-3.754-1.721.8-2.943 1.745-3.841 2.69.357-.962.673-1.839 1.172-2.775a17.786 17.786 0 0 0-2.56 2.588c.532-2.844 1.363-5.977 2.136-9.212-1.937 1.66-3.184 4.461-3.94 7.169-.258-2.146-.807-4.35-1.888-5.943.167 1.822.025 4.436-.025 7.177-.365-1.898-.773-3.61-1.005-5.219a22.884 22.884 0 0 0-1.114 2.827c-.599-1.473-1.48-2.886-2.769-3.968.391 1.814.333 4.47.449 7.237-.258-.758-.499-1.473-.648-2.154a13.27 13.27 0 0 0-.832 1.337c-.291-2.64-1.039-5.679-2.91-8.42.192 3.04-.149 5.891-.141 9.57-.233-.324-.49-.648-.773-.98.133-3.048.141-6.198.599-7.45-.948.486-1.713 1.235-2.32 2.129-.565-2.018-1.397-4.07-2.669-6.002.3 3.09.175 6.019.25 9.535-.873-2.63-1.837-5.125-2.145-6.666-.831 2.035-.582 4.87-.067 7.509-1.288-2.648-2.876-4.785-3.45-7.203-.59 2.333-.183 4.717.474 6.863-.258-.145-.515-.273-.765-.41a80.403 80.403 0 0 1-.341-.782c.025-.154.05-.307.092-.452-.083.051-.15.094-.225.145-.64-1.439-1.238-2.741-1.438-3.635-.507.979-.632 2.154-.557 3.354a6.896 6.896 0 0 1-1.396-1.243c.291 1.26.756 2.333 1.288 3.26a6.888 6.888 0 0 0-.399.495 3.791 3.791 0 0 0-1.031.349c-.025-1.729-.59-3.891-2.078-6.403.008 2.708-.723 5.075-1.804 7.28-.008-.069-.025-.128-.034-.196-.09-1.09-.19-2.086-.033-3.108a7.194 7.194 0 0 0-.615.426c-.607-2.128-1.28-4.053-1.072-5.823a13.388 13.388 0 0 0-1.888 4.086c-.781-2.205-1.853-4.41-3.275-6.087a39.801 39.801 0 0 1 1.164 6.275 18.46 18.46 0 0 0-1.538-2.64 14.381 14.381 0 0 1-.125 3.661c-.998-1.805-2.228-3.567-3.674-4.87.856 1.788 1.72 4.385 2.71 7.11-1.098-1.865-2.154-3.534-2.993-5.109-.092.97-.1 1.924-.042 2.852-1.164-1.43-2.585-2.775-4.29-3.772 1.081 1.78 2.037 4.41 3.21 7.135-.55-.74-1.065-1.43-1.472-2.103-.108.34-.2.673-.266.996a18.584 18.584 0 0 0-1.846-2.826c.266 1.362.3 2.63.175 3.84-.765-2.402-1.621-4.828-1.621-5.824-2.079 1.439-1.671 5.083-.99 7.773-1.03-1.958-2.045-3.66-2.784-5.236a12.912 12.912 0 0 0-.275 3.346c-1.014-2.75-2.178-5.39-2.519-7.211-1.097 1.345-1.405 3.09-1.322 4.853-.507.698-.873 1.583-1.106 2.494-1.039-2.988-2.094-5.508-2.651-8.054-.757 1.115-1.131 2.375-1.256 3.67-.598-1.286-1.114-2.452-1.463-3.406-.266 2.078.632 5.074 1.654 7.646a28.998 28.998 0 0 0-1.637-1.286c.2.69.307 1.405.424 2.17-1.306-2.723-2.744-5.32-3.268-7.134-.823 1.167-1.03 2.614-.906 4.104a40.341 40.341 0 0 0-2.66-2.682c.582 1.592 1.04 3.303 1.621 5.202-1.48-2.69-2.976-5.244-3.741-7.04-.291 1.447.091 3.311.748 5.184-1.43-2.4-2.785-5.023-3.949-8.071-.482 1.924.158 4.802 1.206 7.586a39.648 39.648 0 0 0-6.368-4.189c2.144 1.933 3.217 4.24 4.88 6.777a25.795 25.795 0 0 0-3.276-1.175c1.172 1.005 2.02 2.018 3.01 3.142-3.151-1.942-6.103-4.078-8.588-6.632.773 2.57 2.17 4.673 3.732 6.3a7.549 7.549 0 0 0-1.396-.196c-.283-.136-.574-.281-.873-.417-.3-.945-.807-2.018-1.663-3.244.025.528-.1.962-.3 1.362-1.03-1.14-2.236-2.23-3.666-3.082.607.868 1.19 2.171 1.846 3.61l-.366-.102c.175.136.341.28.508.417.116.255.24.52.365.783-.141.154-.29.315-.424.486-1.288-2.103-3.067-4.402-5.82-6.514 1.63 2.35 1.946 4.58 3.027 7.237-1.887-2.545-4.24-5.253-6.975-7.05 1.105 1.49 2.386 3.968 3.89 6.556-3.142-3.311-5.969-6.044-8.504-8.999.449 1.993 1.463 4.036 2.727 6.011-1.464-.758-2.952-1.354-4.398-1.677 1.63 1.115 4.539 4.078 7.482 6.922 0 .349.025.69.075 1.021-3.376-3.456-6.36-6.087-8.954-8.973.549 2.826 2.536 5.78 4.656 8.3a43.88 43.88 0 0 0-2.104-1.132c.474.664.873 1.371 1.297 2.12-2.419-2.614-4.921-5.1-6.185-6.862-.366 1.192-.008 2.64.715 4.112A69.647 69.647 0 0 0 21.242 65c1.23 1.541 2.378 3.21 3.725 5.049-2.577-2.571-5.13-5.015-6.626-6.743.316 1.652 1.754 3.797 3.45 5.849C18.499 66.72 14.6 64.26 11 62.974c3.8 2.937 7.565 5.764 10.741 8.36a53.986 53.986 0 0 0-5.113-2.068c1.397.817 2.544 1.592 3.808 2.443a34.389 34.389 0 0 0-6.584-1.984c1.795 1.039 3.192 2.12 4.888 3.338-2.062-.503-4.032-.588-4.747.408 2.261.537 3.916 1.371 5.562 2.112 10.35-1.711 20.775-3.338 31.234-4.155z"/></g><path fill="url(#b)" fill-rule="evenodd" d="M151.794 45.308a5.188 5.188 0 0 1 5.883.759L183.5 69.5l-25.5 15-23.327-26.655a2.593 2.593 0 0 1 .753-4.008z" clip-rule="evenodd" opacity=".2"/><path fill="#FFFCF6" stroke="#231F20" stroke-linejoin="round" stroke-width="2.593" d="M123.797 6.435a3.889 3.889 0 0 0-3.893 0L82.401 28.113a3.89 3.89 0 0 0-1.944 3.368v46.602a3.89 3.89 0 0 0 1.946 3.37l37.552 21.678a3.89 3.89 0 0 0 3.894-.002l37.453-21.677a3.889 3.889 0 0 0 1.941-3.367V31.481a3.89 3.89 0 0 0-1.943-3.368z"/><mask id="c" width="81" height="96" x="81" y="7" maskUnits="userSpaceOnUse" style="mask-type:alpha"><path fill="#D9D9D9" d="M123.148 7.558a2.592 2.592 0 0 0-2.595 0L83.05 29.236a2.594 2.594 0 0 0-1.296 2.245v46.602c0 .927.495 1.783 1.297 2.246l37.552 21.679a2.592 2.592 0 0 0 2.596-.001l37.453-21.677a2.594 2.594 0 0 0 1.295-2.245V31.481c0-.926-.494-1.782-1.296-2.245z"/></mask><g mask="url(#c)"><path fill="#FFFCF6" fill-rule="evenodd" d="m81.754 29.987 40.096 23.179 40.097-23.18L121.85 6.809z" clip-rule="evenodd"/><path fill="#8A816C" fill-rule="evenodd" d="M123.146 52.417a2.593 2.593 0 0 0-1.295 2.245v48.104l40.096-23.18v-49.6z" clip-rule="evenodd"/><path fill="#FBF7EC" d="m81.754 29.987 38.801 22.43a2.593 2.593 0 0 1 1.295 2.245v48.104l-40.096-23.18v-24.8z"/></g><path fill="#231F20" d="m96.05 47.655 11.023 6.378c0 3.522-2.468 4.95-5.512 3.188-3.043-1.76-5.51-6.044-5.51-9.566M157.969 76.623c0-1.84-1.306-2.587-2.917-1.667-1.612.921-2.918 3.16-2.918 5.001 0 1.841 1.306 2.588 2.918 1.667 1.611-.92 2.917-3.16 2.917-5M134.304 72.409c0-1.841-1.306-2.588-2.918-1.667-1.611.92-2.917 3.16-2.917 5 0 1.842 1.306 2.588 2.917 1.668 1.612-.921 2.918-3.16 2.918-5.001M149.865 52.634c0-1.842-1.307-2.588-2.918-1.667-1.611.92-2.918 3.16-2.918 5 0 1.842 1.307 2.588 2.918 1.667 1.611-.92 2.918-3.159 2.918-5"/><path fill="#FFFCF6" stroke="#231F20" stroke-linejoin="round" stroke-width="2.593" d="M122.966 1.6a3.888 3.888 0 0 0-2.41.495L80.134 25.46a3.89 3.89 0 0 0-1.943 3.368v5.09a3.89 3.89 0 0 0 1.945 3.369l39.925 23.048a3.889 3.889 0 0 0 3.893-.002l39.819-23.046a3.89 3.89 0 0 0 1.942-3.367v-5.541a3.89 3.89 0 0 0-1.091-2.702l-19.865-20.58-.933.9.933-.9a3.886 3.886 0 0 0-2.335-1.162z"/><mask id="d" width="86" height="58" x="79" y="2" maskUnits="userSpaceOnUse" style="mask-type:alpha"><path fill="#D9D9D9" d="M123.251 3.344a2.594 2.594 0 0 0-2.596 0L80.783 26.39a2.594 2.594 0 0 0-1.295 2.245v5.282c0 .926.494 1.783 1.297 2.246l39.924 23.048a2.594 2.594 0 0 0 2.596-.001l39.819-23.046a2.593 2.593 0 0 0 1.294-2.245v-5.284c0-.926-.494-1.782-1.295-2.245z"/></mask><g mask="url(#d)"><path fill="#FFFCF6" fill-rule="evenodd" d="m79.488 27.334 42.465 24.548 42.465-24.548-42.465-24.549z" clip-rule="evenodd"/><path fill="#C1B8A3" fill-rule="evenodd" d="M123.248 51.133a2.595 2.595 0 0 0-1.295 2.245v6.592l42.465-24.548v-8.088z" clip-rule="evenodd"/><path fill="#F8EFDA" d="m79.488 27.334 41.169 23.8a2.593 2.593 0 0 1 1.296 2.244v6.592L79.488 35.422z"/></g><path fill="#F8EFDA" fill-rule="evenodd" d="M103.346 29.224a1.297 1.297 0 0 0-.243 2.07l18.261 17.163c.416.39 1.038.463 1.532.18l36.734-21.015a1.297 1.297 0 0 0 .294-2.02L142.839 7.704a1.297 1.297 0 0 0-1.583-.23z" clip-rule="evenodd"/><path stroke="#231F20" stroke-linejoin="round" stroke-width="2.593" d="m81.107 38.902 1.125 12.84a3.89 3.89 0 0 0 1.92 3.024l35.998 20.923a3.89 3.89 0 0 0 3.926-.01l35.59-20.911a3.89 3.89 0 0 0 1.904-3.014l1.127-12.852"/><path stroke="#231F20" stroke-linejoin="round" stroke-width="2.593" d="m81.107 50.573 1.146 15.078a3.89 3.89 0 0 0 1.924 3.069l35.973 20.909a3.89 3.89 0 0 0 3.926-.01l35.565-20.897a3.888 3.888 0 0 0 1.908-3.059l1.148-15.09"/><mask id="e" width="69" height="45" x="59" y="67" maskUnits="userSpaceOnUse" style="mask-type:alpha"><path fill="#D9D9D9" d="m127.658 95.31-48.14-27.88-19.776 20.424 38.74 23.665z"/></mask><g mask="url(#e)"><path fill="#FFFCF6" stroke="#231F20" stroke-linejoin="round" stroke-width="2.14" d="M100.682 66.253a3.21 3.21 0 0 0-3.213 0L75.165 79.146l.535.927-.535-.927a3.21 3.21 0 0 0-1.604 2.78v2.182a3.21 3.21 0 0 0 1.605 2.78l22.335 12.894c.994.574 2.219.573 3.213-.002l22.274-12.892a3.209 3.209 0 0 0 1.602-2.778v-2.185a3.21 3.21 0 0 0-1.603-2.779z"/><mask id="f" width="50" height="34" x="74" y="66" maskUnits="userSpaceOnUse" style="mask-type:alpha"><path fill="#D9D9D9" d="M100.147 67.07a2.14 2.14 0 0 0-2.142 0L75.7 79.961a2.14 2.14 0 0 0-1.069 1.853v2.293a2.14 2.14 0 0 0 1.07 1.854l22.335 12.893a2.14 2.14 0 0 0 2.142 0l22.274-12.893a2.14 2.14 0 0 0 1.068-1.852v-2.295c0-.764-.407-1.47-1.069-1.853z"/></mask><g mask="url(#f)"><path fill="#FFFCF6" fill-rule="evenodd" d="m74.631 80.692 24.445 14.13 15.094-8.78L89.725 71.91z" clip-rule="evenodd"/><path fill="#FBF7EC" fill-rule="evenodd" d="M78.33 80.26a.535.535 0 0 0 0 .923L97.316 92.33a3.478 3.478 0 0 0 3.522 0l18.984-11.148a.535.535 0 0 0 0-.923l-18.984-11.148a3.478 3.478 0 0 0-3.522 0z" clip-rule="evenodd"/><path fill="#8A816C" fill-rule="evenodd" d="M100.145 94.205a2.14 2.14 0 0 0-1.07 1.853v3.42l24.446-14.13v-4.656z" clip-rule="evenodd"/><path fill="#F8EFDA" d="m74.631 80.692 23.376 13.513a2.14 2.14 0 0 1 1.069 1.853v3.42L74.63 85.349z"/></g></g><path fill="#231F20" d="m90.053 73.427 21.234 12.32-4.462-1.08a29.176 29.176 0 0 1-16.589-10.992zM94.105 60.675l11.022 6.378c0 3.522-2.467 4.95-5.51 3.189-3.044-1.761-5.512-6.044-5.512-9.567"/><circle cx="95.402" cy="28.852" r="1.621" fill="#231F20"/><circle cx="111.611" cy="77.48" r="1.621" fill="#231F20"/><circle cx="95.402" cy="87.205" r="1.621" fill="#231F20"/><circle cx="92.484" cy="8.429" r="1.621" fill="#231F20"/><circle cx="65.901" cy="69.375" r="1.621" fill="#231F20"/><path fill="#231F20" d="M87.384 77.728c.202-.014.407.03.605.119.025.01.058.04.083.011.02-.022-.008-.052-.017-.076a2.245 2.245 0 0 1-.07-1.416c.082-.306.233-.574.517-.741.286-.17.602-.099.792.195.107.166.15.352.16.548.003.047-.026.118.028.14.042.016.078-.046.114-.076.186-.153.394-.249.636-.258.282-.01.48.16.512.44.031.277-.07.52-.202.753-.017.03-.038.057-.056.086-.016.025-.047.05-.03.082.017.03.05.009.077.009.128.002.242.077.262.174a.218.218 0 0 1-.202.257c-.07.003-.14-.01-.21-.022a.557.557 0 0 0-.436.126c-.076.059-.14.134-.207.206-.032.035-.058.07.021.09.115.03.208.104.276.2.03.043.051.039.082.013.239-.2.524-.222.817-.214a.276.276 0 0 1 .151.06c.078.056.123.13.092.23-.03.097-.105.132-.2.127-.171-.008-.34-.017-.503.063-.132.065-.168.102-.17.248a1.155 1.155 0 0 1-.229.69.492.492 0 0 1-.512.208c-.085-.014-.091.007-.09.086.006.347-.141.621-.419.827a.164.164 0 0 1-.035.022c-.08.034-.163.06-.234-.017-.054-.06-.042-.166.03-.241.12-.127.22-.263.258-.437.03-.138.02-.13-.115-.115-.201.022-.296.13-.382.303-.148.303-.41.48-.741.553l-.03.006c-.127.02-.224-.026-.245-.114-.023-.096.042-.186.163-.228.222-.076.396-.214.525-.41.044-.067-.039-.26-.117-.274-.033-.005-.047.023-.063.045a.86.86 0 0 1-.53.344c-.505.109-.97.024-1.374-.303a1.481 1.481 0 0 1-.515-.816.4.4 0 0 1 .01-.222c.174-.5.484-.89.968-1.124.233-.112.483-.151.755-.157zm2.26 1.49c-.013-.106.013-.213-.015-.318-.017-.066-.052-.126-.117-.128-.069-.002-.098.065-.114.127a.945.945 0 0 0-.012.418c.036.104.075.206.174.268.048.03.1.049.15.001.047-.045.062-.1.028-.156-.04-.067-.066-.14-.094-.212m-.723-.408a.842.842 0 0 1 .228-.338c.065-.056.044-.074-.028-.094-.393-.108-.88.192-.955.593-.006.033-.02.07.008.11.047-.037.081-.083.137-.096.065 0 .13-.004.195-.001.127.006.18.058.186.184.004.107 0 .213 0 .32.002.266.03.287.292.215a.24.24 0 0 1 .02-.004c.055-.011.055-.04.028-.081a.933.933 0 0 1-.11-.808zm-2.225.056c.066-.22.171-.42.291-.618-.264.063-.476.19-.602.435-.107.177-.108.377-.137.573-.036.243.106.376.278.494.07.048.098.03.092-.058-.02-.28.011-.554.078-.826m1.005.164c.036-.161.098-.31.18-.455.036-.062.146-.106.097-.187-.036-.06-.125-.09-.2-.118-.012-.004-.027-.006-.038-.014-.083-.055-.14-.018-.188.052a1.666 1.666 0 0 0-.28.642 1.723 1.723 0 0 0-.043.872c.016.085.058.115.143.104a.74.74 0 0 0 .288-.102c.042-.025.065-.058.05-.111-.062-.227-.039-.455-.009-.683zm.664-2.116c.013.33.085.661.156.993.007.034-.008.107.052.09.068-.021.181.023.198-.085.04-.266.09-.53.145-.793.029-.14.044-.282.062-.424.023-.184.05-.368-.007-.55-.049-.155-.175-.196-.304-.097a.552.552 0 0 0-.092.096c-.177.223-.2.489-.21.77zm1.804-.297a.654.654 0 0 0-.39.232c-.264.305-.456.65-.564 1.04-.01.035-.04.076.004.102.037.022.07-.007.1-.032.24-.199.467-.41.682-.633a1.31 1.31 0 0 0 .316-.513c.039-.123-.011-.197-.149-.196z"/><path fill="#D69B04" d="M87.701 79.03c-.03.228-.053.456.01.683.014.053-.009.086-.05.111a.744.744 0 0 1-.289.102c-.085.01-.127-.019-.143-.103a1.723 1.723 0 0 1 .042-.872c.14.047.287.055.43.08zM86.696 78.866a2.681 2.681 0 0 0-.078.826c.006.088-.022.106-.092.058-.171-.118-.314-.251-.278-.493.03-.196.03-.397.137-.574.03.13.118.182.311.183zM88.921 78.81a.934.934 0 0 0 .111.808c.027.041.027.07-.028.08l-.02.005c-.261.072-.29.05-.292-.215 0-.107.004-.213 0-.32-.005-.126-.06-.178-.186-.184-.065-.003-.13 0-.195.002a.486.486 0 0 1 .162-.205c.175-.134.34-.122.449.03zM89.386 79.317c.067-.005.133-.013.2-.015.063-.001.053-.046.057-.084.028.072.054.145.095.212.034.056.02.111-.028.156-.05.047-.102.028-.15-.001-.099-.062-.138-.164-.174-.268"/><circle cx="58.121" cy="39.55" r="1.621" fill="#231F20"/><circle cx="169.316" cy="17.182" r="1.621" fill="#231F20"/><path fill="#231F20" d="M137.925 25.55c.323.01.643.043.957.123.056.014.112.032.167.051.285.101.477.427.175.738a2.021 2.021 0 0 1-.664.432c-.281.122-.58.19-.877.245-.402.075-.814.063-1.223.044-.147-.006-.298.007-.44-.023-.157-.033-.317-.045-.472-.087-.02-.005-.04-.012-.061-.011-.043 0-.102-.025-.126.015-.028.047.034.073.057.109.299.473.425.982.342 1.542a2.202 2.202 0 0 1-.364.912c-.093.14-.217.259-.354.363-.273.207-.571.253-.903.189-.517-.1-.889-.41-1.212-.797a2.309 2.309 0 0 1-.542-1.182c-.001-.01-.007-.02-.004-.03.046-.201-.068-.27-.239-.292a.625.625 0 0 1-.275-.123c-.052-.036-.093-.037-.141.015a.641.641 0 0 0-.16.47c.003.177.052.344.135.502.071.136.013.263-.124.298-.087.022-.144-.03-.199-.081-.185-.175-.24-.406-.244-.646-.006-.339.059-.66.31-.913.031-.031.031-.065.019-.103-.02-.066-.062-.123-.065-.196-.002-.045-.043-.033-.072-.035-.484-.042-.717-.445-.678-.766.02-.169.077-.326.153-.478.144-.285.35-.517.611-.697.073-.05.078-.098.054-.172-.081-.259-.286-.393-.506-.512-.054-.029-.113-.046-.169-.071-.084-.037-.123-.129-.1-.253.017-.084.077-.131.163-.135.224-.009.407.093.584.215.259.178.405.43.474.731.015.067.044.09.112.088a.922.922 0 0 1 .526.15c.029.018.06.044.081-.01.097-.249.208-.497.153-.775-.049-.245-.15-.451-.403-.553-.13-.053-.181-.162-.166-.294a.144.144 0 0 1 .109-.128c.158-.05.29.02.411.106.54.386.645 1.01.381 1.6-.044.099-.012.136.067.17.031.012.065.02.095.036.06.03.094-.004.109-.052.067-.216.198-.398.311-.587.168-.28.339-.56.551-.811.313-.37.606-.757.972-1.08.294-.258.618-.474.974-.631.215-.096.452-.15.699-.115.264.037.372.189.459.43.102.284.046.56-.047.833-.011.031-.026.059 0 .084.026.026.046-.006.07-.013.347-.105.697-.203 1.066-.156.431.054.598.378.482.766-.044.148-.116.28-.188.415-.119.226-.293.406-.47.58-.157.154-.348.274-.525.41-.045.035-.122.07-.103.124.017.049.099.017.152.02.045.002.089 0 .134 0zm-6.145.8a.83.83 0 0 0 .255-.388c.036-.11-.001-.211-.079-.254-.087-.047-.167-.025-.253.069-.096.103-.165.226-.244.342a.597.597 0 0 1-.286.205c-.095.031-.115.102-.054.181.06.079.146.104.239.09a.634.634 0 0 0 .422-.244m2.271 1.375c-.124.096-.245.196-.383.272a1.98 1.98 0 0 1-.718.233c-.033.004-.085-.01-.094.04-.018.101.098.252.2.268.123.02.245.028.369.02.41-.024.756-.202 1.067-.457.075-.05.107-.142.166-.195.15-.138.207-.315.264-.495.022-.07.001-.135-.045-.193a4.15 4.15 0 0 0-.285-.323c-.048-.048-.072-.045-.082.025a1.248 1.248 0 0 1-.271.59c-.058.076-.125.143-.188.214zm1.06 1.269c.235-.272.231-.578.129-.898-.011-.034-.034-.082-.062-.023-.092.197-.25.338-.388.497-.025-.009-.038.011-.053.023a2.141 2.141 0 0 1-1.124.48c-.086.01-.171.014-.256.025-.031.003-.07.015-.028.057.108.107.22.215.37.252.547.132 1.015-.021 1.412-.413m-1.768-1.822c-.003.04-.054.07-.013.121.069.083.118.09.186.005.44-.539.326-1.417-.583-1.674a.143.143 0 0 0-.051-.002c-.039.003-.066.012-.048.064.024.069.01.142.013.213-.043.428-.252.753-.607.99-.114.076-.244.106-.37.149-.041.014-.075.03-.034.078.141.17.289.264.534.101.11-.073.208-.168.3-.264a.443.443 0 0 1 .517-.089c.131.068.154.18.156.308zm.748-1.168c.293-.032.583-.08.87-.146.621-.143 1.246-.27 1.838-.52.506-.216.962-.495 1.335-.903.129-.141.234-.296.311-.47.074-.169.033-.24-.15-.27a.842.842 0 0 0-.246.002 2.797 2.797 0 0 0-.923.308c-.62.318-1.214.68-1.795 1.065-.431.286-.828.616-1.24.934zm2.857-3.132c.011-.309-.091-.396-.344-.346-.139.027-.27.079-.391.152-.521.32-.96.729-1.341 1.206-.201.252-.409.497-.583.769-.165.257-.336.51-.475.782-.026.051-.075.114-.021.16.06.05.104-.029.142-.061.198-.174.406-.335.618-.492.641-.476 1.294-.935 2.014-1.288a.235.235 0 0 0 .101-.112c.027-.051.055-.102.081-.154.104-.211.183-.43.199-.616m-2.208 3.547c.015.01.028.021.043.027.157.059.322.075.485.105a7.73 7.73 0 0 0 2.098.122c.483-.044.948-.151 1.374-.392.047-.026.131-.042.118-.109-.012-.059-.094-.058-.149-.072-.302-.076-.612-.067-.92-.07-.676-.006-1.352.008-2.013.17-.269.065-.54.116-.814.155-.076.012-.156.007-.222.064z"/><path fill="#D69B04" d="M133.343 27.172c-.002-.128-.026-.24-.156-.308a.443.443 0 0 0-.517.09c-.092.095-.19.19-.3.263-.245.163-.394.07-.535-.102-.04-.048-.006-.064.035-.077.126-.043.256-.074.369-.15.356-.236.565-.56.608-.989.019.034.051.06.086.067.243.055.405.217.535.415.158.241.209.585-.125.79zM135.111 28.994c-.397.392-.864.545-1.412.413-.15-.037-.262-.145-.37-.252-.042-.042-.002-.054.028-.057.085-.011.171-.016.256-.025a2.14 2.14 0 0 0 1.124-.48c.015-.012.028-.032.053-.023.015.008.031.014.045.024.054.038.108.101.16-.003.008-.015.024-.012.034 0 .014.016.012.034-.003.046-.036.027-.074.053-.112.08a.297.297 0 0 0 .013.016c.045.054.212.05.087.187-.014.015.003.05.032.052.024.003.047.001.065.022M134.492 28.1c-.311.257-.657.434-1.067.459-.124.007-.246 0-.369-.02-.102-.017-.218-.168-.2-.268.009-.05.061-.037.094-.04.254-.033.494-.109.718-.233.138-.077.259-.177.383-.273.07.09.158.14.275.134.037-.002.046.033.036.059-.051.13.031.162.13.183zM131.459 26.119c.024.122.148.12.224.18.029.021.064.035.097.052a.637.637 0 0 1-.423.244.24.24 0 0 1-.238-.09c-.061-.08-.041-.15.054-.181a.597.597 0 0 0 .286-.205z"/><circle cx="72.385" cy="38.902" r="1.621" fill="#231F20"/><circle cx="144.029" cy="20.424" r="1.621" fill="#231F20"/><path fill="#231F20" d="M69.624 12.253c-.184-.177-.37-.345-.538-.53-.404-.442-.692-.947-.815-1.537a1.451 1.451 0 0 1 .034-.794c.118-.332.43-.404.72-.323.081.023.16.057.236.091.058.025.06-.008.054-.046a1.372 1.372 0 0 1 .348-1.125.632.632 0 0 1 .887-.051c.212.18.348.415.47.66.124.25.222.51.298.775.052.18.077.37.114.556.127.643.157 1.293.151 1.945 0 .087.02.122.108.106.08-.014.157.008.235.018.174.022.171.024.233-.129.197-.48.57-.718 1.075-.767a.496.496 0 0 1 .112.004c.13.017.216.097.223.205.006.1-.08.2-.201.228-.057.013-.116.013-.174.023-.397.07-.667.336-.673.756 0 .07.01.1.094.078a.762.762 0 0 1 .38.023c.15.038.28.104.403.193.055.04.092.03.117-.031.084-.209.251-.325.439-.436.217-.128.44-.189.688-.172a.8.8 0 0 1 .187.031c.084.027.122.133.1.252-.014.076-.101.15-.192.146a1.073 1.073 0 0 0-.52.103.83.83 0 0 0-.341.287.188.188 0 0 0-.016.203c.14.296.181.61.151.934a.646.646 0 0 1-.571.595c-.103.016-.206.011-.308 0-.03-.002-.064-.025-.085.008-.025.036.007.063.03.088.261.297.322.645.247 1.022a.444.444 0 0 1-.141.275.213.213 0 0 1-.216.047c-.046-.014-.096-.175-.08-.242.037-.151.067-.302.035-.459a.956.956 0 0 0-.087-.252c-.025-.048-.057-.07-.097-.012-.004.005-.01.012-.016.013-.167.04-.117.158-.108.273.04.468-.178.818-.526 1.102a.834.834 0 0 1-.231.149c-.125.046-.246.009-.308-.106-.032-.059-.013-.118.026-.17.06-.081.143-.138.22-.2.196-.16.356-.345.388-.61.002-.016.005-.033.005-.05.001-.228.002-.198-.18-.199a.522.522 0 0 1-.444-.208c-.065-.088-.179-.077-.27-.11-.06-.023-.119-.044-.17-.083-.056-.043-.09-.032-.087.04.012.262-.06.51-.17.738-.121.251-.285.482-.496.67-.28.251-.592.444-.958.552-.124.037-.245.073-.373.086a.264.264 0 0 1-.16-.023c-.125-.069-.138-.17-.04-.268a.474.474 0 0 1 .198-.106c.347-.117.68-.262.954-.513.285-.262.51-.565.59-.956a.645.645 0 0 0 .01-.205c-.002-.022.009-.055-.024-.06-.028-.004-.035.026-.047.046-.186.33-.444.595-.753.804-.603.41-1.258.557-1.976.372-.427-.11-.802-.306-1.09-.646-.091-.108-.165-.23-.165-.38-.004-.978.365-1.766 1.189-2.316.293-.196.617-.319.967-.374.231-.037.463-.044.693-.02.078.008.157-.001.238.013zm3.645 1.343a1.677 1.677 0 0 1-.169-.348.524.524 0 0 0-.092-.17c-.046-.057-.105-.092-.18-.07a.178.178 0 0 0-.135.152.464.464 0 0 0 0 .142c.03.168.098.32.213.447a.848.848 0 0 0 .375.31c.101.04.251.002.312-.073.05-.061.042-.131-.027-.15-.138-.037-.213-.142-.297-.24zm-3.557.297c-.005-.058-.013-.116-.014-.174-.006-.27.044-.532.122-.79.02-.062.009-.095-.058-.113-.145-.039-.289-.08-.444-.072-.062.004-.08.028-.096.08a2.603 2.603 0 0 0-.097.957c.004.07-.017.144.025.21.031.216.099.421.18.622.063.156.13.31.247.436.06.066.12.097.196.014a.797.797 0 0 1 .14-.12c.068-.047.073-.104.04-.17a2.73 2.73 0 0 1-.241-.88m2.214-1.014.005-.003-.003-.005a.51.51 0 0 1 .128-.209c.075-.07.056-.107-.023-.146a.827.827 0 0 0-.182-.07c-.317-.075-.6.006-.867.181a.963.963 0 0 0-.407.548c-.07.247-.055.507.02.754.032.11.06.236.18.3.036.052.097.039.147.055.024.007.05.039.074.013.026-.027-.01-.048-.02-.07-.072-.16.021-.403.17-.418.238-.023.442.016.58.276.1.189.214.359.39.489.176.129.43.1.546-.084.032-.049.042-.078-.031-.103a1.082 1.082 0 0 1-.533-.423 1.216 1.216 0 0 1-.185-1.074c.008 0 .011-.004.01-.011m-3.684 1.285c-.014-.13-.042-.257-.046-.388a2.667 2.667 0 0 1 .085-.786c.006-.024.025-.055-.003-.076-.02-.015-.046.004-.068.012-.109.04-.213.092-.315.147-.166.09-.302.206-.348.4-.027.108-.028.22-.027.332.003.244-.033.495.096.723.063.282.184.542.338.783.076.117.173.236.325.265.172.033.341 0 .508-.045.046-.012.054-.037.02-.073-.161-.173-.264-.383-.363-.594-.043-.092-.098-.184-.114-.282-.022-.142-.066-.277-.089-.418zm.435-4.342c.01.063.018.142.033.219.077.378.267.705.473 1.022.337.519.814.894 1.311 1.246.042.03.109.058.154.029.051-.033.003-.09-.011-.13-.066-.18-.145-.354-.209-.534-.216-.61-.47-1.201-.87-1.719a1.338 1.338 0 0 0-.54-.43c-.189-.081-.305-.018-.33.19-.004.03-.006.06-.01.107zm1.105-.973c-.004.066.006.13.016.195.048.31.202.576.347.843a11.579 11.579 0 0 1 .905 2.124c.01.033.024.061.063.053.031-.007.057-.026.055-.064a.75.75 0 0 0-.006-.072 9.747 9.747 0 0 1-.06-.78c-.035-.76-.145-1.503-.44-2.21a2.018 2.018 0 0 0-.33-.566c-.134-.152-.273-.148-.397.007a.773.773 0 0 0-.153.47z"/><path fill="#D69B04" d="M71.915 12.89c-.107.386-.047.747.185 1.074.135.19.306.346.533.423.073.025.063.054.031.103-.117.184-.37.213-.546.084-.177-.13-.29-.3-.39-.489-.138-.26-.342-.3-.58-.276-.149.015-.242.259-.17.418.01.022.046.043.02.07-.024.026-.05-.006-.074-.014-.05-.016-.111-.002-.148-.054a.284.284 0 0 0-.006-.132c-.07-.231-.074-.46.001-.692.097-.302.451-.617.836-.585.108.009.202.063.308.07M67.617 14.528c.162-.132.361-.188.552-.256.069-.024.072-.057.073-.108.022.14.067.277.089.418.015.098.071.19.114.282.099.211.201.42.363.594.034.036.025.06-.02.073-.167.045-.336.078-.508.045-.153-.029-.25-.148-.325-.265-.155-.24-.276-.5-.338-.783zM69.15 13.991l.562-.098c.038.305.105.602.241.88.033.066.028.123-.04.17a.797.797 0 0 0-.14.12c-.075.083-.135.052-.196-.014-.117-.126-.184-.28-.247-.436a2.683 2.683 0 0 1-.18-.622zM72.906 13.75c.018-.02.042-.022.066-.02.126.015.219-.042.297-.134.084.099.159.204.297.24.07.02.076.09.027.15-.061.075-.21.113-.312.073a.85.85 0 0 1-.375-.31z"/><path fill="#231F20" d="M71.254 52.45c.059.014.11.002.164-.01.209-.051.42-.074.632-.03.238.05.387.274.342.514-.09.476-.376.825-.737 1.121a4.848 4.848 0 0 1-.933.575 2.387 2.387 0 0 1-.483.181c-.025.006-.052.011-.057.036-.008.033.024.042.048.056.156.09.306.189.444.307.194.168.348.365.458.594.207.43.272.88.191 1.356-.041.242-.199.368-.387.468a2.02 2.02 0 0 1-1.102.25c-.72-.055-1.3-.36-1.68-.998a1.074 1.074 0 0 1-.051-.1c-.063-.139-.16-.175-.293-.109-.053.027-.032.07-.026.108.084.561.402.943.91 1.174.142.065.292.116.439.174.114.045.17.13.151.226-.02.105-.1.165-.22.166-.215 0-.396-.108-.581-.195a2.045 2.045 0 0 1-.92-.828 1.42 1.42 0 0 1-.199-.706c0-.051-.004-.082-.07-.08a.832.832 0 0 1-.57-.2c-.065-.054-.096-.051-.12.032-.064.236-.024.46.072.678.021.047.045.093.06.142.034.11-.047.254-.155.275-.046.008-.082-.02-.115-.051-.268-.251-.337-.572-.311-.922.015-.209.076-.403.198-.577.046-.066.027-.1-.051-.108-.476-.048-.738-.388-.663-.862.046-.293.168-.551.367-.77.064-.07.08-.133.034-.22-.131-.242-.309-.424-.585-.497-.09-.024-.199-.042-.212-.171-.014-.14.095-.254.246-.236.206.024.395.097.566.217.21.147.341.351.418.59.022.07.051.074.112.055a.88.88 0 0 1 .395-.034c.102.016.15-.026.159-.14.017-.265-.041-.503-.268-.668-.074-.054-.164-.086-.249-.127-.118-.057-.181-.147-.158-.228a.235.235 0 0 1 .269-.18.901.901 0 0 1 .472.195c.221.184.342.421.364.712.01.127.022.25-.002.377-.011.058-.002.099.08.11.076.01.157.065.228.042.083-.028.078-.136.107-.208.136-.336.32-.645.524-.94a7.95 7.95 0 0 1 .644-.788c.154-.17.325-.32.495-.47.198-.173.43-.29.665-.402.166-.079.341-.114.524-.103.273.016.435.154.503.42.059.227.027.45-.038.67-.013.045-.029.09-.045.138zm-4.97 2.723c-.035.014-.069.035-.104.04-.095.011-.131.063-.119.154.013.091.075.12.16.125a.6.6 0 0 0 .5-.226.895.895 0 0 0 .216-.344c.03-.083.062-.176-.036-.24-.092-.06-.169-.005-.242.045-.02.013-.034.034-.05.052-.111.128-.199.277-.325.394zm3.8 1.201c-.124.332-.28.645-.507.919-.049.058-.002.071.037.081.133.035.268.054.406.041a.235.235 0 0 0 .175-.095c.153-.208.268-.434.328-.687.057-.155.087-.316.12-.477.067-.336-.139-.512-.374-.695-.052-.041-.06-.005-.062.041-.003.09-.01.179-.015.267-.013.206-.073.403-.108.605zm-1.915-.661c.063.14-.026.272-.021.408a.45.45 0 0 0 .21-.253.998.998 0 0 0 .022-.714c-.103-.334-.34-.52-.672-.597-.042-.01-.097-.022-.066.05.057.132.045.269.046.406-.12.412-.351.724-.777.86-.037.012-.09.017-.092.069-.002.054.032.095.077.126a.308.308 0 0 0 .417-.053c.08-.089.15-.187.23-.276.196-.22.424-.228.626-.026zm.725.142a1.37 1.37 0 0 1-.25.557c-.038.047-.064.104-.094.158-.025.046-.02.09.007.136.078.127.176.235.291.33.039.03.057.03.088-.01.225-.295.398-.614.483-.978.082-.278.091-.566.11-.852.006-.07-.036-.063-.077-.054-.163.035-.326.073-.49.11-.034.007-.06.024-.051.062.042.181-.004.36-.017.54zm2.904-3.015a2.68 2.68 0 0 0-.89.281c-.321.16-.613.37-.918.558-.287.177-.568.36-.829.573-.16.131-.32.265-.478.4-.025.02-.062.045-.042.085.023.046.06.014.09.007.382-.083.76-.175 1.133-.294a4.501 4.501 0 0 0 1.57-.854c.198-.17.373-.364.476-.61.042-.1.008-.148-.112-.146zm-3.466 1.401.02.02c.04-.03.082-.057.12-.09.236-.207.5-.378.752-.563.357-.262.73-.501 1.093-.755.288-.202.477-.476.57-.815.028-.102.042-.213-.037-.298-.086-.092-.19-.046-.288-.014a.814.814 0 0 0-.049.017c-.318.123-.572.342-.803.58-.192.197-.384.397-.563.609-.337.4-.564.86-.815 1.309z"/><path fill="#D69B04" d="M69.419 56.049a2.56 2.56 0 0 1-.482.976c-.032.042-.05.042-.088.01a1.307 1.307 0 0 1-.291-.329c-.029-.045-.033-.09-.008-.136.03-.054.056-.11.095-.158.132-.165.202-.356.25-.557.048.002.09.026.135.038.136.036.246.136.39.155zM68.169 55.713c-.202-.203-.43-.194-.626.026-.08.09-.15.187-.23.276a.308.308 0 0 1-.417.053c-.045-.03-.079-.072-.077-.127.002-.052.055-.056.092-.068.425-.136.657-.448.777-.86.382-.015.451.193.545.436.035.093.025.193-.064.264zM70.523 56.633c-.06.253-.176.48-.328.688a.236.236 0 0 1-.175.095 1.16 1.16 0 0 1-.406-.041c-.04-.01-.086-.023-.037-.082.226-.274.383-.587.506-.919.086.067.192.08.29.115.068.025.177.017.15.145zM66.284 55.173c.153 0 .295.049.438.093a.6.6 0 0 1-.501.226c-.084-.004-.147-.033-.16-.125-.012-.091.024-.143.119-.154.036-.005.07-.027.104-.04"/><defs><linearGradient id="b" x1="154.977" x2="169.975" y1="76.183" y2="58.478" gradientUnits="userSpaceOnUse"><stop/><stop offset="1" stop-opacity="0"/></linearGradient><clipPath id="a"><path fill="#fff" d="M11 31h217v45H11z"/></clipPath></defs></svg>