<svg xmlns="http://www.w3.org/2000/svg" width="211" height="88" fill="none"><rect width="87" height="87" x=".5" y=".5" stroke="#E2B950" rx="43.5"/><rect width="72" height="72" x="8" y="8" fill="#FF004D" rx="36"/><path fill="#fff" d="m34 43.03-5.858 5.646C23.074 53.56 14 50.143 14 43.031L29 43c0-7.113 8.923-10.675 14.142-5.646L49 43c0-7.113 8.923-10.675 14.141-5.646L69 43H74c0 7.113-8.923 10.675-14.141 5.646L54 43c0 7.113-8.923 10.675-14.142 5.646L34.001 43"/><path stroke="url(#a)" d="M88 44h123"/><path fill="#231F20" d="M187.409 38.47c.027-.306.054-.558.071-.81.072-1.11.027-2.21-.46-3.238-.269-.567-.653-1.063-1.318-1.294-.503-.175-1.235-.053-1.638.502-.187.256-.381.528-.475.802-.172.502-.323 1.029-.274 1.577.004.051 0 .104 0 .155-.022.005-.047.014-.05.01-.252-.365-.653-.579-1.003-.824-.259-.181-.619-.29-.971-.32-.315-.027-.643-.033-.91.139-.36.23-.519.596-.573 1.001-.095.702.095 1.357.388 1.988.384.832.973 1.516 1.698 2.096.051.04.123.066.14.17-.218-.029-.423-.067-.631-.082-1.976-.139-3.643.41-4.81 2.03a4.061 4.061 0 0 0-.713 1.755c-.052.324.119.59.267.85 1.07 1.886 3.462 2.412 5.011 2.122.237-.045.471-.11.716-.168.018.095-.052.129-.096.17-.459.43-.993.738-1.608.915a2.75 2.75 0 0 0-.33.12c-.278.121-.401.306-.343.5.066.216.317.37.59.319.742-.142 1.432-.393 2.009-.89.614-.53 1.061-1.169 1.404-1.88.083-.173.133-.362.188-.546.041-.137.093-.139.183-.036.186.214.425.358.7.44.148.044.177.099.116.243-.298.703-.731 1.306-1.379 1.757-.101.07-.207.138-.296.222-.21.202-.229.43-.065.626.148.177.426.219.656.079.828-.504 1.475-1.163 1.868-2.036.106-.236.201-.477.204-.738.001-.115.04-.154.153-.122.417.12.796 0 1.156-.183.184-.093.203-.04.211.125.019.384-.118.728-.269 1.07-.056.128-.118.255-.155.388-.055.196.016.356.198.465.181.108.351.077.497-.056.338-.306.517-.703.623-1.123.121-.478.203-.965-.071-1.432a.22.22 0 0 1 .033-.275c.07-.073.155-.055.241-.034 1.219.293 2.118-.365 2.162-1.59a3.691 3.691 0 0 0-.39-1.8c-.098-.198-.08-.355.03-.546.373-.648.986-.872 1.703-.93.135-.01.26-.035.346-.152a.457.457 0 0 0-.283-.715c-.588-.134-1.137.003-1.653.28-.49.262-.852.64-1.074 1.134-.07.155-.132.194-.286.08-.27-.2-.566-.357-.922-.363-.139-.002-.138-.104-.144-.193a1.417 1.417 0 0 1 .272-.893c.278-.404.689-.672 1.14-.86.19-.079.424-.069.629-.144.195-.07.321-.217.317-.395a.44.44 0 0 0-.333-.41c-.564-.161-1.064.033-1.547.279-.312.158-.568.39-.849.67zm-10.214 5.03c-.017-.04-.004-.072.032-.097.199-.51.553-.9 1.02-1.212-.131.51-.22 1.018-.296 1.528.026.531.005 1.065.116 1.59.01.05.034.11-.033.14-.059.027-.103-.018-.147-.047-.184-.12-.322-.284-.475-.435-.417-.413-.527-.87-.233-1.392l.015-.075zm11.64-.415c.116.178.263.313.463.417.191.097.183.29.014.428-.185.151-.395.169-.615.076-.282-.119-.483-.324-.642-.57a2.18 2.18 0 0 1-.484-1.057c-.035-.193.108-.47.25-.522.165-.061.394.043.517.264.175.316.332.642.497.964m-8.028.676v-.005c.027.74.114 1.468.407 2.163.059.14-.048.21-.153.22-.288.028-.578.056-.869.017-.136-.019-.238-.078-.285-.204-.06-.161-.14-.32-.17-.487a10.022 10.022 0 0 1-.19-1.744c.012-.057.035-.114.036-.172a4.537 4.537 0 0 1 .336-1.614c.187-.463.397-.607.903-.574.165.01.328.039.491.06.151.02.201.065.111.22a4.208 4.208 0 0 0-.583 1.772c.012.119.021.236-.034.349zm5.042-1.95c.012.024.008.044-.019.057a.06.06 0 0 1-.009.036l.002.27c.007.707.19 1.354.686 1.901.17.189.373.339.575.491.102.077.127.136.03.236-.167.172-.356.286-.612.292-.442.01-.724-.22-.921-.563-.21-.365-.461-.682-.881-.841a.698.698 0 0 0-.498.07l-.086.05c-.148.118-.231.264-.213.454.008.084.016.18-.116.173-.103-.005-.233.1-.298-.075-.078-.205-.178-.402-.213-.62-.279-1.701.936-2.651 2.264-2.83.183-.024.375-.046.56.023.102.037.149.09.067.182-.178.202-.24.451-.318.694zm-1.436-5.786c.01-.154.012-.35.037-.545.053-.423.155-.832.437-1.178.214-.263.415-.283.677-.06.148.126.26.282.357.446.407.683.505 1.436.525 2.202.021.823-.117 1.635-.252 2.443-.091.542-.113.539-.697.587-.023.002-.047.003-.07.006-.117.019-.164-.035-.194-.142a15.475 15.475 0 0 0-.391-1.229c-.294-.8-.425-1.636-.428-2.53zm-3.584.601c-.012-.498.202-.641.651-.479.237.087.469.202.643.363.54.5 1.009 1.062 1.331 1.718.291.594.507 1.217.724 1.839.062.177.033.264-.149.352-.141.068-.233.052-.339-.029l-.462-.35c-.726-.555-1.405-1.152-1.857-1.948-.269-.473-.492-.96-.542-1.466"/><path fill="#D69B04" d="M184.699 43.69c.42.16.67.476.881.841.197.342.479.572.92.563.256-.006.445-.12.613-.292.097-.1.072-.16-.03-.236-.203-.152-.405-.303-.576-.49-.495-.548-.678-1.195-.685-1.902l-.002-.27c-.061-.011-.124-.018-.182-.035a1.195 1.195 0 0 0-1.004.14c-.355.22-.63.524-.81.896-.071.145-.102.31-.178.453-.082.155-.058.312-.037.463.022.164.166.199.306.093.06-.046.114-.104.199-.104l.086-.05c-.023-.043-.035-.107.019-.111.161-.014.328-.06.48.04zM179.547 43.72c.004.587.084 1.167.19 1.744.031.166.11.325.17.486.047.128.15.187.285.205.291.04.581.01.869-.017.105-.01.211-.08.153-.22-.293-.695-.38-1.424-.407-2.164-.421.02-.837-.129-1.26-.035zM177.181 43.575c-.295.52-.186.98.232 1.392.153.15.291.315.475.435.044.029.088.074.147.047.067-.03.043-.091.033-.14-.111-.525-.09-1.059-.116-1.59-.246-.104-.514-.093-.771-.143zM188.835 43.085c-.185.033-.332.141-.487.233-.091.055-.176.124-.293.119.16.246.36.45.642.57.22.092.429.075.615-.076.17-.138.177-.331-.014-.429a1.172 1.172 0 0 1-.463-.417"/><path fill="#231F20" d="M126.061 38.47c.027-.306.054-.558.071-.81.072-1.11.027-2.21-.46-3.238-.269-.567-.653-1.063-1.318-1.294-.503-.175-1.235-.053-1.638.502-.187.256-.381.528-.475.802-.172.502-.323 1.029-.274 1.577.004.051 0 .104 0 .155-.022.005-.047.014-.05.01-.252-.365-.653-.579-1.002-.824-.26-.181-.62-.29-.971-.32-.316-.027-.643-.033-.911.139-.36.23-.519.596-.573 1.001-.095.702.095 1.357.388 1.988.385.832.973 1.516 1.698 2.096.051.04.123.066.14.17-.217-.029-.423-.067-.63-.082-1.977-.139-3.644.41-4.811 2.03a4.061 4.061 0 0 0-.713 1.755c-.052.324.119.59.267.85 1.07 1.886 3.462 2.412 5.011 2.122.238-.045.471-.11.716-.168.018.095-.052.129-.096.17-.459.43-.993.738-1.608.915a2.75 2.75 0 0 0-.33.12c-.278.121-.401.306-.342.5.065.216.316.37.589.319.742-.142 1.432-.393 2.009-.89.614-.53 1.061-1.169 1.404-1.88.084-.173.133-.362.188-.546.042-.137.093-.139.183-.036.186.214.426.358.701.44.147.044.176.099.115.243-.298.703-.731 1.306-1.378 1.757-.102.07-.208.138-.297.222-.21.202-.229.43-.065.626.149.177.426.219.656.079.828-.504 1.476-1.163 1.868-2.036.106-.236.201-.477.204-.738.001-.115.04-.154.153-.122.417.12.796 0 1.156-.183.184-.093.203-.04.211.125.019.384-.117.728-.269 1.07-.056.128-.118.255-.155.388-.055.196.016.356.198.465.181.108.351.077.497-.056.338-.306.517-.703.623-1.123.121-.478.203-.965-.071-1.432a.22.22 0 0 1 .033-.275c.07-.073.155-.055.241-.034 1.219.293 2.118-.365 2.162-1.59a3.69 3.69 0 0 0-.389-1.8c-.099-.198-.081-.355.029-.546.373-.648.986-.872 1.703-.93.135-.01.26-.035.346-.152a.457.457 0 0 0-.283-.715c-.588-.134-1.137.003-1.653.28-.49.262-.852.64-1.074 1.134-.07.155-.131.194-.286.08-.27-.2-.566-.357-.922-.363-.139-.002-.138-.104-.143-.193-.02-.327.088-.627.271-.893.278-.404.689-.672 1.14-.86.19-.079.424-.069.629-.144.195-.07.321-.217.317-.395a.44.44 0 0 0-.333-.41c-.564-.161-1.063.033-1.547.279-.312.158-.568.39-.849.67zm-10.214 5.03c-.017-.04-.004-.072.032-.097.199-.51.554-.9 1.02-1.212-.13.51-.22 1.018-.296 1.528.026.531.005 1.065.116 1.59.01.05.034.11-.033.14-.059.027-.103-.018-.147-.047-.183-.12-.322-.284-.475-.435-.417-.413-.527-.87-.232-1.392zm11.64-.415c.116.178.263.313.463.417.191.097.184.29.014.428-.185.151-.395.169-.615.076-.282-.119-.483-.324-.642-.57a2.19 2.19 0 0 1-.484-1.057c-.035-.193.109-.47.25-.522.165-.061.394.043.517.264.175.316.332.642.497.964m-8.028.676v-.005c.027.74.114 1.468.407 2.163.059.14-.048.21-.153.22-.288.028-.578.056-.869.017-.135-.019-.238-.078-.285-.204-.06-.161-.14-.32-.17-.487a10.022 10.022 0 0 1-.19-1.744c.012-.057.035-.114.036-.172a4.517 4.517 0 0 1 .337-1.614c.186-.463.396-.607.902-.574.165.01.328.039.491.06.151.02.201.065.111.22a4.222 4.222 0 0 0-.583 1.772c.013.119.021.236-.034.349zm5.042-1.95c.012.024.008.044-.019.057a.06.06 0 0 1-.009.036l.002.27c.007.707.19 1.354.686 1.901.17.189.373.339.575.491.102.077.127.136.03.236-.167.172-.356.286-.612.292-.442.01-.724-.22-.921-.563-.21-.365-.461-.682-.88-.841a.7.7 0 0 0-.499.07l-.086.05c-.148.118-.231.264-.213.454.008.084.017.18-.116.173-.103-.005-.233.1-.298-.075-.077-.205-.178-.402-.213-.62-.279-1.701.936-2.651 2.264-2.83.183-.024.375-.046.56.023.102.037.149.09.067.182-.178.202-.24.451-.318.694zm-1.436-5.786c.01-.154.012-.35.037-.545.053-.423.155-.832.437-1.178.214-.263.415-.283.677-.06.148.126.26.282.357.446.407.683.505 1.436.525 2.202.021.823-.117 1.635-.252 2.443-.091.542-.113.539-.696.587-.024.002-.048.003-.071.006-.117.019-.164-.035-.194-.142a15.475 15.475 0 0 0-.391-1.229c-.294-.8-.425-1.636-.428-2.53zm-3.584.601c-.012-.498.202-.641.651-.479.237.087.469.202.643.363.54.5 1.009 1.062 1.331 1.718.291.594.507 1.217.724 1.839.062.177.033.264-.149.352-.141.068-.233.052-.339-.029l-.462-.35c-.726-.555-1.404-1.152-1.857-1.948-.269-.473-.491-.96-.542-1.466"/><path fill="#D69B04" d="M123.351 43.69c.42.16.671.476.881.841.197.342.479.572.92.563.256-.006.445-.12.613-.292.097-.1.072-.16-.03-.236-.202-.152-.405-.303-.576-.49-.495-.548-.678-1.195-.685-1.902l-.002-.27c-.061-.011-.123-.018-.182-.035a1.195 1.195 0 0 0-1.004.14c-.355.22-.63.524-.81.896-.071.145-.101.31-.178.453-.082.155-.058.312-.037.463.022.164.166.199.306.093.06-.046.114-.104.199-.104l.086-.05c-.023-.043-.035-.107.019-.111.161-.014.328-.06.48.04zM118.198 43.72c.004.587.084 1.167.19 1.744.031.166.11.325.17.486.048.128.15.187.286.205.29.04.581.01.869-.017.104-.01.211-.08.152-.22-.292-.695-.379-1.424-.407-2.164-.421.02-.836-.129-1.26-.035zM115.832 43.575c-.295.52-.185.98.232 1.392.153.15.292.315.475.435.044.029.088.074.147.047.067-.03.043-.091.033-.14-.111-.525-.09-1.059-.116-1.59-.245-.104-.514-.093-.771-.143zM127.487 43.085c-.185.033-.332.141-.487.233-.091.055-.175.124-.293.119.16.246.36.45.643.57.219.092.429.075.614-.076.17-.138.177-.331-.013-.429a1.169 1.169 0 0 1-.464-.417"/><defs><linearGradient id="a" x1="88" x2="211" y1="44.5" y2="44.5" gradientUnits="userSpaceOnUse"><stop stop-color="#E2B950"/><stop offset="1" stop-color="#F8EFDA"/></linearGradient></defs></svg>