<svg xmlns="http://www.w3.org/2000/svg" width="200" height="180" fill="none"><g clip-path="url(#a)"><mask id="b" width="200" height="77" x="0" y="103" maskUnits="userSpaceOnUse" style="mask-type:alpha"><path fill="#D9D9D9" d="M0 103h200v77H0z"/></mask><g mask="url(#b)"><path fill="#000" fill-rule="evenodd" d="M136.039 197.842a8.506 8.506 0 0 1-8.66-.031l-59.38-35.421L136.828 122l57.529 34.317c2.776 1.656 2.761 5.682-.027 7.318z" clip-rule="evenodd" opacity=".2"/></g><path fill="#FFFCF6" stroke="#231F20" stroke-linejoin="round" stroke-width="4.255" d="M76.378 12.384 15.066 47.749a6.382 6.382 0 0 0-3.193 5.528v70.724a6.383 6.383 0 0 0 3.196 5.53l61.393 35.367a6.381 6.381 0 0 0 6.377-.004l61.231-35.364a6.382 6.382 0 0 0 3.19-5.526V53.277a6.381 6.381 0 0 0-3.193-5.528L82.755 12.383a6.382 6.382 0 0 0-6.377 0Z"/><mask id="c" width="132" height="151" x="14" y="13" maskUnits="userSpaceOnUse" style="mask-type:alpha"><path fill="#D9D9D9" d="M81.692 14.226a4.254 4.254 0 0 0-4.251 0L16.129 49.592A4.255 4.255 0 0 0 14 53.277v70.724c0 1.521.813 2.927 2.13 3.686l61.394 35.368a4.254 4.254 0 0 0 4.251-.003l61.231-35.364a4.254 4.254 0 0 0 2.127-3.684V53.277c0-1.52-.812-2.925-2.129-3.685z"/></mask><g mask="url(#c)"><path fill="#FFFCF6" fill-rule="evenodd" d="m14 50.823 65.566 37.823 65.567-37.823L79.566 13z" clip-rule="evenodd"/><path fill="#8A816C" fill-rule="evenodd" d="M81.695 87.419a4.255 4.255 0 0 0-2.129 3.685v73.189l65.567-37.823V50.823z" clip-rule="evenodd"/><path fill="#F8EFDA" d="m14 50.823 63.438 36.595a4.255 4.255 0 0 1 2.128 3.686v73.189L14 126.47z"/></g><path fill="#382F1A" stroke="url(#d)" stroke-width=".532" d="M136.301 71.838a1.596 1.596 0 0 0-2.394-1.382l-39.424 22.78a4.255 4.255 0 0 0-2.126 3.684v45.564a1.595 1.595 0 0 0 2.394 1.381l39.424-22.78a4.255 4.255 0 0 0 2.126-3.684z"/><circle cx="25.416" cy="25.416" r="25.416" fill="#382F1A" transform="scale(1.225 .70666)rotate(-45 98.54 -.2)"/><path fill="#FFFCF6" d="m89.854 47.744-4.12-.423-9.493 5.476.734 2.377 5.343-3.083 2.647 1.527-12.703 7.328-2.647-1.527 4.298-2.48-2.685-8.885-3.813 2.2-2.647-1.527 13.91-8.024 2.647 1.526-3.812 2.2 15.402 1.549 4.298-2.48 2.648 1.528-12.688 7.319-2.647-1.527 5.343-3.082zM75.536 50.54l6.27-3.617-7.59-.762z"/><path fill="#F8EFDA" d="M113.906 90.486c5.183-2.99 10.034-2.773 10.034 3.498 0 8.376-6.966 12.585-7.339 16.007l-.166 1.532-6.882 3.97-.083-1.244c-.456-6.677 6.924-10.265 6.924-15.242 0-2.154-1.244-2.538-2.571-1.772-1.327.765-2.57 2.583-2.778 4.57l-7.089 2.654c.704-5.816 5.265-11.27 9.95-13.973m-.995 35.036c-2.28 1.315-4.146.238-4.146-2.395 0-2.632 1.866-5.862 4.146-7.178 2.28-1.315 4.146-.238 4.146 2.395 0 2.632-1.866 5.863-4.146 7.178"/><path fill="#382F1A" d="M37.81 94.004v-7.18l12.106 6.984v33.505l-7.297-4.21V96.778z"/></g><defs><linearGradient id="d" x1="102.682" x2="133.039" y1="96.052" y2="114.77" gradientUnits="userSpaceOnUse"><stop stop-color="#382F1A"/><stop offset="1" stop-color="#fff"/></linearGradient><clipPath id="a"><path fill="#fff" d="M0 0h200v180H0z"/></clipPath></defs></svg>