<svg xmlns="http://www.w3.org/2000/svg" width="200" height="280" fill="none"><mask id="a" width="200" height="77" x="0" y="203" maskUnits="userSpaceOnUse"><path fill="#d9d9d9" d="M0 203h200v77H0z"/></mask><g mask="url(#a)"><path fill="#000" fill-rule="evenodd" d="M136.039 297.842a8.506 8.506 0 0 1-8.66-.031l-59.38-35.421L136.828 222l57.529 34.317c2.776 1.656 2.761 5.682-.027 7.318z" clip-rule="evenodd" opacity=".2"/></g><path fill="#fffcf6" stroke="#231f20" stroke-linejoin="round" stroke-width="4.252" d="m76.369 111.531-61.315 35.531a6.377 6.377 0 0 0-3.18 5.518v71.088a6.376 6.376 0 0 0 3.183 5.519l61.396 35.533a6.377 6.377 0 0 0 6.395-.003l61.234-35.53a6.379 6.379 0 0 0 3.177-5.516V152.58a6.377 6.377 0 0 0-3.18-5.518l-61.315-35.531a6.377 6.377 0 0 0-6.395 0z"/><mask id="b" width="132" height="152" x="14" y="112" maskUnits="userSpaceOnUse"><path fill="#d9d9d9" d="M81.698 113.37a4.252 4.252 0 0 0-4.263 0L16.12 148.901A4.253 4.253 0 0 0 14 152.58v71.088c0 1.517.809 2.92 2.122 3.68l61.396 35.532a4.25 4.25 0 0 0 4.263-.002l61.234-35.53a4.25 4.25 0 0 0 2.118-3.677V152.58a4.253 4.253 0 0 0-2.12-3.679z"/></mask><g mask="url(#b)"><path fill="#fffcf6" fill-rule="evenodd" d="m14 150.133 65.566 37.998 65.567-37.998-65.567-37.998Z" clip-rule="evenodd"/><path fill="#c1b8a3" fill-rule="evenodd" d="M26.704 149.213a1.063 1.063 0 0 0 0 1.839l49.747 28.847a6.378 6.378 0 0 0 6.398 0l49.748-28.847a1.063 1.063 0 0 0 0-1.839l-49.748-28.846a6.378 6.378 0 0 0-6.398 0z" clip-rule="evenodd"/><mask id="c" width="101" height="62" x="29" y="119" maskUnits="userSpaceOnUse"><path fill="#c1b8a3" fill-rule="evenodd" d="M31.461 146.455c-2.825 1.638-2.825 5.717 0 7.356l44.99 26.088a6.378 6.378 0 0 0 6.398 0l44.99-26.088c2.826-1.639 2.826-5.718 0-7.356l-44.99-26.088a6.378 6.378 0 0 0-6.398 0z" clip-rule="evenodd"/></mask><g mask="url(#c)"><path fill="url(#d)" fill-rule="evenodd" d="M79.65 183.88v-11.426l36.002-18.069v7.174z" clip-rule="evenodd" opacity=".3" style="fill:url(#d)"/></g><path fill="#fff7e5" fill-rule="evenodd" d="M36.18 148.3c-1.399.822-1.399 2.844 0 3.666l39.163 23.006a8.503 8.503 0 0 0 8.614 0l39.163-23.006c1.399-.822 1.399-2.844 0-3.666l-39.163-23.006a8.503 8.503 0 0 0-8.614 0z" clip-rule="evenodd"/><path fill="#8a816c" fill-rule="evenodd" d="M81.686 186.903a4.25 4.25 0 0 0-2.12 3.678v73.547l65.567-37.999v-75.996z" clip-rule="evenodd"/><path fill="#f8efda" d="m14 150.133 63.447 36.77a4.25 4.25 0 0 1 2.12 3.678v73.547L14 226.129Z"/></g><path fill="#382f1a" d="M22.871 183.917c1.678.973 2.792 2.779 2.792 4.578 0 1.224-.53 1.848-1.401 1.802l1.589 4.275-1.975-1.144-1.236-3.752-1.104-.64v3.036l-1.777-1.03v-8.928zm-.276 3.999c.795.46 1.258.282 1.258-.483 0-.778-.463-1.493-1.258-1.954l-1.059-.614v2.437zm9.447 3.038-3.609-2.091v1.849l3.167 1.836v1.683l-3.167-1.835v1.951l3.609 2.091v1.722l-5.386-3.121v-8.928l5.386 3.121zm9.466 3.764 1.777 1.03-2.197 7.655-1.622-.94-1.412-6.533-1.413 4.896-1.633-.947-2.185-10.194 1.777 1.029 1.28 6.431 1.5-4.819 1.336.774 1.5 6.558zm5.947 3.446 2.791 10.547-1.876-1.088-.474-1.92-2.626-1.522-.475 1.37-1.876-1.087 2.792-7.31zm-1.788 4.525 1.832 1.062-.916-3.822zm8.468-.653c1.677.972 2.792 2.778 2.792 4.577 0 1.224-.53 1.848-1.402 1.802l1.59 4.276-1.976-1.145-1.236-3.752-1.104-.639v3.035l-1.776-1.03v-8.928zm-.276 3.998c.794.46 1.258.283 1.258-.483 0-.778-.464-1.493-1.258-1.953l-1.06-.614v2.436zm6.731-.257c2.461 1.426 4.04 4.063 4.04 6.792 0 2.742-1.579 3.562-4.04 2.136l-2.67-1.547v-8.929zm-.165 7.11c1.5.87 2.406.387 2.406-1.36 0-1.748-.883-3.241-2.406-4.124l-.729-.422v5.484zm6.79-.784c0 .612.606 1.181 1.346 1.826 1.18 1.029 2.67 2.262 2.67 4.226 0 1.811-1.28 2.103-2.902 1.163-1.545-.896-2.638-2.473-2.958-4.138l1.645.622c.11.599.562 1.321 1.379 1.794.706.409 1.115.301 1.115-.26 0-.676-.596-1.289-1.336-1.947-1.17-1.061-2.681-2.281-2.681-4.131 0-1.798 1.434-1.936 2.748-1.175 1.147.665 2.45 2.172 2.791 3.978l-1.61-.602c-.2-.766-.663-1.328-1.204-1.641-.618-.358-1.004-.212-1.004.285m-42.567-12.87c.728.766 1.148 1.8 1.148 2.782 0 1.645-1.17 1.848-2.748.933l-3.289-1.906v-8.928l3.057 1.771c1.556.902 2.682 2.511 2.682 4.016 0 .804-.32 1.333-.85 1.332m-3.112-4.368v1.863l1.258.729c.552.319.916.173.916-.401 0-.586-.375-1.148-.95-1.481zm1.479 6.342c.585.339.993.206.993-.419s-.397-1.251-.971-1.583l-1.501-.87v2.015zm7.382-3.056c2.317 1.343 3.94 4.209 3.94 6.875 0 2.666-1.623 3.652-3.94 2.309-2.307-1.337-3.94-4.21-3.94-6.875 0-2.666 1.633-3.645 3.94-2.309m0 7.462c1.38.799 2.163-.035 2.163-1.617 0-1.581-.784-3.323-2.163-4.123-1.38-.799-2.163.035-2.163 1.616 0 1.582.783 3.324 2.163 4.124m8.654-2.447c2.317 1.343 3.94 4.21 3.94 6.875 0 2.666-1.623 3.652-3.94 2.309-2.307-1.337-3.94-4.209-3.94-6.875 0-2.666 1.633-3.645 3.94-2.309m0 7.462c1.379.799 2.162-.035 2.162-1.616 0-1.582-.783-3.324-2.162-4.124-1.38-.799-2.163.035-2.163 1.617 0 1.581.783 3.323 2.163 4.123m6.523-1.066c0 .612.607 1.181 1.347 1.826 1.18 1.029 2.67 2.262 2.67 4.226 0 1.811-1.28 2.103-2.902 1.163-1.545-.896-2.637-2.473-2.957-4.138l1.644.621c.11.6.563 1.322 1.38 1.795.705.409 1.114.301 1.114-.26 0-.676-.596-1.289-1.335-1.947-1.17-1.061-2.682-2.281-2.682-4.131 0-1.798 1.435-1.936 2.748-1.175 1.147.665 2.45 2.172 2.792 3.978l-1.611-.602c-.2-.766-.663-1.328-1.203-1.641-.618-.359-1.005-.212-1.005.285m4.632.197 6.28 3.639v1.722l-2.252-1.305v7.207l-1.776-1.03v-7.206l-2.252-1.305z"/><ellipse cx="132.19" cy="273.025" fill="#382f1a" stroke="url(#e)" stroke-width=".531" rx="25.445" ry="25.517" style="stroke:url(#e)" transform="skewY(-30.094)scale(.8652 1)"/><path fill="#fffcf6" d="m120.78 207.536-1.693-1.832-9.494 5.502-1.692 3.794 5.343-3.097v3.069l-12.703 7.361v-3.068l4.298-2.491 6.359-14.168-3.813 2.209v-3.068l13.91-8.061v3.068l-3.812 2.21 6.358 6.798 4.298-2.491v3.068l-12.688 7.353v-3.068l5.343-3.097zm-9.582.064 6.27-3.633-3.135-3.348z"/><path fill="url(#f)" d="M57.943 96.723h11.99v63.242h-11.99z" style="fill:url(#f)"/><path fill="url(#g)" d="M69.934 87.688h4.252v72.276h-4.252z" style="fill:url(#g)"/><path fill="url(#h)" d="M74.185 105.758h11.99v54.207h-11.99z" style="fill:url(#h)"/><path fill="url(#i)" d="M86.175 87.688h4.252v72.276h-4.252z" style="fill:url(#i)"/><path fill="url(#j)" d="M90.426 108.415h11.99v51.55h-11.99z" style="fill:url(#j)"/><path fill="#283253" fill-opacity=".6" stroke="#231f20" stroke-linejoin="round" stroke-width="4.252" d="M69.002 18.979c-.217.124-.41.286-.57.478L39.62 53.897a2.126 2.126 0 0 0 2.692 3.207l11.23-6.466c.217-.125.41-.287.57-.478l28.812-34.441a2.126 2.126 0 0 0-2.691-3.207z"/><path fill="#283253" fill-opacity=".6" stroke="#231f20" stroke-linejoin="round" stroke-width="4.252" d="M40.19 53.419c-.217.125-.41.287-.57.479-.58.692-.736 1.501-.743 2.12a4.892 4.892 0 0 0 .332 1.774c.383 1.012 1.159 2.157 2.343 2.79a2.126 2.126 0 0 0 2.063-.032l11.231-6.466a2.126 2.126 0 0 0-.057-3.716.698.698 0 0 1-.148-.148 1.534 1.534 0 0 1-.253-.483 2.127 2.127 0 0 0-2.967-2.784z"/><path fill="#283253" fill-opacity=".6" stroke="#231f20" stroke-linejoin="round" stroke-width="4.252" d="M41.494 56.866a2.126 2.126 0 0 0 .058 3.717l13.195 7.061a2.126 2.126 0 0 0 2.064-.032l11.231-6.466a2.126 2.126 0 0 0-.058-3.717L54.79 50.368a2.126 2.126 0 0 0-2.064.032z"/><path fill="#283253" fill-opacity=".6" stroke="#231f20" stroke-linejoin="round" stroke-width="4.252" d="M54.69 63.927a2.126 2.126 0 0 0 .052 3.714c.003.001.03.02.076.067a1.454 1.454 0 0 1 .32.537.614.614 0 0 1 .036.158 2.125 2.125 0 0 0 3.186 1.78l11.23-6.467a2.126 2.126 0 0 0 1.065-1.905c-.028-.932-.356-1.817-.78-2.52-.42-.698-1.054-1.415-1.89-1.862a2.126 2.126 0 0 0-2.065.031z"/><path fill="#283253" fill-opacity=".6" stroke="#231f20" stroke-linejoin="round" stroke-width="4.252" d="M56.238 66.499a2.126 2.126 0 0 0-1.064 1.905l.68 23.015a2.125 2.125 0 0 0 3.185 1.78l11.231-6.467a2.126 2.126 0 0 0 1.064-1.905l-.68-23.015a2.125 2.125 0 0 0-3.185-1.78z"/><path fill="#283253" fill-opacity=".6" stroke="#231f20" stroke-linejoin="round" stroke-width="4.252" d="M56.918 89.514a2.126 2.126 0 0 0-1.064 1.905c.027.932.355 1.817.779 2.52.42.698 1.054 1.415 1.891 1.862a2.126 2.126 0 0 0 2.064-.032l11.231-6.466a2.126 2.126 0 0 0-.053-3.714c-.002-.002-.03-.02-.076-.067a1.454 1.454 0 0 1-.32-.537.645.645 0 0 1-.036-.158 2.125 2.125 0 0 0-3.185-1.78z"/><path fill="#283253" fill-opacity=".6" stroke="#231f20" stroke-linejoin="round" stroke-width="4.252" d="M58.467 92.084a2.126 2.126 0 0 0 .057 3.717l30.68 16.417a2.122 2.122 0 0 0 2.064-.032l11.231-6.466a2.125 2.125 0 0 0-.058-3.716l-30.68-16.418a2.126 2.126 0 0 0-2.063.032z"/><path fill="#283253" fill-opacity=".6" stroke="#231f20" stroke-linejoin="round" stroke-width="4.252" d="M89.146 108.503a2.125 2.125 0 0 0 .058 3.716c.773.414 1.893.663 2.974.093l.068-.038 11.231-6.466a2.127 2.127 0 0 0-1.369-3.947c-.57-.189-1.2-.13-1.731.176z"/><path fill="#817863" stroke="#231f20" stroke-linejoin="round" stroke-width="4.252" d="M89.546 109.076a2.127 2.127 0 0 0 2.783 3.149l11.123-6.404c1.256-.689 1.583-2.013 1.555-2.975a2.128 2.128 0 0 0-1.088-1.793 2.129 2.129 0 0 0-2.098.014l-11.231 6.466c-.572.33-.953.902-1.044 1.543zm-.02.364v-.002z"/><path fill="#817863" stroke="#231f20" stroke-linejoin="round" stroke-width="4.252" d="M89.526 109.438a2.124 2.124 0 0 0 3.186 1.78l11.231-6.467a2.125 2.125 0 0 0 1.064-1.904l-.679-23.015a2.126 2.126 0 0 0-3.186-1.78L89.911 84.52a2.126 2.126 0 0 0-1.064 1.905z"/><path fill="#817863" stroke="#231f20" stroke-linejoin="round" stroke-width="4.252" d="M88.847 86.424a2.126 2.126 0 0 0 3.185 1.78l11.231-6.467a2.125 2.125 0 0 0 1.048-1.57 2.125 2.125 0 0 0-2.736-3.152l-11.23 6.466-.03.018c-1.19.71-1.496 1.986-1.468 2.925z"/><path fill="#283253" fill-opacity=".6" stroke="#231f20" stroke-linejoin="round" stroke-width="4.252" d="M90.314 83.499a2.126 2.126 0 0 0 1.459 3.919 2.126 2.126 0 0 0 1.703-.184l11.231-6.467a2.126 2.126 0 0 0-.058-3.716c-.801-.43-1.981-.678-3.085-.03l-11.185 6.44a2.865 2.865 0 0 0-.065.038zm13.412-2.817-.023.013z"/><path fill="#283253" fill-opacity=".6" stroke="#231f20" stroke-linejoin="round" stroke-width="4.252" d="M91.355 83.549a2.126 2.126 0 0 0 .058 3.716l13.196 7.062a2.124 2.124 0 0 0 2.063-.032l11.231-6.466a2.124 2.124 0 0 0-.057-3.717l-13.196-7.061a2.126 2.126 0 0 0-2.064.032z"/><path fill="#283253" fill-opacity=".6" stroke="#231f20" stroke-linejoin="round" stroke-width="4.252" d="M104.551 90.61a2.124 2.124 0 0 0 .057 3.717c.776.415 1.876.66 2.944.11.03-.015.059-.03.088-.047l11.231-6.467a2.126 2.126 0 0 0-1.344-3.95 2.125 2.125 0 0 0-1.745.171z"/><path fill="#89806b" stroke="#231f20" stroke-linejoin="round" stroke-width="4.252" d="m107.74 94.332 11.1-6.391c1.072-.581 1.473-1.65 1.556-2.47.087-.862-.118-1.743-.495-2.537a2.124 2.124 0 0 0-2.98-.93l-11.231 6.467a2.126 2.126 0 0 0-.86 2.755l.031.068a2.128 2.128 0 0 0 2.879 3.038z"/><path fill="#89806b" stroke="#231f20" stroke-linejoin="round" stroke-width="4.252" d="M104.831 91.226a2.124 2.124 0 0 0 2.98.93l11.231-6.467a2.125 2.125 0 0 0 .859-2.755L88.099 16.056a2.126 2.126 0 0 0-2.98-.93l-11.231 6.467a2.126 2.126 0 0 0-.86 2.755z"/><path fill="#89806b" stroke="#231f20" stroke-linejoin="round" stroke-width="4.252" d="M73.028 24.348a2.126 2.126 0 0 0 2.98.93L87.24 18.81a2.126 2.126 0 0 0 .859-2.755c-.695-1.462-1.728-2.686-2.9-3.463-1.089-.721-2.786-1.338-4.412-.506a2.15 2.15 0 0 0-.092.05l-11.231 6.467a2.126 2.126 0 0 0 1.829 3.824c.064.023.171.073.326.175.45.299 1.003.89 1.41 1.745zm-1.813-1.938c0-.001.009-.001.027.003-.018 0-.027-.002-.027-.003z"/><path fill="#283253" fill-opacity=".6" stroke="#231f20" stroke-linejoin="round" stroke-width="4.252" d="m80.54 12.227-11.041 6.356c-.412.22-.77.517-1.068.873a2.126 2.126 0 0 0 2.691 3.206l11.231-6.466a2.13 2.13 0 0 0 .494-.393 2.126 2.126 0 0 0-2.06-3.716 3.52 3.52 0 0 0-.248.14z"/><path fill="#283253" fill-opacity=".6" fill-rule="evenodd" d="M70.062 20.82 41.251 55.26l11.231-6.465 28.811-34.442ZM41.25 55.261c-.666.798.09 2.797 1.304 3.447l11.231-6.466c-1.214-.65-1.97-2.65-1.303-3.447z" clip-rule="evenodd"/><path fill="#283253" fill-opacity=".6" fill-rule="evenodd" d="m42.555 58.708 13.195 7.061 11.231-6.466-13.195-7.062Z" clip-rule="evenodd"/><path fill="#283253" fill-opacity=".6" fill-rule="evenodd" d="M55.75 65.769c.827.442 1.52 1.594 1.549 2.571l11.23-6.466c-.028-.978-.721-2.129-1.548-2.571Zm1.549 2.571.68 23.015 11.23-6.466-.68-23.015Zm.68 23.015c.028.978.722 2.129 1.548 2.571l11.231-6.466c-.826-.442-1.52-1.594-1.548-2.571z" clip-rule="evenodd"/><path fill="#283253" fill-opacity=".6" fill-rule="evenodd" d="m59.527 93.926 30.68 16.418 11.231-6.466-30.68-16.418Z" clip-rule="evenodd"/><path fill="#283253" fill-opacity=".6" fill-rule="evenodd" d="M90.207 110.344c.38.204.722.222.978.087l11.231-6.467c-.256.135-.598.117-.978-.086z" clip-rule="evenodd"/><path fill="#817863" fill-rule="evenodd" d="M91.185 110.431c.3-.158.481-.528.466-1.056l11.231-6.466c.015.528-.166.898-.466 1.056z" clip-rule="evenodd"/><path fill="#817863" fill-rule="evenodd" d="m91.651 109.376-.68-23.015 11.232-6.466.679 23.014zm-.679-23.016c-.015-.508.152-.87.433-1.037l11.231-6.467c-.281.168-.448.53-.433 1.038z" clip-rule="evenodd"/><path fill="#283253" fill-opacity=".6" fill-rule="evenodd" d="M91.404 85.323c.26-.155.615-.145 1.011.067l11.231-6.466c-.396-.212-.752-.223-1.011-.068zm1.012.068 13.196 7.062 11.231-6.467-13.196-7.061z" clip-rule="evenodd"/><path fill="#283253" fill-opacity=".6" fill-rule="evenodd" d="M105.611 92.453c.389.208.721.222.968.094l11.231-6.466c-.247.128-.579.113-.968-.095z" clip-rule="evenodd"/><path fill="url(#k)" fill-rule="evenodd" d="m86.179 16.969 31.802 66.878c.501 1.052.355 1.963-.171 2.234l-11.173 6.433c.478-.306.595-1.188.113-2.201L74.948 23.435c-.983-2.067-2.736-3.336-3.993-3.13l-.894.515c.137-.163.292-.286.463-.374l11.11-6.397h.001c.04-.025.08-.048.12-.07 1.254-.64 3.323.673 4.424 2.99m20.458 75.545-.058.033a.725.725 0 0 0 .058-.033" clip-rule="evenodd" style="fill:url(#k)"/><path fill="url(#l)" d="M70.062 20.82 41.25 55.26c-.666.798.09 2.798 1.304 3.448l13.196 7.061c.827.442 1.52 1.594 1.549 2.571l.68 23.015c.028.978.722 2.129 1.548 2.571l30.68 16.418c.826.443 1.473.008 1.444-.969l-.68-23.015c-.028-.978.618-1.412 1.445-.97l13.195 7.062c1.214.65 1.876-.591 1.139-2.14L74.948 23.436c-1.251-2.633-3.752-3.97-4.886-2.615" style="fill:url(#l)"/><path fill="#231f20" d="M36.265 8.317a.531.531 0 0 1 1.002 0l1.643 4.621c.053.15.171.269.321.323l4.61 1.651a.53.53 0 0 1 0 1l-4.61 1.652a.532.532 0 0 0-.321.322l-1.643 4.621a.531.531 0 0 1-1.002 0l-1.643-4.62a.532.532 0 0 0-.321-.323l-4.61-1.651a.531.531 0 0 1 0-1.001l4.61-1.652a.531.531 0 0 0 .321-.322zm81.004-6.909a.532.532 0 0 1 1.002 0l1.643 4.621a.53.53 0 0 0 .321.322l4.609 1.652a.53.53 0 0 1 0 1l-4.609 1.652a.53.53 0 0 0-.321.322l-1.643 4.621a.532.532 0 0 1-1.002 0l-1.643-4.62a.53.53 0 0 0-.322-.323l-4.609-1.652a.532.532 0 0 1 0-1l4.609-1.652a.529.529 0 0 0 .322-.322zM42.618 96.537a.531.531 0 0 1 1.001 0l1.643 4.621a.53.53 0 0 0 .322.322l4.61 1.652a.531.531 0 0 1 0 1l-4.61 1.652a.532.532 0 0 0-.322.322l-1.643 4.621a.532.532 0 0 1-1.001 0l-1.643-4.621a.532.532 0 0 0-.322-.322l-4.61-1.652a.531.531 0 0 1 0-1l4.61-1.652a.53.53 0 0 0 .322-.322zm86.298-43.579a.532.532 0 0 1 1.002 0l.529 1.488a.53.53 0 0 0 .321.322l1.488.533a.53.53 0 0 1 0 1l-1.488.534a.53.53 0 0 0-.321.322l-.529 1.488a.532.532 0 0 1-1.002 0l-.529-1.488a.53.53 0 0 0-.321-.322l-1.488-.533a.531.531 0 0 1 0-1l1.488-.534a.53.53 0 0 0 .321-.322zM21.97 64.65a.531.531 0 0 1 1.001 0l1.226 3.446c.053.15.171.269.321.323l3.439 1.232a.53.53 0 0 1 0 1l-3.439 1.232a.532.532 0 0 0-.321.323l-1.226 3.446a.531.531 0 0 1-1.001 0l-1.226-3.446a.532.532 0 0 0-.321-.323l-3.439-1.232a.531.531 0 0 1 0-1l3.439-1.232a.532.532 0 0 0 .322-.323zm107.476 31.887a.532.532 0 0 1 1.002 0l1.225 3.446c.054.15.172.269.322.322l3.438 1.232c.47.169.47.833 0 1.001l-3.438 1.232a.535.535 0 0 0-.322.322l-1.225 3.446a.532.532 0 0 1-1.002 0l-1.225-3.446a.53.53 0 0 0-.321-.322l-3.439-1.232a.532.532 0 0 1 0-1.001l3.439-1.232a.528.528 0 0 0 .321-.322z"/><defs><linearGradient id="d" x1="113.534" x2="80.653" y1="159.433" y2="177.133" gradientUnits="userSpaceOnUse"><stop stop-opacity="0"/><stop offset=".631"/></linearGradient><linearGradient id="e" x1="17.746" x2="51.427" y1="9.687" y2="30.509" gradientTransform="translate(106.745 247.508)" gradientUnits="userSpaceOnUse"><stop stop-color="#382F1A"/><stop offset="1" stop-color="#fff"/></linearGradient><linearGradient id="f" x1="63.938" x2="63.938" y1="96.723" y2="159.964" gradientUnits="userSpaceOnUse"><stop stop-color="#999489"/><stop offset=".45" stop-color="#FFF7E5"/></linearGradient><linearGradient id="g" x1="72.059" x2="72.059" y1="87.688" y2="159.965" gradientUnits="userSpaceOnUse"><stop stop-color="#FFFDF9"/><stop offset="1" stop-color="#FFF7E5"/></linearGradient><linearGradient id="h" x1="80.179" x2="80.179" y1="105.758" y2="159.965" gradientUnits="userSpaceOnUse"><stop stop-color="#999489"/><stop offset=".6" stop-color="#FFF7E5"/></linearGradient><linearGradient id="i" x1="88.301" x2="88.301" y1="87.688" y2="159.965" gradientUnits="userSpaceOnUse"><stop stop-color="#FFFDF9"/><stop offset="1" stop-color="#FFF7E5"/></linearGradient><linearGradient id="j" x1="96.421" x2="96.421" y1="108.415" y2="159.965" gradientUnits="userSpaceOnUse"><stop stop-color="#999489"/><stop offset=".801" stop-color="#FFF7E5"/></linearGradient><linearGradient id="k" x1="77.138" x2="110.766" y1="17.538" y2="85.188" gradientUnits="userSpaceOnUse"><stop stop-color="#fff"/><stop offset=".21" stop-color="#89846B"/></linearGradient><linearGradient id="l" x1="74.031" x2="74.031" y1="20.283" y2="68.556" gradientUnits="userSpaceOnUse"><stop stop-color="#fff"/><stop offset="1" stop-color="#FFFCF6"/></linearGradient></defs></svg>