<svg width="200" height="180" viewBox="0 0 200 180" fill="none" xmlns="http://www.w3.org/2000/svg">
<g clip-path="url(#clip0_12342_1393)">
<path opacity="0.2" fill-rule="evenodd" clip-rule="evenodd" d="M132.356 198.006C129.828 199.483 126.699 199.472 124.182 197.977L67.726 164.435L133.132 126.207L187.795 158.683C190.431 160.249 190.418 164.07 187.77 165.618L132.356 198.006Z" fill="black"/>
<path d="M17.9171 51.6203L18.9073 53.336L17.9171 51.6204C16.0488 52.6987 14.8978 54.6919 14.8978 56.849V129.153C14.8978 131.311 16.05 133.306 17.92 134.383L76.2803 168.024C78.1484 169.101 80.4489 169.099 82.3158 168.021L140.522 134.383C142.389 133.304 143.538 131.312 143.538 129.156V56.849C143.538 54.6919 142.387 52.6987 140.519 51.6204L82.2358 17.9814L81.2299 19.7243L82.2358 17.9814C80.3683 16.9036 78.0678 16.9036 76.2003 17.9814L77.2062 19.7243L76.2003 17.9814L17.9171 51.6203Z" fill="#FFFCF6" stroke="#231F20" stroke-width="4.02468" stroke-linejoin="round"/>
<mask id="mask0_12342_1393" style="mask-type:alpha" maskUnits="userSpaceOnUse" x="16" y="19" width="126" height="148">
<path d="M81.2299 19.7243C79.9849 19.0057 78.4512 19.0057 77.2062 19.7243L18.923 53.3632C17.6775 54.0821 16.9102 55.4109 16.9102 56.849V129.153C16.9102 130.592 17.6783 131.921 18.9249 132.64L77.2852 166.28C78.5306 166.998 80.0643 166.997 81.3089 166.278L139.515 132.641C140.76 131.922 141.526 130.593 141.526 129.156V56.849C141.526 55.4109 140.759 54.0821 139.513 53.3632L81.2299 19.7243Z" fill="#D9D9D9"/>
</mask>
<g mask="url(#mask0_12342_1393)">
<path fill-rule="evenodd" clip-rule="evenodd" d="M16.9102 54.5281L79.218 90.4931L141.526 54.5281L79.218 18.5631L16.9102 54.5281Z" fill="#FFFCF6"/>
<path fill-rule="evenodd" clip-rule="evenodd" d="M81.231 89.3313C79.9855 90.0502 79.2183 91.379 79.2183 92.817V167.453L141.526 131.488V54.5281L81.231 89.3313Z" fill="#8A816C"/>
<path d="M16.9102 54.5281L77.2053 89.3313C78.4508 90.0502 79.2181 91.379 79.2181 92.817V167.453L16.9102 131.488V112.248V93.0081V54.5281Z" fill="#FBF7EC"/>
</g>
<path d="M39.043 81.9535L56.1479 91.8508C56.1479 97.3169 52.3189 99.5325 47.5955 96.7994C42.8721 94.0664 39.043 87.4197 39.043 81.9535Z" fill="#231F20"/>
<path d="M135.132 126.908C135.132 124.051 133.105 122.893 130.604 124.322C128.104 125.75 126.077 129.225 126.077 132.082C126.077 134.939 128.104 136.097 130.604 134.669C133.105 133.24 135.132 129.766 135.132 126.908Z" fill="#231F20"/>
<path d="M98.4071 120.368C98.4071 117.511 96.38 116.353 93.8793 117.781C91.3787 119.21 89.3516 122.685 89.3516 125.542C89.3516 128.399 91.3787 129.557 93.8793 128.129C96.38 126.7 98.4071 123.226 98.4071 120.368Z" fill="#231F20"/>
<path d="M122.555 89.68C122.555 86.8228 120.528 85.6646 118.027 87.0933C115.527 88.5219 113.5 91.9963 113.5 94.8536C113.5 97.7109 115.527 98.869 118.027 97.4404C120.528 96.0117 122.555 92.5373 122.555 89.68Z" fill="#231F20"/>
<path d="M80.9474 10.4826C79.652 10.3274 78.3413 10.5959 77.2114 11.2481L14.3956 47.5031C12.5273 48.5814 11.3763 50.5746 11.3763 52.7317V60.6253C11.3763 62.7837 12.5286 64.7778 14.3985 65.8556L76.4446 101.621C78.3127 102.697 80.6133 102.696 82.4802 101.617L144.363 65.8553C146.229 64.7765 147.379 62.7842 147.379 60.6283V52.0349C147.379 50.4692 146.771 48.9648 145.683 47.8391L114.814 15.9044C113.849 14.9063 112.569 14.2711 111.191 14.106L80.9474 10.4826Z" fill="#FFFCF6" stroke="#231F20" stroke-width="4.02468" stroke-linejoin="round"/>
<mask id="mask1_12342_1393" style="mask-type:alpha" maskUnits="userSpaceOnUse" x="13" y="12" width="133" height="89">
<path d="M81.3896 13.1852C80.1446 12.4667 78.6109 12.4667 77.3659 13.1852L15.4015 48.9488C14.156 49.6676 13.3887 50.9964 13.3887 52.4345V60.6253C13.3887 62.0642 14.1568 63.3936 15.4034 64.1122L77.4496 99.8772C78.695 100.595 80.2287 100.594 81.4733 99.875L143.356 64.113C144.6 63.3938 145.367 62.0656 145.367 60.6283V52.4345C145.367 50.9964 144.6 49.6676 143.354 48.9488L81.3896 13.1852Z" fill="#D9D9D9"/>
</mask>
<g mask="url(#mask1_12342_1393)">
<path fill-rule="evenodd" clip-rule="evenodd" d="M13.3887 50.4111L79.3777 88.5008L145.367 50.4111L79.3777 12.3213L13.3887 50.4111Z" fill="#FFFCF6"/>
<path fill-rule="evenodd" clip-rule="evenodd" d="M81.3906 87.339C80.1452 88.0579 79.3779 89.3867 79.3779 90.8247V101.051L145.367 62.9609V50.411L81.3906 87.339Z" fill="#C1B8A3"/>
<path d="M13.3887 50.411L77.365 87.339C78.6105 88.0579 79.3777 89.3867 79.3777 90.8247V101.051L13.3887 62.9609V50.411Z" fill="#F8EFDA"/>
</g>
<path fill-rule="evenodd" clip-rule="evenodd" d="M50.4644 53.3429C49.2907 54.0152 49.1012 55.6308 50.0875 56.5565L78.4652 83.188C79.1096 83.7928 80.0731 83.9063 80.8404 83.468L137.925 50.8597C139.062 50.2108 139.286 48.6673 138.382 47.7217L111.831 19.9528C111.192 19.2842 110.179 19.1376 109.377 19.5974L50.4644 53.3429Z" fill="#F8EFDA"/>
<path d="M15.9038 68.3607L17.6529 88.281C17.8247 90.2377 18.9376 91.9885 20.6364 92.9744L76.5838 125.444C78.4664 126.537 80.7915 126.531 82.669 125.43L137.982 92.978C139.667 91.9892 140.77 90.2457 140.941 88.2991L142.691 68.3607" stroke="#231F20" stroke-width="4.02468" stroke-linejoin="round"/>
<path d="M15.9038 86.469L17.6856 109.863C17.8366 111.846 18.9547 113.628 20.6749 114.626L76.5838 147.074C78.4664 148.166 80.7915 148.161 82.669 147.059L137.944 114.63C139.65 113.628 140.758 111.854 140.908 109.881L142.691 86.469" stroke="#231F20" stroke-width="4.02468" stroke-linejoin="round"/>
<mask id="mask2_12342_1393" style="mask-type:alpha" maskUnits="userSpaceOnUse" x="-18" y="112" width="107" height="70">
<path d="M88.0937 155.907L13.3855 112.642L-17.3027 144.336L42.816 181.061L88.0937 155.907Z" fill="#D9D9D9"/>
</mask>
<g mask="url(#mask2_12342_1393)">
<path d="M46.3173 110.796C44.7764 109.907 42.8781 109.907 41.3372 110.796L42.1672 112.234L41.3372 110.796L6.67214 130.804C5.13056 131.693 4.18085 133.338 4.18085 135.118V138.502C4.18085 140.283 5.1316 141.928 6.67453 142.817L41.386 162.826C42.9275 163.715 44.8257 163.714 46.3662 162.823L80.9848 142.817C82.5251 141.927 83.4737 140.283 83.4737 138.504V135.118C83.4737 133.338 82.524 131.693 80.9824 130.804L46.3173 110.796Z" fill="#FFFCF6" stroke="#231F20" stroke-width="3.32091" stroke-linejoin="round"/>
<mask id="mask3_12342_1393" style="mask-type:alpha" maskUnits="userSpaceOnUse" x="5" y="111" width="77" height="51">
<path d="M45.4873 112.063C44.46 111.47 43.1945 111.47 42.1672 112.063L7.50217 132.071C6.47445 132.664 5.84131 133.76 5.84131 134.947V138.502C5.84131 139.689 6.47514 140.786 7.50376 141.379L42.2153 161.388C43.2429 161.98 44.5084 161.979 45.5354 161.386L80.154 141.38C81.1808 140.786 81.8133 139.69 81.8133 138.504V134.947C81.8133 133.76 81.1801 132.664 80.1524 132.071L45.4873 112.063Z" fill="#D9D9D9"/>
</mask>
<g mask="url(#mask3_12342_1393)">
<path fill-rule="evenodd" clip-rule="evenodd" d="M5.84131 133.202L43.8273 155.128L67.2831 141.503L29.2971 119.577L5.84131 133.202Z" fill="#FFFCF6"/>
<path fill-rule="evenodd" clip-rule="evenodd" d="M11.5911 132.532C11.0441 132.853 11.0441 133.644 11.5911 133.965L41.0979 151.265C42.7835 152.254 44.8715 152.254 46.557 151.265L76.0638 133.965C76.6109 133.644 76.6109 132.853 76.0638 132.532L46.557 115.232C44.8715 114.244 42.7835 114.244 41.098 115.232L11.5911 132.532Z" fill="#FBF7EC"/>
<path fill-rule="evenodd" clip-rule="evenodd" d="M45.4884 154.17C44.4607 154.763 43.8276 155.859 43.8276 157.046V162.352L81.8136 140.426V133.202L45.4884 154.17Z" fill="#8A816C"/>
<path d="M5.84131 133.202L42.1665 154.17C43.1942 154.763 43.8273 155.859 43.8273 157.046V162.352L5.84131 140.426V133.202Z" fill="#F8EFDA"/>
</g>
</g>
<path d="M29.7359 121.949L62.688 141.066L55.7638 139.392C45.4486 136.898 36.3371 130.86 30.0203 122.333L29.7359 121.949Z" fill="#231F20"/>
<path d="M36.0245 102.159L53.1294 112.056C53.1294 117.523 49.3003 119.738 44.5769 117.005C39.8535 114.272 36.0245 107.625 36.0245 102.159Z" fill="#231F20"/>
<circle cx="38.0369" cy="52.7746" r="2.51543" fill="#231F20"/>
<circle cx="63.1912" cy="128.237" r="2.51543" fill="#231F20"/>
<circle cx="38.0369" cy="143.33" r="2.51543" fill="#231F20"/>
<circle cx="33.5091" cy="21.0802" r="2.51543" fill="#231F20"/>
<circle cx="2.31767" cy="29.6327" r="2.51543" fill="#231F20"/>
<circle cx="152.74" cy="34.6635" r="2.51543" fill="#231F20"/>
<circle cx="2.31767" cy="68.3703" r="2.51543" fill="#231F20"/>
<circle cx="113.5" cy="39.6944" r="2.51543" fill="#231F20"/>
</g>
<defs>
<clipPath id="clip0_12342_1393">
<rect width="200" height="180" fill="white"/>
</clipPath>
</defs>
</svg>
