<svg width="60" height="60" viewBox="0 0 60 60" fill="none" xmlns="http://www.w3.org/2000/svg">
<g clip-path="url(#clip0_9257_44192)">
<rect x="20.458" y="43" width="4.57778" height="21.3333" fill="url(#paint0_linear_9257_44192)"/>
<rect x="26.6692" y="46.667" width="4.57778" height="17.6667" fill="url(#paint1_linear_9257_44192)"/>
<rect x="32.8804" y="47.3335" width="4.57778" height="17" fill="url(#paint2_linear_9257_44192)"/>
<path d="M24.5999 13.0858C24.5167 13.1336 24.4425 13.1956 24.3808 13.2691L13.2703 26.5004C13.0157 26.8037 13.0153 27.2458 13.2693 27.5496C13.5233 27.8533 13.9586 27.931 14.3021 27.734L18.6331 25.2498C18.7163 25.2021 18.7905 25.1401 18.8522 25.0666L29.9627 11.8352C30.2173 11.532 30.2177 11.0898 29.9637 10.7861C29.7097 10.4824 29.2744 10.4047 28.931 10.6016L24.5999 13.0858Z" fill="black" fill-opacity="0.6" stroke="#231F20" stroke-width="1.63333" stroke-linejoin="round"/>
<path d="M13.4893 26.3173C13.406 26.365 13.3318 26.4271 13.2701 26.5007C13.0466 26.7669 12.9862 27.078 12.9833 27.3165C12.9802 27.5597 13.0341 27.795 13.1116 27.999C13.2595 28.3884 13.5587 28.8277 14.0143 29.0705C14.2624 29.2028 14.561 29.1982 14.8048 29.0583L19.1359 26.5741C19.3936 26.4263 19.5507 26.1502 19.5461 25.8531C19.5415 25.556 19.3759 25.2848 19.1137 25.1451C19.1139 25.1452 19.1139 25.1451 19.1136 25.1449C19.111 25.1432 19.0884 25.1283 19.0559 25.0876C19.0212 25.0441 18.9902 24.9895 18.9695 24.9349C18.9651 24.9233 18.9616 24.9129 18.9588 24.9036C19.0997 24.6189 19.0645 24.2702 18.853 24.0175C18.599 23.7138 18.1637 23.6361 17.8203 23.8331L13.4893 26.3173Z" fill="black" fill-opacity="0.6" stroke="#231F20" stroke-width="1.63333" stroke-linejoin="round"/>
<path d="M13.9924 27.6415C13.7346 27.7893 13.5775 28.0655 13.5821 28.3625C13.5867 28.6596 13.7523 28.9308 14.0145 29.0706L19.1031 31.7834C19.3511 31.9156 19.6498 31.911 19.8936 31.7711L24.2246 29.287C24.4824 29.1391 24.6395 28.863 24.6349 28.5659C24.6303 28.2688 24.4647 27.9977 24.2025 27.8579L19.1139 25.1451C18.8659 25.0128 18.5672 25.0175 18.3234 25.1573L13.9924 27.6415Z" fill="black" fill-opacity="0.6" stroke="#231F20" stroke-width="1.63333" stroke-linejoin="round"/>
<path d="M19.0812 30.3544C18.8235 30.5022 18.6664 30.7784 18.671 31.0754C18.6756 31.3719 18.8405 31.6425 19.1017 31.7826C19.1024 31.7831 19.1133 31.7902 19.1316 31.8087C19.1538 31.8313 19.1791 31.863 19.2027 31.9021C19.2263 31.9411 19.2439 31.9803 19.2552 32.0149C19.2668 32.0503 19.2684 32.0709 19.2685 32.0748C19.277 32.3617 19.4355 32.6231 19.686 32.7633C19.9365 32.9034 20.2422 32.9018 20.4911 32.759L24.8222 30.2748C25.0835 30.1249 25.2411 29.8434 25.2322 29.5422C25.2215 29.1834 25.0948 28.8431 24.9314 28.5728C24.7691 28.3044 24.5248 28.0297 24.2028 27.858C23.9547 27.7257 23.6561 27.7303 23.4123 27.8702L19.0812 30.3544Z" fill="black" fill-opacity="0.6" stroke="#231F20" stroke-width="1.63333" stroke-linejoin="round"/>
<path d="M19.6781 31.3422C19.4168 31.4921 19.2592 31.7736 19.2682 32.0748L19.5302 40.9164C19.5387 41.2033 19.6972 41.4647 19.9476 41.6049C20.1981 41.7451 20.5038 41.7434 20.7528 41.6006L25.0838 39.1165C25.3451 38.9666 25.5027 38.685 25.4938 38.3839L25.2318 29.5422C25.2233 29.2553 25.0648 28.9939 24.8143 28.8537C24.5638 28.7136 24.2582 28.7152 24.0092 28.858L19.6781 31.3422Z" fill="black" fill-opacity="0.6" stroke="#231F20" stroke-width="1.63333" stroke-linejoin="round"/>
<path d="M19.9404 40.1835C19.679 40.3334 19.5214 40.615 19.5304 40.9161C19.541 41.2749 19.6677 41.6153 19.8311 41.8855C19.9934 42.1539 20.2377 42.4286 20.5598 42.6003C20.8078 42.7326 21.1064 42.728 21.3503 42.5881L25.6813 40.1039C25.939 39.9561 26.0962 39.68 26.0915 39.3829C26.087 39.0864 25.922 38.8158 25.6608 38.6757C25.6601 38.6752 25.6492 38.6682 25.631 38.6496C25.6087 38.627 25.5835 38.5953 25.5598 38.5562C25.5363 38.5172 25.5186 38.478 25.5073 38.4434C25.4958 38.408 25.4941 38.3874 25.494 38.3835C25.4855 38.0966 25.327 37.8352 25.0765 37.6951C24.8261 37.5549 24.5204 37.5565 24.2714 37.6993L19.9404 40.1835Z" fill="black" fill-opacity="0.6" stroke="#231F20" stroke-width="1.63333" stroke-linejoin="round"/>
<path d="M20.5378 41.1718C20.28 41.3196 20.1229 41.5957 20.1275 41.8928C20.1321 42.1899 20.2977 42.461 20.5599 42.6008L32.3908 48.9082C32.6389 49.0404 32.9375 49.0358 33.1814 48.8959L37.5124 46.4117C37.7701 46.2639 37.9272 45.9878 37.9226 45.6907C37.918 45.3936 37.7524 45.1225 37.4902 44.9827L25.6593 38.6753C25.4113 38.5431 25.1126 38.5477 24.8688 38.6876L20.5378 41.1718Z" fill="black" fill-opacity="0.6" stroke="#231F20" stroke-width="1.63333" stroke-linejoin="round"/>
<path d="M32.3683 47.4789C32.1106 47.6267 31.9535 47.9029 31.9581 48.1999C31.9627 48.497 32.1283 48.7682 32.3905 48.908C32.6875 49.0663 33.1172 49.1614 33.532 48.9433C33.5408 48.9387 33.5495 48.9339 33.5582 48.9289L37.8892 46.4447C38.2754 46.2232 38.413 45.7332 38.1986 45.3431C38.0299 45.0359 37.6919 44.8797 37.3635 44.9282C37.1448 44.8554 36.903 44.8779 36.6994 44.9947L32.3683 47.4789Z" fill="black" fill-opacity="0.6" stroke="#231F20" stroke-width="1.63333" stroke-linejoin="round"/>
<path d="M32.5232 47.6988C32.3152 47.9496 32.2701 48.3116 32.4361 48.6137C32.6505 49.0038 33.1379 49.1504 33.5319 48.9432C33.552 48.9327 33.5715 48.9217 33.5904 48.9103L37.8799 46.45C38.3629 46.1859 38.4899 45.6774 38.479 45.3064C38.4705 45.0195 38.312 44.7581 38.0615 44.6179C37.811 44.4777 37.5053 44.4793 37.2563 44.6222L32.9253 47.1063C32.7051 47.2327 32.5585 47.4525 32.5232 47.6988Z" fill="#817863" stroke="#231F20" stroke-width="1.63333" stroke-linejoin="round"/>
<path d="M32.5155 47.8388C32.524 48.1257 32.6825 48.3871 32.933 48.5272C33.1835 48.6674 33.4892 48.6658 33.7381 48.523L38.0692 46.0388C38.3305 45.8889 38.4881 45.6073 38.4792 45.3062L38.2172 36.4646C38.2087 36.1777 38.0502 35.9163 37.7997 35.7761C37.5492 35.6359 37.2435 35.6375 36.9945 35.7804L32.6635 38.2645C32.4022 38.4144 32.2446 38.696 32.2535 38.9971L32.5155 47.8388Z" fill="#817863" stroke="#231F20" stroke-width="1.63333" stroke-linejoin="round"/>
<path d="M32.2536 38.9972C32.2621 39.2842 32.4206 39.5455 32.6711 39.6857C32.9216 39.8259 33.2273 39.8243 33.4763 39.6815L37.8073 37.1973C38.0306 37.0692 38.1782 36.8449 38.2108 36.5945C38.4115 36.3385 38.4471 35.9759 38.2732 35.6783C38.0469 35.2911 37.5508 35.1588 37.1617 35.3819L32.8307 37.8661L32.8306 37.866L32.8194 37.8727C32.3616 38.1451 32.2429 38.6351 32.2536 38.9972Z" fill="#817863" stroke="#231F20" stroke-width="1.63333" stroke-linejoin="round"/>
<path d="M32.8194 37.8731C32.434 38.1024 32.3057 38.5997 32.5319 38.9869C32.7092 39.2903 33.0521 39.4372 33.3794 39.3793C33.5954 39.448 33.8328 39.4244 34.0333 39.3094L38.3643 36.8252C38.622 36.6774 38.7791 36.4013 38.7745 36.1042C38.7699 35.8071 38.6044 35.536 38.3422 35.3962C38.0339 35.2318 37.5814 35.1367 37.1577 35.3846L32.8444 37.8587C32.836 37.8634 32.8277 37.8682 32.8194 37.8731Z" fill="black" fill-opacity="0.6" stroke="#231F20" stroke-width="1.63333" stroke-linejoin="round"/>
<path d="M33.2204 37.8925C32.9626 38.0403 32.8055 38.3164 32.8101 38.6135C32.8147 38.9106 32.9803 39.1817 33.2425 39.3215L38.3311 42.0344C38.5792 42.1666 38.8778 42.162 39.1216 42.0221L43.4527 39.538C43.7104 39.3901 43.8675 39.114 43.8629 38.8169C43.8583 38.5198 43.6927 38.2487 43.4305 38.1089L38.3419 35.396C38.0939 35.2638 37.7953 35.2684 37.5514 35.4083L33.2204 37.8925Z" fill="black" fill-opacity="0.6" stroke="#231F20" stroke-width="1.63333" stroke-linejoin="round"/>
<path d="M38.3092 40.6054C38.0515 40.7532 37.8944 41.0293 37.899 41.3264C37.9036 41.6235 38.0692 41.8946 38.3314 42.0344C38.6297 42.1934 39.0515 42.2871 39.4614 42.0769C39.4728 42.0711 39.4841 42.065 39.4952 42.0586L43.8262 39.5744C44.211 39.3537 44.3492 38.8663 44.1377 38.4765C43.9715 38.1702 43.6371 38.0122 43.31 38.0566C43.0899 37.9815 42.8456 38.0034 42.6403 38.1212L38.3092 40.6054Z" fill="black" fill-opacity="0.6" stroke="#231F20" stroke-width="1.63333" stroke-linejoin="round"/>
<path d="M39.5334 42.0362L43.8143 39.5808C44.2262 39.3582 44.3816 38.9481 44.4136 38.6313C44.4472 38.2996 44.3683 37.9607 44.2227 37.6556C44.1248 37.4504 43.9458 37.2954 43.7288 37.2277C43.5118 37.16 43.2765 37.1858 43.0793 37.2989L38.7483 39.7831C38.3778 39.9956 38.2336 40.4578 38.4176 40.8433C38.4218 40.8521 38.4255 40.8604 38.4289 40.8682C38.2487 41.1154 38.2157 41.4536 38.3709 41.7394C38.5824 42.1292 39.0665 42.2789 39.4612 42.0766C39.4861 42.0638 39.5102 42.0503 39.5334 42.0362Z" fill="#89806B" stroke="#231F20" stroke-width="1.63333" stroke-linejoin="round"/>
<path d="M38.4175 40.8432C38.5154 41.0483 38.6944 41.2034 38.9114 41.271C39.1283 41.3387 39.3637 41.3129 39.5609 41.1998L43.8919 38.7157C44.2624 38.5031 44.4066 38.0409 44.2226 37.6554L31.9587 11.9627C31.8608 11.7575 31.6818 11.6025 31.4648 11.5348C31.2478 11.4672 31.0125 11.493 30.8153 11.606L26.4843 14.0902C26.1138 14.3028 25.9696 14.7649 26.1536 15.1504L38.4175 40.8432Z" fill="#89806B" stroke="#231F20" stroke-width="1.63333" stroke-linejoin="round"/>
<path d="M26.1535 15.1506C26.2514 15.3557 26.4303 15.5108 26.6473 15.5785C26.8643 15.6461 27.0996 15.6203 27.2968 15.5072L31.6278 13.0231C31.9984 12.8105 32.1425 12.3484 31.9585 11.9629C31.6903 11.4009 31.2921 10.9311 30.8405 10.6329C30.4211 10.3559 29.7688 10.1205 29.1446 10.4389C29.1327 10.4449 29.1209 10.4513 29.1093 10.458L24.7782 12.9421C24.3938 13.1627 24.2554 13.6496 24.4664 14.0393C24.6642 14.4048 25.1015 14.5597 25.4807 14.4117C25.5059 14.4204 25.548 14.4395 25.6095 14.4801C25.7839 14.5952 25.9969 14.8227 26.1535 15.1506ZM25.4518 14.4051C25.4517 14.4047 25.4549 14.4047 25.4617 14.4062C25.4552 14.4062 25.4519 14.4054 25.4518 14.4051Z" fill="#89806B" stroke="#231F20" stroke-width="1.63333" stroke-linejoin="round"/>
<path d="M29.0496 10.4925L24.792 12.9345C24.6338 13.0188 24.4957 13.1326 24.3809 13.2692C24.1263 13.5724 24.1259 14.0146 24.3799 14.3183C24.6339 14.622 25.0692 14.6998 25.4127 14.5028L29.7437 12.0186C29.8142 11.9781 29.8783 11.9274 29.9337 11.8682C30.3094 11.6446 30.4429 11.1635 30.234 10.7777C30.023 10.3879 29.5396 10.2376 29.1448 10.439C29.1122 10.4556 29.0805 10.4734 29.0496 10.4925Z" fill="black" fill-opacity="0.6" stroke="#231F20" stroke-width="1.63333" stroke-linejoin="round"/>
<path fill-rule="evenodd" clip-rule="evenodd" d="M25.0063 13.7942L13.8958 27.0256L18.2268 24.5414L29.3373 11.3101L25.0063 13.7942Z" fill="black" fill-opacity="0.6"/>
<path fill-rule="evenodd" clip-rule="evenodd" d="M13.8956 27.0257C13.6385 27.3321 13.9302 28.1003 14.3985 28.3499L18.7295 25.8657C18.2613 25.6161 17.9695 24.8479 18.2266 24.5415L13.8956 27.0257Z" fill="black" fill-opacity="0.6"/>
<path fill-rule="evenodd" clip-rule="evenodd" d="M14.3987 28.3499L19.4873 31.0627L23.8183 28.5786L18.7297 25.8657L14.3987 28.3499Z" fill="black" fill-opacity="0.6"/>
<path fill-rule="evenodd" clip-rule="evenodd" d="M19.4875 31.0628C19.8063 31.2327 20.0737 31.675 20.0848 32.0506L24.4159 29.5664C24.4047 29.1908 24.1373 28.7485 23.8186 28.5786L19.4875 31.0628Z" fill="black" fill-opacity="0.6"/>
<path fill-rule="evenodd" clip-rule="evenodd" d="M20.0845 32.0506L20.3465 40.8922L24.6775 38.408L24.4155 29.5664L20.0845 32.0506Z" fill="black" fill-opacity="0.6"/>
<path fill-rule="evenodd" clip-rule="evenodd" d="M20.3467 40.8919C20.3578 41.2675 20.6252 41.7098 20.944 41.8797L25.275 39.3955C24.9563 39.2256 24.6888 38.7833 24.6777 38.4077L20.3467 40.8919Z" fill="black" fill-opacity="0.6"/>
<path fill-rule="evenodd" clip-rule="evenodd" d="M20.9441 41.8802L32.775 48.1875L37.1061 45.7033L25.2751 39.396L20.9441 41.8802Z" fill="black" fill-opacity="0.6"/>
<path fill-rule="evenodd" clip-rule="evenodd" d="M32.7747 48.1873C32.9213 48.2655 33.0532 48.2724 33.1519 48.2205L37.4829 45.7363C37.3842 45.7882 37.2523 45.7813 37.1057 45.7031L32.7747 48.1873Z" fill="black" fill-opacity="0.6"/>
<path fill-rule="evenodd" clip-rule="evenodd" d="M33.1519 48.2204C33.2677 48.1595 33.3376 48.0176 33.3316 47.8147L37.6626 45.3306C37.6687 45.5334 37.5987 45.6753 37.4829 45.7362L33.1519 48.2204Z" fill="#817863"/>
<path fill-rule="evenodd" clip-rule="evenodd" d="M33.3318 47.8146L33.0698 38.9729L37.4009 36.4888L37.6628 45.3304L33.3318 47.8146Z" fill="#817863"/>
<path fill-rule="evenodd" clip-rule="evenodd" d="M33.0699 38.9731C33.0642 38.7777 33.1288 38.6389 33.237 38.5745L37.5681 36.0903C37.4598 36.1547 37.3952 36.2936 37.401 36.4889L33.0699 38.9731Z" fill="#817863"/>
<path fill-rule="evenodd" clip-rule="evenodd" d="M33.2371 38.5749C33.337 38.5155 33.474 38.5194 33.6269 38.601L37.958 36.1168C37.805 36.0353 37.668 36.0313 37.5681 36.0907L33.2371 38.5749Z" fill="black" fill-opacity="0.6"/>
<path fill-rule="evenodd" clip-rule="evenodd" d="M33.6267 38.6009L38.7153 41.3137L43.0463 38.8295L37.9577 36.1167L33.6267 38.6009Z" fill="black" fill-opacity="0.6"/>
<path fill-rule="evenodd" clip-rule="evenodd" d="M38.7156 41.3138C38.8654 41.3936 38.9934 41.3991 39.0889 41.3502L43.4199 38.866C43.3244 38.915 43.1964 38.9095 43.0466 38.8296L38.7156 41.3138Z" fill="black" fill-opacity="0.6"/>
<path fill-rule="evenodd" clip-rule="evenodd" d="M31.2214 12.3148L43.4853 38.0075L43.4857 38.0073C43.6787 38.4118 43.6226 38.7617 43.4197 38.8657L39.1109 41.3371C39.2954 41.2194 39.3404 40.8807 39.1546 40.4915L39.1543 40.4917L26.8904 14.7989L26.8905 14.7988C26.5115 14.0047 25.8354 13.5172 25.3508 13.5966L25.0061 13.7943C25.0586 13.7318 25.1186 13.6842 25.1846 13.6506L25.1849 13.6504C25.1848 13.6505 25.1847 13.6505 25.1847 13.6506L29.4694 11.1929C29.4844 11.1833 29.4997 11.1746 29.5153 11.1666L29.5157 11.1664C29.999 10.9199 30.7968 11.4248 31.2216 12.3147L31.2214 12.3148ZM39.1109 41.3371L39.0886 41.3499C39.0963 41.3459 39.1037 41.3417 39.1109 41.3371Z" fill="url(#paint3_linear_9257_44192)"/>
<path d="M25.0061 13.7944L13.8956 27.0258C13.6385 27.3322 13.9302 28.1004 14.3985 28.35L19.4871 31.0629C19.8058 31.2328 20.0732 31.6751 20.0844 32.0507L20.3464 40.8923C20.3575 41.2679 20.6249 41.7102 20.9436 41.8801L32.7746 48.1874C33.0933 48.3574 33.3427 48.1906 33.3315 47.815L33.0695 38.9734C33.0584 38.5978 33.3078 38.431 33.6265 38.6009L38.7151 41.3137C39.1833 41.5633 39.4382 41.0866 39.1544 40.4918L26.8905 14.799C26.4078 13.7878 25.4434 13.2737 25.0061 13.7944Z" fill="#FFFCF6"/>
<path d="M11.9745 9.19301C12.039 9.0123 12.2946 9.0123 12.3591 9.19301L12.9936 10.9706C13.0141 11.0282 13.0595 11.0736 13.1172 11.0942L14.8948 11.7287C15.0755 11.7932 15.0755 12.0487 14.8948 12.1132L13.1172 12.7477C13.0595 12.7683 13.0141 12.8137 12.9936 12.8714L12.3591 14.6489C12.2946 14.8296 12.039 14.8296 11.9745 14.6489L11.3401 12.8714C11.3195 12.8137 11.2741 12.7683 11.2164 12.7477L9.43886 12.1132C9.25815 12.0487 9.25815 11.7932 9.43886 11.7287L11.2164 11.0942C11.2741 11.0736 11.3195 11.0282 11.3401 10.9706L11.9745 9.19301Z" fill="#231F20"/>
<path d="M43.2118 6.53872C43.2763 6.358 43.5319 6.358 43.5964 6.53872L44.2309 8.31626C44.2515 8.37394 44.2968 8.41933 44.3545 8.43992L46.1321 9.07438C46.3128 9.13888 46.3128 9.39445 46.1321 9.45895L44.3545 10.0934C44.2968 10.114 44.2515 10.1594 44.2309 10.2171L43.5964 11.9946C43.5319 12.1753 43.2763 12.1753 43.2118 11.9946L42.5774 10.2171C42.5568 10.1594 42.5114 10.114 42.4537 10.0934L40.6762 9.45895C40.4955 9.39445 40.4955 9.13888 40.6762 9.07438L42.4537 8.43992C42.5114 8.41933 42.5568 8.37394 42.5774 8.31626L43.2118 6.53872Z" fill="#231F20"/>
<path d="M14.4245 42.8805C14.489 42.6998 14.7445 42.6998 14.809 42.8805L15.4435 44.6581C15.4641 44.7157 15.5095 44.7611 15.5672 44.7817L17.3447 45.4162C17.5254 45.4807 17.5254 45.7362 17.3447 45.8007L15.5672 46.4352C15.5095 46.4558 15.4641 46.5012 15.4435 46.5589L14.809 48.3364C14.7445 48.5171 14.489 48.5171 14.4245 48.3364L13.79 46.5589C13.7694 46.5012 13.724 46.4558 13.6664 46.4352L11.8888 45.8007C11.7081 45.7362 11.7081 45.4807 11.8888 45.4162L13.6664 44.7817C13.724 44.7611 13.7694 44.7157 13.79 44.6581L14.4245 42.8805Z" fill="#231F20"/>
<path d="M47.7037 26.1388C47.7682 25.9581 48.0238 25.9581 48.0883 26.1388L48.2931 26.7127C48.3137 26.7703 48.3591 26.8157 48.4168 26.8363L48.9906 27.0411C49.1714 27.1056 49.1714 27.3612 48.9906 27.4257L48.4168 27.6305C48.3591 27.6511 48.3137 27.6965 48.2931 27.7542L48.0883 28.328C48.0238 28.5088 47.7682 28.5088 47.7037 28.328L47.4989 27.7542C47.4783 27.6965 47.4329 27.6511 47.3753 27.6305L46.8014 27.4257C46.6207 27.3612 46.6207 27.1056 46.8014 27.0411L47.3753 26.8363C47.4329 26.8157 47.4783 26.7703 47.4989 26.7127L47.7037 26.1388Z" fill="#231F20"/>
<path d="M6.46188 30.6305C6.52638 30.4498 6.78195 30.4498 6.84645 30.6305L7.3198 31.9567C7.34039 32.0144 7.38578 32.0597 7.44345 32.0803L8.76962 32.5537C8.95033 32.6182 8.95033 32.8737 8.76962 32.9382L7.44345 33.4116C7.38578 33.4322 7.34039 33.4776 7.3198 33.5353L6.84645 34.8614C6.78195 35.0421 6.52638 35.0421 6.46188 34.8614L5.98853 33.5353C5.96794 33.4776 5.92255 33.4322 5.86488 33.4116L4.53872 32.9382C4.358 32.8737 4.358 32.6182 4.53872 32.5537L5.86488 32.0803C5.92255 32.0597 5.96794 32.0144 5.98853 31.9567L6.46188 30.6305Z" fill="#231F20"/>
<path d="M48.112 42.8805C48.1765 42.6998 48.4321 42.6998 48.4966 42.8805L48.9699 44.2067C48.9905 44.2644 49.0359 44.3097 49.0936 44.3303L50.4198 44.8037C50.6005 44.8682 50.6005 45.1237 50.4198 45.1882L49.0936 45.6616C49.0359 45.6822 48.9905 45.7276 48.9699 45.7853L48.4966 47.1114C48.4321 47.2921 48.1765 47.2921 48.112 47.1114L47.6387 45.7853C47.6181 45.7276 47.5727 45.6822 47.515 45.6616L46.1889 45.1882C46.0082 45.1237 46.0082 44.8682 46.1889 44.8037L47.515 44.3303C47.5727 44.3097 47.6181 44.2644 47.6387 44.2067L48.112 42.8805Z" fill="#231F20"/>
</g>
<defs>
<linearGradient id="paint0_linear_9257_44192" x1="22.7469" y1="43" x2="22.7469" y2="64.3333" gradientUnits="userSpaceOnUse">
<stop stop-color="#999489"/>
<stop offset="0.659203" stop-color="#FFF7E5" stop-opacity="0"/>
</linearGradient>
<linearGradient id="paint1_linear_9257_44192" x1="28.9581" y1="46.667" x2="28.9581" y2="64.3337" gradientUnits="userSpaceOnUse">
<stop stop-color="#999489"/>
<stop offset="0.6" stop-color="#FFF7E5" stop-opacity="0"/>
</linearGradient>
<linearGradient id="paint2_linear_9257_44192" x1="35.1693" y1="47.3335" x2="35.1693" y2="61" gradientUnits="userSpaceOnUse">
<stop stop-color="#999489"/>
<stop offset="0.801138" stop-color="#FFF7E5" stop-opacity="0"/>
</linearGradient>
<linearGradient id="paint3_linear_9257_44192" x1="27.7351" y1="12.5332" x2="40.6245" y2="38.5618" gradientUnits="userSpaceOnUse">
<stop stop-color="white"/>
<stop offset="0.21" stop-color="#89846B"/>
</linearGradient>
<clipPath id="clip0_9257_44192">
<rect width="60" height="60" fill="white"/>
</clipPath>
</defs>
</svg>
