<svg xmlns="http://www.w3.org/2000/svg" width="200" height="180" fill="none"><g opacity=".2"><path fill="#27251F" fill-rule="evenodd" d="M146.04 75.377c-5.914 3.835-14.73 3.238-19.692-1.331-4.962-4.57-4.191-11.383 1.723-15.218 5.914-3.835 14.73-3.239 19.692 1.331s4.191 11.383-1.723 15.218" clip-rule="evenodd"/><path stroke="#000" stroke-linejoin="round" stroke-width="24.518" d="M158.421 47.666c17.431 14.667 15.88 30.536 1.096 40.123-12.74 8.26-30.868 8.296-43.575.838l-59.157 38.36 5.823 5.363-4.957 3.214 5.823 5.363-10.905 7.072-5.823-5.363-5.824-5.363-6.94 4.5M146.04 75.377c-5.914 3.835-14.73 3.238-19.692-1.331-4.962-4.57-4.191-11.383 1.723-15.218 5.914-3.835 14.73-3.239 19.692 1.331s4.191 11.383-1.723 15.218Z"/></g><path fill="#6580E1" fill-opacity=".6" stroke="#231F20" stroke-linejoin="round" stroke-width="4.854" d="M108.387 71.335a2.427 2.427 0 0 0-3.748-2.036l-81.96 53.146a2.426 2.426 0 0 0-1.106 2.036v8.099a2.428 2.428 0 0 0 3.748 2.037L107.28 81.47a2.428 2.428 0 0 0 1.107-2.036z"/><path fill="#27251F" stroke="#231F20" stroke-linejoin="round" stroke-width="4.854" d="m102.671 78.674-79.992 51.87a2.428 2.428 0 0 0-.323 3.822l9.983 9.194a2.426 2.426 0 0 0 2.964.251l5.36-3.476 4.439 4.088 5.823 5.363a2.427 2.427 0 0 0 2.965.251l10.905-7.071a2.43 2.43 0 0 0 .324-3.822l-3.522-3.244 2.332-1.512a2.427 2.427 0 0 0 .324-3.822l-3.522-3.243 55.303-35.861c13.379 7.156 31.704 6.859 44.803-1.635 7.908-5.128 12.568-12.386 13.441-20.096.875-7.73-2.096-15.587-8.81-21.77-13.271-12.222-36.539-13.73-52.194-3.58-6.812 4.418-11.216 10.414-12.864 16.936-1.463 5.789-.717 11.854 2.261 17.357Zm42.049-5.332c-5.043 3.27-12.631 2.692-16.727-1.08-1.97-1.814-2.666-3.917-2.45-5.826.218-1.928 1.407-3.987 3.849-5.57 5.043-3.27 12.63-2.692 16.727 1.08 1.97 1.815 2.665 3.918 2.449 5.826-.218 1.929-1.407 3.987-3.848 5.57Z"/><path fill="#6580E1" fill-opacity=".6" fill-rule="evenodd" d="m63.474 132.829-5.824-5.363v8.099l5.824 5.363z" clip-rule="evenodd"/><path fill="#6580E1" fill-opacity=".6" stroke="#231F20" stroke-linejoin="round" stroke-width="4.854" d="M174.415 59.742c.228-7.12-2.787-14.207-8.947-19.88-13.271-12.222-36.54-13.731-52.195-3.58-8.724 5.657-13.492 13.911-13.588 22.474v8.127a2.428 2.428 0 0 0 4.854.027c.075-6.69 3.794-13.54 11.376-18.456 13.913-9.022 34.725-7.55 46.264 3.077 4.836 4.454 7.195 9.72 7.381 14.893V67.8a2.427 2.427 0 0 0 4.853.082 23.51 23.51 0 0 0 .002-1.548z"/><path fill="#666051" fill-rule="evenodd" d="M102.113 58.783c-.048 4.29 1.219 8.604 3.846 12.552v8.099c-2.627-3.948-3.894-8.262-3.846-12.552z" clip-rule="evenodd"/><path fill="#D5C7A9" fill-rule="evenodd" d="m24 124.481 9.983 9.194 6.94-4.5 5.823 5.363 5.823 5.363 10.906-7.071v8.099L52.569 148l-5.823-5.363-5.823-5.363-6.94 4.5L24 132.58z" clip-rule="evenodd"/><path fill="#666051" fill-rule="evenodd" d="m52.57 139.901 10.905-7.072v8.099L52.569 148z" clip-rule="evenodd"/><path fill="#C1B8A3" fill-rule="evenodd" d="m40.923 129.175 5.823 5.363 5.823 5.363V148l-5.823-5.363-5.823-5.363z" clip-rule="evenodd"/><path fill="#8A816C" fill-rule="evenodd" d="m33.982 133.675 6.94-4.5v8.099l-6.94 4.5z" clip-rule="evenodd"/><path fill="#6580E1" fill-opacity=".6" fill-rule="evenodd" d="m57.65 127.465 4.958-3.214v8.099l-4.958 3.214z" clip-rule="evenodd"/><path fill="#666051" fill-rule="evenodd" d="m62.608 124.252-5.823-5.363v8.099l5.823 5.363z" clip-rule="evenodd"/><path fill="#8A816C" fill-rule="evenodd" d="m56.785 118.889 59.157-38.36c12.708 7.458 30.835 7.422 43.575-.838 7.983-5.177 12.218-12.525 12.471-19.989v8.1c-.253 7.463-4.488 14.81-12.471 19.988-12.74 8.26-30.867 8.296-43.575.838l-59.157 38.36z" clip-rule="evenodd"/><path fill="#382F1A" fill-rule="evenodd" d="M123.077 59.057c-.017-3.099 1.682-6.18 4.993-8.327 5.914-3.835 14.73-3.239 19.692 1.33 2.184 2.012 3.257 4.457 3.271 6.891v8.1c-.014-2.435-1.087-4.88-3.271-6.891-4.962-4.57-13.778-5.166-19.692-1.331-3.311 2.147-5.01 5.228-4.993 8.327z" clip-rule="evenodd"/><path fill="#6580E1" fill-opacity=".6" fill-rule="evenodd" d="M151.033 58.952c.017 3.099-1.682 6.18-4.994 8.328-5.913 3.834-14.729 3.238-19.691-1.332-2.184-2.01-3.257-4.456-3.271-6.89v8.099c.014 2.434 1.087 4.88 3.271 6.89 4.962 4.57 13.778 5.166 19.691 1.331 3.312-2.147 5.011-5.228 4.994-8.327z" clip-rule="evenodd"/><path fill="#FFFCF6" fill-rule="evenodd" d="M159.517 79.69c14.784-9.586 16.712-26.619 4.307-38.043-12.405-11.425-34.446-12.915-49.23-3.329-12.739 8.261-15.932 22.051-8.635 33.017L24 124.481l9.983 9.194 6.94-4.5 5.823 5.363 5.823 5.363 10.906-7.072-5.824-5.363 4.958-3.214-5.824-5.363 59.157-38.36c12.708 7.458 30.836 7.422 43.575-.838M146.04 67.28c-5.914 3.835-14.73 3.239-19.692-1.331s-4.191-11.383 1.723-15.218c5.914-3.835 14.73-3.238 19.692 1.331 4.962 4.57 4.191 11.383-1.723 15.218" clip-rule="evenodd"/><mask id="a" width="148" height="108" x="24" y="32" maskUnits="userSpaceOnUse" style="mask-type:alpha"><path fill="#FFFCF6" fill-rule="evenodd" d="M159.517 79.69c14.784-9.586 16.712-26.619 4.307-38.043-12.405-11.425-34.446-12.915-49.23-3.329-12.739 8.261-15.932 22.051-8.635 33.017L24 124.481l9.983 9.194 6.94-4.5 5.823 5.363 5.823 5.363 10.906-7.072-5.824-5.363 4.958-3.214-5.824-5.363 59.157-38.36c12.708 7.458 30.836 7.422 43.575-.838M146.04 67.28c-5.914 3.835-14.73 3.238-19.692-1.331-4.962-4.57-4.191-11.383 1.723-15.218 5.914-3.835 14.73-3.238 19.692 1.331 4.962 4.57 4.191 11.383-1.723 15.218" clip-rule="evenodd"/></mask><g mask="url(#a)"><path fill="#C1B8A3" d="M24 134.11 113.63 76l2.853 4.35-89.63 58.11z"/></g></svg>