<svg xmlns="http://www.w3.org/2000/svg" xml:space="preserve" viewBox="0 0 2500 639"><path d="M758.1 586.4V52.6h174.6c57.9 0 101.5 12 130.7 36 29.2 23.9 43.8 59.4 43.8 106.5 0 24.9-7 47.1-21.3 66.2-14.1 19.3-33.4 34.2-57.9 44.7 28.9 8 51.7 23.4 68.5 45.9 16.8 22.7 25 49.6 25 80.7 0 47.9-15.5 85.5-46.6 112.8-31 27.4-74.8 41-131.5 41zm70.5-248.5v190.7h116.1c32.8 0 58.7-8.4 77.6-25.3 18.9-16.9 28.4-40.2 28.4-69.7 0-63.8-34.9-95.7-104.9-95.7zm0-57.8h106.2c30.8 0 55.4-7.8 74-23.2 18.4-15.4 27.7-36.2 27.7-62.6 0-29.4-8.6-50.7-25.7-64-17.1-13.4-43.2-20-78.1-20H828.6zm691.6 166.7h-223.8l-50.2 139.7h-72.6l203.9-533.9h61.6l204.2 533.9h-72.2zM1317.8 389h181.6l-91-249.5zm554.7-40.5c-60.3-17.4-104.2-38.8-131.8-64.1-27.5-25.3-41.3-56.6-41.3-93.7 0-42 16.9-76.8 50.4-104.4 33.7-27.5 77.3-41.3 131-41.3 36.7 0 69.5 7.1 98.1 21.3 28.8 14.1 50.9 33.7 66.7 58.7 15.8 24.9 23.7 52.2 23.7 81.7h-70.7c0-32.3-10.3-57.7-30.8-76.2-20.5-18.4-49.6-27.7-87-27.7-34.7 0-61.7 7.6-81.1 22.9-19.5 15.4-29.2 36.5-29.2 63.7 0 21.8 9.1 40.3 27.7 55.3 18.4 15 49.8 28.8 94.2 41.3 44.3 12.5 79.1 26.3 104.1 41.3 25 15 43.6 32.5 55.7 52.7 12.1 20 18.1 43.7 18.1 70.8 0 43.3-16.9 78-50.6 104-33.8 26-78.8 39-135.3 39-36.7 0-71-7-102.7-21-31.7-14.1-56.2-33.4-73.5-57.8-17.3-24.4-25.8-52.2-25.8-83.2h70.7c0 32.2 11.9 57.6 35.8 76.2 23.8 18.6 55.6 28 95.5 28 37.2 0 65.6-7.6 85.4-22.8 19.9-15.1 29.8-35.8 29.8-61.8 0-26.2-9.3-46.4-27.5-60.7-18.1-14.1-51.4-28.3-99.6-42.2m590.1-8.4h-231.3v188.5H2500v57.8h-339.1V52.6h335.5v57.8h-265.1v171.9h231.3zM318.3 639c176.4 0 319.5-143 319.5-319.5C637.8 143.1 494.8 0 318.3 0 151 0 13.6 128.8 0 292.6h422.2v53.7H0C13.6 510.2 151 639 318.3 639"/></svg>