<svg xmlns="http://www.w3.org/2000/svg" xml:space="preserve" width="719.2" height="240.6" version="1.0"><path d="M615.2 225.5v15.1h104v-68.3H704v53.2zm0-225.5v15.1H704v53.2h15.1V0Zm-53.6 117.2V82h23.8c11.6 0 15.7 3.9 15.7 14.4v6.2c0 10.8-4 14.5-15.7 14.5zm37.7 6.2c10.8-2.8 18.4-12.9 18.4-25 0-7.5-3.1-14.8-8.6-19.9-7.1-6.8-16.6-10.2-29-10.2h-33.4v104h14.9v-41.5h22.3c11.4 0 16 4.8 16 16.6v24.8h15.2v-22.4c0-16.3-3.9-22.6-15.7-24.4zm-125.1 3.5H520v-13.7h-45.8V82h50.2V68.3h-65.3v104h67.6v-13.7h-52.5zm-49.7 5.4v7.1c0 15-5.5 19.9-19.3 19.9h-3.3c-13.8 0-20.5-4.5-20.5-25.1v-27.9c0-20.8 7-25.1 20.8-25.1h3c13.5 0 17.8 5 18 19h16.3c-1.5-20.5-15.1-33.4-35.6-33.4-10 0-18.3 3.1-24.5 9.1-9.4 8.8-14.5 23.6-14.5 44.4 0 20 4.5 34.9 13.7 44.1 6.3 6 14.6 9.4 23.3 9.4 8.9 0 17.1-3.6 21.2-11.3h2.1v9.9h13.7v-53.6h-40.3v13.6h25.9zM293.5 82h16.2c15.3 0 23.6 3.9 23.6 24.6v27.3c0 20.8-8.3 24.7-23.6 24.7h-16.2zm17.5 90.3c28.4 0 38.9-21.5 38.9-52 0-30.9-11.3-52-39.2-52h-32.1v104zm-104.1-45.4h45.8v-13.7h-45.8V82h50.2V68.3h-65.4v104h67.6v-13.7h-52.4Zm-87.7-58.6H104v104h68.3v-13.7h-53.1ZM0 172.3v68.3h104v-15.2H15.1v-53.2H0ZM0 0v68.3h15.1V15.1h88.8V0Z"/><path d="M-26.1-30.7h771.3v302.1H-26.1Z" style="fill:none"/><path d="M615.2 225.5v15.1h104v-68.3H704v53.2zm0-225.5v15.1H704v53.2h15.1V0Zm-53.6 117.2V82h23.8c11.6 0 15.7 3.9 15.7 14.4v6.2c0 10.8-4 14.5-15.7 14.5zm37.7 6.2c10.8-2.8 18.4-12.9 18.4-25 0-7.5-3.1-14.8-8.6-19.9-7.1-6.8-16.6-10.2-29-10.2h-33.4v104h14.9v-41.5h22.3c11.4 0 16 4.8 16 16.6v24.8h15.2v-22.4c0-16.3-3.9-22.6-15.7-24.4zm-125.1 3.5H520v-13.7h-45.8V82h50.2V68.3h-65.3v104h67.6v-13.7h-52.5zm-49.7 5.4v7.1c0 15-5.5 19.9-19.3 19.9h-3.3c-13.8 0-20.5-4.5-20.5-25.1v-27.9c0-20.8 7-25.1 20.8-25.1h3c13.5 0 17.8 5 18 19h16.3c-1.5-20.5-15.1-33.4-35.6-33.4-10 0-18.3 3.1-24.5 9.1-9.4 8.8-14.5 23.6-14.5 44.4 0 20 4.5 34.9 13.7 44.1 6.3 6 14.6 9.4 23.3 9.4 8.9 0 17.1-3.6 21.2-11.3h2.1v9.9h13.7v-53.6h-40.3v13.6h25.9zM293.5 82h16.2c15.3 0 23.6 3.9 23.6 24.6v27.3c0 20.8-8.3 24.7-23.6 24.7h-16.2zm17.5 90.3c28.4 0 38.9-21.5 38.9-52 0-30.9-11.3-52-39.2-52h-32.1v104zm-104.1-45.4h45.8v-13.7h-45.8V82h50.2V68.3h-65.4v104h67.6v-13.7h-52.4Zm-87.7-58.6H104v104h68.3v-13.7h-53.1ZM0 172.3v68.3h104v-15.2H15.1v-53.2H0ZM0 0v68.3h15.1V15.1h88.8V0Z"/><path d="M-26.1-30.7h771.3v302.1H-26.1Z" style="fill:none"/></svg>