<svg xmlns="http://www.w3.org/2000/svg" width="151" height="20" fill="none"><g fill="#231F20" clip-path="url(#a)"><path d="M86.444 11.235C85.41 9.33 84.821 7.97 84.04 6.067h-.11c.168 2.04.25 3.401.25 5.44v8.022h-3.635V.492H84.6l3.804 7.234a71.023 71.023 0 0 1 2.489 5.14 71.999 71.999 0 0 1 2.488-5.14L97.185.492h4.056V19.53h-3.635v-8.023c0-2.04.083-3.4.251-5.438h-.11c-.783 1.903-1.372 3.263-2.406 5.167l-4.448 8.296-4.449-8.296zM118.944 15.45c-.81 2.447-3.187 4.487-6.964 4.487-4.642 0-7.553-3.264-7.553-7.48 0-4.215 2.991-7.478 7.468-7.478 3.691 0 5.93 1.903 6.853 4.731.335 1.033.476 2.232.476 3.428v.543h-11.189c.111 1.769 1.426 3.673 3.943 3.673 1.902 0 2.881-1.033 3.215-1.904h3.749zm-10.907-4.352h7.581c-.083-1.904-1.399-3.536-3.721-3.536s-3.636 1.632-3.86 3.536M133.716 16.81v2.72h-12.867v-2.72l8.139-8.702h-7.86v-2.72h12.306v2.72l-8.139 8.702h8.419zM143.058 19.937c-4.614 0-7.608-3.264-7.608-7.48 0-4.215 2.994-7.478 7.608-7.478 4.615 0 7.609 3.263 7.609 7.479 0 4.215-2.992 7.48-7.609 7.48m0-2.718c2.937 0 4.139-2.447 4.139-4.759 0-2.312-1.202-4.759-4.139-4.759-2.936 0-4.139 2.45-4.139 4.76 0 2.309 1.203 4.758 4.139 4.758M24.779 10.04l-7.258 7.058C11.242 23.203 0 18.932 0 10.04l18.585-.039c0-8.89 11.055-13.344 17.521-7.057l7.258 7.057c0-8.89 11.055-13.344 17.52-7.057l7.259 7.057h6.195c0 8.891-11.055 13.345-17.52 7.058l-7.258-7.058c0 8.891-11.055 13.345-17.521 7.058l-7.258-7.058"/></g><defs><clipPath id="a"><path fill="#fff" d="M0 0h150.667v20H0z"/></clipPath></defs></svg>