<svg xmlns="http://www.w3.org/2000/svg" width="264" height="36" fill="none"><g clip-path="url(#a)"><path fill="#000" d="M151.46 20.194c-1.812-3.43-2.843-5.88-4.214-9.309h-.194c.295 3.676.441 6.126.441 9.798v14.452h-6.369V.84h7.105l6.664 13.033c1.811 3.525 2.891 5.83 4.359 9.26a131.141 131.141 0 0 1 4.359-9.26L170.275.84h7.104V35.14h-6.369V20.687c0-3.676.146-6.126.441-9.798h-.194c-1.371 3.43-2.402 5.88-4.213 9.309l-7.792 14.945-7.792-14.945zM208.389 27.787c-1.419 4.408-5.584 8.084-12.199 8.084-8.132 0-13.231-5.88-13.231-13.474S188.2 8.924 196.04 8.924c6.466 0 10.388 3.429 12.006 8.524.586 1.86.833 4.02.833 6.174v.979h-19.6c.194 3.186 2.499 6.615 6.907 6.615 3.332 0 5.046-1.86 5.632-3.429h6.567zm-19.106-7.84h13.28c-.146-3.43-2.451-6.369-6.519-6.369s-6.368 2.94-6.761 6.369M234.264 30.238v4.9h-22.539v-4.9l14.258-15.677h-13.768v-4.9h21.556v4.9l-14.258 15.677h14.747zM250.629 35.87c-8.084 0-13.328-5.879-13.328-13.473 0-7.594 5.244-13.473 13.328-13.473 8.083 0 13.327 5.88 13.327 13.473 0 7.594-5.24 13.474-13.327 13.474m0-4.896c5.143 0 7.25-4.408 7.25-8.573s-2.107-8.572-7.25-8.572c-5.144 0-7.251 4.412-7.251 8.572 0 4.161 2.107 8.573 7.251 8.573"/><path fill="#FF004D" d="m30.75 30.764 12.738-12.738v-.056l12.677 12.737C59.828 34.37 64.308 36 68.728 36c9.248 0 18.144-7.21 18.144-18.03l12.676 12.737C103.212 34.37 107.692 36 112.112 36c9.247 0 18.143-7.21 18.143-18.03h-10.877L106.701 5.293C103.038 1.63 98.501 0 94.081 0c-9.247 0-18.087 7.153-18.087 17.97L63.318 5.293C59.654 1.63 55.118 0 50.698 0 41.45 0 32.61 7.153 32.61 17.97l-32.567.056c0 10.878 9.013 17.913 18.26 17.913 4.42 0 8.9-1.63 12.447-5.175"/></g><defs><clipPath id="a"><path fill="#fff" d="M.044 0h263.912v36H.044z"/></clipPath></defs></svg>