<svg xmlns="http://www.w3.org/2000/svg" width="95" height="24" fill="none"><path fill="#231F20" d="M94.163 9.054h-3.568a4.44 4.44 0 0 0-.563-1.555 4.18 4.18 0 0 0-1.02-1.164 4.253 4.253 0 0 0-1.394-.715 5.434 5.434 0 0 0-1.67-.248c-1.061 0-2.003.267-2.823.801-.82.528-1.463 1.304-1.927 2.328-.465 1.018-.697 2.261-.697 3.73 0 1.495.232 2.754.697 3.778.47 1.018 1.113 1.788 1.927 2.309.82.515 1.758.773 2.814.773.585 0 1.132-.076 1.641-.23a4.492 4.492 0 0 0 1.383-.696 4.25 4.25 0 0 0 1.631-2.652l3.569.02a7.68 7.68 0 0 1-.868 2.613 7.704 7.704 0 0 1-1.727 2.156 7.962 7.962 0 0 1-2.5 1.45c-.954.344-2.013.516-3.177.516-1.717 0-3.25-.398-4.598-1.193-1.348-.795-2.41-1.943-3.186-3.444-.776-1.5-1.164-3.3-1.164-5.4 0-2.105.39-3.905 1.173-5.4.782-1.5 1.848-2.649 3.196-3.444 1.349-.795 2.875-1.192 4.58-1.192a9.72 9.72 0 0 1 3.033.458 7.771 7.771 0 0 1 2.5 1.345 7.159 7.159 0 0 1 1.803 2.156c.477.846.789 1.813.935 2.9M59.712 5.43V2.461H75.3V5.43h-6.04v16.572h-3.51V5.429zM42.913 22V2.463h7.48c1.412 0 2.585.223 3.52.668.941.439 1.644 1.04 2.109 1.803.47.763.706 1.628.706 2.595 0 .795-.153 1.476-.459 2.042a3.852 3.852 0 0 1-1.23 1.364 5.21 5.21 0 0 1-1.727.754v.19a4.233 4.233 0 0 1 1.994.64c.642.381 1.167.922 1.574 1.622.407.7.61 1.545.61 2.537 0 1.012-.244 1.921-.734 2.729-.49.801-1.227 1.434-2.213 1.898-.986.465-2.226.697-3.721.697zm3.54-2.957h3.806c1.285 0 2.21-.245 2.776-.734.573-.496.859-1.132.859-1.908a2.922 2.922 0 0 0-1.65-2.672c-.528-.273-1.158-.41-1.89-.41h-3.901zm0-8.271h3.5c.611 0 1.162-.111 1.651-.334.49-.23.875-.55 1.155-.964.286-.42.429-.916.429-1.488 0-.757-.267-1.38-.801-1.87-.528-.49-1.314-.734-2.357-.734h-3.578zM39.557 7.347v2.671h-8.425V7.347zm-6.345-3.51h3.454v13.756c0 .465.07.82.21 1.069.146.242.337.407.572.496.236.09.496.134.782.134.217 0 .414-.016.592-.048.184-.032.324-.06.42-.086l.582 2.7a7.704 7.704 0 0 1-.792.21c-.337.076-.75.12-1.24.133-.865.026-1.645-.105-2.338-.39a3.635 3.635 0 0 1-1.65-1.355c-.4-.611-.598-1.374-.592-2.29z"/><path fill="#231F20" fill-rule="evenodd" d="M24.417 12c0 6.627-5.372 12-12 12-6.627 0-12-5.373-12-12s5.373-12 12-12c6.628 0 12 5.373 12 12m-4.576-2.582c-.141-1.478-1.417-1.974-3.028-2.115v-.947h-1.247v.893c-.328 0-.663.006-.996.012v-.906h-1.247v.947c-.27.005-1.93.003-1.93.003l-.003 1.1 1.041.006v7.208h-1.04l-.01 1.084c.303 0 1.647.006 1.939.008v.934h1.247v-.912c.341.007.673.01.996.01v.902h1.248v-.93c2.098-.12 3.567-.647 3.749-2.617.148-1.586-.598-2.293-1.788-2.58.723-.37 1.175-1.019 1.07-2.1zm-1.748 4.433c0 1.422-2.233 1.39-3.255 1.375l-.244-.002v-2.747c.085 0 .187-.003.303-.005 1.047-.025 3.195-.076 3.195 1.379zm-.578-3.876c0 1.292-1.86 1.26-2.713 1.247l-.206-.003V8.728c.072 0 .159-.003.258-.005.874-.023 2.661-.07 2.66 1.252m-11.106-.99h2.01v2.01h-2.01zm2.01 2.01h2.01v2.01h-2.01zm-2.01 0h-2.01v2.01h2.01zm0 2.009h2.01v2.01h-2.01z" clip-rule="evenodd"/></svg>