<svg xmlns="http://www.w3.org/2000/svg" width="101" height="24" fill="none"><path fill="#231F20" d="M97.06 4.073h3.357v2.52h-3.358l1.778 2.91-2.173 1.164-1.58-2.91-1.58 2.91-2.173-1.164 1.778-2.91H89.75v-2.52h3.358l-1.778-2.91L93.306 0l1.58 2.91L96.664 0l2.173 1.164zM83.049 24c-4.182 0-7.368-2.192-7.966-5.778h4.381c.598 1.395 2.39 1.992 3.585 1.992 1.792 0 2.987-.597 2.987-1.394 0-.996-.598-1.395-3.585-1.793-2.987-.399-6.97-1.196-6.97-4.981 0-2.59 2.39-5.38 7.17-5.38 3.783 0 6.57 1.993 7.168 5.18h-4.38c-.2-.796-1.196-1.394-2.789-1.394-1.991 0-2.788.797-2.788 1.395 0 .797 1.195 1.195 3.386 1.394 4.182.598 7.168 1.594 7.168 5.18C90.417 21.61 87.43 24 83.05 24M74.418 7.333H69.75v16h4.667zM61.37 24c-4 0-7.048-2.192-7.62-5.778h4.191c.572 1.395 2.286 1.992 3.429 1.992 1.714 0 2.857-.597 2.857-1.394 0-.996-.572-1.395-3.429-1.793-2.857-.399-6.666-1.196-6.666-4.981 0-2.59 2.285-5.38 6.857-5.38 3.619 0 6.286 1.993 6.857 5.18h-4.19c-.191-.796-1.143-1.394-2.667-1.394-1.905 0-2.667.797-2.667 1.395 0 .797 1.143 1.195 3.238 1.394 4 .598 6.857 1.395 6.857 5.18C68.417 21.61 65.56 24 61.37 24M44.172 23.95c-4.753-.393-8.12-4.516-7.723-9.227.396-4.711 4.555-8.245 9.11-8.048 3.96.392 7.129 3.14 7.525 7.46l-12.08 3.925c.792 1.178 1.98 1.963 3.366 1.963 1.98.197 3.565-.981 3.763-1.963h4.555c0 1.767-2.575 6.478-8.516 5.89m4.159-11.779c-.792-.981-1.782-1.57-3.169-1.767-2.376-.196-4.554 1.57-4.95 4.319zM35.084 23.333h-4.106v-9.449c0-.964-.392-3.085-3.13-3.085-1.955 0-3.128 1.157-3.128 3.085v9.45h-4.302V0h4.302v8.1c.978-.772 2.347-1.158 3.715-1.158 3.912 0 6.65 2.893 6.65 7.135zM14.762 15.502v1.545c0 1.545-.983 2.897-2.948 2.897-2.161 0-2.947-1.545-2.947-2.897v-5.795h10.021V7.39H8.867V3.334H4.544V7.39H.418v3.862h4.126v5.602c0 4.056 2.751 7.146 7.27 7.146 4.323 0 7.27-3.09 7.27-7.146v-1.352z"/></svg>