<svg xmlns="http://www.w3.org/2000/svg" xml:space="preserve" viewBox="0 0 2500 214"><path d="M2391 166h-40V49h40c42 0 61 4 61 59 0 51-19 58-61 58m6 44c71 0 103-22 103-102 0-86-35-103-103-103h-91v205zm-128-45h-116V5h-45v205h161zm-306 6c-43 0-60-9-60-63 0-56 17-63 60-63s60 8 60 63c0 54-17 63-60 63m0 44c74 0 108-24 108-107 0-86-38-107-108-107s-108 21-108 107c0 83 34 107 108 107m-144-4V6h-45v80h-103V6h-45v205h45v-80h103v80zm-329 4c75 0 96-24 96-65 0-38-20-51-60-59l-56-11c-18-4-25-9-25-19s8-19 46-19c31 0 45 6 47 33h47c-2-55-31-74-94-74-70 0-93 26-93 61 0 34 17 52 53 59l60 12c16 3 28 5 28 19s-9 22-48 22c-32 0-47-8-48-35h-50c1 56 30 76 98 76zm-131-50h-137v-35h133V85h-133V50h135V5h-180v205h182zm-459 45V5h-45v80H752V5h-45v205h45v-80h103v80zM674 5H491v45h69v160h45V50h69zm321 89V51h68c17 0 27 10 27 22s-10 21-27 21zm0 45h58l38 71h52l-43-79c24-12 35-35 35-59 0-35-25-67-73-67H949v205h45v-71zM308 4H205v34h103zM137 38h-34v34h34zm-34 171h34V106h-34zm68-171v34h34V38zm0 171h34V106h-34zm0-205h-34v34h34zM0 4v34h103V4zm308 103V73H205v34zM137 73v34h34V73zM0 73v34h103V73z"/></svg>