<svg xmlns="http://www.w3.org/2000/svg" width="1527" height="268" fill="none"><path fill="#000" d="m495.386 82.27-34.908 98.198a2.258 2.258 0 0 1-2.316 1.521h-2.645a2.44 2.44 0 0 1-2.359-1.521l-26.17-68.87-26.126 68.87a2.347 2.347 0 0 1-2.316 1.521h-2.688c-.5.028-.995-.105-1.412-.379a2.315 2.315 0 0 1-.904-1.142l-34.908-98.164c-.536-1.522.043-2.468 1.53-2.468h10.803a2.257 2.257 0 0 1 1.449.349c.429.276.75.69.91 1.173l24.882 74.347 25.297-68.087a2.402 2.402 0 0 1 2.36-1.522h2.273c.498-.025.992.109 1.409.383.417.273.734.672.907 1.139l26.049 68.087 24.303-74.347a2.254 2.254 0 0 1 2.359-1.522h10.639c1.53 0 2.109.946 1.573 2.434m151.933 47.821a51.055 51.055 0 0 1-8.919 28.335 51.458 51.458 0 0 1-23.218 18.658 51.763 51.763 0 0 1-29.72 2.716 51.59 51.59 0 0 1-26.246-14.137 51.156 51.156 0 0 1-13.96-26.243 51 51 0 0 1 3.014-29.541 51.296 51.296 0 0 1 18.974-22.919 51.701 51.701 0 0 1 28.565-8.603 51.04 51.04 0 0 1 19.94 3.753 50.823 50.823 0 0 1 16.873 11.218 50.535 50.535 0 0 1 11.115 16.892 50.317 50.317 0 0 1 3.582 19.871m-14.286 0c0-23.808-15.608-40.204-37.224-40.204-21.615 0-37.223 16.396-37.223 40.204s15.608 40.205 37.223 40.205c21.616 0 37.224-16.397 37.224-40.205m150.698 46.181a2.466 2.466 0 0 1 .31 2.788 2.49 2.49 0 0 1-2.506 1.287h-9.731a1.925 1.925 0 0 1-1.573-.903l-24.424-36.662h-26.247v35.51a2.09 2.09 0 0 1-.615 1.452 2.108 2.108 0 0 1-1.46.612h-9.507a2.105 2.105 0 0 1-1.453-.615 2.08 2.08 0 0 1-.612-1.449V81.9a2.094 2.094 0 0 1 .614-1.446 2.115 2.115 0 0 1 1.451-.618h37.388c26.17 0 39.091 13.68 39.091 31.469a29.525 29.525 0 0 1-6.732 19.431 29.8 29.8 0 0 1-17.822 10.396zm-41.035-45.019c20.578 0 27.492-8.487 27.492-19.939 0-11.453-6.914-19.939-27.492-19.939h-23.145v39.878zM944.499 78.22h3.102a1.965 1.965 0 0 1 1.507.565 1.944 1.944 0 0 1 .568 1.498v98.018a1.932 1.932 0 0 1-.568 1.498 1.956 1.956 0 0 1-1.507.565h-9.506a1.968 1.968 0 0 1-1.506-.565 1.934 1.934 0 0 1-.569-1.498v-69.584l-38.303 55.156a1.569 1.569 0 0 1-1.431.914 1.566 1.566 0 0 1-1.43-.914l-38.295-55.156v69.575a1.946 1.946 0 0 1-2.075 2.063h-9.506a1.952 1.952 0 0 1-2.075-2.063V80.275a1.946 1.946 0 0 1 2.075-2.064h3.068a3.111 3.111 0 0 1 2.592 1.401l45.633 63.394 45.668-63.393a2.983 2.983 0 0 1 2.523-1.402M1103.33 81.9v96.384a2.087 2.087 0 0 1-.62 1.449 2.1 2.1 0 0 1-1.45.614h-9.51a2.123 2.123 0 0 1-1.46-.614 2.087 2.087 0 0 1-.62-1.449v-43.91h-62.89v43.91a2.087 2.087 0 0 1-.62 1.449c-.38.385-.9.605-1.45.614h-9.51a2.123 2.123 0 0 1-1.46-.614c-.38-.385-.6-.905-.61-1.449V81.9c.01-.545.23-1.064.61-1.45.39-.385.91-.605 1.46-.614h9.51c.55.01 1.07.23 1.45.615.39.385.61.904.62 1.449v40.944h62.89V81.9a2.09 2.09 0 0 1 .62-1.45c.39-.385.91-.605 1.46-.614h9.51c.54.01 1.07.23 1.45.615.39.385.61.904.62 1.449m161.61 48.191a51.071 51.071 0 0 1-8.92 28.335 51.474 51.474 0 0 1-23.22 18.658 51.762 51.762 0 0 1-29.72 2.716 51.547 51.547 0 0 1-26.24-14.137 51.06 51.06 0 0 1-10.95-55.784 51.274 51.274 0 0 1 18.97-22.919 51.708 51.708 0 0 1 28.57-8.603 51.068 51.068 0 0 1 19.94 3.753 50.881 50.881 0 0 1 16.87 11.218 50.595 50.595 0 0 1 11.12 16.892 50.422 50.422 0 0 1 3.58 19.871m-14.29 0c0-23.808-15.61-40.204-37.22-40.204-21.62 0-37.23 16.396-37.23 40.204s15.61 40.205 37.23 40.205c21.61 0 37.22-16.397 37.22-40.205m144.4 40.781v7.412c.02.275-.02.551-.12.81-.1.258-.25.493-.45.688-.19.195-.43.347-.69.444-.26.098-.53.139-.81.121h-67.36a2.123 2.123 0 0 1-1.46-.614 2.087 2.087 0 0 1-.62-1.449V81.9a2.09 2.09 0 0 1 .62-1.45c.39-.385.91-.605 1.46-.614h9.5c.55.011 1.07.233 1.46.618.38.384.6.903.61 1.446v86.909H1393c.28-.018.56.023.82.121a1.975 1.975 0 0 1 1.14 1.132c.09.258.14.535.12.81m131.22 0v7.411c.02.276-.02.552-.12.81-.1.259-.25.493-.45.689-.2.195-.43.346-.69.444-.26.097-.54.138-.82.121h-72.74a2.123 2.123 0 0 1-1.46-.614 2.08 2.08 0 0 1-.61-1.45V81.899c0-.544.23-1.064.61-1.449.39-.385.91-.605 1.46-.614h71.09c.28-.018.56.023.82.12a1.98 1.98 0 0 1 1.14 1.133c.09.259.14.535.12.81v7.412c.02.275-.03.552-.12.81a1.98 1.98 0 0 1-1.14 1.132c-.26.098-.54.14-.82.121h-59.53v31.469h52.91a1.95 1.95 0 0 1 1.49.551c.2.191.35.42.45.674.1.253.14.524.13.796v7.454c.02.274-.03.549-.12.805-.1.257-.25.49-.45.684-.19.195-.43.345-.69.443-.25.097-.53.139-.81.123h-52.91v34.435h61.19c.28-.018.56.024.82.121.26.098.49.249.69.444.2.196.35.43.45.689.09.258.14.534.12.81M133.259 267.436c-35.257-.023-69.067-14.066-94.009-39.048C14.308 203.406.27 169.525.215 134.179.27 98.831 14.307 64.949 39.25 39.964S97.999.932 133.259.904c35.26.028 69.069 14.075 94.01 39.06 24.942 24.984 38.98 58.867 39.034 94.215-.054 35.346-14.092 69.227-39.034 94.209-24.943 24.982-58.752 39.025-94.01 39.048m0-256.272c-32.546.023-63.755 12.988-86.778 36.05-23.024 23.061-35.982 54.337-36.031 86.965.031 32.632 12.984 63.916 36.012 86.979 23.028 23.064 54.247 36.018 86.797 36.018 32.551 0 63.77-12.954 86.798-36.018 23.028-23.063 35.98-54.347 36.012-86.979-.05-32.628-13.008-63.904-36.031-86.966-23.024-23.061-54.232-36.026-86.779-36.049"/><path fill="#0F0C48" d="M150.08 246.351a110.164 110.164 0 0 1-77.883-32.358c-20.664-20.699-32.293-48.77-32.339-78.054.046-29.284 11.675-57.354 32.339-78.053a110.168 110.168 0 0 1 77.883-32.359 110.17 110.17 0 0 1 77.884 32.36c20.663 20.698 32.293 48.768 32.338 78.052-.045 29.284-11.675 57.355-32.338 78.054a110.167 110.167 0 0 1-77.884 32.358m0-212.855a102.213 102.213 0 0 0-72.257 30.026c-19.17 19.205-29.958 45.248-30 72.417.046 27.167 10.837 53.206 30.006 72.407a102.212 102.212 0 0 0 72.251 30.02 102.213 102.213 0 0 0 72.251-30.02c19.169-19.201 29.96-45.24 30.005-72.407-.045-27.166-10.836-53.205-30.005-72.406a102.214 102.214 0 0 0-72.251-30.02z"/><path fill="#0F0C48" d="M166.895 225.285a87.357 87.357 0 0 1-61.757-25.659 87.798 87.798 0 0 1-25.643-61.891 87.797 87.797 0 0 1 25.643-61.891 87.357 87.357 0 0 1 61.757-25.659 87.337 87.337 0 0 1 61.761 25.654 87.781 87.781 0 0 1 25.638 61.896 87.796 87.796 0 0 1-25.643 61.891 87.356 87.356 0 0 1-61.756 25.659m0-169.406a81.669 81.669 0 0 0-57.746 23.986 82.079 82.079 0 0 0-23.974 57.87 82.083 82.083 0 0 0 23.98 57.859 81.666 81.666 0 0 0 57.74 23.979 81.666 81.666 0 0 0 57.739-23.979 82.082 82.082 0 0 0 23.981-57.859 82.08 82.08 0 0 0-23.975-57.87 81.667 81.667 0 0 0-57.745-23.986"/><path fill="#0F0C48" d="M183.715 204.2a64.545 64.545 0 0 1-45.63-18.958 64.872 64.872 0 0 1-18.947-45.729 64.877 64.877 0 0 1 18.941-45.74 64.549 64.549 0 0 1 45.636-18.965 64.55 64.55 0 0 1 45.637 18.964 64.873 64.873 0 0 1 18.941 45.741 64.872 64.872 0 0 1-18.947 45.729 64.544 64.544 0 0 1-45.631 18.958m0-125.972a61.138 61.138 0 0 0-43.223 17.963 61.446 61.446 0 0 0-17.942 43.322 61.446 61.446 0 0 0 17.948 43.311 61.142 61.142 0 0 0 43.217 17.957 61.142 61.142 0 0 0 43.218-17.957 61.446 61.446 0 0 0 17.948-43.311 61.445 61.445 0 0 0-17.941-43.322 61.141 61.141 0 0 0-43.225-17.963"/></svg>