<svg xmlns="http://www.w3.org/2000/svg" width="600" height="112" fill="none">
    <g fill="#231F20" clip-path="url(#a)">
        <path
            d="M147.719 106.788 112.123 5.52c-.38-1.142.381-2.284 1.714-2.284h24.745c.762 0 1.333.571 1.714 1.142l16.56 53.108 4.759 16.561c0 .19.19.19.19.19.191 0 .191 0 .191-.19.952-4.378 2.474-9.898 4.568-16.56l16.942-53.109c.19-.761.951-1.142 1.713-1.142h24.365c1.142 0 2.094 1.142 1.713 2.284L175.32 106.788c-.19.761-.951 1.142-1.713 1.142h-24.365c-.761 0-1.332-.381-1.523-1.142M267.829 111.166c-16.941 0-30.266-5.139-39.974-15.609-9.708-10.47-14.467-23.794-14.467-40.164 0-16.18 4.759-28.934 14.467-39.403C237.563 5.33 249.936.19 265.164.19c16.561 0 29.314 5.711 38.261 17.132 8.756 11.231 13.325 25.888 13.515 44.352 0 .952-.762 1.714-1.713 1.714h-72.525c-1.142 0-1.903.951-1.713 2.093 1.333 7.424 3.998 13.135 8.185 17.323 4.569 4.568 10.66 6.852 18.465 6.852 9.898 0 16.37-3.997 19.796-11.992.191-.571.952-.952 1.523-.952h24.175c1.142 0 1.903 1.142 1.713 2.094-2.284 8.947-7.424 16.37-15.038 22.462-8.375 6.662-19.035 9.898-31.979 9.898m-2.094-89.656c-12.944 0-20.939 6.853-23.984 20.558-.191 1.142.571 2.094 1.713 2.094h42.639c.952 0 1.903-.952 1.713-1.904-.761-5.9-2.855-10.66-6.662-14.466-3.998-4.188-9.328-6.282-15.419-6.282M387.376 25.507c0 .952-.761 1.713-1.713 1.713h-28.172c-.952 0-1.713.762-1.713 1.713v77.474c0 .952-.762 1.713-1.713 1.713h-23.414a1.705 1.705 0 0 1-1.713-1.713v-69.86c0-18.464 15.038-33.311 33.312-33.311h23.223c.951 0 1.713.761 1.713 1.713zM443.141 111.166c-15.229 0-27.03-3.236-35.596-9.898-7.995-6.282-11.421-14.658-12.564-25.317 0-.952.762-1.904 1.714-1.904h22.652c.761 0 1.522.571 1.713 1.333 2.094 10.66 8.375 15.99 21.51 15.99 6.281 0 11.04-1.143 14.466-3.237 3.427-2.284 5.14-5.14 5.14-8.756 0-1.332-.19-2.665-.762-3.617-.571-1.142-1.332-2.094-2.474-3.045-1.142-.952-2.284-1.523-3.046-2.094-.952-.571-2.474-1.142-4.568-1.713-2.284-.572-3.807-.952-5.14-1.142-1.142-.19-3.236-.572-6.091-1.143-2.855-.57-4.759-.761-5.901-1.142-5.711-1.142-10.469-2.284-14.086-3.426-3.617-1.142-7.424-2.855-11.421-5.14-3.998-2.284-7.043-5.33-8.947-9.136-2.094-3.808-3.045-8.566-3.045-14.087 0-10.85 3.997-19.225 12.182-24.936C417.062 3.046 427.151 0 439.714 0c13.706 0 24.365 3.046 32.17 9.327 7.233 5.901 10.469 13.706 11.802 23.604.19.952-.762 1.904-1.713 1.904h-22.081c-.762 0-1.523-.572-1.714-1.523-1.522-9.328-7.043-13.896-18.844-13.896-5.711 0-10.089.952-13.325 3.046-3.236 2.093-4.949 4.949-4.949 8.566 0 1.142.19 2.284.761 3.426.571 1.142 1.333 1.903 2.475 2.665 1.142.761 2.284 1.332 3.426 1.903 1.142.571 2.665.952 4.759 1.523 2.094.571 3.807.952 5.33 1.142 1.523.38 3.616.762 6.281 1.142 2.665.571 4.759.762 6.282 1.142 4.378.952 7.995 1.904 10.85 2.475 2.855.761 6.091 1.904 9.898 3.617 3.807 1.713 6.663 3.616 8.757 5.71 2.094 2.094 3.997 4.95 5.52 8.566 1.523 3.617 2.284 7.805 2.284 12.563 0 10.47-4.188 18.655-12.373 24.746-7.995 6.472-18.845 9.518-32.169 9.518M550.889 111.166c-16.941 0-30.266-5.139-39.974-15.609-9.708-10.47-14.467-23.794-14.467-40.164 0-16.18 4.759-28.934 14.467-39.403C520.623 5.33 532.996.19 548.224.19c16.561 0 29.314 5.711 38.261 17.132C595.241 28.553 599.81 43.21 600 61.674c0 .952-.761 1.714-1.713 1.714h-72.524c-1.143 0-1.904.951-1.714 2.093 1.333 7.424 3.998 13.135 8.185 17.323 4.569 4.568 10.66 6.852 18.465 6.852 9.898 0 16.37-3.997 19.796-11.992.191-.571.952-.952 1.523-.952h24.175c1.142 0 1.903 1.142 1.713 2.094-2.284 8.947-7.424 16.37-15.038 22.462-8.375 6.662-19.035 9.898-31.979 9.898m-2.284-89.656c-12.944 0-20.939 6.853-23.985 20.558-.19 1.142.571 2.094 1.714 2.094h42.639c.951 0 1.903-.952 1.713-1.904-.762-5.9-2.856-10.66-6.663-14.466-3.807-4.188-9.137-6.282-15.418-6.282M105.075 106.217V87.181c0-.761-.381-1.522-.762-2.093L23.033 3.617c-.571-.571-1.333-.762-2.094-.762H1.904C.952 2.855.19 3.617.19 4.568v17.703c0 .762.381 1.523.762 2.094L30.076 53.49c.761.762.761 1.713 0 2.475L.57 85.468C.191 85.85 0 86.23 0 86.61v19.416c0 .952.761 1.714 1.713 1.714h31.98c.951 0 1.713-.762 1.713-1.714v-11.42c0-.381.19-.953.57-1.143l15.8-15.8c.761-.76 1.713-.76 2.474 0l29.315 29.315c.57.571 1.332.762 2.094.762h17.702c.952.19 1.714-.572 1.714-1.523M62.248 27.982h15.99c.951 0 1.713.761 1.713 1.713v15.99c0 1.522 1.903 2.284 2.855 1.142l21.891-21.89c.38-.382.571-.762.571-1.143V4.568c0-.951-.762-1.713-1.714-1.713H84.138c-.38 0-.951.19-1.142.571l-21.89 21.7c-1.142.952-.38 2.856 1.142 2.856" />
    </g>
    <defs>
        <clipPath id="a">
            <path fill="#fff" d="M0 0h600v111.166H0z" />
        </clipPath>
    </defs>
</svg>