<svg xmlns="http://www.w3.org/2000/svg" width="110" height="20" fill="none"><g clip-path="url(#a)"><mask id="b" width="110" height="20" x="0" y="0" maskUnits="userSpaceOnUse" style="mask-type:luminance"><path fill="#fff" d="M109.582.06H.693v19.85h108.889z"/></mask><g fill="#231F20" mask="url(#b)"><path d="m27.501 19.129-6.46-18.084c-.069-.204.07-.408.311-.408h4.491c.139 0 .242.102.311.204l3.006 9.484.863 2.957c0 .034.035.034.035.034.034 0 .034 0 .034-.034.173-.782.45-1.767.83-2.957L33.995.84c.035-.136.173-.204.31-.204h4.423c.207 0 .38.204.31.408L32.51 19.13c-.034.136-.172.204-.31.204h-4.422c-.138 0-.242-.068-.277-.204M49.3 19.91c-3.075 0-5.494-.917-7.255-2.787-1.762-1.87-2.626-4.249-2.626-7.172 0-2.89.864-5.167 2.626-7.036C43.806 1.01 46.052.093 48.815.093c3.006 0 5.32 1.02 6.944 3.06 1.59 2.005 2.418 4.622 2.453 7.92 0 .17-.138.305-.311.305H44.739c-.207 0-.345.17-.31.374.241 1.326.725 2.346 1.485 3.094.829.815 1.934 1.223 3.35 1.223 1.797 0 2.971-.714 3.593-2.141.035-.102.173-.17.277-.17h4.387c.207 0 .345.204.31.374-.414 1.597-1.347 2.923-2.728 4.01-1.52 1.19-3.455 1.768-5.804 1.768M48.92 3.9c-2.35 0-3.8 1.224-4.354 3.671-.034.204.104.374.311.374h7.738c.173 0 .346-.17.311-.34-.138-1.053-.518-1.903-1.209-2.583-.725-.748-1.692-1.122-2.798-1.122M70.995 4.614c0 .17-.138.306-.311.306H65.57a.307.307 0 0 0-.31.306v13.835c0 .17-.139.305-.312.305H60.7a.307.307 0 0 1-.31-.305V6.586c0-3.297 2.728-5.949 6.045-5.949h4.214c.173 0 .311.136.311.306zM81.115 19.91c-2.764 0-4.905-.578-6.46-1.767-1.451-1.122-2.073-2.618-2.28-4.521 0-.17.138-.34.31-.34h4.112c.138 0 .276.102.31.238.38 1.904 1.52 2.855 3.904 2.855 1.14 0 2.004-.204 2.626-.578.622-.408.933-.917.933-1.563 0-.238-.035-.476-.139-.646a1.648 1.648 0 0 0-.449-.544c-.207-.17-.414-.272-.553-.374-.172-.102-.449-.204-.829-.306-.414-.102-.69-.17-.932-.204a38.76 38.76 0 0 1-1.106-.204c-.518-.102-.864-.136-1.07-.204-1.037-.203-1.9-.408-2.557-.611a10.811 10.811 0 0 1-2.073-.918c-.725-.408-1.278-.952-1.623-1.632-.38-.68-.553-1.53-.553-2.515 0-1.938.725-3.433 2.21-4.453C76.383.603 78.214.059 80.494.059c2.487 0 4.422.544 5.838 1.666 1.313 1.054 1.9 2.447 2.142 4.215.035.17-.138.34-.31.34h-4.008a.326.326 0 0 1-.311-.272c-.276-1.666-1.278-2.482-3.42-2.482-1.036 0-1.83.17-2.418.544-.587.374-.898.884-.898 1.53 0 .204.034.408.138.612.103.204.242.34.449.476.207.136.415.238.622.34.207.102.483.17.863.272.38.101.691.17.968.203.276.068.656.136 1.14.204.483.102.863.136 1.14.204.794.17 1.45.34 1.969.442.518.136 1.105.34 1.796.646.69.306 1.21.646 1.59 1.02.38.374.725.884 1.001 1.53.276.645.414 1.393.414 2.243 0 1.87-.76 3.331-2.245 4.419-1.45 1.155-3.42 1.7-5.838 1.7M100.669 19.91c-3.074 0-5.492-.917-7.254-2.787-1.762-1.87-2.626-4.249-2.626-7.172 0-2.89.864-5.167 2.626-7.036C95.176 1.01 97.422.093 100.186.093c3.005 0 5.32 1.02 6.943 3.06 1.589 2.005 2.418 4.622 2.453 7.92 0 .17-.138.305-.311.305H96.109c-.207 0-.345.17-.31.374.241 1.326.725 2.346 1.485 3.094.829.815 1.934 1.223 3.351 1.223 1.796 0 2.971-.714 3.592-2.141.035-.102.173-.17.277-.17h4.387c.207 0 .345.204.311.374-.415 1.597-1.347 2.923-2.729 4.01-1.52 1.19-3.455 1.768-5.804 1.768m-.414-16.01c-2.35 0-3.8 1.224-4.353 3.671-.035.204.103.374.311.374h7.738c.173 0 .346-.17.311-.34-.138-1.053-.518-1.903-1.209-2.583-.691-.748-1.658-1.122-2.798-1.122M19.762 19.027v-3.4a.705.705 0 0 0-.138-.374L4.874.705a.525.525 0 0 0-.38-.136H1.038a.307.307 0 0 0-.311.306v3.161c0 .136.069.272.138.374l5.285 5.2c.139.137.139.307 0 .443L.797 15.32c-.07.068-.104.136-.104.204v3.467c0 .17.138.306.311.306h5.804c.172 0 .31-.136.31-.306v-2.039c0-.068.035-.17.104-.204l2.867-2.821c.139-.136.311-.136.45 0l5.32 5.234a.524.524 0 0 0 .38.137h3.212c.173.033.311-.102.311-.273M11.99 5.056h2.902c.173 0 .31.136.31.306v2.855c0 .272.346.408.519.204l3.973-3.909c.069-.068.103-.136.103-.204V.875a.307.307 0 0 0-.31-.306h-3.524c-.07 0-.173.034-.207.102l-3.973 3.875c-.208.17-.07.51.207.51"/></g></g><defs><clipPath id="a"><path fill="#fff" d="M.693 0h108.89v20H.692z"/></clipPath></defs></svg>