<svg width="28" height="28" viewBox="0 0 28 28" fill="none" xmlns="http://www.w3.org/2000/svg">
<g clip-path="url(#clip0_1935_2913)">
<rect width="28" height="28" rx="14" fill="black"/>
<g clip-path="url(#clip1_1935_2913)">
<path d="M17.9643 13.4608C18.7339 13.0656 19.2154 12.3698 19.1029 11.2105C18.9515 9.62618 17.5942 9.09493 15.8808 8.94364L15.8805 6.74609H14.5529L14.5526 8.88584C14.2033 8.88584 13.8472 8.89276 13.4928 8.89993L13.4925 6.74639L12.1661 6.74626L12.1659 8.94326C11.8784 8.94918 11.5961 8.9548 11.3205 8.9548V8.9483L9.48941 8.94755L9.48966 10.376C9.48966 10.376 10.47 10.3574 10.4539 10.3754C10.9914 10.3758 11.1669 10.6904 11.2174 10.9619L11.2178 13.4654V16.9819C11.1941 17.1523 11.0945 17.4246 10.7187 17.4251C10.7358 17.4403 9.75299 17.425 9.75299 17.425L9.48966 19.0223H11.217C11.5388 19.0226 11.8551 19.0277 12.1653 19.0302L12.1665 21.2526L13.4925 21.253L13.4921 19.0538C13.8569 19.0613 14.2091 19.0646 14.553 19.0641L14.5526 21.253H15.8801L15.8809 19.0343C18.1123 18.9051 19.6745 18.3386 19.8687 16.2266C20.0253 14.5262 19.2312 13.7672 17.9643 13.4608ZM13.5245 10.4724C14.2732 10.4724 16.6279 10.2321 16.6282 11.8084C16.6279 13.3196 14.2739 13.1431 13.5245 13.1431V10.4724ZM13.5239 17.436L13.5245 14.4913C14.4241 14.4911 17.2456 14.2304 17.2459 15.963C17.2463 17.6245 14.4241 17.4353 13.5239 17.436Z" fill="white"/>
</g>
</g>
<defs>
<clipPath id="clip0_1935_2913">
<rect width="28" height="28" rx="14" fill="white"/>
</clipPath>
<clipPath id="clip1_1935_2913">
<rect width="11.3014" height="15" fill="white" transform="translate(9 6.5)"/>
</clipPath>
</defs>
</svg>